<?xml version="1.0" encoding="UTF-8" standalone="no"?>
<!-- Created with Inkscape (http://www.inkscape.org/) -->

<svg
   xmlns:dc="http://purl.org/dc/elements/1.1/"
   xmlns:cc="http://creativecommons.org/ns#"
   xmlns:rdf="http://www.w3.org/1999/02/22-rdf-syntax-ns#"
   xmlns:svg="http://www.w3.org/2000/svg"
   xmlns="http://www.w3.org/2000/svg"
   xmlns:sodipodi="http://sodipodi.sourceforge.net/DTD/sodipodi-0.dtd"
   xmlns:inkscape="http://www.inkscape.org/namespaces/inkscape"
   version="1.1"
   id="svg2"
   xml:space="preserve"
   width="446.97556"
   height="197.9799"
   viewBox="0 0 446.97555 197.9799"
   sodipodi:docname="margem_ganho_fase.svg"
   inkscape:version="0.92.3 (2405546, 2018-03-11)"><metadata
     id="metadata8"><rdf:RDF><cc:Work
         rdf:about=""><dc:format>image/svg+xml</dc:format><dc:type
           rdf:resource="http://purl.org/dc/dcmitype/StillImage" /><dc:title></dc:title></cc:Work></rdf:RDF></metadata><defs
     id="defs6"><clipPath
       clipPathUnits="userSpaceOnUse"
       id="clipPath42"><path
         d="m 285.408,139.857 h 63.625 v 24.188 h -63.625 z"
         id="path40"
         inkscape:connector-curvature="0" /></clipPath><clipPath
       clipPathUnits="userSpaceOnUse"
       id="clipPath172"><path
         d="m 163.074,219.95 h 336.64 v 509.518 h -336.64 z"
         id="path170"
         inkscape:connector-curvature="0" /></clipPath><clipPath
       clipPathUnits="userSpaceOnUse"
       id="clipPath776"><path
         d="m 163.074,219.95 h 336.64 v 509.518 h -336.64 z"
         id="path774"
         inkscape:connector-curvature="0" /></clipPath><clipPath
       clipPathUnits="userSpaceOnUse"
       id="clipPath796"><path
         d="m 163.074,219.95 h 336.64 v 509.518 h -336.64 z"
         id="path794"
         inkscape:connector-curvature="0" /></clipPath><clipPath
       clipPathUnits="userSpaceOnUse"
       id="clipPath850"><path
         d="m 163.074,219.95 h 336.64 v 509.518 h -336.64 z"
         id="path848"
         inkscape:connector-curvature="0" /></clipPath><clipPath
       clipPathUnits="userSpaceOnUse"
       id="clipPath946"><path
         d="m 163.074,219.95 h 336.64 v 509.518 h -336.64 z"
         id="path944"
         inkscape:connector-curvature="0" /></clipPath><clipPath
       clipPathUnits="userSpaceOnUse"
       id="clipPath1010"><path
         d="m 163.074,219.95 h 336.64 v 509.518 h -336.64 z"
         id="path1008"
         inkscape:connector-curvature="0" /></clipPath><clipPath
       clipPathUnits="userSpaceOnUse"
       id="clipPath1066"><path
         d="m 163.074,219.95 h 336.64 v 509.518 h -336.64 z"
         id="path1064"
         inkscape:connector-curvature="0" /></clipPath><clipPath
       clipPathUnits="userSpaceOnUse"
       id="clipPath1082"><path
         d="m 163.074,219.95 h 336.64 v 509.518 h -336.64 z"
         id="path1080"
         inkscape:connector-curvature="0" /></clipPath><clipPath
       clipPathUnits="userSpaceOnUse"
       id="clipPath1138"><path
         d="M 0,0 H 623.102 V 821.528 H 0 Z"
         id="path1136"
         inkscape:connector-curvature="0" /></clipPath><clipPath
       clipPathUnits="userSpaceOnUse"
       id="clipPath1234"><path
         d="M 0,0 H 623.102 V 821.528 H 0 Z"
         id="path1232"
         inkscape:connector-curvature="0" /></clipPath><clipPath
       clipPathUnits="userSpaceOnUse"
       id="clipPath796-9"><path
         d="m 163.074,219.95 h 336.64 v 509.518 h -336.64 z"
         id="path794-9"
         inkscape:connector-curvature="0" /></clipPath><clipPath
       clipPathUnits="userSpaceOnUse"
       id="clipPath776-7"><path
         d="m 163.074,219.95 h 336.64 v 509.518 h -336.64 z"
         id="path774-8"
         inkscape:connector-curvature="0" /></clipPath></defs><sodipodi:namedview
     pagecolor="#ffffff"
     bordercolor="#666666"
     borderopacity="1"
     objecttolerance="10"
     gridtolerance="10"
     guidetolerance="10"
     inkscape:pageopacity="0"
     inkscape:pageshadow="2"
     inkscape:window-width="1316"
     inkscape:window-height="728"
     id="namedview4"
     showgrid="false"
     fit-margin-top="0"
     fit-margin-left="0"
     fit-margin-right="0"
     fit-margin-bottom="0"
     inkscape:zoom="0.72125652"
     inkscape:cx="225.98367"
     inkscape:cy="27.691209"
     inkscape:window-x="50"
     inkscape:window-y="0"
     inkscape:window-maximized="1"
     inkscape:current-layer="g10" /><g
     id="g10"
     inkscape:groupmode="layer"
     inkscape:label="engenharia-de-controle-moderno-v2"
     transform="matrix(1.3333333,0,0,-1.3333333,-188.57034,950.55876)"><g
       id="g178"
       transform="translate(175.48871,702.18707)"><path
         d="M 0,0 C 0.828,0 1.691,-0.32 1.979,-0.565 1.196,0.26 0.33,3.97 0,7.35 -0.33,3.97 -1.196,0.26 -1.979,-0.565 -1.691,-0.32 -0.828,0 0,0"
         style="fill:#231f20;fill-opacity:1;fill-rule:nonzero;stroke:none"
         id="path180"
         inkscape:connector-curvature="0" /></g><g
       id="g182"
       transform="translate(286.1828,678.47787)"><path
         d="M 0,0 C 0,-0.829 -0.32,-1.691 -0.564,-1.979 0.26,-1.196 3.971,-0.33 7.351,0 3.971,0.33 0.26,1.196 -0.564,1.979 -0.32,1.69 0,0.828 0,0"
         style="fill:#231f20;fill-opacity:1;fill-rule:nonzero;stroke:none"
         id="path184"
         inkscape:connector-curvature="0" /></g><g
       id="g186"
       transform="translate(287.8164,678.47787)"><path
         d="m 0,0 h -112.328 m 0,-42.016 v 67.359"
         style="fill:none;stroke:#231f20;stroke-width:0.80000001;stroke-linecap:butt;stroke-linejoin:miter;stroke-miterlimit:4;stroke-dasharray:none;stroke-opacity:1"
         id="path188"
         inkscape:connector-curvature="0" /></g><g
       id="g190"
       transform="translate(175.48871,621.78907)"><path
         d="M 0,0 C 0.828,0 1.691,-0.32 1.979,-0.565 1.196,0.26 0.33,3.97 0,7.351 -0.33,3.97 -1.196,0.26 -1.979,-0.565 -1.691,-0.32 -0.828,0 0,0"
         style="fill:#231f20;fill-opacity:1;fill-rule:nonzero;stroke:none"
         id="path192"
         inkscape:connector-curvature="0" /></g><g
       id="g194"
       transform="translate(286.1828,601.78116)"><path
         d="M 0,0 C 0,-0.827 -0.32,-1.691 -0.564,-1.979 0.26,-1.195 3.971,-0.329 7.351,0 3.971,0.33 0.26,1.196 -0.564,1.98 -0.32,1.692 0,0.828 0,0"
         style="fill:#231f20;fill-opacity:1;fill-rule:nonzero;stroke:none"
         id="path196"
         inkscape:connector-curvature="0" /></g><g
       id="g198"
       transform="translate(287.8164,601.78116)"><path
         d="m 0,0 h -112.328 m 0,-37.347 v 58.989"
         style="fill:none;stroke:#231f20;stroke-width:0.80000001;stroke-linecap:butt;stroke-linejoin:miter;stroke-miterlimit:4;stroke-dasharray:none;stroke-opacity:1"
         id="path200"
         inkscape:connector-curvature="0" /></g><g
       id="g202"
       transform="translate(358.2244,702.18707)"><path
         d="M 0,0 C 0.828,0 1.692,-0.32 1.98,-0.565 1.196,0.26 0.33,3.97 0,7.35 -0.329,3.97 -1.194,0.26 -1.978,-0.565 -1.69,-0.32 -0.827,0 0,0"
         style="fill:#231f20;fill-opacity:1;fill-rule:nonzero;stroke:none"
         id="path204"
         inkscape:connector-curvature="0" /></g><g
       id="g206"
       transform="translate(468.9197,678.47787)"><path
         d="M 0,0 C 0,-0.829 -0.321,-1.691 -0.565,-1.979 0.259,-1.196 3.97,-0.33 7.35,0 3.97,0.33 0.259,1.196 -0.565,1.979 -0.321,1.69 0,0.828 0,0"
         style="fill:#231f20;fill-opacity:1;fill-rule:nonzero;stroke:none"
         id="path208"
         inkscape:connector-curvature="0" /></g><g
       id="g210"
       transform="translate(470.5534,678.47787)"><path
         d="m 0,0 h -112.329 m 0,-42.016 v 67.359"
         style="fill:none;stroke:#231f20;stroke-width:0.80000001;stroke-linecap:butt;stroke-linejoin:miter;stroke-miterlimit:4;stroke-dasharray:none;stroke-opacity:1"
         id="path212"
         inkscape:connector-curvature="0" /></g><g
       id="g214"
       transform="translate(358.2244,621.78907)"><path
         d="M 0,0 C 0.828,0 1.692,-0.32 1.98,-0.565 1.196,0.26 0.33,3.97 0,7.351 -0.329,3.97 -1.194,0.26 -1.978,-0.565 -1.69,-0.32 -0.827,0 0,0"
         style="fill:#231f20;fill-opacity:1;fill-rule:nonzero;stroke:none"
         id="path216"
         inkscape:connector-curvature="0" /></g><g
       id="g218"
       transform="translate(468.9197,601.78116)"><path
         d="M 0,0 C 0,-0.827 -0.321,-1.691 -0.565,-1.979 0.259,-1.195 3.97,-0.329 7.35,0 3.97,0.33 0.259,1.196 -0.565,1.98 -0.321,1.692 0,0.828 0,0"
         style="fill:#231f20;fill-opacity:1;fill-rule:nonzero;stroke:none"
         id="path220"
         inkscape:connector-curvature="0" /></g><g
       id="g222"
       transform="translate(470.5534,601.78116)"><path
         d="m 0,0 h -112.329 m 0,-37.347 v 58.989"
         style="fill:none;stroke:#231f20;stroke-width:0.80000001;stroke-linecap:butt;stroke-linejoin:miter;stroke-miterlimit:4;stroke-dasharray:none;stroke-opacity:1"
         id="path224"
         inkscape:connector-curvature="0" /></g><g
       id="g226"
       transform="translate(185.49251,699.15217)"
       style="fill:none;stroke:#2aff80"><path
         d="M 0,0 C 47.352,-23.342 63.931,-28.047 90.701,-72.028 M -10.004,-82.031 c 53.354,0 70.694,-20.675 97.371,-26.01"
         style="fill:none;stroke:#2aff80;stroke-width:1.60099995;stroke-linecap:butt;stroke-linejoin:miter;stroke-miterlimit:4;stroke-dasharray:none;stroke-opacity:1"
         id="path228"
         inkscape:connector-curvature="0" /></g><g
       id="g230"
       transform="translate(182.69171,586.44227)"><path
         d="m 0,0 h -7.203 m 189.939,0 h -7.203"
         style="fill:none;stroke:#231f20;stroke-width:0.40000001;stroke-linecap:butt;stroke-linejoin:miter;stroke-miterlimit:4;stroke-dasharray:none;stroke-opacity:1"
         id="path232"
         inkscape:connector-curvature="0" /></g><g
       id="g234"
       transform="translate(364.895,707.15527)"
       style="fill:none;stroke:#ff2a2a"><path
         d="m 0,0 c 48.018,-15.339 76.695,-77.363 79.362,-88.034 m -86.033,-1.334 c 28.011,-2 34.013,-24.009 82.032,-30.011"
         style="fill:none;stroke:#ff2a2a;stroke-width:1.60099995;stroke-linecap:butt;stroke-linejoin:miter;stroke-miterlimit:4;stroke-dasharray:none;stroke-opacity:1"
         id="path236"
         inkscape:connector-curvature="0" /></g><g
       id="g238"
       transform="translate(225.5079,616.77447)"><path
         d="M 0,0 C -0.694,0 -1.416,0.268 -1.657,0.473 -1.001,-0.218 -0.276,-3.325 0,-6.156 0.276,-3.325 1.001,-0.218 1.657,0.473 1.416,0.268 0.693,0 0,0"
         style="fill:#231f20;fill-opacity:1;fill-rule:nonzero;stroke:none"
         id="path240"
         inkscape:connector-curvature="0" /></g><g
       id="g242"
       transform="translate(225.5079,678.47787)"><path
         d="M 0,0 V -61.703"
         style="fill:none;stroke:#231f20;stroke-width:0.40000001;stroke-linecap:butt;stroke-linejoin:miter;stroke-miterlimit:4;stroke-dasharray:3.001, 1.501;stroke-dashoffset:0;stroke-opacity:1"
         id="path244"
         inkscape:connector-curvature="0" /></g><g
       id="g246"
       transform="translate(244.0147,659.13687)"><path
         d="M 0,0 C 0.693,0 1.417,-0.268 1.658,-0.473 1.001,0.218 0.276,3.325 0,6.156 -0.276,3.325 -1.001,0.218 -1.658,-0.473 -1.416,-0.268 -0.693,0 0,0"
         style="fill:#231f20;fill-opacity:1;fill-rule:nonzero;stroke:none"
         id="path248"
         inkscape:connector-curvature="0" /></g><g
       id="g250"
       transform="translate(244.0147,601.78116)"><path
         d="M 0,0 V 57.356"
         style="fill:none;stroke:#231f20;stroke-width:0.40000001;stroke-linecap:butt;stroke-linejoin:miter;stroke-miterlimit:4;stroke-dasharray:3.001, 1.501;stroke-dashoffset:0;stroke-opacity:1"
         id="path252"
         inkscape:connector-curvature="0" /></g><g
       id="g254"
       transform="translate(406.5769,607.93857)"><path
         d="M 0,0 C -0.693,0 -1.415,0.267 -1.657,0.472 -1.001,-0.219 -0.276,-3.326 0,-6.157 0.276,-3.326 1.001,-0.219 1.658,0.472 1.416,0.267 0.694,0 0,0"
         style="fill:#231f20;fill-opacity:1;fill-rule:nonzero;stroke:none"
         id="path256"
         inkscape:connector-curvature="0" /></g><g
       id="g258"
       transform="translate(406.5769,678.47787)"
       style="fill:#ff7f2a"><path
         d="M 0,0 V -70.539"
         style="fill:#ff7f2a;stroke:#231f20;stroke-width:0.40000001;stroke-linecap:butt;stroke-linejoin:miter;stroke-miterlimit:4;stroke-dasharray:3.001, 1.501;stroke-dashoffset:0;stroke-opacity:1"
         id="path260"
         inkscape:connector-curvature="0" /></g><g
       id="g262"
       transform="translate(396.0729,672.32107)"><path
         d="M 0,0 C 0.694,0 1.415,-0.268 1.658,-0.473 1.001,0.218 0.276,3.326 0,6.157 -0.276,3.326 -1.002,0.218 -1.658,-0.473 -1.416,-0.268 -0.693,0 0,0"
         style="fill:#231f20;fill-opacity:1;fill-rule:nonzero;stroke:none"
         id="path264"
         inkscape:connector-curvature="0" /></g><g
       id="g266"
       transform="translate(396.0729,601.78116)"
       style="fill:#ff7f2a"><path
         d="M 0,0 V 70.54"
         style="fill:#ff7f2a;stroke:#231f20;stroke-width:0.40000001;stroke-linecap:butt;stroke-linejoin:miter;stroke-miterlimit:4;stroke-dasharray:3.001, 1.501;stroke-dashoffset:0;stroke-opacity:1"
         id="path268"
         inkscape:connector-curvature="0" /></g><g
       id="g270"
       transform="translate(244.0147,684.63397)"><path
         d="M 0,0 C -0.693,0 -1.416,0.268 -1.657,0.473 -1.001,-0.218 -0.276,-3.325 0,-6.156 0.276,-3.325 1.001,-0.218 1.658,0.473 1.417,0.268 0.693,0 0,0"
         style="fill:#231f20;fill-opacity:1;fill-rule:nonzero;stroke:none"
         id="path272"
         inkscape:connector-curvature="0" /></g><g
       id="g274"
       transform="translate(244.0147,691.42027)"><path
         d="M 0,0 V -6.786"
         style="fill:none;stroke:#231f20;stroke-width:0.40000001;stroke-linecap:butt;stroke-linejoin:miter;stroke-miterlimit:4;stroke-dasharray:none;stroke-opacity:1"
         id="path276"
         inkscape:connector-curvature="0" /></g><g
       id="g278"
       transform="translate(396.0729,696.17837)"><path
         d="M 0,0 C -0.693,0 -1.416,0.268 -1.657,0.473 -1.001,-0.218 -0.276,-3.325 0,-6.156 0.276,-3.325 1.001,-0.218 1.658,0.473 1.415,0.268 0.694,0 0,0"
         style="fill:#231f20;fill-opacity:1;fill-rule:nonzero;stroke:none"
         id="path280"
         inkscape:connector-curvature="0" /></g><g
       id="g282"
       transform="translate(396.0729,702.96467)"><path
         d="M 0,0 V -6.786"
         style="fill:none;stroke:#231f20;stroke-width:0.40000001;stroke-linecap:butt;stroke-linejoin:miter;stroke-miterlimit:4;stroke-dasharray:none;stroke-opacity:1"
         id="path284"
         inkscape:connector-curvature="0" /></g><g
       id="g286"
       transform="translate(225.5079,595.62477)"><path
         d="M 0,0 C 0.693,0 1.416,-0.268 1.657,-0.472 1.001,0.218 0.276,3.325 0,6.156 -0.276,3.325 -1.002,0.218 -1.658,-0.472 -1.416,-0.268 -0.694,0 0,0"
         style="fill:#231f20;fill-opacity:1;fill-rule:nonzero;stroke:none"
         id="path288"
         inkscape:connector-curvature="0" /></g><g
       id="g290"
       transform="translate(225.5079,588.83916)"><path
         d="M 0,0 V 6.786"
         style="fill:none;stroke:#231f20;stroke-width:0.40000001;stroke-linecap:butt;stroke-linejoin:miter;stroke-miterlimit:4;stroke-dasharray:none;stroke-opacity:1"
         id="path292"
         inkscape:connector-curvature="0" /></g><g
       id="g318"
       transform="translate(251.3695,677.99557)"><path
         d="m 0,0 c -0.49,0.491 -0.812,1.191 -0.838,1.506 -0.024,-0.952 -1.709,-3.662 -3.516,-5.859 2.198,1.807 4.908,3.491 5.861,3.515 C 1.19,-0.812 0.49,-0.49 0,0"
         style="fill:#231f20;fill-opacity:1;fill-rule:nonzero;stroke:none"
         id="path320"
         inkscape:connector-curvature="0" /></g><g
       id="g322"
       transform="translate(264.7726,691.39927)"><path
         d="M 0,0 -13.403,-13.404"
         style="fill:none;stroke:#231f20;stroke-width:0.40000001;stroke-linecap:butt;stroke-linejoin:miter;stroke-miterlimit:4;stroke-dasharray:none;stroke-opacity:1"
         id="path324"
         inkscape:connector-curvature="0" /></g><g
       id="g326"
       transform="translate(401.4269,687.99947)"><path
         d="m 0,0 c -0.49,0.49 -0.812,1.191 -0.837,1.506 -0.025,-0.952 -1.71,-3.662 -3.517,-5.859 2.198,1.807 4.908,3.491 5.861,3.515 C 1.19,-0.812 0.49,-0.49 0,0"
         style="fill:#231f20;fill-opacity:1;fill-rule:nonzero;stroke:none"
         id="path328"
         inkscape:connector-curvature="0" /></g><g
       id="g330"
       transform="translate(414.83,701.40307)"><path
         d="M 0,0 -13.403,-13.404"
         style="fill:none;stroke:#231f20;stroke-width:0.40000001;stroke-linecap:butt;stroke-linejoin:miter;stroke-miterlimit:4;stroke-dasharray:none;stroke-opacity:1"
         id="path332"
         inkscape:connector-curvature="0" /></g><g
       id="g334"
       transform="translate(220.6544,601.26297)"><path
         d="M 0,0 C 0.49,-0.49 0.811,-1.19 0.838,-1.506 0.862,-0.554 2.547,2.156 4.353,4.354 2.156,2.547 -0.554,0.862 -1.506,0.838 -1.191,0.812 -0.49,0.49 0,0"
         style="fill:#231f20;fill-opacity:1;fill-rule:nonzero;stroke:none"
         id="path336"
         inkscape:connector-curvature="0" /></g><g
       id="g338"
       transform="translate(209.25161,589.86057)"><path
         d="M 0,0 11.403,11.402"
         style="fill:none;stroke:#231f20;stroke-width:0.40000001;stroke-linecap:butt;stroke-linejoin:miter;stroke-miterlimit:4;stroke-dasharray:none;stroke-opacity:1"
         id="path340"
         inkscape:connector-curvature="0" /></g><g
       id="g342"
       transform="translate(401.724,595.76076)"><path
         d="m 0,0 c 0.49,-0.49 0.811,-1.19 0.837,-1.506 0.025,0.952 1.71,3.662 3.516,5.86 C 2.156,2.547 -0.554,0.862 -1.507,0.838 -1.191,0.812 -0.49,0.49 0,0"
         style="fill:#231f20;fill-opacity:1;fill-rule:nonzero;stroke:none"
         id="path344"
         inkscape:connector-curvature="0" /></g><g
       id="g346"
       transform="translate(390.3207,584.35847)"><path
         d="M 0,0 11.403,11.402"
         style="fill:none;stroke:#231f20;stroke-width:0.40000001;stroke-linecap:butt;stroke-linejoin:miter;stroke-miterlimit:4;stroke-dasharray:none;stroke-opacity:1"
         id="path348"
         inkscape:connector-curvature="0" /></g><g
       id="g350"
       transform="translate(406.5769,590.11067)"><path
         d="M 0,0 C 0.694,0 1.416,-0.268 1.658,-0.473 1.001,0.218 0.276,3.324 0,6.156 -0.276,3.324 -1.002,0.218 -1.658,-0.473 -1.415,-0.268 -0.693,0 0,0"
         style="fill:#231f20;fill-opacity:1;fill-rule:nonzero;stroke:none"
         id="path352"
         inkscape:connector-curvature="0" /></g><g
       id="g354"
       transform="translate(406.5769,583.32407)"><path
         d="M 0,0 V 6.787"
         style="fill:none;stroke:#231f20;stroke-width:0.40000001;stroke-linecap:butt;stroke-linejoin:miter;stroke-miterlimit:4;stroke-dasharray:none;stroke-opacity:1"
         id="path356"
         inkscape:connector-curvature="0" /></g><g
       id="g358"
       transform="translate(171.48721,689.26557)"><path
         d="M 0,0 C 0.693,0 1.416,-0.268 1.657,-0.473 1.001,0.218 0.276,3.325 0,6.156 -0.277,3.325 -1.002,0.218 -1.658,-0.473 -1.416,-0.268 -0.694,0 0,0"
         style="fill:#231f20;fill-opacity:1;fill-rule:nonzero;stroke:none"
         id="path360"
         inkscape:connector-curvature="0" /></g><g
       id="g362"
       transform="translate(171.48721,682.47937)"><path
         d="M 0,0 V 6.786"
         style="fill:none;stroke:#231f20;stroke-width:0.40000001;stroke-linecap:butt;stroke-linejoin:miter;stroke-miterlimit:4;stroke-dasharray:none;stroke-opacity:1"
         id="path364"
         inkscape:connector-curvature="0" /></g><g
       id="g366"
       transform="translate(171.48721,667.68947)"><path
         d="M 0,0 C -0.694,0 -1.416,0.269 -1.657,0.473 -1.001,-0.218 -0.277,-3.325 0,-6.156 0.276,-3.325 1.001,-0.218 1.657,0.473 1.416,0.269 0.693,0 0,0"
         style="fill:#231f20;fill-opacity:1;fill-rule:nonzero;stroke:none"
         id="path368"
         inkscape:connector-curvature="0" /></g><g
       id="g370"
       transform="translate(171.48721,674.47627)"><path
         d="M 0,0 V -6.787"
         style="fill:none;stroke:#231f20;stroke-width:0.40000001;stroke-linecap:butt;stroke-linejoin:miter;stroke-miterlimit:4;stroke-dasharray:none;stroke-opacity:1"
         id="path372"
         inkscape:connector-curvature="0" /></g><g
       id="g374"
       transform="translate(354.2228,689.26557)"><path
         d="M 0,0 C 0.695,0 1.417,-0.268 1.659,-0.473 1.002,0.218 0.278,3.325 0,6.156 -0.275,3.325 -1.001,0.218 -1.657,-0.473 -1.416,-0.268 -0.692,0 0,0"
         style="fill:#231f20;fill-opacity:1;fill-rule:nonzero;stroke:none"
         id="path376"
         inkscape:connector-curvature="0" /></g><g
       id="g378"
       transform="translate(354.2228,682.47937)"><path
         d="M 0,0 V 6.786"
         style="fill:none;stroke:#231f20;stroke-width:0.40000001;stroke-linecap:butt;stroke-linejoin:miter;stroke-miterlimit:4;stroke-dasharray:none;stroke-opacity:1"
         id="path380"
         inkscape:connector-curvature="0" /></g><g
       id="g382"
       transform="translate(354.2228,667.68947)"><path
         d="M 0,0 C -0.692,0 -1.416,0.269 -1.657,0.473 -1.001,-0.218 -0.275,-3.325 0,-6.156 0.278,-3.325 1.002,-0.218 1.659,0.473 1.417,0.269 0.695,0 0,0"
         style="fill:#231f20;fill-opacity:1;fill-rule:nonzero;stroke:none"
         id="path384"
         inkscape:connector-curvature="0" /></g><g
       id="g386"
       transform="translate(354.2228,674.47627)"><path
         d="M 0,0 V -6.787"
         style="fill:none;stroke:#231f20;stroke-width:0.40000001;stroke-linecap:butt;stroke-linejoin:miter;stroke-miterlimit:4;stroke-dasharray:none;stroke-opacity:1"
         id="path388"
         inkscape:connector-curvature="0" /></g><text
       y="162.01671"
       x="648.06744"
       transform="matrix(0,1,1,0,0,0)"
       style="font-variant:normal;font-weight:normal;font-stretch:normal;font-size:8.0031004px;font-family:'BHPCM J +Times New Roman PSMT';-inkscape-font-specification:TimesNewRomanPSMT;writing-mode:lr-tb;fill:#231f20;fill-opacity:1;fill-rule:nonzero;stroke:none;stroke-width:0.99999994"
       id="text688"><tspan
         style="stroke-width:0.99999994"
         x="648.06744"
         y="162.01671"
         id="tspan686">|</tspan></text>
<text
       transform="matrix(0,1,1,0,0,0)"
       style="font-style:italic;font-variant:normal;font-weight:normal;font-stretch:normal;font-size:8.0031004px;font-family:'EGFAB P +Times New Roman PSMT';-inkscape-font-specification:TimesNewRomanPS-ItalicMT;writing-mode:lr-tb;fill:#231f20;fill-opacity:1;fill-rule:nonzero;stroke:none;stroke-width:0.99999994"
       id="text692"
       x="651.18964"
       y="162.60173"><tspan
         x="651.18964"
         y="162.60173"
         id="tspan690"
         style="font-style:italic;font-variant:normal;font-weight:normal;font-stretch:normal;font-family:times;-inkscape-font-specification:'times Italic';stroke-width:0.99999994">G</tspan></text>
<text
       y="162.01671"
       x="656.08655"
       transform="matrix(0,1,1,0,0,0)"
       style="font-variant:normal;font-weight:normal;font-stretch:normal;font-size:8.0031004px;font-family:'BHPCM J +Times New Roman PSMT';-inkscape-font-specification:TimesNewRomanPSMT;writing-mode:lr-tb;fill:#231f20;fill-opacity:1;fill-rule:nonzero;stroke:none;stroke-width:0.99999994"
       id="text698"><tspan
         style="stroke-width:0.99999994"
         x="656.08655 657.68719 659.68793 663.24133 669.46771 671.46851 675.47009"
         y="162.01671"
         sodipodi:role="line"
         id="tspan694">| em dB</tspan><tspan
         style="stroke-width:0.99999994"
         x="648.06744"
         y="346.75226"
         id="tspan696">|</tspan></text>
<text
       transform="matrix(0,1,1,0,0,0)"
       style="font-style:italic;font-variant:normal;font-weight:normal;font-stretch:normal;font-size:8.0031004px;font-family:'Times New Roman';-inkscape-font-specification:'Times New Roman, Italic';writing-mode:lr-tb;fill:#231f20;fill-opacity:1;fill-rule:nonzero;stroke:none;stroke-width:0.99999994"
       id="text702"
       x="650.95337"
       y="347.57956"><tspan
         x="650.95337"
         y="347.57956"
         id="tspan700"
         style="font-style:italic;font-variant:normal;font-weight:normal;font-stretch:normal;font-family:'Times New Roman';-inkscape-font-specification:'Times New Roman,  Italic';stroke-width:0.99999994">G</tspan></text>
<text
       y="346.75226"
       x="656.08655"
       transform="matrix(0,1,1,0,0,0)"
       style="font-variant:normal;font-weight:normal;font-stretch:normal;font-size:8.0031004px;font-family:'BHPCM J +Times New Roman PSMT';-inkscape-font-specification:TimesNewRomanPSMT;writing-mode:lr-tb;fill:#231f20;fill-opacity:1;fill-rule:nonzero;stroke:none;stroke-width:0.99999994"
       id="text706"><tspan
         style="stroke-width:0.99999994"
         x="656.08655 657.68719 659.68793 663.24133 669.46771 671.46851 675.47009"
         y="346.75226"
         sodipodi:role="line"
         id="tspan704">| em dB</tspan></text>
<text
       y="-676.47705"
       x="169.4864"
       style="font-variant:normal;font-weight:normal;font-stretch:normal;font-size:8.0031004px;font-family:'BHPCM J +Times New Roman PSMT';-inkscape-font-specification:TimesNewRomanPSMT;writing-mode:lr-tb;fill:#231f20;fill-opacity:1;fill-rule:nonzero;stroke:none;stroke-width:0.99999994"
       id="text720"
       transform="scale(1,-1)"><tspan
         style="stroke-width:0.99999994"
         x="169.4864"
         y="-676.47705"
         id="tspan708">0</tspan><tspan
         style="stroke-width:0.99999994"
         x="169.23032"
         y="-697.42114"
         id="tspan710">+</tspan><tspan
         style="stroke-width:0.99999994"
         x="169.4864"
         y="-655.53296"
         id="tspan712">–</tspan><tspan
         style="stroke-width:0.99999994"
         x="352.22119"
         y="-676.47705"
         id="tspan714">0</tspan><tspan
         style="stroke-width:0.99999994"
         x="351.96509"
         y="-697.42114"
         id="tspan716">+</tspan><tspan
         style="stroke-width:0.99999994"
         x="352.22119"
         y="-655.53296"
         id="tspan718">–</tspan></text>
<text
       y="-324.61298"
       x="172.23361"
       style="font-variant:normal;font-weight:normal;font-stretch:normal;font-size:8.0031004px;font-family:'BHPCM J +Times New Roman PSMT';-inkscape-font-specification:TimesNewRomanPSMT;writing-mode:lr-tb;fill:#231f20;fill-opacity:1;fill-rule:nonzero;stroke:none;stroke-width:0.99999994"
       id="text768"
       transform="scale(1,-1)"><tspan
         style="stroke-width:0.99999994"
         x="156.28343 160.28497 164.28653 168.28807"
         y="-615.12549"
         sodipodi:role="line"
         id="tspan756">–90°</tspan><tspan
         style="stroke-width:0.99999994"
         x="152.28188 156.28343 160.28497 164.28653 168.28807"
         y="-599.78351"
         sodipodi:role="line"
         id="tspan758">–180°</tspan><tspan
         style="stroke-width:0.99999994"
         x="152.28188 156.28343 160.28497 164.28653 168.28807"
         y="-584.44159"
         sodipodi:role="line"
         id="tspan760">–270°</tspan><tspan
         style="stroke-width:0.99999994"
         x="339.01822 343.01974 347.0213 351.02289"
         y="-615.11749"
         sodipodi:role="line"
         id="tspan762">–90°</tspan><tspan
         style="stroke-width:0.99999994"
         x="335.01666 339.01822 343.01974 347.0213 351.02289"
         y="-599.77551"
         sodipodi:role="line"
         id="tspan764">–180°</tspan><tspan
         style="stroke-width:0.99999994"
         x="335.01666 339.01822 343.01974 347.0213 351.02289"
         y="-584.43359"
         sodipodi:role="line"
         id="tspan766">–270°</tspan></text>
<g
       transform="translate(-22.502796,-18.363329)"
       id="g770"><g
         id="g772"
         clip-path="url(#clipPath776-7)"><text
           transform="matrix(0,1,1,0,169.7248,618.7279)"
           style="font-style:italic;font-variant:normal;font-weight:normal;font-stretch:normal;font-size:8.0031004px;font-family:'EGFAB P +Times New Roman PSMT';-inkscape-font-specification:TimesNewRomanPS-ItalicMT;writing-mode:lr-tb;fill:#231f20;fill-opacity:1;fill-rule:nonzero;stroke:none"
           id="text780"><tspan
             x="0"
             y="0"
             id="tspan778">G</tspan></text>
<g
           id="g782"
           transform="translate(164.0742,619.3141)"><path
             d="M 0,0 0.208,0.264 6.44,-3.87 v 8.52 h 0.336 v -9.202 z"
             style="fill:#231f20;fill-opacity:1;fill-rule:nonzero;stroke:none"
             id="path784"
             inkscape:connector-curvature="0" /></g></g></g><text
       y="329.29132"
       x="600.36456"
       transform="matrix(0,1,1,0,0,0)"
       style="font-style:italic;font-variant:normal;font-weight:normal;font-stretch:normal;font-size:8.0031004px;font-family:'EGFAB P +Times New Roman PSMT';-inkscape-font-specification:TimesNewRomanPS-ItalicMT;writing-mode:lr-tb;fill:#231f20;fill-opacity:1;fill-rule:nonzero;stroke:none;stroke-width:0.99999994"
       id="text788"><tspan
         style="stroke-width:0.99999994"
         x="600.36456"
         y="329.29132"
         id="tspan786">G</tspan></text>
<g
       transform="translate(-22.502796,-18.363329)"
       id="g790"><g
         id="g792"
         clip-path="url(#clipPath796-9)"><g
           id="g798"
           transform="translate(346.144,619.3141)"><path
             d="M 0,0 0.208,0.264 6.44,-3.87 v 8.52 h 0.336 v -9.202 z"
             style="fill:#231f20;fill-opacity:1;fill-rule:nonzero;stroke:none"
             id="path800"
             inkscape:connector-curvature="0" /></g></g></g><text
       style="font-variant:normal;font-weight:normal;font-stretch:normal;font-size:8.0031004px;font-family:'BHPCM J +Times New Roman PSMT';-inkscape-font-specification:TimesNewRomanPSMT;writing-mode:lr-tb;fill:#231f20;fill-opacity:1;fill-rule:nonzero;stroke:none;stroke-width:0.99999994"
       id="text828"
       x="459.79498"
       y="-594.41461"
       transform="scale(1,-1)"><tspan
         style="stroke-width:0.99999994"
         x="459.79498"
         sodipodi:role="line"
         id="tspan826"
         y="-594.41461">log</tspan></text>
<text
       y="-594.41461"
       x="471.68875"
       style="font-variant:normal;font-weight:normal;font-stretch:normal;font-size:8.0031004px;font-family:'MMa Greek';-inkscape-font-specification:MMaGreek-Regular;writing-mode:lr-tb;fill:#231f20;fill-opacity:1;fill-rule:nonzero;stroke:none;stroke-width:0.99999994"
       id="text832"
       transform="scale(1,-1)"><tspan
         x="471.68875"
         y="-594.41461"
         id="tspan830"
         style="font-style:normal;font-variant:normal;font-weight:normal;font-stretch:normal;font-family:'Times New Roman';-inkscape-font-specification:'Times New Roman, ';stroke-width:0.99999994">ω</tspan></text>
<text
       id="text1899"
       style="font-variant:normal;font-weight:normal;font-stretch:normal;font-size:8.0031004px;font-family:'BHPCM J +Times New Roman PSMT';-inkscape-font-specification:TimesNewRomanPSMT;writing-mode:lr-tb;fill:#231f20;fill-opacity:1;fill-rule:nonzero;stroke:none;stroke-width:0.99999994"
       x="284.47861"
       y="-706.83673"
       transform="scale(1,-1)"><tspan
         id="tspan1839"
         sodipodi:role="line"
         y="-706.83673"
         x="284.47861"
         style="text-align:center;text-anchor:middle;stroke-width:0.99999994">Margem de</tspan><tspan
         sodipodi:role="line"
         y="-696.83289"
         x="284.47861"
         id="tspan2383"
         style="text-align:center;text-anchor:middle;stroke-width:0.99999994">ganho positiva</tspan></text>
<text
       y="-584.67657"
       x="204.25223"
       style="font-variant:normal;font-weight:normal;font-stretch:normal;font-size:6.85932112px;font-family:'BHPCM J +Times New Roman PSMT';-inkscape-font-specification:TimesNewRomanPSMT;writing-mode:lr-tb;fill:#231f20;fill-opacity:1;fill-rule:nonzero;stroke:none;stroke-width:0.85708302"
       id="text2389"
       transform="scale(1,-1)"><tspan
         style="text-align:center;text-anchor:middle;stroke-width:0.85708302"
         x="204.25223"
         y="-584.67657"
         sodipodi:role="line"
         id="tspan2385">Margem de</tspan><tspan
         style="text-align:center;text-anchor:middle;stroke-width:0.85708302"
         id="tspan2387"
         x="204.25223"
         y="-576.10242"
         sodipodi:role="line">fase positiva</tspan></text>
<text
       y="-702.33673"
       x="440.47858"
       style="font-variant:normal;font-weight:normal;font-stretch:normal;font-size:8.0031004px;font-family:'BHPCM J +Times New Roman PSMT';-inkscape-font-specification:TimesNewRomanPSMT;writing-mode:lr-tb;fill:#231f20;fill-opacity:1;fill-rule:nonzero;stroke:none;stroke-width:0.99999994"
       id="text2399"
       transform="scale(1,-1)"><tspan
         style="text-align:center;text-anchor:middle;stroke-width:0.99999994"
         x="440.47858"
         y="-702.33673"
         sodipodi:role="line"
         id="tspan2395">Margem de</tspan><tspan
         style="text-align:center;text-anchor:middle;stroke-width:0.99999994"
         id="tspan2397"
         x="440.47858"
         y="-692.33289"
         sodipodi:role="line">ganho negativa</tspan></text>
<text
       id="text2405"
       style="font-variant:normal;font-weight:normal;font-stretch:normal;font-size:6.36913061px;font-family:'BHPCM J +Times New Roman PSMT';-inkscape-font-specification:TimesNewRomanPSMT;writing-mode:lr-tb;fill:#231f20;fill-opacity:1;fill-rule:nonzero;stroke:none;stroke-width:0.79583287"
       x="383.58786"
       y="-579.50494"
       transform="scale(1,-1)"><tspan
         id="tspan2401"
         sodipodi:role="line"
         y="-579.50494"
         x="383.58786"
         style="text-align:center;text-anchor:middle;stroke-width:0.79583287">Margem de</tspan><tspan
         sodipodi:role="line"
         y="-571.54352"
         x="383.58786"
         id="tspan2403"
         style="text-align:center;text-anchor:middle;stroke-width:0.79583287">fase negativa</tspan></text>
<text
       y="-670.13458"
       x="459.79498"
       id="text2409"
       style="font-variant:normal;font-weight:normal;font-stretch:normal;font-size:8.0031004px;font-family:'BHPCM J +Times New Roman PSMT';-inkscape-font-specification:TimesNewRomanPSMT;writing-mode:lr-tb;fill:#231f20;fill-opacity:1;fill-rule:nonzero;stroke:none;stroke-width:0.99999994"
       transform="scale(1,-1)"><tspan
         style="stroke-width:0.99999994"
         y="-670.13458"
         id="tspan2407"
         sodipodi:role="line"
         x="459.79498">log</tspan></text>
<text
       id="text2413"
       style="font-variant:normal;font-weight:normal;font-stretch:normal;font-size:8.0031004px;font-family:'MMa Greek';-inkscape-font-specification:MMaGreek-Regular;writing-mode:lr-tb;fill:#231f20;fill-opacity:1;fill-rule:nonzero;stroke:none;stroke-width:0.99999994"
       x="471.68875"
       y="-670.13458"
       transform="scale(1,-1)"><tspan
         style="font-style:normal;font-variant:normal;font-weight:normal;font-stretch:normal;font-family:'Times New Roman';-inkscape-font-specification:'Times New Roman, ';stroke-width:0.99999994"
         id="tspan2411"
         y="-670.13458"
         x="471.68875">ω</tspan></text>
<text
       style="font-variant:normal;font-weight:normal;font-stretch:normal;font-size:8.0031004px;font-family:'BHPCM J +Times New Roman PSMT';-inkscape-font-specification:TimesNewRomanPSMT;writing-mode:lr-tb;fill:#231f20;fill-opacity:1;fill-rule:nonzero;stroke:none;stroke-width:0.99999994"
       id="text2417"
       x="276.24347"
       y="-670.13458"
       transform="scale(1,-1)"><tspan
         style="stroke-width:0.99999994"
         x="276.24347"
         sodipodi:role="line"
         id="tspan2415"
         y="-670.13458">log</tspan></text>
<text
       y="-670.13458"
       x="288.13727"
       style="font-variant:normal;font-weight:normal;font-stretch:normal;font-size:8.0031004px;font-family:'MMa Greek';-inkscape-font-specification:MMaGreek-Regular;writing-mode:lr-tb;fill:#231f20;fill-opacity:1;fill-rule:nonzero;stroke:none;stroke-width:0.99999994"
       id="text2421"
       transform="scale(1,-1)"><tspan
         x="288.13727"
         y="-670.13458"
         id="tspan2419"
         style="font-style:normal;font-variant:normal;font-weight:normal;font-stretch:normal;font-family:'Times New Roman';-inkscape-font-specification:'Times New Roman, ';stroke-width:0.99999994">ω</tspan></text>
<text
       y="-594.39923"
       x="276.24347"
       id="text2437"
       style="font-variant:normal;font-weight:normal;font-stretch:normal;font-size:8.0031004px;font-family:'BHPCM J +Times New Roman PSMT';-inkscape-font-specification:TimesNewRomanPSMT;writing-mode:lr-tb;fill:#231f20;fill-opacity:1;fill-rule:nonzero;stroke:none;stroke-width:0.99999994"
       transform="scale(1,-1)"><tspan
         style="stroke-width:0.99999994"
         y="-594.39923"
         id="tspan2435"
         sodipodi:role="line"
         x="276.24347">log</tspan></text>
<text
       id="text2441"
       style="font-variant:normal;font-weight:normal;font-stretch:normal;font-size:8.0031004px;font-family:'MMa Greek';-inkscape-font-specification:MMaGreek-Regular;writing-mode:lr-tb;fill:#231f20;fill-opacity:1;fill-rule:nonzero;stroke:none;stroke-width:0.99999994"
       x="288.13727"
       y="-594.39923"
       transform="scale(1,-1)"><tspan
         style="font-style:normal;font-variant:normal;font-weight:normal;font-stretch:normal;font-family:'Times New Roman';-inkscape-font-specification:'Times New Roman, ';stroke-width:0.99999994"
         id="tspan2439"
         y="-594.39923"
         x="288.13727">ω</tspan></text>
</g></svg>