<?xml version="1.0" encoding="UTF-8" standalone="no"?>
<svg
   xmlns:dc="http://purl.org/dc/elements/1.1/"
   xmlns:cc="http://creativecommons.org/ns#"
   xmlns:rdf="http://www.w3.org/1999/02/22-rdf-syntax-ns#"
   xmlns:svg="http://www.w3.org/2000/svg"
   xmlns="http://www.w3.org/2000/svg"
   viewBox="0 0 774.66669 892"
   height="892"
   width="774.66669"
   xml:space="preserve"
   id="svg2"
   version="1.1"><metadata
     id="metadata8"><rdf:RDF><cc:Work
         rdf:about=""><dc:format>image/svg+xml</dc:format><dc:type
           rdf:resource="http://purl.org/dc/dcmitype/StillImage" /></cc:Work></rdf:RDF></metadata><defs
     id="defs6" /><g
     transform="matrix(1.3333333,0,0,-1.3333333,0,892)"
     id="g10"><g
       transform="scale(0.1)"
       id="g12"><path
         id="path14"
         style="fill:#ffffff;fill-opacity:1;fill-rule:nonzero;stroke:none"
         d="m 3462.34,3070.04 v 100.16 h 28.56 v -100.16 z m 51.45,53.4 v -6.64 h -17.15 l -5.74,6.64 z" /><path
         id="path16"
         style="fill:#231f20;fill-opacity:1;fill-rule:nonzero;stroke:none"
         d="m 3468.09,3116.8 -5.59,-13.36 h -17.11 v 13.36 z" /><path
         id="path18"
         style="fill:#285256;fill-opacity:1;fill-rule:nonzero;stroke:none"
         d="M 3256.68,3123.44 V 1814.69 l 5.9,-6.68 h 11.44 l 11.41,-6.72 h 57.15 v 46.76 l -5.74,6.68 -5.75,6.72 -5.74,13.35 v 20 l 5.74,6.68 5.75,13.36 5.74,6.64 11.33,6.72 h 40.11 l 5.63,-6.72 11.44,-6.64 5.75,-20.04 v -20 l -5.86,-13.35 -5.75,-13.4 v -46.76 h 137.04 v 46.76 l -5.9,6.68 -5.59,6.72 v 13.35 l -5.74,6.65 5.86,13.35 v 6.68 l 5.62,13.36 5.75,6.64 h 5.58 l 17.07,6.72 h 28.6 l 5.74,-6.72 17.11,-6.64 5.74,-20.04 v -13.35 l -5.74,-6.65 v -13.35 l -5.78,-6.72 -5.75,-6.68 v -46.76 h 45.43 l 11.61,6.72 h 11.48 l 5.62,6.68 h 5.75 v 1308.75 l -5.75,6.72 h -5.62 l -11.48,6.64 h -57.15 v -40.04 h 5.58 l 5.74,-13.36 v -13.36 l 5.75,-6.64 v -6.76 l -5.75,-13.28 v -6.72 l -17.07,-13.36 -5.74,-6.64 h -39.92 l -5.74,6.64 -5.74,6.72 -5.86,6.64 -5.59,6.72 v 13.28 l -5.74,6.76 5.86,6.64 v 13.36 l 5.58,6.64 5.75,6.72 v 40.04 h -137.19 v -40.04 l 5.74,-13.36 5.82,-13.36 v -26.68 l -5.98,-6.72 -11.44,-13.36 -5.63,-6.64 h -40.04 l -11.32,6.64 -5.75,13.36 -5.74,6.72 -5.74,13.28 v 13.4 l 5.74,13.36 5.74,6.64 5.75,6.72 v 40.04 h -68.56 l -11.48,-6.64 h -5.74 z" /><path
         id="path20"
         style="fill:none;stroke:#285256;stroke-width:4.14004993;stroke-linecap:butt;stroke-linejoin:miter;stroke-miterlimit:4;stroke-dasharray:none;stroke-opacity:1"
         d="M 3256.68,3123.44 V 1814.69 l 5.9,-6.64 h 11.44 l 11.41,-6.76 h 57.15 v 46.76 l -5.74,6.64 -5.75,6.76 -5.74,13.35 v 20 l 5.74,6.65 5.75,13.39 5.74,6.64 11.33,6.72 h 40.11 l 5.63,-6.72 11.44,-6.64 5.75,-20.04 v -20 l -5.86,-13.35 -5.75,-13.4 v -46.76 h 137.04 v 46.76 l -5.9,6.64 -5.59,6.76 v 13.35 l -5.74,6.65 5.86,13.35 v 6.65 l 5.62,13.39 5.75,6.64 h 5.58 l 17.07,6.72 h 28.6 l 5.74,-6.72 17.11,-6.64 5.74,-20.04 v -13.35 l -5.74,-6.65 v -13.35 l -5.78,-6.76 -5.75,-6.64 v -46.76 h 45.43 l 11.61,6.76 h 11.48 l 5.62,6.64 h 5.75 v 1308.75 l -5.75,6.72 h -5.62 l -11.48,6.64 h -57.15 v -40.04 h 5.58 l 5.74,-13.36 v -13.36 l 5.75,-6.64 v -6.76 l -5.75,-13.28 v -6.72 l -17.07,-13.36 -5.74,-6.64 h -39.92 l -5.74,6.64 -5.74,6.72 -5.86,6.64 -5.59,6.72 v 13.28 l -5.74,6.76 5.86,6.64 v 13.36 l 5.58,6.64 5.75,6.72 v 40.04 h -137.19 v -40.04 l 5.74,-13.36 5.82,-13.36 v -26.68 l -5.98,-6.72 -11.44,-13.36 -5.63,-6.64 h -40.03 l -11.33,6.64 -5.75,13.36 -5.74,6.72 -5.74,13.28 v 13.4 l 5.74,13.36 5.74,6.64 5.75,6.72 v 40.04 h -68.56 l -11.48,-6.64 h -5.74 v -6.72" /><path
         id="path22"
         style="fill:#231f20;fill-opacity:1;fill-rule:nonzero;stroke:none"
         d="m 3690.7,2963.24 h -445.23 l -5.74,-6.76 h -5.75 v -6.64 l -5.58,-6.64 V 1995 l 5.58,-6.76 5.75,-6.64 h 456.99 l 5.58,6.64 h 5.79 v 954.96 l -5.86,13.28 z" /><path
         id="path24"
         style="fill:none;stroke:#231f20;stroke-width:4.14004993;stroke-linecap:butt;stroke-linejoin:miter;stroke-miterlimit:4;stroke-dasharray:none;stroke-opacity:1"
         d="m 3690.7,2963.2 h -445.23 l -5.74,-6.72 h -5.75 v -6.64 l -5.58,-6.64 V 1995 l 5.58,-6.76 5.75,-6.64 h 456.99 l 5.58,6.64 h 5.79 v 954.96 l -5.86,13.28 -11.37,6.72" /><path
         id="path26"
         style="fill:#48727a;fill-opacity:1;fill-rule:nonzero;stroke:none"
         d="m 3679.38,2923.12 h -422.7 l -11.21,-6.67 v -6.65 l -5.74,-6.71 v -427.31 l 5.74,-6.72 v -6.64 l 11.37,-6.76 h 154.41 v 13.4 l 5.74,6.72 11.17,6.64 h 5.75 l 5.74,6.64 5.62,6.72 h 45.63 l 11.56,-6.72 5.74,-6.64 h 5.59 l 5.74,-6.64 5.74,-6.72 5.86,-13.4 h 154.1 l 5.75,6.76 v 454.03 l -5.59,6.67 z" /><path
         id="path28"
         style="fill:none;stroke:#48727a;stroke-width:4.14004993;stroke-linecap:butt;stroke-linejoin:miter;stroke-miterlimit:4;stroke-dasharray:none;stroke-opacity:1"
         d="m 3679.38,2923.09 h -422.7 l -11.21,-6.64 v -6.65 l -5.74,-6.71 v -427.31 l 5.74,-6.72 v -6.64 l 11.37,-6.76 h 154.41 v 13.4 l 5.74,6.72 11.17,6.64 h 5.75 l 5.74,6.64 5.62,6.72 h 45.63 l 11.56,-6.72 5.74,-6.64 h 5.59 l 5.74,-6.64 5.74,-6.72 5.86,-13.4 h 154.1 l 5.75,6.76 v 454.03 l -5.59,6.64 h -5.74" /><path
         id="path30"
         style="fill:none;stroke:#231f20;stroke-width:4.14004993;stroke-linecap:butt;stroke-linejoin:miter;stroke-miterlimit:4;stroke-dasharray:none;stroke-opacity:1"
         d="m 3473.83,2469.06 h -16.95 l -11.49,-6.64 h -5.59 v -6.76 l -11.48,-13.28 v -6.72 h -171.64 l -5.35,-6.64 h -5.86 v -300.5 l 5.74,-13.36 h 433.75 l 5.74,6.64 v 307.22 h -5.58 v 6.64 h -171.33 v 6.72 l -5.59,6.64 v 6.64 l -17.42,6.76 -5.35,6.64 h -11.72" /><path
         id="path32"
         style="fill:#285256;fill-opacity:1;fill-rule:nonzero;stroke:none"
         d="m 3679.38,2435.66 h -165.59 v 6.72 l -5.59,6.64 v 6.64 l -17.42,6.76 -5.35,6.64 h -28.79 l -11.48,-6.64 h -5.63 v -6.76 l -11.48,-13.28 v -6.72 h -171.37 l -5.35,-6.64 h -5.86 v -353.9 l 5.74,-6.72 h 433.75 l 5.74,6.72 v 353.9 l -5.58,6.64 z" /><path
         id="path34"
         style="fill:none;stroke:#285256;stroke-width:4.14004993;stroke-linecap:butt;stroke-linejoin:miter;stroke-miterlimit:4;stroke-dasharray:none;stroke-opacity:1"
         d="m 3679.38,2435.66 h -165.59 v 6.72 l -5.59,6.64 v 6.64 l -17.42,6.76 -5.35,6.64 h -28.79 l -11.48,-6.64 h -5.63 v -6.76 l -11.48,-13.28 v -6.72 h -171.37 l -5.35,-6.64 h -5.86 v -353.9 l 5.74,-6.72 h 433.75 l 5.74,6.72 v 353.9 l -5.58,6.64 h -5.74" /><path
         id="path36"
         style="fill:#231f20;fill-opacity:1;fill-rule:nonzero;stroke:none"
         d="m 3405.35,2549.22 17.11,-6.68 17.34,-6.72 h 68.68 l 11.21,6.72 17.07,6.68 28.55,13.36 17.11,13.36 5.74,6.64 11.68,13.4 11.33,13.32 5.74,13.32 11.33,20.08 5.74,13.32 5.75,13.36 v 53.39 l -5.75,13.4 v 20 l -17.07,26.76 -5.74,13.36 -11.33,20 -11.56,6.64 -11.21,13.4 -11.48,6.72 -17.07,13.28 -28.56,6.72 -22.73,6.64 -11.45,6.72 h -34.37 l -17.07,-6.72 -17.11,-6.64 h -11.61 l -17.07,-6.72 -17.42,-13.28 -22.69,-20.12 -11.37,-6.64 -11.45,-20 -5.62,-13.36 -11.48,-13.4 v -13.36 l -5.75,-20 v -20.04 l -5.58,-13.36 5.74,-20.04 v -13.35 l 5.7,-13.36 5.75,-20.04 5.62,-13.36 11.37,-13.32 5.7,-13.32 11.37,-13.4 11.48,-13.36 11.49,-6.64 17.38,-13.36 z" /><path
         id="path38"
         style="fill:none;stroke:#231f20;stroke-width:2.80454993;stroke-linecap:butt;stroke-linejoin:miter;stroke-miterlimit:4;stroke-dasharray:none;stroke-opacity:1"
         d="m 3405.35,2549.18 17.11,-6.64 17.34,-6.72 h 68.68 l 11.21,6.72 17.07,6.64 28.55,13.4 17.11,13.36 5.74,6.64 11.68,13.36 11.33,13.4 5.74,13.28 11.33,20.11 5.74,13.29 5.75,13.35 v 53.4 l -5.75,13.36 v 20.04 l -17.07,26.76 -5.74,13.36 -11.33,20 -11.56,6.64 -11.21,13.4 -11.48,6.72 -17.07,13.28 -28.56,6.72 -22.73,6.64 -11.45,6.76 h -34.37 l -17.07,-6.76 -17.11,-6.64 h -11.6 l -17.08,-6.72 -17.42,-13.28 -22.69,-20.12 -11.37,-6.64 -11.44,-20 -5.63,-13.36 -11.48,-13.4 v -13.36 l -5.75,-20.04 v -20 l -5.58,-13.36 5.74,-20.04 v -13.36 l 5.7,-13.35 5.75,-20.04 5.62,-13.36 11.37,-13.28 5.7,-13.4 11.37,-13.36 11.48,-13.36 11.49,-6.64 17.38,-13.4 h 16.95" /><path
         id="path40"
         style="fill:#231f20;fill-opacity:1;fill-rule:nonzero;stroke:none"
         d="m 3428.16,2589.22 h 11.49 l 5.62,-6.64 h 28.56 l 22.69,6.64 h 23.01 l 28.59,20.08 17.08,13.32 11.48,26.76 5.59,6.64 5.74,13.36 v 73.47 l -5.59,13.32 -17.11,26.76 -11.33,6.64 -5.74,6.72 -11.48,6.64 -11.33,13.36 h -11.37 l -22.69,6.64 h -57.03 l -11.64,-6.64 -28.29,-20 -23,-13.36 -5.63,-13.4 -5.74,-6.64 v -13.36 l -5.59,-13.36 -5.74,-6.68 v -26.72 l 5.74,-26.68 v -13.36 l 5.71,-6.71 11.56,-33.4 22.97,-13.32 11.33,-6.68 5.74,-6.64 z" /><path
         id="path42"
         style="fill:none;stroke:#231f20;stroke-width:2.80454993;stroke-linecap:butt;stroke-linejoin:miter;stroke-miterlimit:4;stroke-dasharray:none;stroke-opacity:1"
         d="m 3428.16,2589.22 h 11.49 l 5.62,-6.64 h 28.56 l 22.69,6.64 h 23.01 l 28.6,20.12 17.07,13.28 11.48,26.75 5.59,6.65 5.74,13.35 v 73.52 l -5.59,13.28 -17.11,26.76 -11.33,6.64 -5.74,6.72 -11.48,6.64 -11.33,13.36 h -11.37 l -22.69,6.64 h -57.03 l -11.64,-6.64 -28.29,-20 -23,-13.36 -5.63,-13.4 -5.74,-6.64 v -13.36 l -5.59,-13.4 -5.74,-6.64 v -26.72 l 5.74,-26.68 v -13.36 l 5.71,-6.71 11.56,-33.4 22.97,-13.28 11.33,-6.72 5.74,-6.68 17.07,-6.72" /><path
         id="path44"
         style="fill:#285256;fill-opacity:1;fill-rule:nonzero;stroke:none"
         d="m 3428.16,2602.62 11.49,-6.64 h 51.4 l 22.74,6.64 17.34,13.36 17.11,13.36 5.74,6.64 5.63,6.72 5.7,13.32 5.74,6.71 v 13.36 l 5.75,6.64 v 13.4 l 5.62,6.64 -5.62,26.72 -5.75,13.36 -11.44,20.04 -11.37,20.04 -11.48,6.64 -5.63,6.72 h -11.44 l -22.7,13.36 -17.42,6.64 h -11.33 l -22.69,-6.64 -34.3,-13.36 -17.11,-13.36 -5.74,-13.4 -5.74,-6.64 -11.53,-6.72 v -13.32 l -5.58,-13.36 v -6.72 l -5.78,-6.64 v -13.36 l 5.85,-20.04 5.63,-20 11.56,-20.03 11.45,-13.36 11.36,-6.72 11.49,-13.32 z" /><path
         id="path46"
         style="fill:none;stroke:#285256;stroke-width:2.80454993;stroke-linecap:butt;stroke-linejoin:miter;stroke-miterlimit:4;stroke-dasharray:none;stroke-opacity:1"
         d="m 3428.16,2602.62 11.49,-6.68 h 51.4 l 22.74,6.68 17.34,13.36 17.11,13.36 5.74,6.64 5.63,6.75 5.7,13.29 5.74,6.71 v 13.36 l 5.75,6.64 v 13.4 l 5.62,6.64 -5.62,26.72 -5.75,13.4 -11.44,20 -11.37,20.04 -11.48,6.64 -5.63,6.72 h -11.44 l -22.7,13.36 -17.42,6.64 h -11.33 l -22.69,-6.64 -34.3,-13.36 -17.11,-13.36 -5.74,-13.4 -5.74,-6.64 -11.53,-6.72 v -13.28 l -5.58,-13.4 v -6.72 l -5.78,-6.64 v -13.36 l 5.86,-20.04 5.62,-20 11.56,-20 11.45,-13.39 11.37,-6.72 11.48,-13.28 11.21,-6.72" /><path
         id="path48"
         style="fill:#ffffff;fill-opacity:1;fill-rule:nonzero;stroke:none"
         d="m 3468.09,2776.25 -5.59,-26.72 -11.37,20 v -20 l -17.07,13.36 5.74,-20.04 -22.69,13.32 16.95,-26.68 -28.55,6.68 22.65,-13.4 h -22.65 l 17.07,-13.28 -22.7,-6.72 22.7,-6.64 -16.96,-6.72 h 22.7 l -22.7,-20.03 28.56,6.71 -17.07,-20.07 22.69,6.71 -5.74,-20.03 17.07,20.03 v -26.75 l 11.49,20.04 5.74,-20.04 11.48,20.04 5.59,-20.04 v 26.75 l 17.19,-20.03 -5.74,20.03 22.65,-6.71 -11.21,20.07 22.7,-6.71 -17.07,20.03 h 22.69 l -22.69,6.72 28.55,6.64 -28.71,6.72 22.73,13.28 h -22.73 l 17.34,13.4 -22.93,-6.68 11.33,26.68 -22.65,-13.32 5.58,20.04 -17.15,-13.36 v 20 l -5.74,-20 z" /><path
         id="path50"
         style="fill:none;stroke:#231f20;stroke-width:2.80454993;stroke-linecap:butt;stroke-linejoin:miter;stroke-miterlimit:4;stroke-dasharray:none;stroke-opacity:1"
         d="m 3468.09,2776.25 -5.59,-26.72 -11.37,20 v -20 l -17.07,13.36 5.74,-20 -22.69,13.28 16.95,-26.68 -28.55,6.64 22.65,-13.36 h -22.65 l 17.07,-13.28 -22.7,-6.72 22.7,-6.64 -16.95,-6.76 h 22.69 l -22.69,-20 28.55,6.72 -17.07,-20.07 22.69,6.71 -5.74,-20 17.07,20 v -26.75 l 11.49,20.04 5.74,-20.04 11.48,20.04 5.59,-20.04 v 26.75 l 17.19,-20 -5.74,20 22.65,-6.71 -11.21,20.07 22.7,-6.72 -17.07,20 h 22.69 l -22.69,6.76 28.55,6.64 -28.71,6.72 22.73,13.28 h -22.73 l 17.34,13.36 -22.93,-6.64 11.33,26.68 -22.65,-13.28 5.58,20 -17.15,-13.36 v 20 l -5.74,-20 -11.6,26.72" /><path
         id="path52"
         style="fill:#ffffff;fill-opacity:1;fill-rule:nonzero;stroke:none"
         d="m 3462.34,2682.73 h 17.35 l 5.62,6.68 5.59,6.72 v 20 l -5.59,6.64 -5.74,6.72 h -17.34 l -17.07,-13.36 v -20 z" /><path
         id="path54"
         style="fill:none;stroke:#231f20;stroke-width:2.80454993;stroke-linecap:butt;stroke-linejoin:miter;stroke-miterlimit:4;stroke-dasharray:none;stroke-opacity:1"
         d="m 3462.34,2682.73 h 17.35 l 5.62,6.64 5.59,6.76 v 20 l -5.59,6.64 -5.74,6.72 h -17.34 l -17.07,-13.36 v -20 l 17.34,-13.4" /><path
         id="path56"
         style="fill:none;stroke:#231f20;stroke-width:4.14004993;stroke-linecap:butt;stroke-linejoin:miter;stroke-miterlimit:4;stroke-dasharray:none;stroke-opacity:1"
         d="m 3473.83,2876.45 v 20 m 165.62,-193.68 h 22.7 m -388.13,0 h 22.78 m 85.66,146.92 -11.44,20 m 194.18,-333.87 -11.33,20.04 m 62.77,233.71 22.7,6.72 m -336.68,-193.67 17.34,13.36 m 0,173.59 -17.34,6.72 m 336.95,-193.67 -22.7,13.36 m -62.81,233.71 11.21,20 m -194.18,-333.87 11.53,20.04" /><path
         id="path58"
         style="fill:#231f20;fill-opacity:1;fill-rule:nonzero;stroke:none"
         d="m 3268.28,2382.27 v -240.39 l 5.74,-6.68 5.63,-6.65 h 376.91 l 5.74,6.65 h 5.75 v 253.71 l -5.75,6.71 h -5.74 l -11.36,6.65 h -354.15 l -11.56,-6.65 h -5.58 l -5.75,-6.71 z" /><path
         id="path60"
         style="fill:none;stroke:#231f20;stroke-width:2.80454993;stroke-linecap:butt;stroke-linejoin:miter;stroke-miterlimit:4;stroke-dasharray:none;stroke-opacity:1"
         d="m 3268.28,2382.27 v -240.36 l 5.74,-6.75 5.63,-6.64 h 376.91 l 5.74,6.64 h 5.75 v 253.75 l -5.75,6.71 h -5.74 l -11.36,6.65 h -354.15 l -11.56,-6.65 h -5.58 l -5.75,-6.71 v -6.64" /><path
         id="path62"
         style="fill:none;stroke:#ffffff;stroke-width:4.14004993;stroke-linecap:butt;stroke-linejoin:miter;stroke-miterlimit:4;stroke-dasharray:none;stroke-opacity:1"
         d="m 3473.83,2829.69 119.92,-126.92 m -251.05,0 125.54,-126.83 m 5.59,253.75 119.92,-126.92 m -251.05,0 125.54,-126.83" /><path
         id="path64"
         style="fill:#231f20;fill-opacity:1;fill-rule:nonzero;stroke:none"
         d="m 3137.03,2368.91 17.07,-6.64 h 28.63 l 11.37,6.64 11.6,6.68 245.43,166.95 17.11,13.32 17.38,-13.32 245.2,-166.95 11.48,-6.68 11.37,-6.64 h 28.56 l 11.32,6.64 11.49,6.68 v 40.07 l -5.74,13.36 -5.75,6.64 -159.84,253.75 -17.07,13.36 17.07,20 159.84,240.47 5.75,13.32 5.74,6.68 v 33.4 l -11.49,13.36 -11.32,6.64 h -28.71 L 3742.3,3030 h -11.48 l -245.51,-160.31 -17.34,-20 -16.95,20 -245.43,160.31 h -11.49 l -11.25,6.64 h -28.63 l -17.07,-6.64 -5.74,-13.36 v -33.4 l 5.89,-6.68 5.59,-13.32 165.63,-240.47 11.48,-20 -17.34,-13.36 -159.77,-253.75 -5.59,-6.64 -5.74,-13.36 v -40.07 z m 468.28,193.67 -5.82,-6.72 v -6.64 l 5.63,-6.68 5.58,-6.72 h 11.57 l 5.58,6.72 5.74,6.68 v 6.64 l -5.74,6.72 -5.58,6.64 h -11.57 z m 40,-40.12 v -6.64 l -5.86,-6.68 5.75,-6.68 v -6.68 l 11.21,-6.72 h 11.48 l 5.74,6.72 5.63,6.68 v 13.36 l -5.63,6.64 h -5.74 l -5.74,6.72 -5.74,-6.72 z m 45.39,-40.04 -5.58,-6.64 v -20.12 h 5.74 l 5.86,-6.64 h 17.15 l 5.74,6.64 v 26.76 z m 40.12,-46.76 v -26.68 h 5.74 l 11.37,-6.71 5.74,6.71 h 5.86 l 5.74,6.68 v 13.36 l -5.74,6.64 -5.74,6.72 h -16.95 z m -559.57,567.58 -5.78,-6.64 v -20.04 l 5.78,-6.68 h 5.74 l 5.74,-6.64 5.63,6.64 h 5.74 l 5.86,6.68 5.74,6.68 -5.74,13.36 -5.74,6.64 z m 45.66,-46.76 -5.74,-6.64 v -13.36 l 5.59,-6.64 h 5.74 l 5.74,-6.72 5.63,6.72 h 5.74 l 5.74,6.64 v 13.36 l -5.74,6.64 -5.74,6.76 h -11.37 z m 40.04,-46.68 v -6.71 l -5.74,-6.64 5.35,-6.72 11.6,-6.64 h 11.33 v 6.64 h 5.82 l 5.74,6.72 -5.74,6.64 -5.82,6.71 v 6.65 h -17.07 z m 45.43,-40.11 -5.35,-6.64 v -13.36 l 5.35,-6.64 5.9,-6.72 h 11.45 l 5.62,6.72 5.74,6.64 v 13.36 l -5.74,6.64 h -5.62 l -5.71,6.72 -5.9,-6.72 z m 457,133.55 h -28.44 v -33.36 h 5.74 l 11.37,-6.64 5.74,6.64 h 5.86 l 5.74,6.68 v 20.04 z m -40.04,-46.76 -5.67,6.76 h -17.07 l -5.74,-6.76 -5.63,-6.64 v -13.36 l 5.75,-6.64 h 5.86 l 5.62,-6.72 11.56,6.72 h 5.71 v 20 z m -45.43,-46.68 -5.86,6.65 h -11.49 l -11.36,-6.65 v -6.71 l -5.86,-6.64 5.74,-6.72 16.95,-6.64 h 5.74 l 5.75,6.64 h 5.58 v 13.36 z m -45.94,-40.11 -5.59,6.72 h -5.74 l -5.74,-6.72 h -5.78 l -5.74,-6.64 v -13.36 l 5.58,-6.64 5.63,-6.72 h 11.52 l 5.62,6.72 5.75,6.64 v 13.36 z m -302.62,-307.11 -5.62,6.64 h -11.61 l -5.74,-6.64 -5.58,-6.72 v -6.64 l 5.74,-6.68 5.74,-6.72 h 11.33 l 5.62,6.72 5.71,6.68 v 6.64 z m -45.7,-40.12 -11.37,6.72 -5.7,-6.72 h -5.74 v -6.64 l -5.36,-6.68 5.36,-6.68 v -6.68 l 5.86,-6.72 h 17.14 v 6.72 l 5.75,6.68 5.7,6.68 -5.7,6.68 z m -40.04,-40.04 h -22.7 l -5.74,-6.64 v -20.12 h 5.59 l 5.74,-6.64 h 11.37 l 5.74,6.64 h 5.74 v 20.12 z m -45.39,-46.76 -5.86,6.72 h -11.37 l -5.74,-6.72 -5.78,-6.64 v -13.36 l 5.78,-6.68 h 5.74 l 5.74,-6.71 5.63,6.71 h 5.74 l 5.86,6.68 5.74,6.64 -5.74,6.72 z" /><path
         id="path66"
         style="fill:none;stroke:#ffffff;stroke-width:2.80454993;stroke-linecap:butt;stroke-linejoin:miter;stroke-miterlimit:4;stroke-dasharray:none;stroke-opacity:1"
         d="m 3137.03,2368.91 17.07,-6.68 h 28.63 l 11.37,6.68 11.6,6.71 245.43,166.92 17.11,13.32 17.39,-13.32 245.19,-166.92 11.48,-6.71 11.37,-6.68 h 28.56 l 11.32,6.68 11.49,6.71 v 40.04 l -5.74,13.36 -5.75,6.64 -159.84,253.71 -17.07,13.4 17.07,20 159.84,240.43 5.75,13.4 5.74,6.64 v 33.4 l -11.49,13.36 -11.32,6.64 h -28.71 L 3742.3,3030 h -11.48 l -245.51,-160.31 -17.34,-20 -16.95,20 -245.43,160.31 h -11.49 l -11.25,6.64 h -28.63 l -17.07,-6.64 -5.74,-13.36 v -33.4 l 5.89,-6.64 5.59,-13.4 165.63,-240.43 11.48,-20 -17.34,-13.4 -159.77,-253.71 -5.59,-6.64 -5.74,-13.36 v -40.04 l 5.86,-6.71" /><path
         id="path68"
         style="fill:none;stroke:#ffffff;stroke-width:2.80454993;stroke-linecap:butt;stroke-linejoin:miter;stroke-miterlimit:4;stroke-dasharray:none;stroke-opacity:1"
         d="m 3605.31,2562.58 -5.82,-6.72 v -6.68 l 5.63,-6.64 5.58,-6.72 h 11.57 l 5.58,6.72 5.74,6.64 v 6.68 l -5.74,6.72 -5.58,6.64 h -11.57 l -5.74,-6.64 m 40.12,-40.12 v -6.64 l -5.86,-6.64 5.74,-6.76 v -6.64 l 11.21,-6.72 h 11.45 l 5.74,6.72 5.62,6.64 v 13.4 l -5.62,6.64 h -5.74 l -5.74,6.72 -5.71,-6.72 h -11.37 m 45.4,-40.04 -5.59,-6.64 v -20.12 h 5.74 l 5.86,-6.64 h 17.07 l 5.74,6.64 v 26.76 h -28.55 m 40.12,-46.76 v -26.68 h 5.74 l 11.33,-6.71 5.74,6.71 h 5.86 l 5.74,6.68 v 13.36 l -5.74,6.64 -5.74,6.72 h -16.96 l -5.74,-6.72 m -559.57,567.58 -5.78,-6.64 v -20 l 5.78,-6.72 h 5.74 l 5.74,-6.68 5.63,6.68 h 5.74 l 5.86,6.72 5.74,6.64 -5.74,13.36 -5.74,6.64 h -22.7 m 45.67,-46.76 -5.74,-6.64 v -13.36 l 5.58,-6.64 h 5.74 l 5.75,-6.75 5.62,6.75 h 5.7 l 5.75,6.64 v 13.36 l -5.75,6.64 -5.7,6.72 h -11.37 l -5.74,-6.72 m 40.04,-46.68 v -6.71 l -5.74,-6.64 5.35,-6.72 11.6,-6.64 h 11.37 v 6.64 h 5.78 l 5.74,6.72 -5.74,6.64 -5.78,6.71 v 6.65 h -17.07 l -5.74,-6.65 m 45.82,-40.11 -5.63,-6.64 v -13.36 l 5.74,-6.64 5.75,-6.72 H 3320 l 5.63,6.72 5.74,6.64 v 13.36 l -5.74,6.64 H 3320 l -5.74,6.76 -5.86,-6.76 h -5.74 m 456.72,133.55 h -28.29 v -33.36 h 5.75 l 11.32,-6.68 5.75,6.68 h 5.86 l 5.74,6.72 v 20 l -5.74,6.64 m -40.04,-46.76 -5.59,6.72 h -17.15 l -5.74,-6.72 -5.62,-6.64 v -13.36 l 5.74,-6.64 h 5.93 l 5.63,-6.75 11.45,6.75 h 5.74 v 26.64 m -45.71,-46.68 -5.74,6.65 h -11.48 l -11.33,-6.65 v -6.71 l -5.86,-6.64 5.74,-6.72 16.96,-6.64 h 5.74 l 5.74,6.64 h 5.59 v 13.36 l -5.59,6.71 m -45.78,-40.11 -5.63,6.76 h -5.74 l -5.74,-6.76 h -5.7 l -5.75,-6.64 v -13.36 l 5.59,-6.64 5.62,-6.72 h 11.45 l 5.63,6.72 5.74,6.64 v 13.36 l -5.74,6.64 m -302.66,-307.11 -5.59,6.64 h -11.6 l -5.74,-6.64 -5.63,-6.72 v -6.68 l 5.75,-6.64 5.74,-6.72 h 11.33 l 5.62,6.72 5.74,6.64 v 6.68 l -5.74,6.72 m -45.7,-40.12 -11.37,6.72 -5.7,-6.72 h -5.74 v -6.64 l -5.36,-6.64 5.36,-6.76 v -6.64 l 5.86,-6.72 h 17.14 v 6.72 l 5.75,6.64 5.7,6.76 -11.45,13.28 m -40.11,-40.04 h -22.7 l -5.74,-6.64 v -20.12 h 5.62 l 5.75,-6.64 h 11.32 l 5.75,6.64 h 5.74 v 20.12 l -5.74,6.64 m -45.63,-46.76 -5.62,6.72 h -11.37 l -5.7,-6.72 -5.75,-6.64 v -13.36 l 5.75,-6.68 h 5.7 l 5.74,-6.71 5.63,6.71 h 5.74 l 5.86,6.68 5.74,6.64 -5.74,6.72 -5.74,6.64" /><path
         id="path70"
         style="fill:#628a97;fill-opacity:1;fill-rule:nonzero;stroke:none"
         d="m 3428.16,2722.77 -5.7,-6.64 v -20 l 5.86,-6.72 5.74,-6.68 v -13.35 h 11.33 v -6.65 h 40.23 l 5.28,6.65 h 5.98 l 5.74,13.35 5.7,6.68 v 33.36 l -5.7,6.72 -5.74,6.68 -5.83,6.68 h -5.62 l -5.74,6.68 h -22.93 l -11.49,-6.68 -11.36,-6.68 v -6.68 z" /><path
         id="path72"
         style="fill:none;stroke:#231f20;stroke-width:1.3355;stroke-linecap:butt;stroke-linejoin:miter;stroke-miterlimit:4;stroke-dasharray:none;stroke-opacity:1"
         d="m 3428.16,2722.77 -5.7,-6.64 v -20 l 5.86,-6.76 5.74,-6.64 v -13.36 h 11.33 v -6.64 h 40.24 l 5.27,6.64 h 5.98 l 5.74,13.36 5.7,6.64 v 33.4 l -5.7,6.72 -5.74,6.64 -5.83,6.76 h -5.62 l -5.74,6.64 h -22.93 l -11.49,-6.64 -11.36,-6.76 v -6.64 l -5.75,-6.72" /><path
         id="path74"
         style="fill:#231f20;fill-opacity:1;fill-rule:nonzero;stroke:none"
         d="m 3479.69,2682.73 -34.42,33.4 5.75,13.36 40.03,-40.08 z" /><path
         id="path76"
         style="fill:#231f20;fill-opacity:1;fill-rule:nonzero;stroke:none"
         d="m 3445.27,2689.41 34.3,40.08 5.63,-6.72 -28.56,-40.04 z" /><path
         id="path78"
         style="fill:none;stroke:#231f20;stroke-width:2.80454993;stroke-linecap:butt;stroke-linejoin:miter;stroke-miterlimit:4;stroke-dasharray:none;stroke-opacity:1"
         d="m 3268.28,2195.31 h 399.73 v 100.16 h -399.73 z" /><path
         id="path80"
         style="fill:none;stroke:#5f1316;stroke-width:28.7133007;stroke-linecap:butt;stroke-linejoin:miter;stroke-miterlimit:4;stroke-dasharray:none;stroke-opacity:1"
         d="M 4878.52,2168.55 H 3708.09" /><path
         id="path82"
         style="fill:none;stroke:#ed1c24;stroke-width:28.7133007;stroke-linecap:butt;stroke-linejoin:miter;stroke-miterlimit:4;stroke-dasharray:none;stroke-opacity:1"
         d="M 4878.52,2135.16 H 3708.09" /><path
         id="path84"
         style="fill:none;stroke:#f68712;stroke-width:28.7133007;stroke-linecap:butt;stroke-linejoin:miter;stroke-miterlimit:4;stroke-dasharray:none;stroke-opacity:1"
         d="M 4878.52,2095.16 H 3708.09" /><path
         id="path86"
         style="fill:#231f20;fill-opacity:1;fill-rule:nonzero;stroke:none"
         d="m 4878.4,2061.76 h 308.52 v 146.91 H 4878.4 Z" /><path
         id="path88"
         style="fill:none;stroke:#231f20;stroke-width:5.74265003;stroke-linecap:butt;stroke-linejoin:miter;stroke-miterlimit:4;stroke-dasharray:none;stroke-opacity:1"
         d="m 4878.4,2061.76 h 308.52 v 146.91 H 4878.4 Z" /><path
         id="path90"
         style="fill:#231f20;fill-opacity:1;fill-rule:nonzero;stroke:none"
         d="m 5089.8,2108.52 h -148.47 v -33.4 h 148.47 z m 0,46.68 h -148.47 v -40.04 h 148.47 z m 0,46.75 h -148.47 v -40.04 h 148.47 z" /><path
         id="path92"
         style="fill:none;stroke:#ffffff;stroke-width:5.74265003;stroke-linecap:butt;stroke-linejoin:miter;stroke-miterlimit:4;stroke-dasharray:none;stroke-opacity:1"
         d="m 5089.8,2108.52 h -148.47 v -33.4 h 148.47 z m 0,46.68 h -148.47 v -40.04 h 148.47 z m 0,46.75 h -148.47 v -40.04 h 148.47 z" /><path
         id="path94"
         style="fill:#285256;fill-opacity:1;fill-rule:nonzero;stroke:none"
         d="m 5432.23,3590.86 -1730,-1014.92 c -159.85,-93.52 -342.58,-73.52 -405.32,33.4 -68.39,113.43 11.49,280.39 165.59,373.9 l 1736.02,1008.28 c 159.88,93.52 336.91,80.12 405.46,-33.4 62.74,-106.79 -11.48,-273.74 -171.36,-367.26 z" /><path
         id="path96"
         style="fill:none;stroke:#000000;stroke-width:8.28009987;stroke-linecap:butt;stroke-linejoin:miter;stroke-miterlimit:4;stroke-dasharray:none;stroke-opacity:1"
         d="m 5432.23,3590.86 -1730,-1014.92 c -159.85,-93.52 -342.58,-73.52 -405.32,33.4 -68.39,113.43 11.49,280.39 165.59,373.9 l 1736.02,1008.28 c 159.88,93.52 336.91,80.12 405.46,-33.4 62.74,-106.79 -11.48,-273.75 -171.36,-367.26 z" /><path
         id="path98"
         style="fill:#ef8d22;fill-opacity:1;fill-rule:nonzero;stroke:none"
         d="m 3382.46,2702.77 c 0,-46.75 40.12,-80.15 85.51,-80.15 45.82,0 80.15,33.4 80.15,80.15 0,46.76 -34.33,80.16 -80.15,80.16 -45.39,0 -85.51,-33.4 -85.51,-80.16 z" /><path
         id="path100"
         style="fill:none;stroke:#ef8d22;stroke-width:8.28009987;stroke-linecap:butt;stroke-linejoin:miter;stroke-miterlimit:4;stroke-dasharray:none;stroke-opacity:1"
         d="m 3382.46,2702.77 c 0,-46.75 40.12,-80.15 85.51,-80.15 45.82,0 80.16,33.4 80.16,80.15 0,46.76 -34.34,80.16 -80.16,80.16 -45.39,0 -85.51,-33.4 -85.51,-80.16 z" /><path
         id="path102"
         style="fill:#285256;fill-opacity:1;fill-rule:nonzero;stroke:none"
         d="m 5472.34,4806.17 182.89,-1001.6 c 16.96,-93.44 -74.33,-186.95 -200.07,-206.99 -131.25,-26.76 -245.43,33.4 -262.66,120.19 l -182.7,1001.61 c -17.1,93.51 74.26,186.95 199.93,206.99 125.54,26.72 245.43,-33.4 262.61,-120.2 z" /><path
         id="path104"
         style="fill:none;stroke:#000000;stroke-width:8.28009987;stroke-linecap:butt;stroke-linejoin:miter;stroke-miterlimit:4;stroke-dasharray:none;stroke-opacity:1"
         d="m 5472.34,4806.17 182.89,-1001.6 c 16.96,-93.44 -74.33,-186.95 -200.07,-206.99 -131.25,-26.76 -245.43,33.4 -262.66,120.19 l -182.7,1001.6 c -17.1,93.52 74.26,186.96 199.93,207 125.54,26.72 245.43,-33.4 262.61,-120.2 z" /><path
         id="path106"
         style="fill:#285256;fill-opacity:1;fill-rule:nonzero;stroke:none"
         d="M 5718.05,5380.51 441.68,4458.95 527.191,3971.48 5803.4,4892.97 Z" /><path
         id="path108"
         style="fill:none;stroke:#000000;stroke-width:8.28009987;stroke-linecap:butt;stroke-linejoin:miter;stroke-miterlimit:4;stroke-dasharray:none;stroke-opacity:1"
         d="M 5718.05,5380.51 441.68,4458.95 527.191,3971.48 5803.4,4892.97 Z" /><path
         id="path110"
         style="fill:#285256;fill-opacity:1;fill-rule:nonzero;stroke:none"
         d="M 681.602,285.5 H 1344.02 V 4485.66 H 681.602 Z" /><path
         id="path112"
         style="fill:none;stroke:#000000;stroke-width:8.28009987;stroke-linecap:butt;stroke-linejoin:miter;stroke-miterlimit:4;stroke-dasharray:none;stroke-opacity:1"
         d="M 681.602,285.5 H 1344.02 V 4485.66 H 681.602 Z" /><path
         id="path114"
         style="fill:#ef8d22;fill-opacity:1;fill-rule:nonzero;stroke:none"
         d="m 5335.27,3797.89 c 0,-46.76 34.34,-86.76 80.12,-86.76 45.39,0 85.51,40 85.51,86.76 0,46.76 -40.12,80.16 -85.51,80.16 -45.78,0 -80.12,-33.4 -80.12,-80.16 z M 932.93,4245.31 c 0,-46.76 34.179,-80.15 80.16,-80.15 45.35,0 85.46,33.39 85.46,80.15 0,46.68 -40.11,80.08 -85.46,80.08 -45.981,0 -80.16,-33.4 -80.16,-80.08 z" /><path
         id="path116"
         style="fill:none;stroke:#ef8d22;stroke-width:8.28009987;stroke-linecap:butt;stroke-linejoin:miter;stroke-miterlimit:4;stroke-dasharray:none;stroke-opacity:1"
         d="m 5335.27,3797.89 c 0,-46.76 34.34,-86.76 80.12,-86.76 45.39,0 85.51,40 85.51,86.76 0,46.76 -40.12,80.16 -85.51,80.16 -45.78,0 -80.12,-33.4 -80.12,-80.16 z M 932.93,4245.31 c 0,-46.76 34.179,-80.15 80.16,-80.15 45.35,0 85.46,33.39 85.46,80.15 0,46.68 -40.11,80.08 -85.46,80.08 -45.981,0 -80.16,-33.4 -80.16,-80.08 z" /><path
         id="path118"
         style="fill:#c92d39;fill-opacity:1;fill-rule:nonzero;stroke:none"
         d="m 3233.98,5340.39 c 0,-180.31 148.48,-327.15 331.22,-327.15 182.73,0 331.21,146.84 331.21,327.15 0,180.31 -148.48,333.87 -331.21,333.87 -182.74,0 -331.22,-153.56 -331.22,-333.87 z" /><path
         id="path120"
         style="fill:none;stroke:#c92d39;stroke-width:8.28009987;stroke-linecap:butt;stroke-linejoin:miter;stroke-miterlimit:4;stroke-dasharray:none;stroke-opacity:1"
         d="m 3233.98,5340.39 c 0,-180.31 148.48,-327.15 331.22,-327.15 182.73,0 331.21,146.84 331.21,327.15 0,180.31 -148.48,333.87 -331.21,333.87 -182.74,0 -331.22,-153.56 -331.22,-333.87 z" /><path
         id="path122"
         style="fill:none;stroke:#000000;stroke-width:8.28009987;stroke-linecap:butt;stroke-linejoin:miter;stroke-miterlimit:4;stroke-dasharray:none;stroke-opacity:1"
         d="m 5141.13,3958.12 h -17.15 m -34.18,0 h -34.29 m -28.63,0 h -34.3 m -34.42,0 h -34.25 m -28.56,0 h -34.18 m -34.29,0 h -34.38 m -28.55,0 h -34.42 m -34.26,0 h -33.63 m -28.71,0 h -34.14 m -34.53,0 h -17.07" /><path
         id="path124"
         style="fill:#000000;fill-opacity:1;fill-rule:nonzero;stroke:none"
         d="m 5141.13,3958.12 h 5.75 l -5.63,6.72 z" /><path
         id="path126"
         style="fill:none;stroke:#000000;stroke-width:8.28009987;stroke-linecap:butt;stroke-linejoin:miter;stroke-miterlimit:4;stroke-dasharray:none;stroke-opacity:1"
         d="m 4547.34,3958.12 h -5.89" /><path
         id="path128"
         style="fill:#000000;fill-opacity:1;fill-rule:nonzero;stroke:none"
         d="m 4581.48,3884.69 c 0,-46.76 17.43,-86.76 40.12,-120.16 17.07,-26.76 40.04,-33.4 62.74,-33.4 22.73,0 34.33,20.04 34.33,53.4 0,60.12 -34.33,113.56 -62.77,140.2 -17.35,6.72 -28.56,13.39 -40.04,13.39 -17.07,0 -34.26,-20.03 -34.26,-53.43 m 102.85,-46.76 h -68.47 c -5.75,13.4 -11.33,40.12 -11.33,60.16 0,20 5.58,33.36 17.07,33.36 28.59,0 56.99,-66.76 62.73,-93.52 m -68.47,-13.36 h 68.47 c 5.75,-13.32 11.57,-26.64 11.57,-46.68 0,-26.72 -5.82,-40.12 -17.43,-40.12 -28.28,0 -56.87,60.16 -62.73,86.8" /><path
         id="path130"
         style="fill:none;stroke:#000000;stroke-width:8.28009987;stroke-linecap:butt;stroke-linejoin:miter;stroke-miterlimit:4;stroke-dasharray:none;stroke-opacity:1"
         d="m 1960.7,4098.4 h -17.07 m -28.59,0 h -34.3 m -34.22,0 h -34.18 m -28.55,0 h -34.18 m -34.38,0 h -34.14 m -28.43,0 h -34.26 m -34.18,0 h -34.14 m -28.56,0 h -34.37 m -34.18,0 h -34.18 m -28.63,0 h -17.07 m 588.2,0 h 5.74 m -594.06,0 h -5.74" /><path
         id="path132"
         style="fill:#000000;fill-opacity:1;fill-rule:nonzero;stroke:none"
         d="m 2012.03,4218.59 45.78,-73.43 v -6.72 c 0,-13.36 -5.74,-33.4 -11.48,-33.4 -5.74,0 -11.37,6.72 -17.07,26.76 l -5.9,-6.72 c 11.48,-20.04 17.11,-33.4 34.3,-33.4 11.36,0 11.36,13.36 11.36,26.72 17.43,-13.36 40.12,-26.72 57.19,-26.72 28.56,0 40.04,20.08 40.04,40.12 0,26.64 -5.86,53.4 -22.97,66.75 -17.07,13.36 -34.14,26.68 -51.37,26.68 -28.63,0 -40.11,-20.03 -40.11,-40.03 l -11.49,33.39 h -28.4 m 57.11,-46.75 c 0,20 5.75,46.75 22.74,46.75 17.38,0 51.52,-40.07 51.52,-86.79 0,-20.04 -5.74,-33.4 -17.07,-33.4 -22.69,0 -45.66,40.04 -51.44,53.4 0,6.64 -5.63,13.36 -5.63,20.04" /><path
         id="path134"
         style="fill:#000000;fill-opacity:1;fill-rule:nonzero;stroke:none"
         d="m 1846.41,5193.48 -5.63,13.36 c -11.33,20 -22.69,46.75 -40.04,60.11 -11.33,13.36 -28.44,20.04 -34.18,20.04 -17.07,0 -22.73,-6.68 -22.73,-20.04 0,-13.36 5.66,-20.04 22.73,-20.04 5.74,0 11.49,0 11.49,6.68 l 5.62,6.64 c 11.45,0 22.93,-13.32 40.04,-40.03 17.07,-33.4 22.7,-46.76 45.7,-120.16 h 34.14 l -34.14,126.8 c -11.56,20.07 -11.56,26.75 -11.56,33.39 0,6.72 11.56,13.36 17.42,13.36 5.35,0 5.35,0 16.96,-6.64 v 13.36 l -68.52,6.68" /><path
         id="path136"
         style="fill:#000000;fill-opacity:1;fill-rule:nonzero;stroke:none"
         d="m 3559.45,5333.75 c 0,-6.76 5.75,-13.4 11.49,-13.4 5.74,0 11.33,6.64 11.33,13.4 0,6.64 -5.59,13.36 -11.33,13.36 -5.74,0 -11.49,-6.72 -11.49,-13.36 z" /><path
         id="path138"
         style="fill:none;stroke:#000000;stroke-width:8.28009987;stroke-linecap:butt;stroke-linejoin:miter;stroke-miterlimit:4;stroke-dasharray:none;stroke-opacity:1"
         d="m 3559.45,5333.75 c 0,-6.76 5.75,-13.4 11.49,-13.4 5.74,0 11.33,6.64 11.33,13.4 0,6.64 -5.59,13.36 -11.33,13.36 -5.74,0 -11.49,-6.72 -11.49,-13.36 z" /><path
         id="path140"
         style="fill:#000000;fill-opacity:1;fill-rule:nonzero;stroke:none"
         d="m 104.879,4392.15 c 0,-60.04 28.641,-106.8 74.301,-140.2 22.699,-13.36 51.441,-26.72 80.121,-26.72 51.289,0 79.758,33.36 79.758,86.84 0,46.72 -28.469,100.16 -62.809,133.55 -28.551,20.04 -56.988,33.4 -91.371,33.4 -51.481,0 -80.109,-33.4 -80.109,-86.87 m 34.371,20.08 c 0,33.39 22.66,60.07 51.371,60.07 28.547,0 51.437,-20 68.547,-46.75 28.562,-33.4 40.043,-86.8 40.043,-120.2 0,-46.76 -17.34,-66.76 -45.782,-66.76 -22.699,0 -45.699,13.36 -62.808,33.4 -34.301,40.08 -51.371,100.16 -51.371,140.24" /><path
         id="path142"
         style="fill:none;stroke:#666666;stroke-width:16.42670059;stroke-linecap:butt;stroke-linejoin:miter;stroke-miterlimit:4;stroke-dasharray:none;stroke-opacity:1"
         d="M 3496.64,5320.35 470.469,4766.13" /><path
         id="path144"
         style="fill:#666666;fill-opacity:1;fill-rule:nonzero;stroke:none"
         d="m 3559.45,5326.99 -62.81,13.4 11.56,-40.04 z m -3157.54,-574.22 62.82,-6.64 -5.75,40.04 z" /><path
         id="path146"
         style="fill:none;stroke:#666666;stroke-width:16.42670059;stroke-linecap:butt;stroke-linejoin:miter;stroke-miterlimit:4;stroke-dasharray:none;stroke-opacity:1"
         d="m 3559.45,5326.99 -62.81,13.4 11.56,-40.04 z m -3157.54,-574.22 62.82,-6.64 -5.75,40.04 z" /><path
         id="path148"
         style="fill:none;stroke:#666666;stroke-width:16.42670059;stroke-linecap:butt;stroke-linejoin:miter;stroke-miterlimit:4;stroke-dasharray:none;stroke-opacity:1"
         d="m 5700.7,5413.87 -216.91,1268.75 m 217.03,-1268.75 5.74,-13.36 m -222.61,1282.11 v 6.64 M 430.23,4485.66 213.672,5761.05 m 216.68,-1275.39 v -6.64 m -216.872,1275.39 -5.75,13.36 M 5455.16,6275.23 367.621,5420.51" /><path
         id="path150"
         style="fill:#666666;fill-opacity:1;fill-rule:nonzero;stroke:none"
         d="m 5523.71,6288.59 -62.81,13.36 5.82,-40.07 z m -5224.491,-881.44 62.812,-6.64 -5.742,33.4 z" /><path
         id="path152"
         style="fill:none;stroke:#666666;stroke-width:16.42670059;stroke-linecap:butt;stroke-linejoin:miter;stroke-miterlimit:4;stroke-dasharray:none;stroke-opacity:1"
         d="m 5523.71,6288.59 -62.81,13.36 5.82,-40.08 z m -5224.491,-881.44 62.812,-6.64 -5.742,33.4 z" /><path
         id="path154"
         style="fill:#000000;fill-opacity:1;fill-rule:nonzero;stroke:none"
         d="m 2880.08,6195.08 68.55,-246.99 v -20.12 c 0,-6.64 0,-6.64 -5.82,-6.64 -5.7,0 -17.07,6.64 -28.55,20.04 l -11.33,20 -5.63,-6.64 c 28.6,-40.04 40.04,-53.4 62.82,-53.4 17.07,0 22.69,6.64 22.69,26.64 v 13.4 L 2920,6161.68 v 6.76 c 0,6.64 11.48,13.36 22.97,13.36 h 5.78 v 6.64 c -22.73,0 -40.08,6.64 -62.77,13.36" /><path
         id="path156"
         style="fill:none;stroke:#964b00;stroke-width:32.98690033;stroke-linecap:butt;stroke-linejoin:miter;stroke-miterlimit:4;stroke-dasharray:none;stroke-opacity:1"
         d="M 1954.96,285.512 H 122.301 m 1832.659,0 h 17.15 m -1849.688,0 H 105" /><path
         id="path158"
         style="fill:none;stroke:#964b00;stroke-width:24.70680046;stroke-linecap:butt;stroke-linejoin:miter;stroke-miterlimit:4;stroke-dasharray:none;stroke-opacity:1"
         d="M 1755.23,18.4023 1515.2,265.469 m 240.03,-247.0667 11.33,-6.6406 m -251.13,253.7073 -11.6,6.722 M 1258.4,18.4023 1018.44,265.469 m 239.96,-247.0667 11.44,-6.6406 m -251.4,253.7073 -11.25,6.722 M 767.34,18.4023 521.84,265.469 m 245.5,-247.0667 5.75,-6.6406 m -251.102,253.7073 -5.898,6.722" /><path
         id="path160"
         style="fill:#ffffff;fill-opacity:1;fill-rule:nonzero;stroke:none"
         d="m 1696.13,5045.78 h 267.109 v 307.969 H 1696.13 Z" /><path
         id="path162"
         style="fill:#000000;fill-opacity:1;fill-rule:nonzero;stroke:none"
         d="m 1810.08,5201.48 10.43,22.7 c 12.26,27.11 34.29,61.48 60.9,89.26 16.83,17.34 36.05,29.1 51.13,29.1 18.05,0 30.43,-13.36 30.43,-33.01 0,-19.49 -11.06,-35.15 -30.43,-35.15 -11.76,0 -16.84,7.22 -22.7,16.91 -3.98,6.64 -5.86,9.06 -10.43,9.06 -11.6,0 -29.76,-21.4 -53,-60.78 -28.05,-47.81 -39.53,-73.75 -71.8,-182.62 h -49.45 l 52.61,189.14 c 9.07,33.64 10.24,39.57 10.24,53.01 0,13.75 -11.6,17.15 -24.49,17.15 -5.36,0 -10.43,-0.7 -20.08,-1.99 v 10.94 l 100.15,17.34 2.03,-1.06" /><path
         id="path164"
         style="fill:#ffffff;fill-opacity:1;fill-rule:nonzero;stroke:none"
         d="m 2858.05,5890.35 h 180.98 v 471.68 h -180.98 z" /><path
         id="path166"
         style="fill:#000000;fill-opacity:1;fill-rule:nonzero;stroke:none"
         d="m 3038.75,6347.62 -99.1,-378.75 c -3.2,-11.72 -5.35,-22.7 -5.35,-28.05 0,-7.62 4.68,-11.48 11.21,-11.48 9.65,0 24.57,10.46 43.28,36.87 l 16.33,22.7 8.9,-6.41 c -38.71,-61.41 -62.77,-81.05 -97.73,-81.05 -20.63,0 -31.49,12.5 -31.49,36.44 0,5.35 0.63,12.97 2.66,19.38 l 88.52,339.21 c 1.99,6.64 1.99,10.71 1.99,12.43 0,8 -10.94,14.37 -31.76,14.37 h -11.68 v 10.31 c 38.24,4.57 62.31,9.07 100.51,17.35" /><path
         id="path168"
         style="fill:#ffffff;fill-opacity:1;fill-rule:nonzero;stroke:none"
         d="M 0.738281,4173.98 H 347.73028 v 345.078 H 0.738281 Z" /><path
         id="path170"
         style="fill:#000000;fill-opacity:1;fill-rule:nonzero;stroke:none"
         d="m 336.52,4391.64 c 0,-70.08 -42.379,-136.87 -99.532,-175.23 -31.367,-21.33 -67.258,-34.14 -102.808,-34.14 -62.5394,0 -104.7308,40.85 -104.7308,112.42 0,58.47 35,125.82 84.9608,169.57 33.129,28.79 73.051,46.52 113.789,46.52 69.18,0.51 108.172,-46.09 108.172,-119.14 m -50.512,30.31 c 0,45.12 -23.48,72.93 -61.949,72.93 -35.551,0 -65.82,-24.61 -89.461,-56.09 -34.7185,-47.66 -54.8006,-111.64 -54.8006,-159.57 0,-52.34 22.3006,-81.17 62.8126,-81.17 31.988,0 59.418,18.63 81.449,45.62 40.352,49.85 61.949,128.99 61.949,178.05" /><path
         id="path172"
         style="fill:#ffffff;fill-opacity:1;fill-rule:nonzero;stroke:none"
         d="m 2951.56,4393.16 h 289.3 v -254.72 h -289.14 z" /><path
         id="path174"
         style="fill:#000000;fill-opacity:1;fill-rule:nonzero;stroke:none"
         d="m 3238.95,4377.5 -74.38,-136.88 v -9.33 c 0,-25.12 6.25,-51.84 17.89,-51.84 7.31,0 15.59,9.85 26.68,38.71 l 8.28,-3.71 c -11.48,-38.71 -27.65,-66.09 -52.85,-66.09 -20.04,0 -26.17,23.09 -27.15,55.04 -26.17,-32.11 -62.34,-56.17 -101.48,-56.17 -50.74,0 -70.24,35.66 -70.24,79.65 0,42.42 18.4,86.75 47.82,116.83 22.96,23.48 58.08,40.04 90.5,40.04 44.5,0 66.02,-31.25 66.02,-62.07 l 24.06,55.55 h 44.96 m -99.49,-81.84 c 0,35.59 -6.64,77.42 -40.31,77.42 -32.97,0 -90.55,-71.17 -90.55,-154.37 0,-29.81 9.3,-60.12 36.06,-60.12 36.71,0 72.38,70.82 86.52,100.16 1.99,9.76 8.28,22.77 8.28,37.03" /><path
         id="path176"
         style="fill:#000000;fill-opacity:1;fill-rule:nonzero;stroke:none"
         d="m 4486.68,2875.31 c 0,-77.19 -28.44,-145.82 -63.83,-193.08 -30.97,-41.02 -64.37,-55.67 -97.5,-55.67 -38.75,0 -61.17,31.21 -61.17,81.8 0,102.46 53.87,186.95 105.78,226.41 20.98,15.74 39.1,20.03 58.24,20.03 33.75,0 58.71,-22.69 58.71,-79.6 m -165.54,-78.13 h 111.13 c 8.01,27.66 14.26,61.95 14.26,97.73 0,30.32 -8.4,49.81 -25.12,49.81 -41.37,0 -88.12,-105.47 -100.16,-147.66 m 107.82,-15.35 h -111.25 c -9.14,-23.79 -13.91,-48.63 -13.91,-78.83 0,-42.18 9.06,-66.52 26.68,-66.52 45.86,0 86.88,98.87 98.32,145.35" /><path
         id="path178"
         style="fill:none;stroke:#000000;stroke-width:26.70999908;stroke-linecap:butt;stroke-linejoin:miter;stroke-miterlimit:4;stroke-dasharray:none;stroke-opacity:1"
         d="m 3746.56,2589.22 h 44.07 m 58.75,0 h 88.16 m 58.75,0 h 87.89 m 58.79,0 h 88.08 m 58.83,0 h 88.09 m 58.75,0 h 44.1" /><path
         id="path180"
         style="fill:#000000;fill-opacity:1;fill-rule:nonzero;stroke:none"
         d="m 3746.8,2575.94 h -36.45 l 36.45,21.33 z" /><path
         id="path182"
         style="fill:none;stroke:#000000;stroke-width:26.70999908;stroke-linecap:butt;stroke-linejoin:miter;stroke-miterlimit:4;stroke-dasharray:none;stroke-opacity:1"
         d="m 4480.27,2589.22 h 13.75" /><path
         id="path184"
         style="fill:#ffffff;fill-opacity:1;fill-rule:nonzero;stroke:none"
         d="m 4530.74,3998.24 h 572.97 v -50.08 h -572.97 z m 10.08,-50.08 h 190.27 v -220.35 h -190.27 z" /><path
         id="path186"
         style="fill:none;stroke:#000000;stroke-width:26.70999908;stroke-linecap:butt;stroke-linejoin:miter;stroke-miterlimit:4;stroke-dasharray:none;stroke-opacity:1"
         d="m 4356.17,3948.16 h 43.71 m 58.25,0 h 87.42 m 58.36,0 h 87.54 m 58.24,0 h 87.42 m 58.24,0 h 87.38 m 58.25,0 h 43.59 m -728.05,0 h -13.63" /><path
         id="path188"
         style="fill:#000000;fill-opacity:1;fill-rule:nonzero;stroke:none"
         d="m 5084.34,3948.12 h 19.3789 v 13.3984 H 5084.34 Z" /><path
         id="path190"
         style="fill:#000000;fill-opacity:1;fill-rule:nonzero;stroke:none"
         d="m 4536.09,3836.88 c 0,-77.19 -28.82,-145.86 -64.1,-193.13 -30.97,-40.94 -64.37,-55.7 -97.73,-55.7 -38.75,0 -61.06,31.29 -61.06,81.91 0,102.46 54.07,186.95 106.06,226.33 21.01,15.78 39.1,20.04 58.08,20.04 33.79,0 58.75,-22.7 58.75,-79.57 m -165.54,-78.13 h 111.05 c 8.01,27.66 14.34,61.96 14.34,97.78 0,30.31 -8.87,49.8 -25.35,49.8 -41.45,0 -88.17,-105.51 -100.2,-147.69 m 107.73,-15.4 h -111.09 c -9.06,-23.74 -13.91,-48.59 -13.91,-78.74 0,-42.23 9.38,-66.53 26.72,-66.53 45.94,0 86.84,98.79 98.44,145.27" /><path
         id="path192"
         style="fill:#ffffff;fill-opacity:1;fill-rule:nonzero;stroke:none"
         d="m 1362.27,4004.88 h 1335.51 v 93.5195 H 1362.27 Z" /><path
         id="path194"
         style="fill:none;stroke:#ffffff;stroke-width:26.70999908;stroke-linecap:butt;stroke-linejoin:miter;stroke-miterlimit:4;stroke-dasharray:none;stroke-opacity:1"
         d="m 1362.27,4004.88 h 1335.51 v 93.5195 H 1362.27 Z" /><path
         id="path196"
         style="fill:#ffffff;fill-opacity:1;fill-rule:nonzero;stroke:none"
         d="m 2016.72,3987.15 h 260.391 v 240.352 H 2016.72 Z" /><path
         id="path198"
         style="fill:none;stroke:#000000;stroke-width:26.70999908;stroke-linecap:butt;stroke-linejoin:miter;stroke-miterlimit:4;stroke-dasharray:none;stroke-opacity:1"
         d="m 1362.27,4098.4 h 54.14 m 108.16,0 h 107.85 m 108.21,0 h 108.16 m 108.2,0 h 107.89 m 108.21,0 h 108.16 m 107.89,0 h 108.16 m 108.21,0 h 107.93 m 108.16,0 h 108.2 m 107.9,0 h 54.06" /><path
         id="path200"
         style="fill:#000000;fill-opacity:1;fill-rule:nonzero;stroke:none"
         d="m 1308.87,4085 h 40.0781 v 26.7617 H 1308.87 Z" /><path
         id="path202"
         style="fill:none;stroke:#000000;stroke-width:26.70999908;stroke-linecap:butt;stroke-linejoin:miter;stroke-miterlimit:4;stroke-dasharray:none;stroke-opacity:1"
         d="m 3091.37,4098.4 h 13.79" /></g></g></svg>