<?xml version="1.0" encoding="UTF-8" standalone="no"?>
<svg
   xmlns:dc="http://purl.org/dc/elements/1.1/"
   xmlns:cc="http://creativecommons.org/ns#"
   xmlns:rdf="http://www.w3.org/1999/02/22-rdf-syntax-ns#"
   xmlns:svg="http://www.w3.org/2000/svg"
   xmlns="http://www.w3.org/2000/svg"
   viewBox="0 0 569.33331 338.66666"
   height="338.66666"
   width="569.33331"
   xml:space="preserve"
   id="svg2"
   version="1.1"><metadata
     id="metadata8"><rdf:RDF><cc:Work
         rdf:about=""><dc:format>image/svg+xml</dc:format><dc:type
           rdf:resource="http://purl.org/dc/dcmitype/StillImage" /></cc:Work></rdf:RDF></metadata><defs
     id="defs6" /><g
     transform="matrix(1.3333333,0,0,-1.3333333,0,338.66667)"
     id="g10"><g
       transform="scale(0.1)"
       id="g12"><path
         id="path14"
         style="fill:#ffffff;fill-opacity:1;fill-rule:evenodd;stroke:none"
         d="m 2099.22,909.02 -3.17,30.082 -9.29,27.929 c -56.29,138.239 -253.91,117.419 -284.77,-27.929 l -3.08,-30.082 3.08,-31.051 c 33.44,-143.828 225.59,-164.098 284.77,-27.93 l 9.29,27.93 3.17,31.051" /><path
         id="path16"
         style="fill:none;stroke:#111111;stroke-width:12.40909958;stroke-linecap:round;stroke-linejoin:round;stroke-miterlimit:10;stroke-dasharray:none;stroke-opacity:1"
         d="m 2099.22,909.02 -3.17,30.082 -9.29,27.929 c -56.29,138.239 -253.91,117.419 -284.77,-27.929 l -3.08,-30.082 3.08,-31.051 c 33.44,-143.828 225.59,-164.098 284.77,-27.93 l 9.29,27.93 3.17,31.051" /><path
         id="path18"
         style="fill:#111111;fill-opacity:1;fill-rule:nonzero;stroke:none"
         d="m 1924.77,958.199 27.77,13.75 h 2.69 V 875.43 c 0,-6.481 0.28,-10.59 0.82,-12.149 0.47,-1.48 1.61,-2.621 3.25,-3.511 1.75,-0.942 5.23,-1.329 10.5,-1.329 v -3.242 h -42.89 v 3.242 c 5.36,0 8.79,0.309 10.28,1.047 1.52,0.903 2.69,2.032 3.2,3.524 0.7,1.398 1.09,5.539 1.09,12.418 v 61.48 c 0,8.399 -0.35,13.789 -0.82,16.18 -0.39,1.75 -1.13,3.039 -2.14,3.789 -1.06,0.851 -2.35,1.32 -3.75,1.32 -2.19,0 -5.08,-0.859 -8.64,-2.418 z" /><path
         id="path20"
         style="fill:#f8e135;fill-opacity:1;fill-rule:evenodd;stroke:none"
         d="m 3371.21,2334.84 -3077.538,-919.29 12.148,1.87 c 69.102,11.29 109.918,-85.7 38.629,-129.26 l -12.648,-3.86 3078.939,916.95 -15.35,-2.11 c -80.35,-0.66 -100.94,93.13 -38.05,128.01 z" /><path
         id="path22"
         style="fill:none;stroke:#111111;stroke-width:5.14615011;stroke-linecap:round;stroke-linejoin:round;stroke-miterlimit:10;stroke-dasharray:none;stroke-opacity:1"
         d="m 3371.21,2334.84 -3077.538,-919.29 12.148,1.87 c 69.102,11.29 109.918,-85.7 38.629,-129.26 l -12.648,-3.86 3078.939,916.95 -15.35,-2.11 c -80.35,-0.66 -100.94,93.13 -38.05,128.01 z" /><path
         id="path24"
         style="fill:#ffffff;fill-opacity:1;fill-rule:evenodd;stroke:none"
         d="m 234.488,1308.2 -5.699,16.25 -3.09,14.53 c -9.328,77.54 90.16,134.85 151.84,67.97 l 9.449,-14.18 8.403,-18 c 25.429,-87.43 -79.34,-142.23 -138.051,-92.86 l -10.66,10.36 -12.192,15.93" /><path
         id="path26"
         style="fill:none;stroke:#111111;stroke-width:17.12999916;stroke-linecap:round;stroke-linejoin:round;stroke-miterlimit:10;stroke-dasharray:none;stroke-opacity:1"
         d="m 234.488,1308.2 -5.699,16.25 -3.09,14.53 c -9.328,77.54 90.16,134.85 151.84,67.97 l 9.449,-14.18 8.403,-18 c 25.429,-87.43 -79.34,-142.23 -138.051,-92.86 l -10.66,10.36 -12.192,15.93" /><path
         id="path28"
         style="fill:#ff7f2a;fill-opacity:1;fill-rule:evenodd;stroke:none"
         d="m 3427.77,2283.24 677.27,-1189.1 -7.58,11.09 c -57.54,53.01 -134.22,4.61 -120.7,-66.32 l 7.03,-14.22 -680,1188.43 8.55,-9.37 c 48.83,-59.53 143.64,-5.27 119.26,65.9 l -3.83,13.59" /><path
         id="path30"
         style="fill:none;stroke:#111111;stroke-width:5.14616013;stroke-linecap:round;stroke-linejoin:round;stroke-miterlimit:10;stroke-dasharray:none;stroke-opacity:1"
         d="m 3427.77,2283.25 677.27,-1189.11 -7.58,11.1 c -57.54,53.01 -134.21,4.6 -120.71,-66.33 l 7.04,-14.22 -680,1188.44 8.55,-9.38 c 48.83,-59.53 143.64,-5.27 119.27,65.89 l -3.84,13.61" /><path
         id="path32"
         style="fill:#ffffff;fill-opacity:1;fill-rule:evenodd;stroke:none"
         d="m 3283.91,2225.16 -4.61,16.36 -0.43,17.58 c 16.17,86.33 124.33,102.81 165.62,28.83 l 9.18,-32.7 c 2.5,-85.54 -97.46,-126.68 -156.4,-61.68 l -8.75,15.28 -4.61,16.33" /><path
         id="path34"
         style="fill:none;stroke:#111111;stroke-width:17.12999916;stroke-linecap:round;stroke-linejoin:round;stroke-miterlimit:10;stroke-dasharray:none;stroke-opacity:1"
         d="m 3283.91,2225.16 -4.62,16.37 -0.42,17.57 c 16.17,86.33 124.34,102.81 165.63,28.83 l 9.18,-32.7 c 2.5,-85.54 -97.47,-126.67 -156.41,-61.68 l -8.75,15.28 -4.61,16.33" /><path
         id="path36"
         style="fill:#ffffff;fill-opacity:1;fill-rule:evenodd;stroke:none"
         d="m 3959.73,1035.62 -1.8,17.15 -0.43,17.5 c 11.99,80.47 128.75,103.87 164.18,28.52 l 7.38,-15.55 1.84,-17.22 c 5.9,-85.469 -98.13,-125.43 -155,-61.22 l -8.75,15.2 -7.42,15.62" /><path
         id="path38"
         style="fill:#ff2a2a;fill-opacity:1;fill-rule:evenodd;stroke:none"
         d="M 4080.23,994.691 2953.98,217.34 l 10.4,8.519 c 47.89,61.871 -6.96,134.102 -76.49,114.532 l -13.55,-8.243 1125.35,780.002 -8.64,-9.34 c -55.07,-53.75 7.19,-143.548 75.98,-113.119 l 13.2,5" /><path
         id="path40"
         style="fill:none;stroke:#111111;stroke-width:5.14615011;stroke-linecap:round;stroke-linejoin:round;stroke-miterlimit:10;stroke-dasharray:none;stroke-opacity:1"
         d="M 4080.23,994.691 2953.98,217.34 l 10.4,8.519 c 47.89,61.871 -6.96,134.102 -76.49,114.532 l -13.55,-8.243 1125.35,780.002 -8.64,-9.34 c -55.07,-53.75 7.19,-143.548 75.98,-113.119 l 13.2,5" /><path
         id="path42"
         style="fill:#ffffff;fill-opacity:1;fill-rule:evenodd;stroke:none"
         d="m 4009.96,1133.01 15.9,5.97 17.5,2 c 87.38,-8.71 113.16,-115.04 43.01,-162.539 l -31.8,-11.992 c -85,-9.89 -134.61,86.171 -74.96,150.501 l 14.45,10.04 15.9,6.02" /><path
         id="path44"
         style="fill:none;stroke:#111111;stroke-width:17.12999916;stroke-linecap:round;stroke-linejoin:round;stroke-miterlimit:10;stroke-dasharray:none;stroke-opacity:1"
         d="m 4009.96,1133.01 15.9,5.97 17.5,2 c 87.38,-8.71 113.16,-115.04 43.01,-162.539 l -31.8,-11.992 c -85,-9.89 -134.61,86.171 -74.96,150.501 l 14.45,10.04 15.9,6.02" /><path
         id="path46"
         style="fill:#ffffff;fill-opacity:1;fill-rule:evenodd;stroke:none"
         d="m 2883.2,357.07 16.92,3.239 17.42,1.961 c 81.17,-5 114.57,-119.301 42.54,-161.098 l -14.85,-8.711 -16.99,-3.281 c -84.65,-13.239 -133.44,86.91 -74.37,149.101 l 14.37,10.039 14.96,8.75" /><path
         id="path48"
         style="fill:#ffffff;fill-opacity:1;fill-rule:evenodd;stroke:none"
         d="m 2883.2,357.07 15.9,5.981 17.46,1.988 C 3003.98,356.332 3029.77,250 2959.61,202.5 l -31.8,-11.988 c -85.04,-9.891 -134.65,86.168 -74.96,150.508 l 14.45,10.031 15.9,6.019" /><path
         id="path50"
         style="fill:none;stroke:#111111;stroke-width:17.12999916;stroke-linecap:round;stroke-linejoin:round;stroke-miterlimit:10;stroke-dasharray:none;stroke-opacity:1"
         d="m 2883.2,357.07 15.9,5.981 17.46,1.988 C 3003.98,356.332 3029.77,250 2959.61,202.5 l -31.8,-11.988 c -85.04,-9.891 -134.65,86.168 -74.96,150.508 l 14.45,10.031 15.9,6.019" /><path
         id="path52"
         style="fill:none;stroke:#000000;stroke-width:10.64509964;stroke-linecap:butt;stroke-linejoin:miter;stroke-miterlimit:4;stroke-dasharray:none;stroke-opacity:1"
         d="M 310.078,1352.27 C 1178.24,992.852 2046.41,633.441 2914.57,274.02" /><path
         id="path54"
         style="fill:none;stroke:#111111;stroke-width:5.2505002;stroke-linecap:round;stroke-linejoin:round;stroke-miterlimit:10;stroke-dasharray:none;stroke-opacity:1"
         d="m 310.078,1352.27 1857.032,550.7" /><path
         id="path56"
         style="fill:none;stroke:#000000;stroke-width:10.64509964;stroke-linecap:butt;stroke-linejoin:miter;stroke-miterlimit:4;stroke-dasharray:none;stroke-opacity:1"
         d="M 310.078,1352.27 H 1843.55" /><path
         id="path58"
         style="fill:#000000;fill-opacity:1;fill-rule:nonzero;stroke:none"
         d="m 305.078,1352.62 c 0,1.4 0.512,2.58 1.524,3.47 0.937,0.94 2.187,1.49 3.628,1.49 1.45,0 2.7,-0.55 3.68,-1.49 0.969,-0.89 1.481,-2.07 1.481,-3.47 0,-1.49 -0.512,-2.74 -1.481,-3.67 -0.98,-1.02 -2.23,-1.49 -3.68,-1.49 -1.441,0 -2.691,0.47 -3.628,1.49 -1.012,0.93 -1.524,2.18 -1.524,3.67 z" /><path
         id="path60"
         style="fill:none;stroke:#000000;stroke-width:8.87115955;stroke-linecap:butt;stroke-linejoin:miter;stroke-miterlimit:4;stroke-dasharray:none;stroke-opacity:1"
         d="M 2038.98,274.02 H 3617.73" /><path
         id="path62"
         style="fill:#000000;fill-opacity:1;fill-rule:nonzero;stroke:none"
         d="m 2909.06,274.34 c 0,1.601 0.55,2.93 1.64,3.941 1.06,1.098 2.42,1.719 4.03,1.719 1.56,0 2.93,-0.621 4.02,-1.719 1.05,-1.011 1.64,-2.34 1.64,-3.941 0,-1.641 -0.59,-3.051 -1.64,-4.141 -1.09,-1.14 -2.46,-1.679 -4.02,-1.679 -1.61,0 -2.97,0.539 -4.03,1.679 -1.09,1.09 -1.64,2.5 -1.64,4.141 z" /><path
         id="path64"
         style="fill:none;stroke:#111111;stroke-width:2.96297002;stroke-linecap:round;stroke-linejoin:round;stroke-miterlimit:10;stroke-dasharray:none;stroke-opacity:1"
         d="m 2907.93,273.199 692.62,470.16" /><path
         id="path66"
         style="fill:none;stroke:#111111;stroke-width:5.2505002;stroke-linecap:round;stroke-linejoin:round;stroke-miterlimit:10;stroke-dasharray:none;stroke-opacity:1"
         d="m 1384.8,1356.99 v 75.86 l -4.33,77.31 -7.34,75.74 -10.24,74.45" /><path
         id="path68"
         style="fill:#111111;fill-opacity:1;fill-rule:evenodd;stroke:none"
         d="m 1362.89,1660.35 8.52,-28.63 14.96,-24.92 19.92,-24.22 26.6,-18.52 -28.94,5.9 -29.42,1.56 -29.92,-4.72 -27.03,-12.54 21.87,23.67 12.07,24.57 8.75,29.18 2.62,28.67" /><path
         id="path70"
         style="fill:none;stroke:#111111;stroke-width:3.69812012;stroke-linecap:round;stroke-linejoin:round;stroke-miterlimit:10;stroke-dasharray:none;stroke-opacity:1"
         d="m 3489.96,278.832 -1.05,42.066 c -11.45,83.59 -58.44,161.762 -126.33,211.641 l -36.99,23.633" /><path
         id="path72"
         style="fill:#111111;fill-opacity:1;fill-rule:evenodd;stroke:none"
         d="m 3325.59,556.172 33.51,-20.274 38.09,-13.828 37.97,-5.269 38.86,3.898 -31.09,-16.211 -25.66,-24.918 -18.52,-30.699 -11.76,-33.32 -3.87,38.937 -11.71,37.5 -21.06,33.211 -24.76,30.973" /><path
         id="path74"
         style="fill:none;stroke:#111111;stroke-width:6.58491993;stroke-linecap:round;stroke-linejoin:round;stroke-miterlimit:10;stroke-dasharray:none;stroke-opacity:1"
         d="m 2342.62,283.199 v 52.891 l 9.88,53.91 16.48,52.852 23.13,51.918" /><path
         id="path76"
         style="fill:#111111;fill-opacity:1;fill-rule:evenodd;stroke:none"
         d="m 2393.87,488.32 -9.92,-28.09 -3.01,-28.039 1.05,-29.812 9.3,-28.16 -18.2,18.711 -20.98,15.308 -24.92,10.282 -27.19,2.339 29.65,9.45 22.97,14.89 23.04,20.313 18.21,22.808" /><path
         id="path78"
         style="fill:#111111;fill-opacity:1;fill-rule:nonzero;stroke:none"
         d="m 88.0898,1279.65 14.8012,-129.53 93.437,129.53 h 39.141 v -4.57 c -8.36,-0.59 -13.399,-1.06 -14.809,-1.53 -2.851,-1.05 -5.43,-3.24 -7.609,-6.44 -2.071,-3.05 -4.379,-8.95 -6.84,-17.5 l -29.609,-102.15 c -1.832,-5.9 -2.653,-10.55 -2.653,-14.06 0,-3.05 0.93,-5.39 3,-6.84 2.973,-2.26 7.821,-3.4 14.461,-3.4 h 2.649 l -1.129,-4.57 h -67.621 l 1.14,4.57 h 3.43 c 5.781,0 10.351,0.75 13.672,2.27 2.187,1.25 4.379,3.59 6.449,7.23 1.988,3.51 4.77,11.36 8.359,23.55 l 26.602,93.4 -94.2227,-131.02 H 86.2109 L 71.0195,1249.61 42.5,1150.12 c -2.5391,-8.64 -3.7891,-14.34 -3.7891,-17.11 0,-3.01 0.9375,-5.39 3.0508,-6.84 2.1875,-1.48 7.418,-2.54 15.5781,-3.01 l -1.1679,-4.57 H 3.01172 l 1.12891,4.57 h 3.4375 c 7.77347,0 13.47267,1.88 17.07027,5.71 2.5,2.73 5.1524,8.9 8.0118,18.59 l 34.9179,120 c -2.8476,2.77 -5.3867,4.57 -7.5781,5.35 -2.3008,0.94 -6.7617,1.68 -13.3203,2.27 l 1.5195,4.57 z" /><path
         id="path80"
         style="fill:#111111;fill-opacity:1;fill-rule:nonzero;stroke:none"
         d="m 2982.93,165.59 49.77,-126.1017 26.95,94.2227 c 2.19,7.5 3.44,13.48 3.44,17.848 0,2.929 -1.06,5.32 -3.05,6.839 -2.11,1.684 -5.9,2.653 -11.41,2.653 -1.05,0 -2.07,0 -3.04,0 l 1.13,4.539 h 52.07 l -1.52,-4.539 c -5.36,0.199 -9.42,-0.313 -12.19,-1.52 -3.6,-1.801 -6.33,-3.98 -8.32,-6.441 -2.58,-3.828 -5.16,-10.36 -7.62,-19.379 L 3031.17,0.78125 h -4.18 L 2973.44,136.719 2944.96,36.4805 c -2.3,-7.6094 -3.44,-13.5117 -3.44,-17.5 0,-3.0391 0.94,-5.3907 3.05,-6.8321 1.99,-1.5273 6.56,-2.53902 13.67,-3.04684 l -1.13,-4.53125 h -50.51 l 1.88,4.53125 c 6.29,0 10.47,0.50782 12.54,1.51954 3.24,1.4492 5.7,3.4375 7.22,5.7109 2.19,3.2383 4.73,9.9571 7.58,20.1485 l 31.91,111.6405 c -3.04,4.77 -6.36,8.09 -9.88,9.891 -3.59,1.718 -9.02,2.726 -16.33,3.039 l 1.53,4.539 z" /><path
         id="path82"
         style="fill:#111111;fill-opacity:1;fill-rule:nonzero;stroke:none"
         d="m 3276.48,2539.26 -12.14,-133.71 c -0.79,-6.37 -1.18,-10.55 -1.18,-12.54 0,-3.01 0.59,-5.51 1.92,-7.19 1.4,-2.3 3.51,-3.98 6.09,-4.96 2.46,-1.02 6.84,-1.52 12.89,-1.52 l -1.13,-4.54 h -63.44 l 1.13,4.54 h 2.66 c 5.24,0 9.53,0.97 12.54,3.04 2.5,1.45 4.38,3.99 5.7,7.62 0.67,2.46 1.53,8.36 2.31,17.46 l 1.87,20.12 h -45.93 l -16.33,-22.03 c -3.83,-5.12 -6.29,-8.83 -7.23,-11.02 -0.78,-2.07 -1.13,-3.98 -1.13,-5.7 0,-2.54 0.94,-4.85 3.01,-6.84 1.99,-1.79 5.43,-2.65 10.27,-2.65 l -1.52,-4.54 h -47.46 l 1.13,4.54 c 5.9,0.19 11.01,2.11 15.54,5.7 4.5,3.71 11.22,11.6 20.16,23.55 l 96.09,130.67 z m -23.55,-39.49 -46.72,-63.44 h 40.63 z" /><path
         id="path84"
         style="fill:#111111;fill-opacity:1;fill-rule:nonzero;stroke:none"
         d="m 4152.97,971.051 1.52,4.539 h 57.39 c 9.57,0 18.2,-1.61 25.82,-4.539 7.5,-3.039 13.28,-7.34 17.07,-12.531 3.71,-5.321 5.7,-11.141 5.7,-17.11 0,-9.422 -3.52,-17.93 -10.24,-25.43 -6.68,-7.429 -17.57,-12.82 -32.69,-16.332 9.8,-3.628 17.11,-8.476 21.68,-14.449 4.45,-6.058 6.83,-12.738 6.83,-19.73 0,-8.199 -2.1,-15.86 -6.09,-23.199 -4.06,-7.11 -9.41,-12.7 -15.94,-16.68 -6.36,-4.11 -14.14,-7.149 -23.16,-9.141 -6.68,-1.328 -16.84,-1.879 -30.39,-1.879 h -59.26 l 1.52,4.532 c 6.25,0 10.63,0.468 12.89,1.519 2.97,1.449 5.16,3.25 6.49,5.32 1.99,2.969 4.53,10 7.58,20.899 l 28.86,97.219 c 2.47,8.281 3.79,14.14 3.79,17.461 0,2.781 -1.21,5.039 -3.39,6.839 -2.11,1.719 -6.18,2.692 -12.15,2.692 -1.53,0 -2.85,0 -3.83,0 z m 23.94,-66.871 c 5.04,0 8.83,0 11.41,0 16.41,0 28.56,3.519 36.45,10.66 8.08,7 12.14,16.019 12.14,26.961 0,8.039 -2.53,14.41 -7.57,18.98 -4.85,4.449 -12.62,6.84 -23.17,6.84 -3.05,0 -6.76,-0.59 -11.01,-1.531 z m -23.16,-78.981 c 8.24,-1.328 14.92,-1.918 19.77,-1.918 12.34,0 23.24,3.629 32.65,11.02 9.57,7.5 14.42,17.648 14.42,30.39 0,9.758 -2.93,17.457 -8.71,22.77 -5.9,5.508 -15.4,8.359 -28.52,8.359 -2.54,0 -5.59,-0.199 -9.1,-0.351 z" /><path
         id="path86"
         style="fill:#f8e135;fill-opacity:1;fill-rule:evenodd;stroke:none"
         d="m 1919.96,2123.48 -3.01,28.98 -9.06,27.07 c -58.44,134.38 -244.06,114.61 -277.23,-27.07 l -1.01,-28.98 1.01,-29.07 c 34.89,-139.64 213.95,-160.86 277.23,-28.04 l 9.06,28.04 3.01,29.07" /><path
         id="path88"
         style="fill:none;stroke:#111111;stroke-width:11.99489975;stroke-linecap:round;stroke-linejoin:round;stroke-miterlimit:10;stroke-dasharray:none;stroke-opacity:1"
         d="m 1919.96,2123.48 -3.01,28.98 -9.06,27.07 c -58.44,134.38 -244.06,114.61 -277.23,-27.07 l -1.01,-28.98 1.01,-29.07 c 34.89,-139.64 213.95,-160.86 277.23,-28.04 l 9.06,28.04 3.01,29.07" /><path
         id="path90"
         style="fill:#111111;fill-opacity:1;fill-rule:nonzero;stroke:none"
         d="m 1740.35,2160.78 c 3.05,7.46 7.03,13.17 11.72,17.23 4.84,4.1 10.82,6.25 18.01,6.25 8.79,0 15.62,-3.01 20.31,-8.87 3.59,-4.18 5.47,-8.71 5.47,-13.55 0,-8.21 -5.08,-16.57 -15.12,-25 6.72,-2.62 11.88,-6.49 15.39,-11.49 3.44,-4.88 5.2,-10.74 5.2,-17.46 0,-9.57 -3.05,-17.85 -9.1,-24.77 -8.01,-9.25 -19.5,-13.82 -34.42,-13.82 -7.5,0 -12.65,0.97 -15.39,2.89 -2.58,1.87 -3.9,3.9 -3.9,5.97 0,1.49 0.58,2.93 1.83,4.18 1.37,1.18 2.93,1.84 4.69,1.84 1.37,0 2.73,-0.35 4.18,-0.78 0.82,-0.2 2.93,-1.17 6.25,-2.89 3.24,-1.76 5.55,-2.81 6.76,-3.13 1.91,-0.5 4.06,-0.78 6.52,-0.78 5.35,0 10.2,2.07 14.34,6.25 4.1,4.3 6.25,9.45 6.25,15.39 0,4.3 -0.98,8.48 -2.86,12.5 -1.44,2.93 -3,5.28 -4.68,7.03 -2.46,2.03 -5.67,3.99 -9.65,5.75 -4.03,1.71 -8.2,2.61 -12.5,2.61 h -2.62 v 2.62 c 4.3,0.43 8.67,1.95 13.05,4.41 4.3,2.54 7.42,5.63 9.37,9.14 1.88,3.56 2.85,7.62 2.85,12 0,5.5 -1.75,10.04 -5.19,13.55 -3.52,3.44 -7.89,5.2 -13.05,5.2 -8.51,0 -15.58,-4.57 -21.09,-13.56 z" /><path
         id="path92"
         style="fill:#ff7f2a;fill-opacity:1;fill-rule:evenodd;stroke:none"
         d="m 4117.42,1765.12 -4.06,29.06 -8.01,26.99 c -59.8,131.92 -242.65,113.91 -275.27,-26.99 l -3.95,-29.06 3.95,-28.99 c 29.8,-142.15 217.03,-161.01 275.27,-28.04 l 8.01,28.04 4.06,28.99" /><path
         id="path94"
         style="fill:none;stroke:#111111;stroke-width:11.99489975;stroke-linecap:round;stroke-linejoin:round;stroke-miterlimit:10;stroke-dasharray:none;stroke-opacity:1"
         d="m 4117.42,1765.12 -4.06,29.06 -8.01,26.99 c -59.8,131.92 -242.65,113.91 -275.27,-26.99 l -3.95,-29.06 3.95,-28.99 c 29.8,-142.15 217.03,-161.01 275.27,-28.04 l 8.01,28.04 4.06,28.99" /><path
         id="path96"
         style="fill:#111111;fill-opacity:1;fill-rule:nonzero;stroke:none"
         d="m 4005.59,1734.45 -7.54,-21.36 h -65.2 v 3.12 c 19.1,17.34 32.58,31.6 40.43,42.77 7.74,11.06 11.72,21.25 11.72,30.47 0,6.92 -2.23,12.66 -6.52,17.23 -4.18,4.49 -9.3,6.76 -15.39,6.76 -5.39,0 -10.28,-1.68 -14.57,-4.92 -4.38,-3.17 -7.5,-7.78 -9.38,-13.83 h -3.16 c 1.36,10.04 4.84,17.77 10.43,23.2 5.54,5.35 12.57,8.09 21.13,8.09 8.79,0 16.29,-3.01 22.42,-8.87 6.06,-5.74 9.1,-12.58 9.1,-20.35 0,-5.59 -1.36,-11.14 -3.9,-16.68 -4.18,-8.87 -10.75,-18.17 -19.54,-27.89 -13.55,-14.81 -22.1,-23.79 -25.54,-26.84 h 28.9 c 5.9,0 10,0.12 12.27,0.51 2.42,0.47 4.57,1.44 6.52,2.89 1.88,1.37 3.52,3.24 4.96,5.7 z" /><path
         id="path98"
         style="fill:#ff8080;fill-opacity:1;fill-rule:evenodd;stroke:none"
         d="m 3488.83,924.262 -3.01,30 -8.98,27.027 c -48.68,131.131 -249.93,110.981 -274.3,-27.027 l -3.99,-30 3.99,-29.063 c 24.1,-138.988 226.01,-159.148 274.3,-27.039 l 8.98,27.039 3.01,29.063" /><path
         id="path100"
         style="fill:none;stroke:#111111;stroke-width:11.99489975;stroke-linecap:round;stroke-linejoin:round;stroke-miterlimit:10;stroke-dasharray:none;stroke-opacity:1"
         d="m 3488.83,924.262 -3.01,30 -8.98,27.027 c -48.68,131.131 -249.93,110.981 -274.3,-27.027 l -3.99,-30 3.99,-29.063 c 24.1,-138.988 226.01,-159.148 274.3,-27.039 l 8.98,27.039 3.01,29.063" /><path
         id="path102"
         style="fill:#111111;fill-opacity:1;fill-rule:nonzero;stroke:none"
         d="m 3379.34,913.871 v -11.492 h -14.85 v -29.18 h -13.55 v 29.18 h -46.68 v 10.43 l 51.36,73.242 h 8.87 v -72.18 z m -28.4,0 v 55 l -38.6,-55 z" /><g
         transform="scale(10)"
         id="g104"><text
           id="text108"
           style="font-style:italic;font-variant:normal;font-size:29.57259941px;font-family:TimesNewRomanPS;-inkscape-font-specification:TimesNewRomanPS-ItalicMT;writing-mode:lr-tb;fill:#000000;fill-opacity:1;fill-rule:nonzero;stroke:none"
           transform="matrix(1,0,0,-1,143.362,141.537)"><tspan
             id="tspan106"
             y="0"
             x="0">α</tspan></text>
<text
           id="text112"
           style="font-style:italic;font-variant:normal;font-size:22.96430016px;font-family:TimesNewRomanPS;-inkscape-font-specification:TimesNewRomanPS-ItalicMT;writing-mode:lr-tb;fill:#000000;fill-opacity:1;fill-rule:nonzero;stroke:none"
           transform="matrix(1,0,0,-1,349.83,34.458)"><tspan
             id="tspan110"
             y="0"
             x="0">θ</tspan></text>
<text
           id="text116"
           style="font-style:italic;font-variant:normal;font-size:19.68930054px;font-family:TimesNewRomanPS;-inkscape-font-specification:TimesNewRomanPS-ItalicMT;writing-mode:lr-tb;fill:#000000;fill-opacity:1;fill-rule:nonzero;stroke:none"
           transform="matrix(1,0,0,-1,218.599,34.377531)"><tspan
             id="tspan114"
             y="0"
             x="0">β</tspan></text>
</g></g></g></svg>