<?xml version="1.0" encoding="UTF-8" standalone="no"?>
<!-- Created with Inkscape (http://www.inkscape.org/) -->

<svg
   xmlns:dc="http://purl.org/dc/elements/1.1/"
   xmlns:cc="http://creativecommons.org/ns#"
   xmlns:rdf="http://www.w3.org/1999/02/22-rdf-syntax-ns#"
   xmlns:svg="http://www.w3.org/2000/svg"
   xmlns="http://www.w3.org/2000/svg"
   xmlns:sodipodi="http://sodipodi.sourceforge.net/DTD/sodipodi-0.dtd"
   xmlns:inkscape="http://www.inkscape.org/namespaces/inkscape"
   version="1.1"
   id="svg2"
   xml:space="preserve"
   width="441.33334"
   height="413.33334"
   viewBox="0 0 441.33334 413.33334"
   sodipodi:docname="four-bars-vector-loop2.svg"
   inkscape:version="0.92.3 (2405546, 2018-03-11)"><metadata
     id="metadata8"><rdf:RDF><cc:Work
         rdf:about=""><dc:format>image/svg+xml</dc:format><dc:type
           rdf:resource="http://purl.org/dc/dcmitype/StillImage" /><dc:title></dc:title></cc:Work></rdf:RDF></metadata><defs
     id="defs6"><inkscape:path-effect
   effect="powerstroke"
   id="path-effect1254"
   is_visible="true"
   offset_points="1,0.375"
   sort_points="true"
   interpolator_type="CubicBezierJohan"
   interpolator_beta="0.2"
   start_linecap_type="zerowidth"
   linejoin_type="extrp_arc"
   miter_limit="4"
   end_linecap_type="zerowidth" /><inkscape:path-effect
   effect="simplify"
   id="path-effect1252"
   is_visible="true"
   steps="1"
   threshold="0.000408163"
   smooth_angles="360"
   helper_size="0"
   simplify_individual_paths="false"
   simplify_just_coalesce="false"
   simplifyindividualpaths="false"
   simplifyJustCoalesce="false" />












</defs><sodipodi:namedview
     pagecolor="#ffffff"
     bordercolor="#666666"
     borderopacity="1"
     objecttolerance="10"
     gridtolerance="10"
     guidetolerance="10"
     inkscape:pageopacity="0"
     inkscape:pageshadow="2"
     inkscape:window-width="1316"
     inkscape:window-height="728"
     id="namedview4"
     showgrid="false"
     inkscape:zoom="1.1665688"
     inkscape:cx="92.302796"
     inkscape:cy="236.99261"
     inkscape:window-x="50"
     inkscape:window-y="0"
     inkscape:window-maximized="1"
     inkscape:current-layer="g10" /><g
     id="g10"
     inkscape:groupmode="layer"
     inkscape:label="ink_ext_XXXXXX"
     transform="matrix(1.3333333,0,0,-1.3333333,0,413.33333)"><path
       inkscape:connector-curvature="0"
       id="path158"
       style="fill:#000000;fill-opacity:1;fill-rule:nonzero;stroke:none;stroke-width:0.1"
       d="M 23.351356,118.95912 189.06539,253.07728" /><path
       inkscape:connector-curvature="0"
       id="path160"
       style="fill:none;stroke:#ffff00;stroke-width:0.75;stroke-linecap:butt;stroke-linejoin:miter;stroke-miterlimit:4;stroke-dasharray:none;stroke-opacity:1"
       d="M 23.351356,118.95912 189.06539,253.07728" /><path
       inkscape:connector-curvature="0"
       id="path162"
       style="fill:none;stroke:#000000;stroke-width:0.75;stroke-linecap:butt;stroke-linejoin:miter;stroke-miterlimit:4;stroke-dasharray:none;stroke-opacity:1"
       d="m 25.483531,118.97678 196.436959,0.12853" /><path
       inkscape:connector-curvature="0"
       id="path164"
       style="fill:#ff7f2a;fill-opacity:1;fill-rule:nonzero;stroke:none;stroke-width:0.1"
       d="m 223.98363,122.30834 50.38832,77.83452" /><path
       inkscape:connector-curvature="0"
       id="path166"
       style="fill:none;stroke:#ff7f2a;stroke-width:0.75;stroke-linecap:butt;stroke-linejoin:miter;stroke-miterlimit:4;stroke-dasharray:none;stroke-opacity:1"
       d="m 223.98363,122.30834 50.38832,77.83452" /><path
       inkscape:connector-curvature="0"
       id="path168"
       style="fill:#ff2a2a;fill-opacity:1;fill-rule:nonzero;stroke:none;stroke-width:0.1"
       d="m 196.85565,259.41726 72.75172,-55.66013" /><path
       inkscape:connector-curvature="0"
       id="path170"
       style="fill:none;stroke:#ff2a2a;stroke-width:0.75;stroke-linecap:butt;stroke-linejoin:miter;stroke-miterlimit:4;stroke-dasharray:none;stroke-opacity:1"
       d="m 196.85565,259.41726 72.75172,-55.66013" /><path
       inkscape:connector-curvature="0"
       id="path172"
       style="fill:#000000;fill-opacity:1;fill-rule:evenodd;stroke:none;stroke-width:0.1"
       d="m 33.434397,115.47945 -10.085608,3.49604 10.065334,3.21081 0.02027,-6.70685" /><path
       inkscape:connector-curvature="0"
       id="path174"
       style="fill:#ffff00;fill-opacity:1;fill-rule:evenodd;stroke:none;stroke-width:0.1"
       d="m 186.95689,255.47972 4.39883,-5.06831 5.523,9.00242 z" /><path
       inkscape:connector-curvature="0"
       id="path176"
       style="fill:#ff7f2a;fill-opacity:1;fill-rule:evenodd;stroke:none;stroke-width:0.1"
       d="m 230.25729,125.76935 -8.3368,-6.66404 2.65094,10.22601 5.68586,-3.56197" /><path
       inkscape:connector-curvature="0"
       id="path180"
       style="fill:#ff2a2a;fill-opacity:1;fill-rule:evenodd;stroke:none;stroke-width:0.1"
       d="m 268.53377,209.06704 5.83173,-8.93996 -9.91868,3.62397 4.08695,5.31599" /><path
       inkscape:connector-curvature="0"
       id="path184"
       style="fill:none;stroke:#111111;stroke-width:0.26731235;stroke-linecap:round;stroke-linejoin:round;stroke-miterlimit:10;stroke-dasharray:none;stroke-opacity:1"
       d="M 3.3286798,118.96029 H 319.64999" /><path
       inkscape:connector-curvature="0"
       id="path186"
       style="fill:none;stroke:#111111;stroke-width:0.25920999;stroke-linecap:round;stroke-linejoin:round;stroke-miterlimit:10;stroke-dasharray:none;stroke-opacity:1"
       d="m 23.348789,118.97549 v 123.0669" /><path
       inkscape:connector-curvature="0"
       id="path190"
       style="fill:#111111;fill-opacity:1;fill-rule:evenodd;stroke:none;stroke-width:0.1"
       d="m 23.266789,246.29539 0.3012,-1.5 0.539,-1.558 0.8981,-1.383 1.141,-1.199 -1.4383,0.48 -1.441,0.239 -1.4418,-0.239 -1.3199,-0.48 1.141,1.199 0.7809,1.383 0.6601,1.558 0.1797,1.5" /><path
       inkscape:connector-curvature="0"
       id="path192"
       style="fill:#111111;fill-opacity:1;fill-rule:evenodd;stroke:none;stroke-width:0.1"
       d="m 324.68899,118.96029 -1.618,-0.2969 -1.441,-0.543 -1.441,-0.95698 -1.141,-1.08204 0.543,1.44102 0.059,1.4379 -0.059,1.441 -0.543,1.441 1.141,-1.1398 1.441,-0.9031 1.441,-0.5391 1.618,-0.3" /><path
       inkscape:connector-curvature="0"
       id="path196"
       style="fill:#ffffff;fill-opacity:1;fill-rule:evenodd;stroke:none;stroke-width:0.1"
       d="m 148.15009,134.78877 -0.91325,1.56988 -1.06176,1.31459 c -5.95649,6.10118 -16.29159,0.55355 -14.67672,-7.84358 l 0.52346,-1.73159 0.83265,-1.53739 c 4.84462,-7.06152 15.91236,-3.768 15.94271,4.79187 l -0.20423,1.73713 -0.44286,1.69909" /><path
       inkscape:connector-curvature="0"
       id="path198"
       style="fill:none;stroke:#111111;stroke-width:0.71999997;stroke-linecap:round;stroke-linejoin:round;stroke-miterlimit:10;stroke-dasharray:none;stroke-opacity:1"
       d="m 148.15009,134.78877 -0.91325,1.56988 -1.06176,1.31459 c -5.95649,6.10118 -16.29159,0.55355 -14.67672,-7.84358 l 0.52346,-1.73159 0.83265,-1.53739 c 4.84462,-7.06152 15.91236,-3.768 15.94271,4.79187 l -0.20423,1.73713 -0.44286,1.69909" /><path
       inkscape:connector-curvature="0"
       id="path200"
       style="fill:#111111;fill-opacity:1;fill-rule:nonzero;stroke:none;stroke-width:0.1"
       d="m 138.57973,134.31141 1.60302,0.80925 0.15699,0.001 0.0416,-5.59394 c 0.003,-0.375 0.0196,-0.61278 0.0512,-0.70284 0.0286,-0.0857 0.0951,-0.15201 0.1895,-0.2013 0.10241,-0.0543 0.30558,-0.0758 0.60957,-0.0736 l 0.001,-0.18789 -2.48393,-0.0185 -0.001,0.18789 c 0.30899,0.002 0.50785,0.0229 0.59352,0.0665 0.0896,0.0515 0.15513,0.11796 0.18549,0.20409 0.0384,0.0824 0.0606,0.32156 0.0576,0.71965 l -0.0265,3.562 c -0.004,0.48898 -0.026,0.80062 -0.054,0.93752 -0.0248,0.10172 -0.0683,0.1756 -0.12662,0.21817 -0.0634,0.0503 -0.13758,0.0767 -0.21957,0.0761 -0.125,-10e-4 -0.29262,-0.0529 -0.49894,-0.14472 z" /><path
       inkscape:connector-curvature="0"
       id="path202"
       style="fill:#ffff00;fill-opacity:1;fill-rule:evenodd;stroke:none;stroke-width:0.1"
       d="m 111.12608,204.38607 -0.78058,1.56322 -1.08672,1.36692 c -6.30273,5.91542 -16.246041,0.57687 -14.709018,-7.91968 l 0.55981,-1.6548 0.77405,-1.56051 c 4.885958,-7.20038 15.880018,-3.90407 15.996108,4.81706 l -0.20038,1.7357 -0.55327,1.65209" /><path
       inkscape:connector-curvature="0"
       id="path204"
       style="fill:none;stroke:#111111;stroke-width:0.71999997;stroke-linecap:round;stroke-linejoin:round;stroke-miterlimit:10;stroke-dasharray:none;stroke-opacity:1"
       d="m 111.12608,204.38607 -0.78058,1.56322 -1.08672,1.36692 c -6.30273,5.91542 -16.246041,0.57687 -14.709018,-7.91968 l 0.55981,-1.6548 0.77405,-1.56051 c 4.885958,-7.20038 15.880018,-3.90407 15.996108,4.81706 l -0.20038,1.7357 -0.55327,1.65209" /><path
       inkscape:connector-curvature="0"
       id="path206"
       style="fill:#111111;fill-opacity:1;fill-rule:nonzero;stroke:none;stroke-width:0.1"
       d="m 105.148,199.16221 -0.45533,-1.28117 -3.906,0.007 v 0.18801 c 1.14687,1.03691 1.95644,1.89045 2.42664,2.5576 0.4662,0.66315 0.70531,1.27271 0.70632,1.82671 0.001,0.414 -0.13161,0.75825 -0.38912,1.03271 -0.24951,0.26945 -0.55726,0.40702 -0.92026,0.40767 -0.32501,10e-4 -0.61819,-0.10087 -0.87555,-0.2954 -0.26233,-0.18654 -0.45084,-0.46419 -0.56449,-0.82699 h -0.187 c 0.0831,0.60085 0.29092,1.06547 0.62752,1.38986 0.33258,0.3194 0.75387,0.48263 1.26587,0.48171 0.52801,-0.001 0.97668,-0.18178 1.34305,-0.53345 0.36237,-0.34465 0.54562,-0.75498 0.54478,-1.21999 -0.001,-0.336 -0.0832,-0.66785 -0.23682,-0.99957 -0.25097,-0.53055 -0.64597,-1.08883 -1.17402,-1.66987 -0.81462,-0.88553 -1.3276,-1.42359 -1.53493,-1.60622 l 1.735,-0.003 c 0.35099,-0.001 0.59701,0.006 0.73404,0.0297 0.14506,0.0267 0.27316,0.0855 0.39132,0.1713 0.11314,0.0818 0.21136,0.19461 0.29763,0.34346 z" /><path
       inkscape:connector-curvature="0"
       id="path208"
       style="fill:#ff5555;fill-opacity:1;fill-rule:evenodd;stroke:none;stroke-width:0.1"
       d="m 253.66307,241.33562 -0.87859,1.64814 -1.14313,1.34893 c -6.21926,5.8786 -16.23976,0.51994 -14.59535,-7.87794 l 0.48881,-1.80983 0.88949,-1.51262 c 4.82233,-7.11743 15.6515,-3.85164 15.88436,4.7707 l -0.14588,1.75831 -0.49971,1.67431" /><path
       inkscape:connector-curvature="0"
       id="path210"
       style="fill:none;stroke:#111111;stroke-width:0.71999997;stroke-linecap:round;stroke-linejoin:round;stroke-miterlimit:10;stroke-dasharray:none;stroke-opacity:1"
       d="m 253.66307,241.33562 -0.87859,1.64814 -1.14313,1.34893 c -6.21926,5.8786 -16.23976,0.51994 -14.59535,-7.87794 l 0.48881,-1.80983 0.88949,-1.51262 c 4.82233,-7.11743 15.6515,-3.85164 15.88436,4.7707 l -0.14588,1.75831 -0.49971,1.67431" /><path
       inkscape:connector-curvature="0"
       id="path212"
       style="fill:#111111;fill-opacity:1;fill-rule:nonzero;stroke:none;stroke-width:0.1"
       d="m 243.65953,240.15918 c 0.20229,0.43801 0.45436,0.77082 0.7452,1.00196 0.29995,0.23377 0.66399,0.34776 1.09363,0.32993 0.52654,-0.0219 0.92871,-0.2187 1.1949,-0.58202 0.20444,-0.25869 0.30603,-0.53615 0.29404,-0.8249 -0.0204,-0.49158 -0.34488,-0.97854 -0.96742,-1.46114 0.39617,-0.17257 0.69433,-0.41615 0.89266,-0.72564 0.19467,-0.30134 0.28603,-0.65643 0.26932,-1.05907 -0.0238,-0.57352 -0.22822,-1.06147 -0.60808,-1.46005 -0.5036,-0.53458 -1.20133,-0.77886 -2.09555,-0.74173 -0.44862,0.0186 -0.75495,0.0894 -0.91408,0.21009 -0.15118,0.11937 -0.22409,0.2435 -0.21892,0.36839 0.004,0.0899 0.0423,0.1744 0.1192,0.2453 0.0848,0.0665 0.18042,0.1026 0.28633,0.0982 0.0819,-0.003 0.16303,-0.0268 0.24783,-0.0573 0.0494,-0.0141 0.17192,-0.0782 0.36754,-0.1874 0.19045,-0.11399 0.32476,-0.18163 0.39787,-0.20468 0.11161,-0.0357 0.23983,-0.057 0.3877,-0.0631 0.32073,-0.0133 0.61466,0.0996 0.87482,0.33902 0.25649,0.24756 0.39819,0.55095 0.41293,0.90565 0.0107,0.25777 -0.0379,0.51 -0.14076,0.75648 -0.0786,0.17941 -0.1667,0.32419 -0.26325,0.43328 -0.14385,0.12709 -0.32984,0.25191 -0.56324,0.36768 -0.23868,0.11083 -0.4861,0.17631 -0.74289,0.18698 l -0.15686,0.007 0.006,0.15587 c 0.25893,0.0173 0.52445,0.0963 0.79236,0.23334 0.26308,0.14122 0.45855,0.31726 0.58419,0.52322 0.12183,0.21013 0.19082,0.44948 0.20167,0.71125 0.0138,0.33172 -0.081,0.60487 -0.27905,0.82428 -0.20123,0.21553 -0.45861,0.33231 -0.76735,0.34513 -0.51156,0.0212 -0.94356,-0.23508 -1.29762,-0.75985 z" /><path
       inkscape:connector-curvature="0"
       id="path214"
       style="fill:#ff7f2a;fill-opacity:1;fill-rule:evenodd;stroke:none;stroke-width:0.1"
       d="m 247.88162,179.06086 -0.74673,1.63561 -1.11904,1.29084 c -6.36264,5.89802 -16.05953,0.73012 -14.73119,-7.86621 l 0.52319,-1.72834 0.83292,-1.54063 c 4.98163,-7.21699 15.96378,-3.7902 15.97385,4.87072 l -0.12361,1.70465 -0.60939,1.63336" /><path
       inkscape:connector-curvature="0"
       id="path216"
       style="fill:none;stroke:#111111;stroke-width:0.71999997;stroke-linecap:round;stroke-linejoin:round;stroke-miterlimit:10;stroke-dasharray:none;stroke-opacity:1"
       d="m 247.88162,179.06086 -0.74673,1.63561 -1.11904,1.29084 c -6.36264,5.89802 -16.05953,0.73012 -14.73119,-7.86621 l 0.52319,-1.72834 0.83292,-1.54063 c 4.98163,-7.21699 15.96378,-3.7902 15.97385,4.87072 l -0.12361,1.70465 -0.60939,1.63336" /><path
       inkscape:connector-curvature="0"
       id="path218"
       style="fill:#111111;fill-opacity:1;fill-rule:nonzero;stroke:none;stroke-width:0.1"
       d="m 241.69812,175.21446 -0.008,-0.68825 -0.89095,0.01 -0.0193,-1.7499 -0.81195,0.009 0.0193,1.7499 -2.79684,0.0308 0.007,0.62496 3.12619,4.35683 0.53097,-0.006 -0.0477,-4.32745 z m -1.70289,0.0188 0.0363,3.2967 -2.34918,-3.27122 z" /><path
       inkscape:connector-curvature="0"
       id="path220"
       style="fill:#111111;fill-opacity:1;fill-rule:nonzero;stroke:none;stroke-width:0.1"
       d="m 132.02458,115.13244 -0.003,-1.92609 c 0.5646,0.87006 1.06169,1.45934 1.49124,1.75156 0.42251,0.28001 0.8328,0.43516 1.22781,0.43442 0.32799,-0.001 0.58978,-0.11008 0.78841,-0.3252 0.21059,-0.21959 0.31906,-0.50878 0.31838,-0.87559 -0.001,-0.4059 -0.10235,-0.73382 -0.29477,-0.96046 -0.1954,-0.21874 -0.42959,-0.3191 -0.69959,-0.31861 -0.33601,0.001 -0.62082,0.0949 -0.84747,0.29027 -0.23361,0.21172 -0.37039,0.32878 -0.40935,0.35186 -0.0779,0.0362 -0.15988,0.0593 -0.22989,0.0594 -0.176,0 -0.34413,-0.0732 -0.49637,-0.20217 -0.25837,-0.19833 -0.44691,-0.49098 -0.55662,-0.87789 -0.20008,-0.58163 -0.29529,-1.23735 -0.29661,-1.95254 l -0.005,-2.4809 c -0.001,-0.35121 0.0149,-0.57813 0.0577,-0.67122 0.0737,-0.16103 0.18249,-0.27802 0.31936,-0.34858 0.15185,-0.0824 0.39476,-0.13354 0.73074,-0.15025 l -0.001,-0.3199 -4.60999,0.008 0.001,0.31988 c 0.38707,0.0384 0.64127,0.14772 0.75859,0.31971 0.1293,0.16776 0.20415,0.62853 0.20552,1.37032 l 0.009,4.69929 c 10e-4,0.4808 -0.0335,0.79686 -0.0843,0.93406 -0.0577,0.1681 -0.15145,0.30028 -0.2613,0.37949 -0.11686,0.0744 -0.33176,0.1326 -0.61268,0.17613 l 10e-4,0.321 z" /><path
       inkscape:connector-curvature="0"
       id="path222"
       style="fill:#111111;fill-opacity:1;fill-rule:nonzero;stroke:none;stroke-width:0.1"
       d="m 137.12375,109.25513 -1.57711,-5.47721 c -0.10561,-0.3318 -0.15705,-0.5696 -0.15733,-0.7188 0,-0.1207 0.0466,-0.21109 0.13651,-0.26515 0.0819,-0.0631 0.27682,-0.11056 0.58175,-0.13818 l -0.0473,-0.18 -2.52799,0.005 0.0673,0.18 c 0.26202,0.0116 0.44906,0.0344 0.53912,0.065 0.12911,0.0588 0.23425,0.13667 0.31242,0.22642 0.1023,0.15991 0.20779,0.43281 0.31452,0.82752 l 1.14727,3.93499 c 0.0754,0.23466 0.11467,0.36779 0.11474,0.40249 0.0111,0.0551 0.0192,0.12107 0.0194,0.19926 0,0.10191 -0.0307,0.18797 -0.0856,0.24626 -0.0619,0.0739 -0.15179,0.11309 -0.26879,0.11328 -0.078,0 -0.20705,-0.0265 -0.38312,-0.0653 l -0.0657,0.18023 1.65685,0.46494 z" /><path
       inkscape:connector-curvature="0"
       id="path224"
       style="fill:#111111;fill-opacity:1;fill-rule:nonzero;stroke:none;stroke-width:0.1"
       d="m 123.74104,194.55774 0.006,-1.90298 c 0.55223,0.85778 1.04235,1.44535 1.46742,1.73572 0.4171,0.28234 0.81861,0.43264 1.20961,0.43389 0.324,0.001 0.58234,-0.10413 0.77801,-0.31452 0.21169,-0.21431 0.31862,-0.50298 0.31977,-0.86197 0.001,-0.406 -0.0996,-0.73133 -0.28594,-0.95393 -0.1913,-0.21561 -0.42097,-0.31835 -0.69096,-0.31922 -0.332,-0.001 -0.61331,0.092 -0.83694,0.28631 -0.23065,0.20626 -0.36803,0.32382 -0.4031,0.3427 -0.0781,0.0388 -0.16018,0.0585 -0.23119,0.0583 -0.171,-0.001 -0.33877,-0.0721 -0.49135,-0.20058 -0.24937,-0.19681 -0.43544,-0.4864 -0.5442,-0.86975 -0.19315,-0.57863 -0.28507,-1.22692 -0.2828,-1.92992 l 0.008,-2.45299 c 0.001,-0.344 0.0178,-0.57094 0.0611,-0.66481 0.0745,-0.15576 0.18087,-0.27242 0.3171,-0.34197 0.15325,-0.0775 0.3914,-0.12774 0.72346,-0.14268 l 10e-4,-0.316 -4.55497,-0.0147 -0.001,0.31599 c 0.37888,0.0362 0.63252,0.14704 0.74497,0.31941 0.13246,0.16843 0.201,0.62165 0.19865,1.35565 l -0.0149,4.64096 c -0.001,0.47601 -0.0375,0.78889 -0.088,0.92474 -0.0595,0.1648 -0.15395,0.2925 -0.2592,0.37417 -0.11724,0.0706 -0.32442,0.12795 -0.60657,0.17004 l -0.001,0.317 z" /><path
       inkscape:connector-curvature="0"
       id="path226"
       style="fill:#111111;fill-opacity:1;fill-rule:nonzero;stroke:none;stroke-width:0.1"
       d="m 128.49614,180.84996 -3.85498,-0.0124 -0.001,0.207 c 1.95546,1.7213 3.24813,3.07347 3.86998,4.05547 0.29156,0.44994 0.43803,0.92342 0.43639,1.43541 -0.001,0.394 -0.1233,0.71461 -0.36609,0.95982 -0.24678,0.24121 -0.56019,0.36521 -0.93918,0.36398 -0.543,-0.002 -0.98318,-0.25715 -1.32555,-0.76226 l -0.21125,0.0773 c 0.19046,0.48462 0.4662,0.86851 0.8323,1.1517 0.37412,0.27419 0.78765,0.42053 1.22165,0.42192 0.50399,0.002 0.91856,-0.17305 1.25567,-0.51997 0.32507,-0.33096 0.49439,-0.74041 0.49594,-1.22141 0.001,-0.332 -0.0609,-0.6402 -0.17707,-0.91458 -0.17453,-0.45756 -0.50894,-0.95063 -0.98722,-1.48717 -0.74724,-0.85742 -1.74809,-1.83764 -2.9866,-2.92762 l 1.92599,0.006 c 0.308,10e-4 0.57381,0.0608 0.78443,0.18252 0.19855,0.13665 0.34999,0.31313 0.43931,0.52442 l 0.20699,0.001 z" /><path
       inkscape:connector-curvature="0"
       id="path228"
       style="fill:#111111;fill-opacity:1;fill-rule:nonzero;stroke:none;stroke-width:0.1"
       d="m 229.77175,226.11156 0.003,-1.801 c 0.52184,0.81376 0.98604,1.36442 1.38765,1.639 0.39462,0.26557 0.77741,0.41112 1.14441,0.41164 0.305,0 0.55115,-0.10421 0.73441,-0.29997 0.19931,-0.20671 0.30169,-0.47557 0.30219,-0.81957 0.001,-0.379 -0.093,-0.68812 -0.27171,-0.89838 -0.18372,-0.20428 -0.40258,-0.29759 -0.65258,-0.29794 -0.312,0 -0.57812,0.0852 -0.78938,0.26787 -0.21928,0.19868 -0.34845,0.30849 -0.38347,0.32744 -0.074,0.0349 -0.15206,0.0548 -0.21809,0.0547 -0.164,0 -0.3209,-0.0665 -0.46472,-0.19167 -0.23874,-0.18435 -0.41334,-0.4576 -0.51483,-0.81773 -0.1822,-0.54727 -0.27133,-1.1604 -0.27037,-1.8284 l 0.003,-2.31599 c 0,-0.32501 0.0158,-0.53588 0.0549,-0.62493 0.0712,-0.14869 0.17236,-0.25756 0.30147,-0.32767 0.14111,-0.0748 0.36717,-0.12137 0.6802,-0.13572 v -0.2973 l -4.30499,-0.006 v 0.29729 c 0.35995,0.0352 0.59781,0.13757 0.70657,0.30182 0.12478,0.15638 0.19116,0.58628 0.19015,1.28128 l -0.006,4.38699 c -0.001,0.449 -0.0371,0.74195 -0.0833,0.87087 -0.0552,0.15993 -0.1414,0.28081 -0.24751,0.35465 -0.1051,0.0699 -0.30416,0.12459 -0.57023,0.16319 v 0.30099 z" /><path
       inkscape:connector-curvature="0"
       id="path230"
       style="fill:#111111;fill-opacity:1;fill-rule:nonzero;stroke:none;stroke-width:0.1"
       d="m 232.14246,217.96606 v 0.1258 c 0.73082,0.12215 1.2765,0.34483 1.64004,0.66646 0.25666,0.23426 0.39327,0.50756 0.39281,0.83256 0,0.234 -0.0786,0.42488 -0.23083,0.58166 -0.15722,0.14778 -0.33634,0.22552 -0.53935,0.22522 -0.34799,-0.001 -0.6527,-0.21195 -0.9131,-0.62232 l -0.16405,0.0388 c 0.15953,0.3602 0.36209,0.62952 0.59982,0.81386 0.24176,0.17535 0.51962,0.26976 0.80862,0.27016 0.359,0.001 0.64816,-0.11206 0.87148,-0.33075 0.2193,-0.20668 0.33269,-0.48353 0.33316,-0.81152 0,-0.278 -0.10521,-0.54715 -0.30784,-0.80934 -0.20663,-0.25031 -0.5653,-0.48481 -1.05702,-0.68552 0.3,-0.12503 0.53946,-0.31522 0.70382,-0.56109 0.16433,-0.23765 0.25075,-0.53054 0.25124,-0.87074 0.001,-0.37501 -0.1129,-0.75796 -0.33035,-1.14538 -0.22246,-0.37141 -0.53105,-0.66876 -0.91275,-0.87241 -0.3747,-0.20763 -0.77355,-0.3129 -1.18355,-0.3135 -0.37499,-0.001 -0.6681,0.0651 -0.87126,0.18555 -0.12515,0.0939 -0.18831,0.20674 -0.18848,0.33172 0,0.0941 0.0317,0.17626 0.10162,0.25017 0.0779,0.0782 0.17982,0.12525 0.29282,0.12541 0.078,0 0.16401,-0.0107 0.25003,-0.0184 0.0351,-0.0311 0.14814,-0.10168 0.3323,-0.21042 0.19114,-0.0977 0.34424,-0.1718 0.4573,-0.20634 0.10904,-0.0311 0.21904,-0.0388 0.33205,-0.0386 0.258,0 0.48078,0.15269 0.66332,0.47675 0.17554,0.31746 0.26894,0.65354 0.26854,1.01639 0,0.28521 -0.0678,0.5472 -0.18911,0.76883 -0.1133,0.21904 -0.30158,0.39847 -0.55877,0.53829 -0.25023,0.15236 -0.53633,0.23407 -0.85235,0.24879 z" /><path
       inkscape:connector-curvature="0"
       id="path232"
       style="fill:#111111;fill-opacity:1;fill-rule:nonzero;stroke:none;stroke-width:0.1"
       d="m 262.89587,173.35306 -0.0157,-1.81594 c 0.53803,0.81139 1.00785,1.36634 1.4162,1.63593 0.40132,0.26644 0.78956,0.40798 1.16053,0.40477 0.308,-0.003 0.55711,-0.10672 0.73939,-0.30719 0.19719,-0.20871 0.2998,-0.48771 0.29682,-0.83069 -0.003,-0.3828 -0.10301,-0.69524 -0.28483,-0.90458 -0.18477,-0.2054 -0.40461,-0.30041 -0.66261,-0.29818 -0.31598,0.003 -0.5812,0.0948 -0.79456,0.28378 -0.21729,0.20078 -0.34832,0.31202 -0.38416,0.33153 -0.0737,0.0354 -0.14748,0.056 -0.21751,0.0565 -0.164,0.001 -0.32557,-0.064 -0.47065,-0.18774 -0.2396,-0.18504 -0.42197,-0.45728 -0.5271,-0.81967 -0.19176,-0.54916 -0.28712,-1.16937 -0.29294,-1.84123 l -0.0202,-2.33903 c -0.003,-0.32807 0.0113,-0.54311 0.0495,-0.63325 0.0687,-0.15369 0.16972,-0.26357 0.30114,-0.33071 0.14432,-0.0794 0.36991,-0.1282 0.68676,-0.14694 l -0.003,-0.3012 -4.34783,0.0376 0.003,0.30118 c 0.36329,0.0316 0.60719,0.13576 0.71761,0.29881 0.12634,0.15482 0.1961,0.58823 0.20217,1.29131 l 0.0383,4.42873 c 0.004,0.45388 -0.0245,0.75024 -0.0744,0.87957 -0.0526,0.16067 -0.14155,0.28334 -0.24287,0.36232 -0.10842,0.0669 -0.30692,0.12762 -0.57656,0.169 l 0.003,0.30387 z" /><path
       inkscape:connector-curvature="0"
       id="path234"
       style="fill:#111111;fill-opacity:1;fill-rule:nonzero;stroke:none;stroke-width:0.1"
       d="m 269.00971,169.37506 -1.30651,-4.33297 0.80098,-0.007 -0.18537,-0.61912 -0.80096,0.007 -0.52623,-1.75762 -0.71497,0.006 0.53022,1.75757 -2.3859,0.0206 0.20892,0.68492 4.00184,4.24367 z m -1.08094,-1.26061 -2.87747,-3.04943 1.96093,-0.017 z" /><path
       inkscape:connector-curvature="0"
       id="path236"
       style="fill:#111111;fill-opacity:1;fill-rule:nonzero;stroke:none;stroke-width:0.1"
       d="m 17.270742,117.73041 0.61798,-5.32719 3.835913,5.33379 1.608998,0.002 3e-4,-0.1883 c -0.343764,-0.0235 -0.550736,-0.0437 -0.608909,-0.0626 -0.117936,-0.0436 -0.222902,-0.13353 -0.312505,-0.26646 -0.08572,-0.12513 -0.179555,-0.36746 -0.279835,-0.71962 l -1.212882,-4.2049 c -0.07344,-0.24191 -0.108359,-0.43295 -0.108144,-0.57785 2e-4,-0.125 0.03942,-0.22226 0.125412,-0.28112 0.121239,-0.0935 0.320091,-0.14057 0.593209,-0.14012 h 0.110105 l -0.04692,-0.18676 -2.780899,-0.004 0.04582,0.18677 h 0.141 c 0.2379,0 0.425755,0.0327 0.56276,0.095 0.08903,0.0508 0.178682,0.14907 0.264463,0.2972 0.08179,0.14431 0.195409,0.46949 0.342668,0.96971 l 1.088415,3.84452 -3.867029,-5.39555 h -0.188197 l -0.632973,5.38887 -1.165842,-4.09462 c -0.104574,-0.35646 -0.155025,-0.59053 -0.154859,-0.70333 2e-4,-0.125 0.03943,-0.22304 0.125417,-0.28192 0.08999,-0.0616 0.304852,-0.10466 0.641182,-0.12405 l -0.04692,-0.18677 -2.187904,-0.003 0.04663,0.18678 h 0.140998 c 0.320298,0 0.554983,0.0789 0.702752,0.23624 0.101834,0.11304 0.210359,0.36711 0.326959,0.76528 l 1.430592,4.94042 c -0.118167,0.11273 -0.223277,0.18637 -0.313224,0.21833 -0.09417,0.0389 -0.277003,0.0695 -0.547335,0.0921 l 0.06292,0.18837 z" /><path
       inkscape:connector-curvature="0"
       id="path238"
       style="fill:#111111;fill-opacity:1;fill-rule:nonzero;stroke:none;stroke-width:0.1"
       d="m 222.3851,116.65771 2.14089,-5.15024 1.03945,3.89451 c 0.0834,0.31094 0.12989,0.55754 0.12663,0.73758 -0.002,0.12107 -0.047,0.21716 -0.13009,0.27854 -0.0873,0.0688 -0.24392,0.10463 -0.4709,0.10045 -0.042,-0.001 -0.085,-0.002 -0.12498,-0.002 l 0.0436,0.18911 2.14064,0.0389 -0.0596,-0.1894 c -0.21811,0.004 -0.38574,-0.0179 -0.4988,-0.0708 -0.14661,-0.0777 -0.25797,-0.16876 -0.33811,-0.27219 -0.10314,-0.15816 -0.20322,-0.42994 -0.29847,-0.80283 l -1.46243,-5.4962 -0.17197,-0.003 -2.30421,5.55284 -1.0969,-4.14561 c -0.0883,-0.31337 -0.13092,-0.55638 -0.12793,-0.72119 0.002,-0.12499 0.043,-0.22114 0.13009,-0.27894 0.0831,-0.0602 0.27186,-0.0997 0.56518,-0.11475 l -0.0436,-0.18755 -2.07765,-0.0377 0.0741,0.18829 c 0.25796,0.005 0.42958,0.0281 0.51377,0.0726 0.13193,0.0602 0.23242,0.14408 0.2927,0.23933 0.0876,0.13443 0.18852,0.41327 0.29792,0.83329 l 1.22836,4.61721 c -0.12852,0.19262 -0.26699,0.32724 -0.41331,0.39842 -0.14929,0.0683 -0.37301,0.1073 -0.67416,0.11277 l 0.0596,0.1894 z" /><path
       inkscape:connector-curvature="0"
       id="path240"
       style="fill:#111111;fill-opacity:1;fill-rule:nonzero;stroke:none;stroke-width:0.1"
       d="m 190.93379,269.03176 -0.44607,-5.50464 c -0.0284,-0.2613 -0.0428,-0.43343 -0.0419,-0.51543 0.001,-0.125 0.0262,-0.22677 0.0809,-0.29621 0.0599,-0.0934 0.14662,-0.16256 0.25199,-0.20054 0.10265,-0.0414 0.28261,-0.0602 0.53259,-0.0578 l -0.0452,-0.18744 -2.60988,-0.0256 0.0452,0.18743 0.10998,10e-4 c 0.214,0.002 0.38961,0.0428 0.51376,0.13004 0.10142,0.06 0.17838,0.16576 0.2319,0.3153 0.026,0.10128 0.0586,0.34361 0.086,0.71887 l 0.0699,0.82873 -1.88991,-0.0185 -0.66309,-0.91255 c -0.15388,-0.21253 -0.25441,-0.36551 -0.29254,-0.45589 -0.0305,-0.0862 -0.0454,-0.16443 -0.0447,-0.23447 0.001,-0.10598 0.0409,-0.1986 0.12775,-0.27975 0.0827,-0.0741 0.22407,-0.10776 0.42305,-0.10586 l -0.0601,-0.1876 -1.9539,-0.0191 0.0452,0.18743 c 0.24191,0.0104 0.45213,0.0904 0.63867,0.24026 0.1825,0.15481 0.45631,0.48149 0.81847,0.97707 l 3.90014,5.41348 z m -0.95303,-1.63442 -1.89634,-2.62771 1.67193,0.0164 z" /><path
       inkscape:connector-curvature="0"
       id="path242"
       style="fill:#111111;fill-opacity:1;fill-rule:nonzero;stroke:none;stroke-width:0.1"
       d="m 278.71256,196.11006 0.0613,0.18766 2.35892,0.021 c 0.39498,0.004 0.75055,-0.0593 1.06461,-0.17764 0.30911,-0.12222 0.54966,-0.29583 0.70756,-0.50973 0.15393,-0.21653 0.23805,-0.45489 0.24024,-0.7006 0.003,-0.38707 -0.13743,-0.73953 -0.41267,-1.05099 -0.27029,-0.30632 -0.71729,-0.5333 -1.33697,-0.68382 0.4033,-0.14443 0.70605,-0.34054 0.89523,-0.58497 0.18621,-0.24835 0.28665,-0.52167 0.28921,-0.81036 0.003,-0.33629 -0.0802,-0.65313 -0.24151,-0.95528 -0.16539,-0.29448 -0.38235,-0.52652 -0.65087,-0.69292 -0.2595,-0.17031 -0.57937,-0.29816 -0.94963,-0.38345 -0.2725,-0.0575 -0.69027,-0.0851 -1.24924,-0.0901 l -2.43691,-0.0217 0.0603,0.18845 c 0.258,0.002 0.43781,0.0231 0.53043,0.0668 0.12147,0.0601 0.20981,0.13477 0.26404,0.22156 0.0809,0.12142 0.18436,0.41145 0.30536,0.86255 l 1.15138,4.0104 c 0.099,0.33989 0.15081,0.58335 0.14961,0.71925 -10e-4,0.1141 -0.0518,0.20665 -0.1425,0.28085 -0.0866,0.0691 -0.25502,0.10649 -0.50094,0.10445 -0.063,-0.001 -0.117,-0.001 -0.157,-0.001 z m 1.0094,-2.74113 c 0.207,0.002 0.36299,0.003 0.46898,0.004 0.67499,0.006 1.17368,0.15464 1.49606,0.45042 0.32941,0.29283 0.49411,0.66541 0.49011,1.1146 -0.003,0.33158 -0.11128,0.59283 -0.31993,0.77808 -0.20062,0.18213 -0.52147,0.27618 -0.95545,0.27232 -0.125,-0.001 -0.27679,-0.0255 -0.45244,-0.0657 z m -0.92406,-3.25834 c 0.34047,-0.052 0.61366,-0.0722 0.81266,-0.0705 0.50798,0.004 0.95564,0.15621 1.33992,0.46463 0.39123,0.3125 0.58751,0.73146 0.58287,1.25523 -0.004,0.40199 -0.12739,0.7181 -0.36832,0.93388 -0.24401,0.22483 -0.63504,0.33856 -1.17502,0.33375 -0.10499,-0.001 -0.22992,-0.0102 -0.37485,-0.0185 z" /><text
       y="-128.49573"
       x="206.41583"
       transform="matrix(0.99748587,0.0708657,0.0708657,-0.99748587,0,0)"
       style="font-style:italic;font-variant:normal;font-size:15.2466011px;font-family:'Times New Roman';-inkscape-font-specification:TimesNewRomanPS-ItalicMT;writing-mode:lr-tb;fill:#000000;fill-opacity:1;fill-rule:nonzero;stroke:none;stroke-width:1"
       id="text260"><tspan
         style="stroke-width:1"
         x="206.41583"
         y="-128.49573"
         id="tspan258" /></text>
<text
       y="-95.31414"
       x="277.43207"
       transform="matrix(0.99137454,0.13105921,0.13105921,-0.99137454,0,0)"
       style="font-style:italic;font-variant:normal;font-size:21.52389908px;font-family:'Times New Roman';-inkscape-font-specification:TimesNewRomanPS-ItalicMT;writing-mode:lr-tb;fill:#000000;fill-opacity:1;fill-rule:nonzero;stroke:none;stroke-width:0.99999994"
       id="text264"><tspan
         style="stroke-width:0.99999994"
         x="277.43207"
         y="-95.31414"
         id="tspan262">θ</tspan></text>
<path
       inkscape:connector-curvature="0"
       id="path266"
       style="fill:#000000;stroke:#111111;stroke-width:0.21600001;stroke-linecap:round;stroke-linejoin:round;stroke-miterlimit:10;stroke-dasharray:none;stroke-opacity:1"
       d="m 196.87872,259.41383 51.47998,0.0558" /><path
       inkscape:transform-center-y="-4.2204335"
       inkscape:transform-center-x="-2.7144507"
       inkscape:connector-curvature="0"
       id="path270"
       style="fill:#000000;fill-opacity:1;fill-rule:evenodd;stroke:none;stroke-width:0.1"
       d="m 211.37985,247.95464 0.28976,1.59276 0.0636,1.6895 -0.32836,1.50437 -0.56628,1.53157 1.0703,-1.00162 1.29627,-0.66613 1.40881,-0.32699 1.38151,-0.078 -1.42818,-0.64384 -1.28935,-0.96745 -1.08049,-1.1774 -0.81733,-1.45664" /><path
       inkscape:transform-center-y="3.1782903"
       inkscape:transform-center-x="-4.069385"
       inkscape:connector-curvature="0"
       id="path270-3"
       style="fill:#000000;fill-opacity:1;fill-rule:evenodd;stroke:none;stroke-width:0.09999999"
       d="m 243.73019,152.27004 1.57115,-0.39027 1.68204,-0.17078 1.52219,0.23217 1.56435,0.46819 -1.06756,-1.00454 -0.74708,-1.25135 -0.41577,-1.38522 -0.16558,-1.37376 -0.55187,1.46617 -0.88364,1.34819 -1.10642,1.15304 -1.40181,0.90816" /><path
       inkscape:transform-center-y="-4.0449759"
       inkscape:transform-center-x="-1.2697579"
       inkscape:connector-curvature="0"
       id="path270-3-6"
       style="fill:#000000;fill-opacity:1;fill-rule:evenodd;stroke:none;stroke-width:0.09999999"
       d="m 202.94649,119.2981 -0.0302,1.61865 -0.27099,1.66881 -0.61873,1.41002 -0.85761,1.38956 1.24688,-0.77074 1.40222,-0.39726 1.44565,-0.0426 1.36971,0.1961 -1.27304,-0.91299 -1.07311,-1.20283 -0.82692,-1.36745 -0.51387,-1.58928" /><path
       inkscape:transform-center-y="0.64963194"
       inkscape:transform-center-x="0.12066539"
       inkscape:connector-curvature="0"
       id="path270-3-7"
       style="fill:#000000;fill-opacity:1;fill-rule:evenodd;stroke:none;stroke-width:0.09999999"
       d="m 53.959984,143.22038 1.483935,-0.64717 1.629902,-0.44925 1.539591,-0.0253 1.620562,0.20041 -1.220303,-0.81218 -0.945549,-1.10902 -0.641238,-1.29634 -0.392644,-1.32683 -0.299297,1.53773 -0.646117,1.47681 -0.898351,1.32161 -1.230491,1.1295" /><path
       d="m 290.25731,-148.03263 a 18.482319,18.482319 0 0 1 -24.52195,-6.10269"
       sodipodi:open="true"
       sodipodi:end="2.5674246"
       sodipodi:start="1.0619909"
       sodipodi:ry="18.482319"
       sodipodi:rx="18.482319"
       sodipodi:cy="-164.17374"
       sodipodi:cx="281.25394"
       sodipodi:type="arc"
       transform="matrix(0.92367369,0.38318,0.38318,-0.92367369,0,0)"
       id="path877"
       style="opacity:1;fill:#000000;fill-opacity:0;fill-rule:evenodd;stroke:#000000;stroke-width:0.375;stroke-miterlimit:4;stroke-dasharray:none;stroke-dashoffset:0;stroke-opacity:1;paint-order:stroke fill markers" /><path
       inkscape:transform-center-y="3.9074692"
       inkscape:transform-center-x="-4.0549516"
       inkscape:connector-curvature="0"
       id="path270-7"
       style="fill:#000000;fill-opacity:1;fill-rule:evenodd;stroke:none;stroke-width:0.09999999"
       d="m 182.83825,247.39585 1.37244,-0.85866 1.54598,-0.68438 1.51907,-0.25173 1.63239,-0.0408 -1.32661,-0.6236 -1.09857,-0.95768 -0.82517,-1.18777 -0.58376,-1.25454 -0.0696,1.56505 -0.42159,1.55585 -0.69389,1.43952 -1.05074,1.29839" /><path
       sodipodi:open="true"
       d="m 58.068122,-140.3779 a 15.342979,15.342979 0 0 1 8.614527,8.91073 15.342979,15.342979 0 0 1 -0.780918,12.36937"
       sodipodi:end="0.47882347"
       sodipodi:start="5.0989131"
       sodipodi:ry="15.342979"
       sodipodi:rx="15.342979"
       sodipodi:cy="-126.16685"
       sodipodi:cx="52.28426"
       sodipodi:type="arc"
       transform="scale(1,-1)"
       id="path1187"
       style="opacity:1;fill:#000000;fill-opacity:0;fill-rule:evenodd;stroke:#000000;stroke-width:0.375;stroke-miterlimit:4;stroke-dasharray:none;stroke-dashoffset:0;stroke-opacity:1;paint-order:stroke fill markers" /><text
       transform="scale(1,-1)"
       id="text1202"
       y="-128.49503"
       x="69.65239"
       style="font-style:normal;font-variant:normal;font-weight:normal;font-stretch:normal;font-size:22.55911636px;line-height:1.25;font-family:'Times New Roman';-inkscape-font-specification:'Times New Roman, ';letter-spacing:0px;word-spacing:0px;fill:#000000;fill-opacity:1;stroke:none;stroke-width:0.5639779"
       xml:space="preserve"><tspan
         style="font-style:italic;stroke-width:0.5639779"
         y="-128.49503"
         x="69.65239"
         id="tspan1200"
         sodipodi:role="line">α</tspan></text>
<path
       d="m 247.9977,-150.38847 a 23.665171,23.665171 0 0 1 8.50081,31.37226"
       sodipodi:open="true"
       sodipodi:end="0.49238102"
       sodipodi:start="5.2615808"
       sodipodi:ry="23.665171"
       sodipodi:rx="23.665171"
       sodipodi:cy="-130.20334"
       sodipodi:cx="235.64453"
       sodipodi:type="arc"
       transform="scale(1,-1)"
       id="path1204"
       style="opacity:1;fill:#000000;fill-opacity:0;fill-rule:evenodd;stroke:#000000;stroke-width:0.375;stroke-miterlimit:4;stroke-dasharray:none;stroke-dashoffset:0;stroke-opacity:1;paint-order:stroke fill markers" /><path
       sodipodi:open="true"
       d="m 203.66259,-123.96907 a 21.348408,21.348408 0 0 1 23.19168,-16.50767 21.348408,21.348408 0 0 1 18.97934,21.21655"
       sodipodi:end="0"
       sodipodi:start="3.3639943"
       sodipodi:ry="21.348408"
       sodipodi:rx="21.348408"
       sodipodi:cy="-119.26019"
       sodipodi:cx="224.4852"
       sodipodi:type="arc"
       transform="scale(1,-1)"
       id="path1212"
       style="opacity:1;fill:#000000;fill-opacity:0;fill-rule:evenodd;stroke:#000000;stroke-width:0.375;stroke-miterlimit:4;stroke-dasharray:none;stroke-dashoffset:0;stroke-opacity:1;paint-order:stroke fill markers" /><text
       transform="scale(1,-1)"
       id="text1216"
       y="-136.76772"
       x="197.40494"
       style="font-style:normal;font-variant:normal;font-weight:normal;font-stretch:normal;font-size:17.98664856px;line-height:1.25;font-family:'Times New Roman';-inkscape-font-specification:'Times New Roman, ';letter-spacing:0px;word-spacing:0px;fill:#000000;fill-opacity:1;stroke:none;stroke-width:0.4496662"
       xml:space="preserve"><tspan
         style="font-style:italic;stroke-width:0.4496662"
         y="-136.76772"
         x="197.40494"
         id="tspan1214"
         sodipodi:role="line">β<tspan
   style="font-size:5px"
   id="tspan1379" /></tspan></text>
<text
       transform="scale(1,-1)"
       id="text1220-3"
       y="-227.99121"
       x="193.57024"
       style="font-style:normal;font-variant:normal;font-weight:normal;font-stretch:normal;font-size:17.78382111px;line-height:1.25;font-family:'Times New Roman';-inkscape-font-specification:'Times New Roman, ';letter-spacing:0px;word-spacing:0px;fill:#000000;fill-opacity:1;stroke:none;stroke-width:0.44459558"
       xml:space="preserve"><tspan
         style="font-style:italic;stroke-width:0.44459558"
         y="-227.99121"
         x="193.57024"
         id="tspan1218-6"
         sodipodi:role="line">γ'</tspan></text>
<path
       sodipodi:open="true"
       d="m 214.48227,-259.45211 a 8.3018732,8.3018732 0 0 1 -1.39512,7.00911"
       sodipodi:end="0.64143614"
       sodipodi:start="6.0347025"
       sodipodi:ry="8.3018732"
       sodipodi:rx="8.3018732"
       sodipodi:cy="-257.4104"
       sodipodi:cx="206.43538"
       sodipodi:type="arc"
       transform="scale(1,-1)"
       id="path1240"
       style="opacity:1;fill:#000000;fill-opacity:0;fill-rule:evenodd;stroke:#000000;stroke-width:0.375;stroke-miterlimit:4;stroke-dasharray:none;stroke-dashoffset:0;stroke-opacity:1;paint-order:stroke fill markers" /><text
       xml:space="preserve"
       style="font-style:normal;font-variant:normal;font-weight:normal;font-stretch:normal;font-size:17.78382111px;line-height:1.25;font-family:'Times New Roman';-inkscape-font-specification:'Times New Roman, ';letter-spacing:0px;word-spacing:0px;fill:#000000;fill-opacity:1;stroke:none;stroke-width:0.44459555"
       x="219.65147"
       y="-249.57376"
       id="text1220"
       transform="scale(1,-1)"><tspan
         sodipodi:role="line"
         id="tspan1218"
         x="219.65147"
         y="-249.57376"
         style="font-style:italic;stroke-width:0.44459555">γ</tspan></text>
<text
       xml:space="preserve"
       style="font-style:normal;font-variant:normal;font-weight:normal;font-stretch:normal;font-size:10.33458042px;line-height:1.25;font-family:'Times New Roman';-inkscape-font-specification:'Times New Roman, ';letter-spacing:0px;word-spacing:0px;fill:#000000;fill-opacity:1;stroke:none;stroke-width:0.2583645"
       x="310.40237"
       y="-110.97897"
       id="text1246"
       transform="scale(1,-1)"><tspan
         sodipodi:role="line"
         id="tspan1244"
         x="310.40237"
         y="-110.97897"
         style="font-style:italic;stroke-width:0.2583645">x'</tspan></text>
<text
       xml:space="preserve"
       style="font-style:normal;font-variant:normal;font-weight:normal;font-stretch:normal;font-size:11.28281593px;line-height:1.25;font-family:'Times New Roman';-inkscape-font-specification:'Times New Roman, ';letter-spacing:0px;word-spacing:0px;fill:#000000;fill-opacity:1;stroke:none;stroke-width:0.2820704"
       x="13.529209"
       y="-232.23027"
       id="text1320"
       transform="scale(1,-1)"><tspan
         sodipodi:role="line"
         id="tspan1318"
         x="13.529209"
         y="-232.23027"
         style="font-style:italic;stroke-width:0.2820704">y'</tspan></text>
</g></svg>