<?xml version="1.0" encoding="UTF-8" standalone="no"?>
<svg
   xmlns:dc="http://purl.org/dc/elements/1.1/"
   xmlns:cc="http://creativecommons.org/ns#"
   xmlns:rdf="http://www.w3.org/1999/02/22-rdf-syntax-ns#"
   xmlns:svg="http://www.w3.org/2000/svg"
   xmlns="http://www.w3.org/2000/svg"
   viewBox="0 0 554.66669 281.33334"
   height="281.33334"
   width="554.66669"
   xml:space="preserve"
   id="svg2"
   version="1.1"><metadata
     id="metadata8"><rdf:RDF><cc:Work
         rdf:about=""><dc:format>image/svg+xml</dc:format><dc:type
           rdf:resource="http://purl.org/dc/dcmitype/StillImage" /></cc:Work></rdf:RDF></metadata><defs
     id="defs6" /><g
     transform="matrix(1.3333333,0,0,-1.3333333,0,281.33333)"
     id="g10"><g
       transform="scale(0.1)"
       id="g12"><path
         id="path14"
         style="fill:#bdbdbd;fill-opacity:1;fill-rule:evenodd;stroke:none"
         d="m 634.102,1383.36 v -20.55 c 9.097,-48.47 74.449,-58.51 94.527,-12.3 l 4.07,8.24 v 19.45 l -2.078,11.33 -5.07,8.2 -12.391,14.38 -9.211,5.16 -8.25,3.08 H 674.18 l -8.239,-1.01 -9.3,-5.16 -14.371,-12.3 -5.079,-9.3 -3.089,-9.22" /><path
         id="path16"
         style="fill:none;stroke:#111111;stroke-width:3.69922996;stroke-linecap:round;stroke-linejoin:round;stroke-miterlimit:10;stroke-dasharray:none;stroke-opacity:1"
         d="m 634.102,1383.36 v -20.55 c 9.097,-48.47 74.449,-58.51 94.527,-12.3 l 4.07,8.24 v 19.45 l -2.078,11.33 -5.07,8.2 -12.391,14.38 -9.211,5.16 -8.25,3.08 H 674.18 l -8.239,-1.01 -9.3,-5.16 -14.371,-12.3 -5.079,-9.3 -3.089,-9.22" /><path
         id="path18"
         style="fill:none;stroke:#111111;stroke-width:3.38276005;stroke-linecap:round;stroke-linejoin:round;stroke-miterlimit:10;stroke-dasharray:none;stroke-opacity:1"
         d="M 2.46094,408.238 H 4156.99" /><path
         id="path20"
         style="fill:#ffffff;fill-opacity:1;fill-rule:evenodd;stroke:none"
         d="m 2164.14,158.52 -3.12,29.839 -9.26,27.692 c -55.86,137.187 -251.92,116.527 -282.58,-27.692 l -3.09,-29.839 3.09,-30.86 c 33.2,-142.6991 223.87,-162.8202 282.58,-27.6991 l 9.26,27.6991 3.12,30.86" /><path
         id="path22"
         style="fill:none;stroke:#111111;stroke-width:12.31369972;stroke-linecap:round;stroke-linejoin:round;stroke-miterlimit:10;stroke-dasharray:none;stroke-opacity:1"
         d="m 2164.14,158.52 -3.12,29.839 -9.26,27.692 c -55.86,137.187 -251.92,116.527 -282.58,-27.692 l -3.09,-29.839 3.09,-30.86 c 33.2,-142.6991 223.87,-162.8202 282.58,-27.6991 l 9.26,27.6991 3.12,30.86" /><path
         id="path24"
         style="fill:#111111;fill-opacity:1;fill-rule:nonzero;stroke:none"
         d="m 1991.02,207.301 27.57,13.64 h 2.66 V 125.16 c 0,-6.449 0.27,-10.512 0.82,-12.039 0.47,-1.48 1.6,-2.609 3.2,-3.473 1.72,-0.937 5.2,-1.367 10.43,-1.367 v -3.203 h -42.54 v 3.203 c 5.28,0 8.68,0.348 10.16,1.098 1.56,0.851 2.7,1.992 3.2,3.473 0.67,1.41 1.1,5.468 1.1,12.308 v 61.012 c 0,8.359 -0.35,13.707 -0.82,16.058 -0.39,1.719 -1.14,3 -2.15,3.75 -1.06,0.86 -2.35,1.321 -3.75,1.321 -2.11,0 -5,-0.852 -8.56,-2.422 z" /><path
         id="path26"
         style="fill:#f8e135;fill-opacity:1;fill-rule:evenodd;stroke:none"
         d="m 1767.5,1909.53 -3.09,29.77 -9.29,27.73 c -60,137.97 -250.55,117.7 -284.57,-27.73 l -1.1,-29.77 1.1,-29.84 c 35.78,-143.36 219.61,-165.12 284.57,-28.79 l 9.29,28.79 3.09,29.84" /><path
         id="path28"
         style="fill:none;stroke:#111111;stroke-width:12.31369972;stroke-linecap:round;stroke-linejoin:round;stroke-miterlimit:10;stroke-dasharray:none;stroke-opacity:1"
         d="m 1767.5,1909.53 -3.09,29.77 -9.29,27.73 c -60,137.97 -250.55,117.7 -284.57,-27.73 l -1.1,-29.77 1.1,-29.84 c 35.78,-143.36 219.61,-165.12 284.57,-28.79 l 9.29,28.79 3.09,29.84" /><path
         id="path30"
         style="fill:#111111;fill-opacity:1;fill-rule:nonzero;stroke:none"
         d="m 1583.12,1947.85 c 3.13,7.62 7.23,13.52 12.04,17.66 4.96,4.22 11.09,6.4 18.47,6.4 9.03,0 16.06,-3.08 20.86,-9.1 3.67,-4.26 5.63,-8.94 5.63,-13.9 0,-8.44 -5.24,-17 -15.51,-25.71 6.87,-2.65 12.15,-6.6 15.78,-11.75 3.56,-5 5.35,-11.06 5.35,-17.93 0,-9.85 -3.16,-18.32 -9.37,-25.43 -8.25,-9.5 -20,-14.18 -35.32,-14.18 -7.69,0 -12.96,1.01 -15.78,2.93 -2.69,1.95 -4.02,4.02 -4.02,6.17 0,1.52 0.59,3.01 1.87,4.29 1.41,1.18 3.01,1.88 4.81,1.88 1.41,0 2.81,-0.35 4.3,-0.82 0.86,-0.2 3,-1.21 6.4,-2.93 3.36,-1.84 5.71,-2.89 6.96,-3.2 1.95,-0.55 4.18,-0.82 6.71,-0.82 5.47,0 10.43,2.14 14.69,6.4 4.22,4.42 6.45,9.73 6.45,15.82 0,4.42 -1.02,8.67 -2.97,12.82 -1.45,3 -3.05,5.43 -4.81,7.22 -2.54,2.07 -5.82,4.1 -9.88,5.9 -4.18,1.76 -8.44,2.7 -12.85,2.7 h -2.7 v 2.65 c 4.42,0.47 8.91,1.99 13.4,4.53 4.42,2.62 7.62,5.78 9.61,9.38 1.96,3.67 2.97,7.85 2.97,12.3 0,5.71 -1.8,10.32 -5.35,13.95 -3.63,3.51 -8.09,5.35 -13.4,5.35 -8.75,0 -15.98,-4.69 -21.68,-13.95 z" /><path
         id="path32"
         style="fill:#ff8080;fill-opacity:1;fill-rule:evenodd;stroke:none"
         d="m 3704.41,1358.75 -3.08,30.78 -9.22,27.74 c -49.96,134.61 -256.56,113.94 -281.56,-27.74 l -4.1,-30.78 4.1,-29.84 c 24.72,-142.7 231.99,-163.36 281.56,-27.78 l 9.22,27.78 3.08,29.84" /><path
         id="path34"
         style="fill:none;stroke:#111111;stroke-width:12.31369972;stroke-linecap:round;stroke-linejoin:round;stroke-miterlimit:10;stroke-dasharray:none;stroke-opacity:1"
         d="m 3704.41,1358.75 -3.08,30.78 -9.22,27.74 c -49.96,134.61 -256.56,113.94 -281.56,-27.74 l -4.1,-30.78 4.1,-29.84 c 24.72,-142.7 231.99,-163.36 281.56,-27.78 l 9.22,27.78 3.08,29.84" /><path
         id="path36"
         style="fill:#111111;fill-opacity:1;fill-rule:nonzero;stroke:none"
         d="m 3592.03,1348.05 v -11.76 h -15.23 v -30 h -13.95 v 30 h -47.89 v 10.7 l 52.74,75.2 h 9.1 v -74.14 z m -29.18,0 v 56.48 l -39.57,-56.48 z" /><path
         id="path38"
         style="fill:#111111;fill-opacity:1;fill-rule:nonzero;stroke:none"
         d="m 863.32,558.238 h -45.199 v 2.422 c 22.93,20.121 38.25,35.981 45.75,47.621 3.359,5.16 5.078,10.699 5.078,16.598 0,4.609 -1.488,8.359 -4.301,11.211 -2.847,3.012 -6.597,4.57 -11.207,4.57 -6.293,0 -11.453,-3.082 -15.55,-9.101 l -2.11,1.062 c 2.071,5.699 5.348,10.188 9.61,13.399 4.41,3.121 9.257,4.8 14.449,4.8 5.711,0 10.512,-1.992 14.461,-5.898 3.859,-3.942 5.898,-8.75 5.898,-14.453 0,-3.949 -0.75,-7.539 -2.148,-10.699 -2.153,-5.36 -6.102,-11.29 -11.762,-17.661 -8.789,-9.808 -20.469,-21.25 -35.078,-34.257 h 22.738 c 3.711,0 6.75,0.699 9.102,2.148 2.301,1.559 4.019,3.75 5.109,6.449 h 2.66 z" /><path
         id="path40"
         style="fill:#111111;fill-opacity:1;fill-rule:nonzero;stroke:none"
         d="m 730.551,631.879 c 1.597,-5.629 5.07,-12.078 8.277,-16.609 3.473,-4.801 7.223,-8.551 11.481,-10.969 4.3,-2.699 10.98,-4.531 16.332,-4.531 9.379,0 19.808,5.351 26.757,14.179 9.102,11.75 14.454,28.86 14.454,48.942 0,20.898 -5.352,39.609 -14.692,51.64 -6.711,8.828 -16.601,13.949 -25.969,13.949 -9.382,0 -19.812,-5.359 -26.761,-14.46 -9.102,-12.071 -14.45,-31.051 -14.45,-53.508 0,-10.203 1.598,-19.813 4.571,-28.633 z m 17.379,35.031 c 0.55,15.512 1.871,26.762 3.199,33.711 1.883,6.957 3.48,10.43 6.68,13.399 3.211,2.929 5.082,3.992 8.832,3.992 3.48,0 4.3,-0.512 6.949,-2.66 3.75,-2.93 5.629,-6.172 7.781,-12.852 2.93,-9.102 4.289,-20.859 4.289,-33.16 h -37.461 z m 37.461,-5.89 c -0.27,-13.36 -1.332,-24.071 -2.93,-31.571 -1.641,-7.769 -3.242,-11.25 -6.723,-14.719 -3.199,-3.48 -4.527,-4.531 -8.277,-4.531 -3.199,0 -4.02,0.27 -6.68,2.141 -2.972,1.84 -5.121,4.262 -6.441,6.961 -2.391,4.527 -3.211,8.277 -4.031,14.449 -1.329,8.012 -2.11,17.109 -2.11,25.121 h 37.192 z" /><path
         id="path42"
         style="fill:#111111;fill-opacity:1;fill-rule:nonzero;stroke:none"
         d="m 3971.45,691.09 -17.11,-59.68 h 10.7 l -2.42,-8.289 h -10.98 l -6.95,-24.371 h -9.89 l 7.23,24.371 h -32.93 l 2.93,9.379 54.34,58.59 z m -14.69,-17.141 -39.1,-42.539 h 26.75 z" /><path
         id="path44"
         style="fill:#111111;fill-opacity:1;fill-rule:nonzero;stroke:none"
         d="m 3822.46,673.98 c 1.6,-5.621 5.08,-12.031 8.32,-16.601 3.48,-4.801 7.23,-8.551 11.49,-10.93 4.29,-2.699 10.97,-4.57 16.32,-4.57 9.38,0 19.81,5.351 26.76,14.172 9.1,11.801 14.45,28.91 14.45,48.988 0,20.859 -5.35,39.609 -14.72,51.641 -6.68,8.832 -16.56,13.91 -25.94,13.91 -9.37,0 -19.8,-5.36 -26.76,-14.461 -9.1,-12.027 -14.45,-31.008 -14.45,-53.508 0,-10.16 1.6,-19.812 4.53,-28.641 z m 17.42,35.079 c 0.51,15.511 1.88,26.761 3.21,33.711 1.87,6.96 3.47,10.429 6.68,13.359 3.2,2.973 5.07,4.031 8.82,4.031 3.48,0 4.3,-0.551 6.96,-2.66 3.75,-2.969 5.62,-6.172 7.77,-12.852 2.93,-9.097 4.26,-20.898 4.26,-33.199 h -37.46 z m 37.46,-5.899 c -0.27,-13.39 -1.36,-24.101 -2.96,-31.558 -1.61,-7.774 -3.21,-11.25 -6.68,-14.723 -3.21,-3.481 -4.54,-4.578 -8.29,-4.578 -3.24,0 -4.02,0.277 -6.71,2.148 -2.93,1.879 -5.08,4.301 -6.41,6.961 -2.42,4.57 -3.2,8.32 -4.02,14.449 -1.33,8.051 -2.15,17.153 -2.15,25.161 h 37.22 z" /><path
         id="path46"
         style="fill:#111111;fill-opacity:1;fill-rule:nonzero;stroke:none"
         d="m 3443.16,557.301 -21.68,-74.922 c -1.28,-4.449 -1.87,-7.688 -1.87,-9.609 0,-1.598 0.55,-2.891 1.6,-3.75 1.21,-0.93 4.02,-1.559 8.28,-1.872 l -0.78,-2.418 h -34.53 l 1.09,2.418 c 3.52,0.122 5.94,0.551 7.23,1.051 1.72,0.672 3.2,1.762 4.26,3.211 1.4,1.949 2.81,5.621 4.29,10.969 l 15.51,53.793 c 1.02,3.168 1.6,5.078 1.6,5.629 0.16,0.859 0.28,1.75 0.28,2.687 0,1.532 -0.47,2.813 -1.33,3.711 -0.94,0.903 -2.07,1.371 -3.48,1.371 -1.09,0 -2.89,-0.351 -5.35,-0.82 l -0.82,2.422 22.5,6.129 z" /><path
         id="path48"
         style="fill:#111111;fill-opacity:1;fill-rule:nonzero;stroke:none"
         d="m 3308.67,538.359 c 1.64,-5.629 5.12,-12.07 8.32,-16.597 3.48,-4.813 7.23,-8.563 11.49,-10.981 4.29,-2.66 10.97,-4.531 16.32,-4.531 9.38,0 19.81,5.352 26.76,14.18 9.1,11.761 14.46,28.91 14.46,48.949 0,20.891 -5.36,39.601 -14.73,51.641 -6.68,8.859 -16.56,13.941 -25.94,13.941 -9.37,0 -19.8,-5.352 -26.76,-14.449 -9.1,-12.032 -14.45,-31.063 -14.45,-53.524 0,-10.187 1.6,-19.797 4.53,-28.629 z m 17.42,35.039 c 0.51,15.512 1.88,26.762 3.21,33.711 1.87,6.95 3.47,10.43 6.68,13.403 3.2,2.929 5.07,4.019 8.82,4.019 3.48,0 4.3,-0.551 6.96,-2.691 3.75,-2.93 5.62,-6.18 7.77,-12.86 2.93,-9.101 4.3,-20.859 4.3,-33.16 h -37.46 z m 37.46,-5.898 c -0.27,-13.359 -1.32,-24.059 -2.96,-31.559 -1.61,-7.781 -3.21,-11.25 -6.68,-14.73 -3.21,-3.481 -4.53,-4.531 -8.29,-4.531 -3.2,0 -4.02,0.269 -6.67,2.148 -2.97,1.871 -5.12,4.262 -6.45,6.953 -2.38,4.528 -3.2,8.278 -4.02,14.449 -1.33,8.008 -2.11,17.11 -2.11,25.161 h 37.18 z" /><path
         id="path50"
         style="fill:#111111;fill-opacity:1;fill-rule:nonzero;stroke:none"
         d="m 581.602,1572.19 -8.551,-94.18 c -0.512,-4.49 -0.781,-7.42 -0.781,-8.83 0,-2.15 0.39,-3.87 1.32,-5.08 1.019,-1.6 2.461,-2.81 4.301,-3.48 1.718,-0.74 4.808,-1.09 9.058,-1.09 l -0.777,-3.2 H 541.48 l 0.79,3.2 h 1.871 c 3.711,0 6.718,0.67 8.828,2.15 1.761,1.02 3.082,2.81 4.019,5.35 0.473,1.76 1.102,5.9 1.602,12.31 l 1.371,14.18 h -32.383 l -11.527,-15.51 c -2.653,-3.6 -4.41,-6.21 -5.071,-7.78 -0.55,-1.44 -0.82,-2.81 -0.82,-3.98 0,-1.84 0.699,-3.44 2.141,-4.84 1.41,-1.25 3.828,-1.88 7.23,-1.88 l -1.051,-3.2 H 485 l 0.82,3.2 c 4.141,0.16 7.77,1.49 10.981,4.02 3.121,2.62 7.89,8.17 14.179,16.61 l 67.692,92.03 z m -16.563,-27.81 -32.93,-44.69 h 28.629 z" /><path
         id="path52"
         style="fill:#111111;fill-opacity:1;fill-rule:nonzero;stroke:none"
         d="m 2938.63,2106.05 1.1,3.21 h 40.39 c 6.76,0 12.85,-1.14 18.2,-3.21 5.27,-2.14 9.38,-5.15 12.03,-8.82 2.62,-3.75 4.03,-7.85 4.03,-12.07 0,-6.61 -2.47,-12.62 -7.23,-17.93 -4.69,-5.2 -12.38,-9.03 -23.01,-11.49 6.88,-2.54 12.03,-5.97 15.24,-10.19 3.16,-4.26 4.84,-8.95 4.84,-13.91 0,-5.74 -1.49,-11.17 -4.3,-16.33 -2.85,-5 -6.6,-8.94 -11.25,-11.76 -4.45,-2.89 -9.96,-5.03 -16.29,-6.44 -4.68,-0.94 -11.87,-1.33 -21.4,-1.33 h -41.76 l 1.05,3.2 c 4.42,0 7.5,0.36 9.11,1.1 2.07,1.01 3.63,2.26 4.57,3.75 1.4,2.07 3.2,7.03 5.35,14.72 l 20.31,68.48 c 1.76,5.82 2.69,9.96 2.69,12.31 0,1.95 -0.85,3.55 -2.42,4.84 -1.48,1.17 -4.33,1.87 -8.55,1.87 -1.06,0 -1.99,0 -2.7,0 z m 16.88,-47.1 c 3.55,0 6.21,0 8.04,0 11.57,0 20.12,2.46 25.67,7.5 5.7,4.92 8.55,11.28 8.55,18.98 0,5.7 -1.79,10.16 -5.35,13.4 -3.4,3.12 -8.87,4.8 -16.29,4.8 -2.15,0 -4.76,-0.39 -7.77,-1.05 z m -16.33,-55.67 c 5.82,-0.94 10.51,-1.33 13.91,-1.33 8.71,0 16.4,2.54 23.04,7.74 6.72,5.31 10.16,12.46 10.16,21.4 0,6.92 -2.07,12.35 -6.17,16.1 -4.14,3.86 -10.82,5.86 -20.08,5.86 -1.8,0 -3.95,-0.12 -6.41,-0.28 z" /><path
         id="path54"
         style="fill:#111111;fill-opacity:1;fill-rule:nonzero;stroke:none"
         d="m 416.09,181.52 10.43,-91.2505 65.82,91.2505 h 27.582 v -3.2 c -5.902,-0.39 -9.453,-0.742 -10.434,-1.05 -2.027,-0.75 -3.828,-2.27 -5.347,-4.571 -1.481,-2.109 -3.09,-6.289 -4.84,-12.308 l -20.86,-71.9926 c -1.25,-4.1367 -1.882,-7.4179 -1.882,-9.8789 0,-2.1484 0.671,-3.8281 2.152,-4.8086 2.07,-1.6015 5.469,-2.4218 10.16,-2.4218 h 1.867 l -0.777,-3.1993 h -47.66 l 0.82,3.1993 h 2.391 c 4.097,0 7.297,0.5507 9.648,1.6015 1.52,0.8594 3.078,2.5391 4.57,5.0782 1.399,2.5 3.321,8.0507 5.86,16.6015 L 484.34,160.391 417.969,68.0898 H 414.77 L 404.059,160.391 383.98,90.2695 c -1.789,-6.0507 -2.691,-10.0703 -2.691,-12.0312 0,-2.1485 0.66,-3.7891 2.152,-4.7969 1.559,-1.1016 5.231,-1.8008 10.969,-2.1523 l -0.82,-3.1993 h -37.461 l 0.82,3.1993 h 2.43 c 5.461,0 9.492,1.332 12.031,4.0195 1.711,1.9219 3.59,6.293 5.621,13.0898 l 24.61,84.5706 c -1.993,1.953 -3.832,3.203 -5.352,3.75 -1.598,0.66 -4.769,1.211 -9.379,1.601 l 1.102,3.2 z" /><path
         id="path56"
         style="fill:#111111;fill-opacity:1;fill-rule:nonzero;stroke:none"
         d="m 3606.45,181.52 35.07,-88.8208 18.99,66.3598 c 1.56,5.281 2.42,9.492 2.42,12.582 0,2.07 -0.74,3.75 -2.15,4.808 -1.48,1.211 -4.14,1.871 -8.05,1.871 -0.7,0 -1.44,0 -2.11,0 l 0.79,3.2 h 36.68 l -1.1,-3.2 c -3.75,0.16 -6.6,-0.199 -8.55,-1.05 -2.54,-1.29 -4.49,-2.821 -5.9,-4.571 -1.8,-2.66 -3.59,-7.269 -5.35,-13.64 l -26.76,-93.6684 h -2.93 l -37.73,95.8204 -20.08,-70.6602 c -1.6,-5.3516 -2.39,-9.5 -2.39,-12.3125 0,-2.1485 0.67,-3.7891 2.11,-4.7969 1.41,-1.1016 4.65,-1.8008 9.65,-2.1523 l -0.78,-3.1993 h -35.62 l 1.36,3.1993 c 4.42,0 7.35,0.3515 8.83,1.0507 2.27,1.0196 3.99,2.4297 5.08,4.0313 1.52,2.2578 3.32,7.0273 5.35,14.1797 l 22.46,78.6682 c -2.11,3.359 -4.45,5.703 -6.95,6.953 -2.54,1.207 -6.33,1.949 -11.49,2.148 l 1.06,3.2 z" /><path
         id="path58"
         style="fill:#ff7f2a;fill-opacity:1;fill-rule:evenodd;stroke:none"
         d="m 425.512,909.648 -4.141,29.84 -8.25,27.703 C 351.719,1102.58 164.02,1084.1 130.551,939.488 l -4.071,-29.84 4.071,-29.769 C 161.129,733.98 353.32,714.57 413.121,851.09 l 8.25,28.789 4.141,29.769" /><path
         id="path60"
         style="fill:none;stroke:#111111;stroke-width:12.31369972;stroke-linecap:round;stroke-linejoin:round;stroke-miterlimit:10;stroke-dasharray:none;stroke-opacity:1"
         d="m 425.512,909.648 -4.141,29.84 -8.25,27.703 C 351.719,1102.58 164.02,1084.1 130.551,939.488 l -4.071,-29.84 4.071,-29.769 C 161.129,733.98 353.32,714.57 413.121,851.09 l 8.25,28.789 4.141,29.769" /><path
         id="path62"
         style="fill:#111111;fill-opacity:1;fill-rule:nonzero;stroke:none"
         d="m 310.699,878.16 -7.73,-21.91 h -66.918 v 3.199 c 19.609,17.781 33.437,32.43 41.488,43.871 7.973,11.371 12.031,21.84 12.031,31.328 0,7.071 -2.269,12.973 -6.679,17.653 -4.301,4.609 -9.571,6.961 -15.782,6.961 -5.589,0 -10.589,-1.762 -15,-5.082 -4.488,-3.2 -7.699,-7.969 -9.648,-14.18 h -3.199 c 1.398,10.27 4.957,18.238 10.699,23.789 5.699,5.512 12.93,8.32 21.68,8.32 9.019,0 16.718,-3.089 23.007,-9.097 6.25,-5.903 9.372,-12.93 9.372,-20.864 0,-5.777 -1.399,-11.449 -4.02,-17.148 -4.262,-9.102 -11.02,-18.668 -20.078,-28.629 -13.902,-15.199 -22.652,-24.422 -26.211,-27.539 h 29.73 c 6.008,0 10.231,0.117 12.539,0.508 2.5,0.461 4.68,1.48 6.719,2.961 1.91,1.41 3.59,3.32 5.071,5.859 z" /><path
         id="path64"
         style="fill:#111111;fill-opacity:1;fill-rule:nonzero;stroke:none"
         d="m 2165.47,1461.64 v 2.15 c 10.86,1.52 19.02,4.8 24.37,9.65 3.68,3.32 5.59,7.34 5.59,12.03 0,3.55 -1.17,6.41 -3.48,8.55 -2.11,2.27 -4.88,3.48 -8,3.48 -5.04,0 -9.46,-3.09 -13.13,-9.1 l -2.66,0.55 c 2.27,5.15 5.2,9.1 8.83,11.75 3.67,2.62 7.74,4.03 12.03,4.03 5.28,0 9.65,-1.68 12.86,-4.81 3.12,-3.08 4.8,-7.03 4.8,-11.8 0,-4.14 -1.52,-8.16 -4.53,-12.03 -3.09,-3.75 -8.36,-7.07 -15.78,-9.88 4.61,-2.03 8.08,-4.76 10.43,-8.32 2.46,-3.59 3.75,-7.97 3.75,-13.09 0,-5.58 -1.68,-11.17 -4.85,-16.87 -3.2,-5.55 -7.69,-9.84 -13.36,-12.85 -5.54,-3.01 -11.36,-4.53 -17.38,-4.53 -5.78,0 -10.04,0.97 -12.85,2.93 -2.03,1.4 -2.97,3 -2.97,4.8 0,1.41 0.55,2.7 1.6,3.75 1.21,1.21 2.7,1.88 4.3,1.88 1.21,0 2.42,-0.2 3.48,-0.51 0.66,-0.24 2.42,-1.17 5.07,-2.7 2.82,-1.6 5.08,-2.73 6.72,-3.2 1.53,-0.55 3.21,-0.82 4.81,-0.82 4.06,0 7.34,2.3 9.88,6.95 2.62,4.77 4.02,9.77 4.02,15 0,4.22 -0.93,8.09 -2.65,11.53 -1.84,3.32 -4.65,6.01 -8.32,8 -3.75,2.07 -7.97,3.29 -12.58,3.48 z" /><path
         id="path66"
         style="fill:#111111;fill-opacity:1;fill-rule:nonzero;stroke:none"
         d="m 2062.27,1485.78 c 1.6,-5.62 5.07,-12.07 8.28,-16.6 3.47,-4.8 7.22,-8.56 11.48,-10.98 4.3,-2.65 10.98,-4.53 16.33,-4.53 9.37,0 19.8,5.35 26.76,14.18 9.1,11.76 14.45,28.91 14.45,48.95 0,20.9 -5.35,39.61 -14.69,51.64 -6.72,8.86 -16.6,13.94 -25.97,13.94 -9.38,0 -19.81,-5.35 -26.76,-14.45 -9.1,-12.03 -14.45,-31.05 -14.45,-53.52 0,-10.19 1.6,-19.8 4.57,-28.63 z m 17.38,35.04 c 0.51,15.51 1.87,26.76 3.2,33.71 1.88,6.95 3.48,10.43 6.68,13.4 3.2,2.93 5.08,4.02 8.83,4.02 3.48,0 4.3,-0.54 6.95,-2.69 3.75,-2.93 5.63,-6.17 7.78,-12.85 2.93,-9.11 4.29,-20.86 4.29,-33.17 h -37.46 z m 37.46,-5.9 c -0.27,-13.36 -1.33,-24.06 -2.97,-31.56 -1.6,-7.77 -3.2,-11.25 -6.68,-14.73 -3.2,-3.47 -4.53,-4.53 -8.28,-4.53 -3.2,0 -4.02,0.28 -6.68,2.15 -2.97,1.87 -5.12,4.26 -6.45,6.95 -2.38,4.53 -3.2,8.28 -4.02,14.46 -1.33,8 -2.11,17.11 -2.11,25.15 h 37.19 z" /><path
         id="path68"
         style="fill:#ffffff;fill-opacity:1;fill-rule:evenodd;stroke:none"
         d="m 495.352,395.859 2.07,11.332 c -4.961,58.981 -79.692,69.879 -98.672,13.36 l -1.988,-10.321 c -1.563,-48.429 61.328,-72.57 89.367,-31.832 l 6.141,9.262 3.082,8.199" /><path
         id="path70"
         style="fill:none;stroke:#111111;stroke-width:3.69922996;stroke-linecap:round;stroke-linejoin:round;stroke-miterlimit:10;stroke-dasharray:none;stroke-opacity:1"
         d="m 495.352,395.859 2.07,11.332 c -4.961,58.981 -79.692,69.879 -98.672,13.36 l -1.988,-10.321 c -1.563,-48.429 61.328,-72.57 89.367,-31.832 l 6.141,9.262 3.082,8.199" /><path
         id="path72"
         style="fill:#ff7f2a;fill-opacity:1;fill-rule:evenodd;stroke:none"
         d="M 634.102,1383.36 398.75,420.551 l 3.09,9.219 c 29.211,48.32 91.172,29.57 95.582,-22.579 l -2.07,-11.332 237.347,962.891 -4.07,-8.24 c -22.027,-51.1 -97.539,-31.84 -94.527,22.61 v 10.24" /><path
         id="path74"
         style="fill:none;stroke:#111111;stroke-width:3.69922996;stroke-linecap:round;stroke-linejoin:round;stroke-miterlimit:10;stroke-dasharray:none;stroke-opacity:1"
         d="M 634.102,1383.36 398.75,420.551 l 3.09,9.219 c 29.211,48.32 91.172,29.57 95.582,-22.579 l -2.07,-11.332 237.347,962.891 -4.07,-8.24 c -22.027,-51.1 -97.539,-31.84 -94.527,22.61 v 10.24" /><path
         id="path76"
         style="fill:#ffffff;fill-opacity:1;fill-rule:evenodd;stroke:none"
         d="m 2908.05,1919.77 -8.21,-3.09 -9.25,-4.1 c -39.61,-29.42 -20.39,-89.88 29.84,-91.45 l 9.22,2.03 10.23,3.05 c 44.5,20.82 36.29,84.73 -12.3,93.56 l -9.22,2.07 -10.31,-2.07" /><path
         id="path78"
         style="fill:none;stroke:#111111;stroke-width:3.69922996;stroke-linecap:round;stroke-linejoin:round;stroke-miterlimit:10;stroke-dasharray:none;stroke-opacity:1"
         d="m 2908.05,1919.77 -8.21,-3.09 -9.25,-4.1 c -39.61,-29.42 -20.39,-89.88 29.84,-91.45 l 9.22,2.03 10.23,3.05 c 44.5,20.82 36.29,84.73 -12.3,93.56 l -9.22,2.07 -10.31,-2.07" /><path
         id="path80"
         style="fill:#f8e135;fill-opacity:1;fill-rule:evenodd;stroke:none"
         d="m 693.629,1321.76 2236.021,501.4 -9.22,-2.03 c -59.45,2.54 -67.58,78.4 -20.59,95.55 l 8.21,3.09 -2235.941,-499.42 h 11.289 c 51.25,0 70.864,-66.68 20.551,-94.53 l -10.32,-4.06" /><path
         id="path82"
         style="fill:none;stroke:#111111;stroke-width:3.69922996;stroke-linecap:round;stroke-linejoin:round;stroke-miterlimit:10;stroke-dasharray:none;stroke-opacity:1"
         d="m 693.629,1321.76 2236.021,501.4 -9.22,-2.03 c -59.45,2.54 -67.58,78.4 -20.59,95.55 l 8.21,3.09 -2235.941,-499.42 h 11.289 c 51.25,0 70.864,-66.68 20.551,-94.53 l -10.32,-4.06" /><path
         id="path84"
         style="fill:#ffffff;fill-opacity:1;fill-rule:evenodd;stroke:none"
         d="m 693.629,1321.76 10.32,4.06 c 54.172,30.23 27.692,102.7 -31.84,94.53 l -10.308,-3.08 c -43.563,-24.42 -37.192,-84.15 12.379,-95.51 l 9.218,-1.1 10.231,1.1" /><path
         id="path86"
         style="fill:none;stroke:#111111;stroke-width:3.69922996;stroke-linecap:round;stroke-linejoin:round;stroke-miterlimit:10;stroke-dasharray:none;stroke-opacity:1"
         d="m 693.629,1321.76 10.32,4.06 c 54.172,30.23 27.692,102.7 -31.84,94.53 l -10.308,-3.08 c -43.563,-24.42 -37.192,-84.15 12.379,-95.51 l 9.218,-1.1 10.231,1.1" /><path
         id="path88"
         style="fill:#ffffff;fill-opacity:1;fill-rule:evenodd;stroke:none"
         d="m 744.02,1371.05 v 12.31 l -3.079,12.38 c -27.781,57.07 -105.16,47.35 -119.222,-12.38 v -24.61 c 14.801,-60.23 91.332,-69.34 119.222,-12.38 l 3.079,12.38 v 12.3" /><path
         id="path90"
         style="fill:none;stroke:#111111;stroke-width:12.31369972;stroke-linecap:round;stroke-linejoin:round;stroke-miterlimit:10;stroke-dasharray:none;stroke-opacity:1"
         d="m 744.02,1371.05 v 12.31 l -3.079,12.38 c -27.781,57.07 -105.16,47.35 -119.222,-12.38 v -24.61 c 14.801,-60.23 91.332,-69.34 119.222,-12.38 l 3.079,12.38 v 12.3" /><path
         id="path92"
         style="fill:#ffffff;fill-opacity:1;fill-rule:evenodd;stroke:none"
         d="m 2875.2,1848.83 12.3,-15.39 15.47,-9.22 c 38.67,-14.92 73.05,22.81 64.69,60.62 l -3.09,8.21 c -29.41,53.04 -106.41,26.72 -93.52,-34.93 l 4.15,-9.29" /><path
         id="path94"
         style="fill:none;stroke:#111111;stroke-width:3.69922996;stroke-linecap:round;stroke-linejoin:round;stroke-miterlimit:10;stroke-dasharray:none;stroke-opacity:1"
         d="m 2875.2,1848.83 12.3,-15.39 15.47,-9.22 c 38.67,-14.92 73.05,22.81 64.69,60.62 l -3.09,8.21 c -29.41,53.04 -106.41,26.72 -93.52,-34.93 l 4.15,-9.29" /><path
         id="path96"
         style="fill:#ffffff;fill-opacity:1;fill-rule:evenodd;stroke:none"
         d="m 3696.25,431.879 -10.31,13.351 -17.46,11.329 c -38.79,8.832 -75.39,-21.168 -63.75,-61.719 l 3.16,-9.219 c 30.04,-51.172 102.23,-27.891 93.44,34.93 l -5.08,11.328" /><path
         id="path98"
         style="fill:none;stroke:#111111;stroke-width:3.69922996;stroke-linecap:round;stroke-linejoin:round;stroke-miterlimit:10;stroke-dasharray:none;stroke-opacity:1"
         d="m 3696.25,431.879 -10.31,13.351 -17.46,11.329 c -38.79,8.832 -75.39,-21.168 -63.75,-61.719 l 3.16,-9.219 c 30.04,-51.172 102.23,-27.891 93.44,34.93 l -5.08,11.328" /><path
         id="path100"
         style="fill:#ff5555;fill-opacity:1;fill-rule:evenodd;stroke:none"
         d="m 3696.25,431.879 -731.68,1461.171 3.09,-8.21 2.07,-11.32 -2.07,-8.21 -2,-9.26 -8.24,-17.46 -15.43,-12.38 -9.26,-3.05 -10.31,-2.03 h -9.22 l -8.24,2.03 -17.46,10.28 -12.3,15.39 732.69,-1463.209 -3.16,9.219 -2,10.32 v 8.16 l 2,11.328 9.29,15.43 15.39,12.301 10.32,4.18 9.22,0.98 h 10.31 l 9.22,-0.98 17.46,-11.329 10.31,-13.351" /><path
         id="path102"
         style="fill:none;stroke:#111111;stroke-width:3.69922996;stroke-linecap:round;stroke-linejoin:round;stroke-miterlimit:10;stroke-dasharray:none;stroke-opacity:1"
         d="m 3696.25,431.879 -731.68,1461.171 3.09,-8.21 2.07,-11.32 -2.07,-8.21 -2,-9.26 -8.24,-17.46 -15.43,-12.38 -9.26,-3.05 -10.31,-2.03 h -9.22 l -8.24,2.03 -17.46,10.28 -12.3,15.39 732.69,-1463.209 -3.16,9.219 -2,10.32 v 8.16 l 2,11.328 9.29,15.43 15.39,12.301 10.32,4.18 9.22,0.98 h 10.31 l 9.22,-0.98 17.46,-11.329 10.31,-13.351" /><path
         id="path104"
         style="fill:#ffffff;fill-opacity:1;fill-rule:evenodd;stroke:none"
         d="m 2982.03,1872.54 -2.07,12.3 -3.05,10.28 c -21.01,52.46 -102.85,53.79 -118.16,-10.28 l -1.02,-12.3 1.02,-14.42 c 14.37,-64.33 98.59,-62.26 118.16,-10.27 l 3.05,10.27 2.07,14.42" /><path
         id="path106"
         style="fill:none;stroke:#111111;stroke-width:12.31369972;stroke-linecap:round;stroke-linejoin:round;stroke-miterlimit:10;stroke-dasharray:none;stroke-opacity:1"
         d="m 2982.03,1872.54 -2.07,12.3 -3.05,10.28 c -21.01,52.46 -102.85,53.79 -118.16,-10.28 l -1.02,-12.3 1.02,-14.42 c 14.37,-64.33 98.59,-62.26 118.16,-10.27 l 3.05,10.27 2.07,14.42" /><path
         id="path108"
         style="fill:#ffffff;fill-opacity:1;fill-rule:evenodd;stroke:none"
         d="m 3713.71,408.238 v 12.313 c -4.53,28.711 -33.36,49.719 -61.68,49.289 l -12.3,-0.969 c -21.14,-6.062 -36.92,-14.461 -43.21,-36.992 l -6.17,-11.328 V 394.84 c 21.76,-62.649 90.39,-65.738 120.24,-11.289 l 3.12,11.289 v 13.398" /><path
         id="path110"
         style="fill:none;stroke:#111111;stroke-width:12.31369972;stroke-linecap:round;stroke-linejoin:round;stroke-miterlimit:10;stroke-dasharray:none;stroke-opacity:1"
         d="m 3713.71,408.238 v 12.313 c -4.53,28.711 -33.36,49.719 -61.68,49.289 l -12.3,-0.969 c -21.14,-6.062 -36.92,-14.461 -43.21,-36.992 l -6.17,-11.328 V 394.84 c 21.76,-62.649 90.39,-65.738 120.24,-11.289 l 3.12,11.289 v 13.398 l 75,-163.437 h -273.36 l 75,163.437" /><path
         id="path112"
         style="fill:none;stroke:#111111;stroke-width:3.69922996;stroke-linecap:round;stroke-linejoin:round;stroke-miterlimit:10;stroke-dasharray:none;stroke-opacity:1"
         d="m 1998.71,1371.05 v 53.44 l -3.09,54.46 -5.15,53.39 -7.23,52.46" /><path
         id="path114"
         style="fill:#111111;fill-opacity:1;fill-rule:evenodd;stroke:none"
         d="m 1968.87,1658.79 9.29,-26.76 14.38,-22.62 18.48,-21.56 23.59,-15.43 -24.61,3.13 -24.69,-1.06 -24.61,-7.15 -21.6,-14.41 16.45,24.65 8.24,24.69 5.08,28.75 v 27.77" /><path
         id="path116"
         style="fill:none;stroke:#111111;stroke-width:3.69922996;stroke-linecap:round;stroke-linejoin:round;stroke-miterlimit:10;stroke-dasharray:none;stroke-opacity:1"
         d="M 683.398,1371.05 H 2050.08" /><path
         id="path118"
         style="fill:none;stroke:#111111;stroke-width:3.69922996;stroke-linecap:round;stroke-linejoin:round;stroke-miterlimit:10;stroke-dasharray:none;stroke-opacity:1"
         d="M 683.398,1371.05 2015.16,1669.02" /><path
         id="path120"
         style="fill:none;stroke:#111111;stroke-width:3.69922996;stroke-linecap:round;stroke-linejoin:round;stroke-miterlimit:10;stroke-dasharray:none;stroke-opacity:1"
         d="m 756.41,408.238 -1.101,42.071 c -11.438,83.64 -58.469,161.839 -126.36,211.761 l -37,23.59" /><path
         id="path122"
         style="fill:#111111;fill-opacity:1;fill-rule:evenodd;stroke:none"
         d="m 522.109,711.371 25.7,-5.16 h 28.75 l 27.703,5.16 24.687,11.289 -16.449,-19.539 -12.301,-21.601 -5.16,-24.61 v -25.699 l -12.309,25.699 -17.46,21.531 -19.532,19.528 -23.629,13.402" /><path
         id="path124"
         style="fill:none;stroke:#111111;stroke-width:3.69922996;stroke-linecap:round;stroke-linejoin:round;stroke-miterlimit:10;stroke-dasharray:none;stroke-opacity:1"
         d="M 446.051,408.238 539.57,782.27" /><path
         id="path126"
         style="fill:none;stroke:#111111;stroke-width:3.69922996;stroke-linecap:round;stroke-linejoin:round;stroke-miterlimit:10;stroke-dasharray:none;stroke-opacity:1"
         d="m 3914.06,408.238 -2.07,26.684 C 3900.23,573.828 3768.83,685 3629.41,669.219 l -22.61,-3.09" /><path
         id="path128"
         style="fill:#111111;fill-opacity:1;fill-rule:evenodd;stroke:none"
         d="m 3534.88,643.52 24.69,12.3 22.62,17.461 17.46,20.629 12.3,24.61 -2.07,-24.61 5.16,-24.691 11.33,-22.617 15.35,-19.532 -24.61,12.379 -26.76,7.153 h -27.69 l -27.78,-3.082" /><path
         id="path130"
         style="fill:none;stroke:#111111;stroke-width:3.69922996;stroke-linecap:round;stroke-linejoin:round;stroke-miterlimit:10;stroke-dasharray:none;stroke-opacity:1"
         d="M 3652.03,408.238 3482.5,749.379" /><path
         id="path132"
         style="fill:#ffffff;fill-opacity:1;fill-rule:evenodd;stroke:none"
         d="m 509.73,408.238 -2.07,12.313 -3.09,12.301 c -23.75,53.789 -108.359,47.226 -118.121,-12.301 l -2.07,-12.313 2.07,-12.379 c 12.422,-60.82 91.52,-68.281 118.121,-12.308 l 3.09,12.308 2.07,12.379" /><path
         id="path134"
         style="fill:none;stroke:#111111;stroke-width:12.31369972;stroke-linecap:round;stroke-linejoin:round;stroke-miterlimit:10;stroke-dasharray:none;stroke-opacity:1"
         d="m 509.73,408.238 -2.07,12.313 -3.09,12.301 c -23.75,53.789 -108.359,47.226 -118.121,-12.301 l -2.07,-12.313 2.07,-12.379 c 12.422,-60.82 91.52,-68.281 118.121,-12.308 l 3.09,12.308 2.07,12.379 73,-162.34 H 311.449 l 72.93,162.34" /><path
         id="path136"
         style="fill:none;stroke:#111111;stroke-width:3.69922996;stroke-linecap:round;stroke-linejoin:round;stroke-miterlimit:10;stroke-dasharray:none;stroke-opacity:1"
         d="m 3813.4,408.238 -3.09,31.84 c -30.78,142.891 -206.52,176.293 -289.8,60.621 l -12.31,-19.527" /><path
         id="path138"
         style="fill:#111111;fill-opacity:1;fill-rule:evenodd;stroke:none"
         d="m 3490.74,408.238 1.99,28.75 -4.06,25.711 -8.24,26.68 -14.38,24.68 21.57,-13.36 22.58,-9.25 24.68,-3.051 25.71,3.051 -24.69,-15.429 -18.48,-19.461 -16.44,-23.707 -10.24,-24.614" /><path
         id="path140"
         style="fill:none;stroke:#111111;stroke-width:12.31369972;stroke-linecap:round;stroke-linejoin:round;stroke-miterlimit:10;stroke-dasharray:none;stroke-opacity:1"
         d="M 448.121,408.238 H 3652.03" /></g></g></svg>