<?xml version="1.0" encoding="UTF-8" standalone="no"?>
<svg
   xmlns:dc="http://purl.org/dc/elements/1.1/"
   xmlns:cc="http://creativecommons.org/ns#"
   xmlns:rdf="http://www.w3.org/1999/02/22-rdf-syntax-ns#"
   xmlns:svg="http://www.w3.org/2000/svg"
   xmlns="http://www.w3.org/2000/svg"
   xmlns:sodipodi="http://sodipodi.sourceforge.net/DTD/sodipodi-0.dtd"
   xmlns:inkscape="http://www.inkscape.org/namespaces/inkscape"
   version="1.1"
   id="svg2"
   xml:space="preserve"
   width="428.66116"
   height="220.46234"
   viewBox="0 0 428.66116 220.46234"
   sodipodi:docname="four-bars-vector-loop.svg"
   inkscape:version="0.92.3 (2405546, 2018-03-11)"><sodipodi:namedview
     pagecolor="#ffffff"
     bordercolor="#666666"
     borderopacity="1"
     objecttolerance="10"
     gridtolerance="10"
     guidetolerance="10"
     inkscape:pageopacity="0"
     inkscape:pageshadow="2"
     inkscape:window-width="1316"
     inkscape:window-height="728"
     id="namedview73"
     showgrid="false"
     fit-margin-top="0"
     fit-margin-left="0"
     fit-margin-right="0"
     fit-margin-bottom="0"
     inkscape:zoom="0.61823774"
     inkscape:cx="-390.13733"
     inkscape:cy="282.70287"
     inkscape:window-x="50"
     inkscape:window-y="0"
     inkscape:window-maximized="1"
     inkscape:current-layer="g12" /><metadata
     id="metadata8"><rdf:RDF><cc:Work
         rdf:about=""><dc:format>image/svg+xml</dc:format><dc:type
           rdf:resource="http://purl.org/dc/dcmitype/StillImage" /><dc:title></dc:title></cc:Work></rdf:RDF></metadata><defs
     id="defs6">








</defs><g
     id="g10"
     transform="matrix(1.3333333,0,0,-1.3333333,-4.2574933,363.40823)"><g
       id="g12"
       transform="scale(0.1)"><path
   d="m 233.44889,1949.8329 2044.57101,603.831"
   style="fill:#000000;fill-opacity:1;fill-rule:nonzero;stroke:none"
   id="path158"
   inkscape:connector-curvature="0" /><path
   d="m 233.44889,1949.8329 2044.57101,603.831"
   style="fill:none;stroke:#ffff00;stroke-width:7.5;stroke-linecap:butt;stroke-linejoin:miter;stroke-miterlimit:4;stroke-dasharray:none;stroke-opacity:1"
   id="path160"
   inkscape:connector-curvature="0" /><path
   d="m 253.21089,1941.8259 1814.92901,-751.52"
   style="fill:none;stroke:#000000;stroke-width:7.5;stroke-linecap:butt;stroke-linejoin:miter;stroke-miterlimit:4;stroke-dasharray:none;stroke-opacity:1"
   id="path162"
   inkscape:connector-curvature="0" /><path
   d="m 2099.4699,1211.9859 763.67,525.859"
   style="fill:#ff7f2a;fill-opacity:1;fill-rule:nonzero;stroke:none"
   id="path164"
   inkscape:connector-curvature="0" /><path
   d="m 2099.4699,1211.9859 763.67,525.859"
   style="fill:none;stroke:#ff7f2a;stroke-width:7.5;stroke-linecap:butt;stroke-linejoin:miter;stroke-miterlimit:4;stroke-dasharray:none;stroke-opacity:1"
   id="path166"
   inkscape:connector-curvature="0" /><path
   d="m 2374.2699,2582.3739 458.71,-792.888"
   style="fill:#ff2a2a;fill-opacity:1;fill-rule:nonzero;stroke:none"
   id="path168"
   inkscape:connector-curvature="0" /><path
   d="m 2374.2699,2582.3739 458.71,-792.888"
   style="fill:none;stroke:#ff2a2a;stroke-width:7.5;stroke-linecap:butt;stroke-linejoin:miter;stroke-miterlimit:4;stroke-dasharray:none;stroke-opacity:1"
   id="path170"
   inkscape:connector-curvature="0" /><path
   d="m 313.24989,1879.0559 -79.762,70.938 105.274,-8.911 -25.512,-62.027"
   style="fill:#000000;fill-opacity:1;fill-rule:evenodd;stroke:none"
   id="path172"
   inkscape:connector-curvature="0" /><path
   d="m 2267.7499,2583.9339 21.21,-63.67 85.51,61.99 z"
   style="fill:#ffff00;fill-opacity:1;fill-rule:evenodd;stroke:none"
   id="path174"
   inkscape:connector-curvature="0" /><path
   d="m 2170.6799,1219.9149 -102.54,-29.609 63.67,84.297 38.87,-54.688"
   style="fill:#ff7f2a;fill-opacity:1;fill-rule:evenodd;stroke:none"
   id="path176"
   inkscape:connector-curvature="0" /><path
   d="m 2170.6799,1219.9149 -102.54,-29.609 63.67,84.297 38.87,-54.688"
   style="fill:none;stroke:#ff7f2a;stroke-width:10;stroke-linecap:butt;stroke-linejoin:miter;stroke-miterlimit:4;stroke-dasharray:none;stroke-opacity:1"
   id="path178"
   inkscape:connector-curvature="0" /><path
   d="m 2843.4099,1842.6459 19.61,-104.922 -77.73,71.48 58.12,33.442"
   style="fill:#ff2a2a;fill-opacity:1;fill-rule:evenodd;stroke:none"
   id="path180"
   inkscape:connector-curvature="0" /><path
   d="m 2843.4099,1842.6459 19.61,-104.922 -77.73,71.48 58.12,33.442"
   style="fill:none;stroke:#ff2a2a;stroke-width:10;stroke-linecap:butt;stroke-linejoin:miter;stroke-miterlimit:4;stroke-dasharray:none;stroke-opacity:1"
   id="path182"
   inkscape:connector-curvature="0" /><path
   d="M 33.286798,1189.6029 H 3196.4999"
   style="fill:none;stroke:#111111;stroke-width:2.6731236;stroke-linecap:round;stroke-linejoin:round;stroke-miterlimit:10;stroke-dasharray:none;stroke-opacity:1"
   id="path184"
   inkscape:connector-curvature="0" /><path
   d="m 233.48789,1189.7549 v 1230.669"
   style="fill:none;stroke:#111111;stroke-width:2.59209991;stroke-linecap:round;stroke-linejoin:round;stroke-miterlimit:10;stroke-dasharray:none;stroke-opacity:1"
   id="path186"
   inkscape:connector-curvature="0" /><path
   d="m 188.05889,2395.2239 c 1.133,-1.88 1.91,-3.67 2.34,-5.31 0.39,-1.68 0.82,-4.92 1.25,-9.69 l 2.191,-24.06 c 1.949,2.38 4.77,6.09 8.441,11.09 1.829,2.46 4.098,5.86 6.719,10.16 1.52,2.58 2.539,4.41 2.969,5.47 0.191,0.5 0.312,1.01 0.312,1.56 0,0.39 -0.203,0.7 -0.472,0.94 -0.239,0.19 -0.821,0.46 -1.719,0.78 -0.941,0.27 -1.762,0.86 -2.34,1.72 -0.629,0.82 -0.941,1.75 -0.941,2.81 0,1.33 0.351,2.42 1.09,3.28 0.82,0.82 1.8,1.25 2.972,1.25 1.449,0 2.66,-0.66 3.598,-1.88 1.012,-1.17 1.562,-2.77 1.562,-4.84 0,-2.62 -0.902,-5.58 -2.66,-8.9 -1.801,-3.25 -5.191,-8.33 -10.16,-15.16 -5,-6.8 -11.133,-14.22 -18.281,-22.34 -4.918,-5.51 -8.551,-8.99 -10.93,-10.47 -2.269,-1.45 -4.301,-2.19 -6.101,-2.19 -0.899,0 -1.758,0.43 -2.5,1.25 -0.821,0.74 -1.25,1.6 -1.25,2.5 0,1.25 0.55,2.42 1.562,3.44 1.059,1.05 2.231,1.56 3.438,1.56 0.632,0 1.171,-0.08 1.562,-0.31 0.32,-0.2 0.668,-0.67 0.938,-1.41 0.32,-0.82 0.55,-1.33 0.781,-1.56 0.199,-0.2 0.39,-0.31 0.629,-0.31 0.191,0 0.551,0.19 1.09,0.46 1.761,1.18 3.832,2.93 6.25,5.32 3.089,3.24 5.39,5.86 6.882,7.81 l -2.66,30.94 c -0.551,5.07 -1.293,8.2 -2.191,9.37 -0.86,1.13 -2.379,1.72 -4.531,1.72 -0.618,0 -1.829,-0.12 -3.59,-0.31 l -0.469,1.72 z"
   style="fill:#111111;fill-opacity:1;fill-rule:nonzero;stroke:none"
   id="path188"
   inkscape:connector-curvature="0" /><path
   d="m 232.66789,2462.9539 3.012,-15 5.39,-15.58 8.981,-13.83 11.41,-11.99 -14.383,4.8 -14.41,2.39 -14.418,-2.39 -13.199,-4.8 11.41,11.99 7.809,13.83 6.601,15.58 1.797,15"
   style="fill:#111111;fill-opacity:1;fill-rule:evenodd;stroke:none"
   id="path190"
   inkscape:connector-curvature="0" /><path
   d="m 3246.8899,1189.6029 -16.18,-2.969 -14.41,-5.43 -14.41,-9.5698 -11.41,-10.8204 5.43,14.4102 0.59,14.379 -0.59,14.41 -5.43,14.41 11.41,-11.398 14.41,-9.031 14.41,-5.391 16.18,-3"
   style="fill:#111111;fill-opacity:1;fill-rule:evenodd;stroke:none"
   id="path192"
   inkscape:connector-curvature="0" /><path
   d="m 3119.1666,1162.2052 c 1.64,-1.679 2.85,-3.398 3.59,-5.148 0.59,-1.18 1.6,-4.258 2.97,-9.219 l 4.22,6.559 c 1.13,1.519 2.5,3.011 4.06,4.371 1.64,1.449 3.13,2.429 4.38,2.969 0.82,0.281 1.71,0.468 2.65,0.468 1.33,0 2.42,-0.429 3.28,-1.25 0.82,-0.738 1.25,-1.636 1.25,-2.648 0,-1.25 -0.23,-2.11 -0.62,-2.5 -0.94,-0.86 -1.99,-1.25 -3.13,-1.25 -0.74,0 -1.48,0.148 -2.18,0.461 -1.57,0.508 -2.62,0.789 -3.13,0.789 -0.86,0 -1.8,-0.508 -2.81,-1.41 -1.99,-1.68 -4.42,-4.961 -7.19,-9.84 l 3.91,-16.7189 c 0.58,-2.6211 1.13,-4.1797 1.56,-4.6914 0.39,-0.5508 0.86,-0.7813 1.41,-0.7813 0.58,0 1.4,0.3907 2.34,1.25 1.76,1.4414 3.28,3.3633 4.53,5.7813 l 1.72,-0.7813 c -2.11,-3.8671 -4.73,-7.1093 -7.81,-9.6875 -1.8,-1.4414 -3.32,-2.1914 -4.53,-2.1914 -1.8,0 -3.25,1.0625 -4.38,3.1289 -0.62,1.211 -2.07,6.7227 -4.22,16.4026 -5.12,-8.7502 -9.18,-14.4494 -12.19,-17.0315 -1.99,-1.6406 -3.94,-2.5 -5.78,-2.5 -1.25,0 -2.42,0.5508 -3.59,1.5703 -0.7,0.5821 -1.09,1.5586 -1.09,2.8086 0,1.0118 0.39,1.9102 1.09,2.6524 0.62,0.7109 1.52,1.0976 2.66,1.0976 1.01,0 2.11,-0.5468 3.28,-1.5586 0.82,-0.75 1.44,-1.1015 1.87,-1.1015 0.39,0 0.94,0.2422 1.56,0.7812 1.53,1.211 3.64,3.9102 6.25,7.9685 2.58,4.141 4.3,7.114 5.16,8.91 -1.99,7.891 -3.08,12.071 -3.28,12.5 -0.74,2.153 -1.76,3.672 -2.97,4.532 -1.17,0.902 -2.93,1.41 -5.31,1.41 -0.74,0 -1.6,-0.078 -2.5,-0.16 v 1.718 z"
   style="fill:#111111;fill-opacity:1;fill-rule:nonzero;stroke:none"
   id="path194"
   inkscape:connector-curvature="0" /><path
   d="m 1395.1299,1635.8139 -2.42,18 -4.77,16.211 c -31.64,79.179 -148.36,67.539 -165.62,-16.211 l -1.8,-18 1.8,-17.391 c 17.69,-83.789 132.54,-95.777 165.62,-16.828 l 4.77,16.828 2.42,17.391"
   style="fill:#ffffff;fill-opacity:1;fill-rule:evenodd;stroke:none"
   id="path196"
   inkscape:connector-curvature="0" /><path
   d="m 1395.1299,1635.8139 -2.42,18 -4.77,16.211 c -31.64,79.179 -148.36,67.539 -165.62,-16.211 l -1.8,-18 1.8,-17.391 c 17.69,-83.789 132.54,-95.777 165.62,-16.828 l 4.77,16.828 2.42,17.391"
   style="fill:none;stroke:#111111;stroke-width:7.19999981;stroke-linecap:round;stroke-linejoin:round;stroke-miterlimit:10;stroke-dasharray:none;stroke-opacity:1"
   id="path198"
   inkscape:connector-curvature="0" /><path
   d="m 1293.4499,1664.8719 16.09,7.973 h 1.57 v -55.941 c 0,-3.75 0.15,-6.129 0.46,-7.032 0.28,-0.859 0.94,-1.527 1.88,-2.027 1.02,-0.551 3.05,-0.781 6.09,-0.781 v -1.879 h -24.84 v 1.879 c 3.09,0 5.08,0.191 5.94,0.621 0.9,0.508 1.56,1.168 1.87,2.027 0.39,0.821 0.63,3.211 0.63,7.192 v 35.621 c 0,4.89 -0.2,8.008 -0.47,9.379 -0.24,1.019 -0.67,1.761 -1.25,2.191 -0.63,0.508 -1.37,0.777 -2.19,0.777 -1.25,0 -2.93,-0.507 -5,-1.41 z"
   style="fill:#111111;fill-opacity:1;fill-rule:nonzero;stroke:none"
   id="path200"
   inkscape:connector-curvature="0" /><path
   d="m 1371.5399,2402.5639 -1.22,17.43 -4.8,16.79 c -35.55,78.79 -147.85,67.58 -166.21,-16.79 l -1.17,-17.43 1.17,-17.38 c 17.54,-85.23 131.72,-96.91 166.21,-16.8 l 4.8,16.8 1.22,17.38"
   style="fill:#ffff00;fill-opacity:1;fill-rule:evenodd;stroke:none"
   id="path202"
   inkscape:connector-curvature="0" /><path
   d="m 1371.5399,2402.5639 -1.22,17.43 -4.8,16.79 c -35.55,78.79 -147.85,67.58 -166.21,-16.79 l -1.17,-17.43 1.17,-17.38 c 17.54,-85.23 131.72,-96.91 166.21,-16.8 l 4.8,16.8 1.22,17.38"
   style="fill:none;stroke:#111111;stroke-width:7.19999981;stroke-linecap:round;stroke-linejoin:round;stroke-miterlimit:10;stroke-dasharray:none;stroke-opacity:1"
   id="path204"
   inkscape:connector-curvature="0" /><path
   d="m 1304.4999,2384.1739 -4.53,-12.82 h -39.06 v 1.88 c 11.45,10.39 19.53,18.94 24.22,25.62 4.65,6.64 7.03,12.74 7.03,18.28 0,4.14 -1.33,7.58 -3.91,10.32 -2.5,2.69 -5.58,4.06 -9.21,4.06 -3.25,0 -6.18,-1.02 -8.75,-2.97 -2.62,-1.87 -4.5,-4.65 -5.63,-8.28 h -1.87 c 0.82,6.01 2.89,10.66 6.25,13.91 3.32,3.2 7.53,4.84 12.65,4.84 5.28,0 9.77,-1.8 13.44,-5.31 3.63,-3.44 5.47,-7.54 5.47,-12.19 0,-3.36 -0.82,-6.68 -2.35,-10 -2.5,-5.31 -6.44,-10.9 -11.71,-16.72 -8.13,-8.87 -13.25,-14.26 -15.32,-16.09 h 17.35 c 3.51,0 5.97,0.07 7.34,0.31 1.45,0.27 2.73,0.86 3.91,1.72 1.13,0.82 2.11,1.95 2.97,3.44 z"
   style="fill:#111111;fill-opacity:1;fill-rule:nonzero;stroke:none"
   id="path206"
   inkscape:connector-curvature="0" /><path
   d="m 2829.6999,2197.6839 -1.8,18.59 -5.39,16.84 c -34.92,78.13 -148.01,67.03 -165,-16.84 l -2.42,-18.59 2.42,-17.38 c 17.27,-84.22 129.81,-95.55 165,-16.8 l 5.39,16.8 1.8,17.38"
   style="fill:#ff5555;fill-opacity:1;fill-rule:evenodd;stroke:none"
   id="path208"
   inkscape:connector-curvature="0" /><path
   d="m 2829.6999,2197.6839 -1.8,18.59 -5.39,16.84 c -34.92,78.13 -148.01,67.03 -165,-16.84 l -2.42,-18.59 2.42,-17.38 c 17.27,-84.22 129.81,-95.55 165,-16.8 l 5.39,16.8 1.8,17.38"
   style="fill:none;stroke:#111111;stroke-width:7.19999981;stroke-linecap:round;stroke-linejoin:round;stroke-miterlimit:10;stroke-dasharray:none;stroke-opacity:1"
   id="path210"
   inkscape:connector-curvature="0" /><path
   d="m 2722.0399,2220.1039 c 1.84,4.46 4.22,7.89 7.03,10.32 2.9,2.46 6.49,3.75 10.79,3.75 5.27,0 9.37,-1.8 12.18,-5.32 2.15,-2.5 3.28,-5.23 3.28,-8.12 0,-4.92 -3.04,-9.92 -9.06,-15 4.03,-1.56 7.11,-3.87 9.22,-6.88 2.07,-2.93 3.13,-6.44 3.13,-10.47 0,-5.74 -1.84,-10.7 -5.47,-14.84 -4.81,-5.55 -11.68,-8.28 -20.63,-8.28 -4.49,0 -7.58,0.58 -9.22,1.72 -1.56,1.13 -2.34,2.34 -2.34,3.59 0,0.9 0.35,1.76 1.09,2.5 0.82,0.7 1.76,1.1 2.82,1.1 0.82,0 1.64,-0.2 2.5,-0.47 0.5,-0.12 1.75,-0.71 3.75,-1.72 1.95,-1.06 3.32,-1.68 4.06,-1.88 1.13,-0.31 2.42,-0.47 3.9,-0.47 3.21,0 6.1,1.25 8.6,3.75 2.46,2.58 3.75,5.67 3.75,9.22 0,2.58 -0.59,5.08 -1.72,7.5 -0.86,1.76 -1.8,3.17 -2.81,4.22 -1.49,1.21 -3.4,2.38 -5.78,3.44 -2.43,1.01 -4.93,1.56 -7.5,1.56 h -1.57 v 1.56 c 2.58,0.28 5.2,1.18 7.82,2.66 2.57,1.52 4.45,3.36 5.62,5.47 1.13,2.15 1.72,4.57 1.72,7.19 0,3.32 -1.06,6.01 -3.13,8.12 -2.1,2.07 -4.72,3.13 -7.81,3.13 -5.12,0 -9.33,-2.74 -12.65,-8.13 z"
   style="fill:#111111;fill-opacity:1;fill-rule:nonzero;stroke:none"
   id="path212"
   inkscape:connector-curvature="0" /><path
   d="m 2468.0599,1569.0949 -0.63,17.969 -5.39,16.211 c -36.17,78.859 -145.54,68.281 -166.21,-16.211 l -1.79,-17.969 1.79,-17.422 c 18.36,-85.75 132.93,-96.179 166.21,-16.219 l 5.39,16.219 0.63,17.422"
   style="fill:#ff7f2a;fill-opacity:1;fill-rule:evenodd;stroke:none"
   id="path214"
   inkscape:connector-curvature="0" /><path
   d="m 2468.0599,1569.0949 -0.63,17.969 -5.39,16.211 c -36.17,78.859 -145.54,68.281 -166.21,-16.211 l -1.79,-17.969 1.79,-17.422 c 18.36,-85.75 132.93,-96.179 166.21,-16.219 l 5.39,16.219 0.63,17.422"
   style="fill:none;stroke:#111111;stroke-width:7.19999981;stroke-linecap:round;stroke-linejoin:round;stroke-miterlimit:10;stroke-dasharray:none;stroke-opacity:1"
   id="path216"
   inkscape:connector-curvature="0" /><path
   d="m 2401.8099,1562.8449 v -6.883 h -8.91 v -17.5 h -8.12 v 17.5 h -27.97 v 6.25 l 30.78,43.91 h 5.31 v -43.277 z m -17.03,0 v 32.969 l -23.13,-32.969 z"
   style="fill:#111111;fill-opacity:1;fill-rule:nonzero;stroke:none"
   id="path218"
   inkscape:connector-curvature="0" /><path
   d="m 1200.8699,1499.9539 v -19.261 c 5.63,8.711 10.59,14.613 14.88,17.543 4.22,2.808 8.32,4.367 12.27,4.367 3.28,0 5.9,-1.09 7.89,-3.238 2.11,-2.192 3.2,-5.082 3.2,-8.75 0,-4.059 -1.01,-7.34 -2.93,-9.61 -1.95,-2.191 -4.29,-3.199 -6.99,-3.199 -3.36,0 -6.21,0.938 -8.48,2.887 -2.34,2.113 -3.71,3.281 -4.1,3.511 -0.78,0.36 -1.6,0.59 -2.3,0.59 -1.76,0 -3.44,-0.738 -4.96,-2.031 -2.58,-1.988 -4.46,-4.918 -5.55,-8.789 -1.99,-5.82 -2.93,-12.379 -2.93,-19.531 v -24.809 c 0,-3.512 0.16,-5.781 0.59,-6.711 0.74,-1.609 1.83,-2.777 3.2,-3.48 1.52,-0.821 3.95,-1.328 7.31,-1.489 v -3.199 h -46.1 v 3.199 c 3.87,0.391 6.41,1.489 7.58,3.211 1.29,1.68 2.03,6.289 2.03,13.707 v 46.993 c 0,4.808 -0.35,7.968 -0.86,9.339 -0.58,1.68 -1.52,3 -2.62,3.79 -1.17,0.742 -3.32,1.32 -6.13,1.75 v 3.21 z"
   style="fill:#111111;fill-opacity:1;fill-rule:nonzero;stroke:none"
   id="path220"
   inkscape:connector-curvature="0" /><path
   d="m 1251.9699,1441.2749 -15.67,-54.801 c -1.05,-3.32 -1.56,-5.699 -1.56,-7.191 0,-1.207 0.47,-2.11 1.37,-2.649 0.82,-0.629 2.77,-1.101 5.82,-1.371 l -0.47,-1.801 h -25.28 l 0.67,1.801 c 2.62,0.121 4.49,0.352 5.39,0.66 1.29,0.59 2.34,1.371 3.12,2.27 1.02,1.601 2.07,4.332 3.13,8.281 l 11.4,39.371 c 0.75,2.348 1.14,3.68 1.14,4.027 0.11,0.551 0.19,1.211 0.19,1.993 0,1.019 -0.31,1.879 -0.86,2.461 -0.62,0.738 -1.52,1.128 -2.69,1.128 -0.78,0 -2.07,-0.269 -3.83,-0.66 l -0.66,1.801 16.56,4.68 z"
   style="fill:#111111;fill-opacity:1;fill-rule:nonzero;stroke:none"
   id="path222"
   inkscape:connector-curvature="0" /><path
   d="m 1425.7899,2264.9139 v -19.03 c 5.55,8.56 10.47,14.42 14.73,17.31 4.18,2.81 8.2,4.3 12.11,4.3 3.24,0 5.82,-1.06 7.77,-3.17 2.11,-2.15 3.17,-5.04 3.17,-8.63 0,-4.06 -1.02,-7.31 -2.89,-9.53 -1.92,-2.15 -4.22,-3.17 -6.92,-3.17 -3.32,0 -6.13,0.94 -8.36,2.89 -2.3,2.07 -3.67,3.25 -4.02,3.44 -0.78,0.39 -1.6,0.59 -2.31,0.59 -1.71,0 -3.39,-0.71 -4.92,-1.99 -2.5,-1.96 -4.37,-4.85 -5.47,-8.68 -1.95,-5.78 -2.89,-12.26 -2.89,-19.29 v -24.53 c 0,-3.44 0.16,-5.71 0.59,-6.65 0.74,-1.56 1.8,-2.73 3.16,-3.43 1.53,-0.78 3.91,-1.29 7.23,-1.45 v -3.16 h -45.55 v 3.16 c 3.79,0.35 6.33,1.45 7.46,3.17 1.33,1.68 2.03,6.21 2.03,13.55 v 46.41 c 0,4.76 -0.35,7.89 -0.85,9.25 -0.59,1.65 -1.53,2.93 -2.58,3.75 -1.17,0.71 -3.24,1.29 -6.06,1.72 v 3.17 z"
   style="fill:#111111;fill-opacity:1;fill-rule:nonzero;stroke:none"
   id="path224"
   inkscape:connector-curvature="0" /><path
   d="m 1472.8999,2127.6839 h -38.55 v 2.07 c 19.61,17.15 32.58,30.63 38.83,40.43 2.93,4.49 4.41,9.22 4.41,14.34 0,3.94 -1.21,7.15 -3.63,9.61 -2.46,2.42 -5.59,3.67 -9.38,3.67 -5.43,0 -9.84,-2.54 -13.28,-7.58 l -2.11,0.78 c 1.92,4.84 4.69,8.67 8.36,11.49 3.75,2.73 7.89,4.18 12.23,4.18 5.04,0 9.18,-1.76 12.54,-5.24 3.24,-3.32 4.92,-7.42 4.92,-12.23 0,-3.32 -0.63,-6.4 -1.8,-9.14 -1.76,-4.57 -5.12,-9.49 -9.92,-14.84 -7.5,-8.55 -17.54,-18.32 -29.96,-29.18 h 19.26 c 3.08,0 5.74,0.59 7.85,1.8 1.99,1.36 3.51,3.12 4.41,5.23 h 2.07 z"
   style="fill:#111111;fill-opacity:1;fill-rule:nonzero;stroke:none"
   id="path226"
   inkscape:connector-curvature="0" /><path
   d="m 2531.0699,2149.8339 v -18.01 c 5.23,8.13 9.88,13.63 13.9,16.37 3.95,2.65 7.78,4.1 11.45,4.1 3.05,0 5.51,-1.05 7.34,-3.01 1.99,-2.07 3.01,-4.76 3.01,-8.2 0,-3.79 -0.94,-6.88 -2.73,-8.98 -1.84,-2.04 -4.03,-2.97 -6.53,-2.97 -3.12,0 -5.78,0.86 -7.89,2.69 -2.19,1.99 -3.48,3.09 -3.83,3.28 -0.74,0.35 -1.52,0.55 -2.18,0.55 -1.64,0 -3.21,-0.66 -4.65,-1.91 -2.39,-1.84 -4.14,-4.57 -5.16,-8.17 -1.83,-5.47 -2.73,-11.6 -2.73,-18.28 v -23.16 c 0,-3.25 0.15,-5.359 0.54,-6.25 0.71,-1.488 1.72,-2.578 3.01,-3.281 1.41,-0.75 3.67,-1.219 6.8,-1.367 v -2.973 h -43.05 v 2.973 c 3.6,0.347 5.98,1.367 7.07,3.008 1.25,1.562 1.92,5.86 1.92,12.81 v 43.87 c 0,4.49 -0.36,7.42 -0.82,8.71 -0.55,1.6 -1.41,2.81 -2.47,3.55 -1.05,0.7 -3.04,1.25 -5.7,1.64 v 3.01 z"
   style="fill:#111111;fill-opacity:1;fill-rule:nonzero;stroke:none"
   id="path228"
   inkscape:connector-curvature="0" /><path
   d="m 2554.6599,2068.3449 v 1.258 c 7.31,1.211 12.77,3.43 16.41,6.641 2.57,2.339 3.94,5.07 3.94,8.32 0,2.34 -0.78,4.25 -2.3,5.82 -1.57,1.48 -3.36,2.26 -5.39,2.26 -3.48,0 -6.53,-2.11 -9.14,-6.21 l -1.64,0.39 c 1.6,3.6 3.63,6.29 6.01,8.13 2.42,1.75 5.2,2.69 8.09,2.69 3.59,0 6.48,-1.13 8.71,-3.32 2.19,-2.07 3.32,-4.84 3.32,-8.12 0,-2.78 -1.06,-5.47 -3.09,-8.089 -2.07,-2.5 -5.66,-4.84 -10.58,-6.84 3,-1.25 5.39,-3.16 7.03,-5.621 1.64,-2.379 2.5,-5.309 2.5,-8.711 0,-3.75 -1.14,-7.578 -3.32,-11.449 -2.23,-3.711 -5.32,-6.68 -9.14,-8.711 -3.75,-2.071 -7.74,-3.118 -11.84,-3.118 -3.75,0 -6.68,0.661 -8.71,1.868 -1.25,0.941 -1.88,2.07 -1.88,3.32 0,0.941 0.32,1.762 1.02,2.5 0.78,0.781 1.8,1.25 2.93,1.25 0.78,0 1.64,-0.109 2.5,-0.188 0.35,-0.312 1.48,-1.019 3.32,-2.109 1.91,-0.98 3.44,-1.723 4.57,-2.07 1.09,-0.313 2.19,-0.391 3.32,-0.391 2.58,0 4.81,1.52 6.64,4.758 1.76,3.172 2.7,6.531 2.7,10.16 0,2.852 -0.67,5.473 -1.88,7.691 -1.13,2.192 -3.01,3.989 -5.58,5.391 -2.5,1.527 -5.36,2.348 -8.52,2.5 z"
   style="fill:#111111;fill-opacity:1;fill-rule:nonzero;stroke:none"
   id="path230"
   inkscape:connector-curvature="0" /><path
   d="m 2582.5899,1496.7039 v -18.16 c 5.31,8.16 9.96,13.75 14.02,16.481 3.99,2.699 7.86,4.148 11.57,4.148 3.08,0 5.58,-1.019 7.42,-3.008 1.99,-2.07 3.04,-4.851 3.04,-8.281 0,-3.828 -0.97,-6.961 -2.77,-9.07 -1.83,-2.07 -4.02,-3.039 -6.6,-3.039 -3.16,0 -5.82,0.898 -7.97,2.769 -2.19,1.989 -3.51,3.09 -3.87,3.282 -0.74,0.347 -1.48,0.546 -2.18,0.546 -1.64,0 -3.25,-0.668 -4.69,-1.918 -2.38,-1.871 -4.18,-4.609 -5.2,-8.242 -1.87,-5.508 -2.77,-11.718 -2.77,-18.437 v -23.391 c 0,-3.281 0.16,-5.43 0.55,-6.328 0.7,-1.531 1.72,-2.621 3.04,-3.281 1.45,-0.781 3.71,-1.25 6.88,-1.41 v -3.012 h -43.48 v 3.012 c 3.63,0.347 6.06,1.41 7.15,3.05 1.25,1.559 1.91,5.899 1.91,12.93 v 44.289 c 0,4.539 -0.31,7.5 -0.82,8.789 -0.54,1.602 -1.44,2.821 -2.46,3.602 -1.09,0.66 -3.08,1.25 -5.78,1.64 v 3.039 z"
   style="fill:#111111;fill-opacity:1;fill-rule:nonzero;stroke:none"
   id="path232"
   inkscape:connector-curvature="0" /><path
   d="m 2644.0699,1457.4539 -12.69,-43.441 h 8.01 l -1.8,-6.207 h -8.01 l -5.11,-17.621 h -7.15 l 5.15,17.621 h -23.86 l 2.03,6.867 39.65,42.781 z m -10.7,-12.699 -28.51,-30.742 h 19.61 z"
   style="fill:#111111;fill-opacity:1;fill-rule:nonzero;stroke:none"
   id="path234"
   inkscape:connector-curvature="0" /><path
   d="m 144.47585,2006.635 8.22938,-71.8686 51.84741,71.8686 h 21.70313 v -2.5399 c -4.63737,-0.3103 -7.42951,-0.5787 -8.21455,-0.8323 -1.59165,-0.5854 -3.0093,-1.7967 -4.22057,-3.588 -1.15867,-1.686 -2.4293,-4.953 -3.78895,-9.7009 L 193.58778,1933.28 c -0.99546,-3.2615 -1.47026,-5.8379 -1.47026,-7.7924 0,-1.686 0.5274,-2.9985 1.68607,-3.7943 1.63347,-1.2639 4.315,-1.9019 7.99873,-1.9019 h 1.48509 l -0.63666,-2.5183 h -37.51039 l 0.62182,2.5183 h 1.90189 c 3.20893,0 5.74344,0.433 7.59272,1.2706 1.20184,0.6839 2.41311,2.0071 3.57313,4.0035 1.10606,1.945 2.64511,6.3288 4.64142,13.0731 l 14.75786,51.8353 -52.26826,-72.7008 h -2.53855 l -8.43036,72.7008 -15.80727,-55.2075 c -1.41765,-4.8059 -2.10287,-7.9623 -2.10287,-9.4838 0,-1.6861 0.52741,-3.0093 1.68607,-3.8051 1.21263,-0.8323 4.10997,-1.4177 8.64618,-1.6861 l -0.63666,-2.5183 H 97.26582 l 0.632615,2.5183 h 1.90189 c 4.320395,0 7.487515,1.0535 9.483825,3.1725 1.37583,1.5229 2.84474,4.9476 4.4256,10.3161 l 19.39523,66.6107 c -1.59166,1.5228 -3.00796,2.5183 -4.22058,2.9513 -1.26928,0.526 -3.73499,0.9428 -7.38095,1.2531 l 0.85248,2.5399 z"
   style="fill:#111111;fill-opacity:1;fill-rule:nonzero;stroke:none;stroke-width:1.34885812"
   id="path236"
   inkscape:connector-curvature="0" /><path
   d="m 2058.0647,1174.7919 30.9969,-78.5642 16.8083,58.6777 c 1.3477,4.6846 2.12,8.4053 2.12,11.1321 0,1.8337 -0.6511,3.3006 -1.8928,4.2529 -1.3023,1.0648 -3.6645,1.6504 -7.1019,1.6504 -0.636,0 -1.2871,0 -1.8928,0 l 0.7117,2.8511 h 32.4203 l -0.954,-2.8511 c -3.3011,0.1242 -5.845,-0.1657 -7.5713,-0.9346 -2.2411,-1.1357 -3.9522,-2.4843 -5.1939,-4.0282 -1.6051,-2.3661 -3.1951,-6.4534 -4.7396,-12.0726 l -23.6528,-82.8112 h -2.6045 l -33.3592,84.704 -17.7472,-62.4633 c -1.4234,-4.7202 -2.1351,-8.3876 -2.1351,-10.8837 0,-1.8929 0.5906,-3.3599 1.8929,-4.2589 1.2417,-0.9346 4.0885,-1.5853 8.5253,-1.8928 l -0.7117,-2.8275 h -31.4664 l 1.1811,2.8275 c 3.9068,0 6.5113,0.3075 7.7985,0.9582 2.0139,0.8754 3.5585,2.1175 4.4973,3.5431 1.3629,2.0112 2.968,6.205 4.7397,12.5341 l 19.8671,69.5673 c -1.8929,2.9516 -3.9522,5.0278 -6.1479,6.1458 -2.2411,1.0765 -5.6179,1.7271 -10.1759,1.8928 l 0.954,2.8511 z"
   style="fill:#111111;fill-opacity:1;fill-rule:nonzero;stroke:none;stroke-width:1.51426136"
   id="path238"
   inkscape:connector-curvature="0" /><path
   d="m 2401.0947,2725.5618 -8.3623,-91.9855 c -0.5185,-4.3652 -0.7861,-7.2418 -0.7861,-8.6132 0,-2.0906 0.4014,-3.7965 1.3046,-4.9672 0.9867,-1.5722 2.425,-2.7429 4.1811,-3.3951 1.7059,-0.7192 4.7164,-1.0537 8.8975,-1.0537 l -0.786,-3.1275 h -43.6514 l 0.7861,3.1275 h 1.8397 c 3.5791,0 6.5226,0.6523 8.6132,2.0906 1.7059,0.9867 3.0104,2.7428 3.9303,5.2348 0.4516,1.6892 1.0369,5.7366 1.5554,12.0083 l 1.3045,13.848 h -31.6096 l -11.2389,-15.1525 c -2.6091,-3.5289 -4.315,-6.0711 -4.9672,-7.5763 -0.5185,-1.4383 -0.7861,-2.7428 -0.7861,-3.9136 0,-1.7728 0.6523,-3.3282 2.0906,-4.6996 1.3714,-1.2543 3.7296,-1.8397 7.0578,-1.8397 l -1.0369,-3.1275 h -32.68 l 0.7861,3.1275 c 4.0473,0.1338 7.5762,1.4383 10.7205,3.9136 3.0773,2.5588 7.71,7.9776 13.848,16.2062 l 66.1125,89.8949 z m -16.2062,-27.1775 -32.1447,-43.6346 h 27.9636 z"
   style="fill:#111111;fill-opacity:1;fill-rule:nonzero;stroke:none;stroke-width:1.67246425"
   id="path240"
   inkscape:connector-curvature="0" /><path
   d="m 2886.4008,1744.1724 0.9905,2.9417 h 37.0889 c 6.2103,0 11.7917,-1.0377 16.7128,-2.9417 4.8424,-1.9653 8.6001,-4.7277 11.0527,-8.1127 2.3898,-3.4259 3.6791,-7.1851 3.6791,-11.048 0,-6.0861 -2.264,-11.6078 -6.6348,-16.466 -4.2922,-4.778 -11.3515,-8.2841 -21.1151,-10.5638 6.3204,-2.3269 11.0528,-5.4525 13.9929,-9.3217 2.8929,-3.9306 4.4336,-8.2417 4.4336,-12.7807 0,-5.2874 -1.3521,-10.2572 -3.9305,-14.9849 -2.6414,-4.6066 -6.0846,-8.2243 -10.3296,-10.8028 -4.1035,-2.6413 -9.1503,-4.6066 -14.9833,-5.8958 -4.2922,-0.8663 -10.8641,-1.2421 -19.6529,-1.2421 h -38.3152 l 0.9748,2.9542 c 4.0563,0 6.8863,0.3019 8.3485,0.9764 1.9181,0.9276 3.3174,2.0895 4.1821,3.4463 1.2893,1.8977 2.9558,6.443 4.9211,13.518 l 18.6624,62.8892 c 1.6037,5.3298 2.4527,9.1504 2.4527,11.287 0,1.7939 -0.7862,3.2561 -2.2012,4.4353 -1.3521,1.099 -3.9934,1.7121 -7.8611,1.7121 -0.9905,0 -1.8395,0 -2.4684,0 z m 15.4865,-43.2363 c 3.2545,0 5.7071,0 7.3737,0 10.6126,0 18.4737,2.2672 23.5834,6.8722 5.2198,4.5579 7.8612,10.3925 7.8612,17.4549 0,5.2135 -1.6666,9.3359 -4.9211,12.2776 -3.1287,2.8913 -8.1599,4.4148 -14.9833,4.4148 -1.9653,0 -4.3551,-0.3616 -7.1222,-0.9701 z m -14.9834,-51.0974 c 5.3456,-0.8647 9.6378,-1.2216 12.7665,-1.2216 7.9869,0 15.0462,2.3222 21.1308,7.1174 6.1945,4.8582 9.339,11.4176 9.339,19.6529 0,6.3204 -1.9024,11.3075 -5.66,14.7334 -3.8048,3.5689 -9.9365,5.4116 -18.4265,5.4116 -1.6509,0 -3.6162,-0.1289 -5.8959,-0.239 z"
   style="fill:#111111;fill-opacity:1;fill-rule:nonzero;stroke:none;stroke-width:1.57222903"
   id="path242"
   inkscape:connector-curvature="0" /><path
   d="m 233.48789,1949.9939 h 514.801"
   style="fill:none;stroke:#111111;stroke-width:2.16000009;stroke-linecap:round;stroke-linejoin:round;stroke-miterlimit:10;stroke-dasharray:none;stroke-opacity:1"
   id="path244"
   inkscape:connector-curvature="0" /><path
   d="m 633.50951,1950.702 3.05692,10.6779 c 4.73088,22.1727 2.34037,46.9189 -7.09265,66.4704 l -4.79813,9.3079"
   style="fill:none;stroke:#111111;stroke-width:2.61764812;stroke-linecap:round;stroke-linejoin:round;stroke-miterlimit:10;stroke-dasharray:none;stroke-opacity:1"
   id="path246"
   inkscape:connector-curvature="0" /><path
   d="m 2381.7237,1190.4673 2.6275,8.9664 c 10.8992,50.5814 -4.2304,105.427 -34.5105,124.4754 l -4.8032,2.9432"
   style="fill:none;stroke:#111111;stroke-width:2.52999854;stroke-linecap:round;stroke-linejoin:round;stroke-miterlimit:10;stroke-dasharray:none;stroke-opacity:1"
   id="path248"
   inkscape:connector-curvature="0" /><path
   d="m 1692.0692,1191.7504 -2.2683,7.3035 c -9.4513,41.3755 3.684,86.2277 29.9144,101.7815 l 4.1506,2.4042"
   style="fill:none;stroke:#111111;stroke-width:3.17425776;stroke-linecap:round;stroke-linejoin:round;stroke-miterlimit:10;stroke-dasharray:none;stroke-opacity:1"
   id="path250"
   inkscape:connector-curvature="0" /><text
   id="text256"
   style="font-style:italic;font-variant:normal;font-size:215.23898315px;font-family:'Times New Roman';-inkscape-font-specification:TimesNewRomanPS-ItalicMT;writing-mode:lr-tb;fill:#000000;fill-opacity:1;fill-rule:nonzero;stroke:none;stroke-width:10"
   transform="scale(1,-1)"
   x="693.43506"
   y="-1978.9971"><tspan
     id="tspan254"
     y="-1978.9971"
     x="693.43506"
     style="font-style:italic;font-variant:normal;font-weight:normal;font-stretch:normal;font-size:160px;font-family:sans-serif;-inkscape-font-specification:'sans-serif Italic';stroke-width:10">α</tspan></text>



<text
   id="text260"
   style="font-style:italic;font-variant:normal;font-size:152.46600342px;font-family:'Times New Roman';-inkscape-font-specification:TimesNewRomanPS-ItalicMT;writing-mode:lr-tb;fill:#000000;fill-opacity:1;fill-rule:nonzero;stroke:none;stroke-width:10"
   transform="scale(1,-1)"
   x="1513.0647"
   y="-1239.1147"><tspan
     id="tspan258"
     y="-1239.1147"
     x="1513.0647"
     style="font-style:italic;font-variant:normal;font-weight:normal;font-stretch:normal;font-size:160px;font-family:sans-serif;-inkscape-font-specification:'sans-serif Italic';stroke-width:10">β</tspan></text>



<text
   id="text264"
   style="font-style:italic;font-variant:normal;font-size:215.23898315px;font-family:'Times New Roman';-inkscape-font-specification:TimesNewRomanPS-ItalicMT;writing-mode:lr-tb;fill:#000000;fill-opacity:1;fill-rule:nonzero;stroke:none;stroke-width:10"
   transform="scale(1,-1)"
   x="2402.0894"
   y="-1237.13"><tspan
     id="tspan262"
     y="-1237.13"
     x="2402.0894"
     style="font-style:italic;font-variant:normal;font-weight:normal;font-stretch:normal;font-size:160px;font-family:sans-serif;-inkscape-font-specification:'sans-serif Italic';stroke-width:10">θ</tspan></text>



<path
   d="m 2374.4699,2582.2539 h 514.8"
   style="fill:#000000;stroke:#111111;stroke-width:2.16000009;stroke-linecap:round;stroke-linejoin:round;stroke-miterlimit:10;stroke-dasharray:none;stroke-opacity:1"
   id="path266"
   inkscape:connector-curvature="0" /><path
   d="m 2464.5037,2420.8428 8.7795,13.6017 7.0615,15.3616 2.7316,15.1537 0.6381,16.3166 6.048,-13.3529 9.4208,-11.1199 11.7599,-8.4186 12.4617,-6.0143 -15.6588,-0.4745 -15.6165,-3.9956 -14.4917,-6.735 -13.131,-10.3229"
   style="fill:#000000;fill-opacity:1;fill-rule:evenodd;stroke:none"
   id="path270"
   inkscape:connector-curvature="0" /><g
   id="g272"
   transform="matrix(10,0,0,10,542.24463,913.61142)"><text
   transform="scale(1,-1)"
   style="font-style:italic;font-variant:normal;font-size:21.52389908px;font-family:'Times New Roman';-inkscape-font-specification:TimesNewRomanPS-ItalicMT;writing-mode:lr-tb;fill:#000000;fill-opacity:1;fill-rule:nonzero;stroke:none"
   id="text276"
   x="202.44821"
   y="-154.3569"><tspan
     x="202.44821"
     y="-154.3569"
     id="tspan274"
     style="font-style:italic;font-variant:normal;font-weight:normal;font-stretch:normal;font-size:16px;font-family:sans-serif;-inkscape-font-specification:'sans-serif Italic'">γ</tspan></text>






<text
   y="-135.0497"
   x="169.12836"
   style="font-style:italic;font-variant:normal;font-size:21.52389908px;font-family:'Times New Roman';-inkscape-font-specification:TimesNewRomanPS-ItalicMT;writing-mode:lr-tb;fill:#000000;fill-opacity:1;fill-rule:nonzero;stroke:none;stroke-width:0.99999994"
   id="text276-3"
   transform="scale(1,-1)"><tspan
     style="font-style:italic;font-variant:normal;font-weight:normal;font-stretch:normal;font-size:16px;font-family:sans-serif;-inkscape-font-specification:'sans-serif Italic';stroke-width:0.99999994"
     x="169.12836"
     y="-135.0497"
     id="tspan274-6">γ'</tspan></text>




</g><path
   d="m 2303.6799,1349.278 15.3513,-5.1406 16.6311,-3.0406 15.3584,1.1031 15.9664,3.4224 -11.441,-9.1641 -8.4428,-11.8794 -5.2467,-13.4775 -2.7436,-13.5623 -4.3346,15.0543 -7.7357,14.1422 -10.1117,12.3743 -13.2511,10.1682"
   style="fill:#111111;fill-opacity:1;fill-rule:evenodd;stroke:none;stroke-width:0.99999994"
   id="path270-3"
   inkscape:connector-curvature="0" /><path
   d="m 1750.2793,1321.6816 -11.1449,-11.7423 -9.7821,-13.7895 -5.4886,-14.3865 -3.6434,-15.9174 -3.4726,14.2414 -7.2004,12.6711 -9.999,10.4493 -11.1334,8.2164 15.4761,-2.4312 16.0861,1.0368 15.4878,3.9372 14.8144,7.7147"
   style="fill:#111111;fill-opacity:1;fill-rule:evenodd;stroke:none;stroke-width:0.99999994"
   id="path270-3-6"
   inkscape:connector-curvature="0" /><path
   d="m 615.05089,2059.7549 9.08926,-13.3968 11.38041,-12.503 12.8812,-8.4364 14.77111,-6.9608 -14.65454,-0.349 -13.9171,-4.3261 -12.34474,-7.5349 -10.40589,-9.1204 5.6824,14.599 2.42484,15.9361 -0.53639,15.9714 -4.37056,16.1209"
   style="fill:#000000;fill-opacity:1;fill-rule:evenodd;stroke:none;stroke-width:0.99999994"
   id="path270-3-7"
   inkscape:connector-curvature="0" /><path
   style="opacity:1;fill:#000000;fill-opacity:0;fill-rule:evenodd;stroke:#000000;stroke-width:3.75;stroke-miterlimit:4;stroke-dasharray:none;stroke-dashoffset:0;stroke-opacity:1;paint-order:stroke fill markers"
   id="path877"
   transform="scale(1,-1)"
   d="m 2464.5037,-2420.8428 a 184.8232,184.8232 0 0 1 -245.2195,-61.0269"
   inkscape:connector-curvature="0" /><path
   style="opacity:1;fill:#000000;fill-opacity:0;fill-rule:evenodd;stroke:#000000;stroke-width:3.75;stroke-miterlimit:4;stroke-dasharray:none;stroke-dashoffset:0;stroke-opacity:1;paint-order:stroke fill markers"
   id="path881"
   transform="scale(1,-1)"
   d="m 2551.7382,-2582.6106 a 177.26854,177.26854 0 0 1 -53.136,126.9083"
   inkscape:connector-curvature="0" /><path
   d="m 2198.7312,2525.0471 9.3867,-13.19 11.6574,-12.2454 13.0667,-8.1459 14.9218,-6.6315 -14.6431,-0.6767 -13.8169,-4.6364 -12.1731,-7.8092 -10.1993,-9.351 5.3545,14.7225 2.0676,15.9865 -0.8933,15.9552 -4.7302,16.0191"
   style="fill:#000000;fill-opacity:1;fill-rule:evenodd;stroke:none;stroke-width:0.99999994"
   id="path270-7"
   inkscape:connector-curvature="0" />



</g></g></svg>