<svg xmlns="http://www.w3.org/2000/svg" xmlns:lucid="lucid" width="474.5" height="540"><g lucid:page-tab-id="0_0"><path d="M279.2 291v-7.5h2.14v7.5zm3.85-4v.5h-1.28l-.43-.5z" stroke="#000" stroke-opacity="0" stroke-width=".43" fill="#fff"/><path d="M279.63 287.5l-.42 1h-1.28v-1z" stroke="#000" stroke-opacity="0" stroke-width=".43" fill="#231f20"/><path d="M263.8 287v98l.44.5h.86l.85.5h4.28v-3.5l-.43-.5-.43-.5-.43-1V379l.43-.5.43-1 .43-.5.85-.5h3l.42.5.86.5.43 1.5v1.5l-.44 1-.43 1v3.5h10.26v-3.5l-.44-.5-.42-.5v-1l-.43-.5.44-1v-.5l.42-1 .43-.5h.42l1.28-.5h2.14l.43.5 1.28.5.43 1.5v1l-.43.5v1l-.43.5-.43.5v3.5h3.4l.87-.5h.86l.42-.5h.43v-98l-.43-.5h-.42l-.86-.5h-4.28v3h.42l.43 1v1l.43.5v.5l-.43 1v.5l-1.28 1-.43.5h-2.99l-.43-.5-.43-.5-.44-.5-.42-.5v-1l-.43-.5.44-.5v-1l.42-.5.43-.5v-3h-10.27v3l.43 1 .43 1v2l-.44.5-.86 1-.42.5h-3l-.85-.5-.43-1-.43-.5-.43-1v-1l.43-1 .43-.5.43-.5v-3h-5.13l-.86.5h-.43z" stroke="#000" stroke-opacity="0" stroke-width=".43" fill="#285256"/><path d="M263.8 287v98l.44.5h.86l.85.5h4.28v-3.5l-.43-.5-.43-.5-.43-1V379l.43-.5.43-1 .43-.5.85-.5h3l.42.5.86.5.43 1.5v1.5l-.44 1-.43 1v3.5h10.26v-3.5l-.44-.5-.42-.5v-1l-.43-.5.44-1v-.5l.42-1 .43-.5h.42l1.28-.5h2.14l.43.5 1.28.5.43 1.5v1l-.43.5v1l-.43.5-.43.5v3.5h3.4l.87-.5h.86l.42-.5h.43v-98l-.43-.5h-.42l-.86-.5h-4.28v3h.42l.43 1v1l.43.5v.5l-.43 1v.5l-1.28 1-.43.5h-2.99l-.43-.5-.43-.5-.44-.5-.42-.5v-1l-.43-.5.44-.5v-1l.42-.5.43-.5v-3h-10.27v3l.43 1 .43 1v2l-.44.5-.86 1-.42.5h-3l-.85-.5-.43-1-.43-.5-.43-1v-1l.43-1 .43-.5.43-.5v-3h-5.13l-.86.5h-.43v.5" stroke="#285256" stroke-width=".31" fill-opacity="0"/><path d="M296.3 299h-33.34l-.43.5h-.43v.5l-.42.5v71l.42.5.43.5h34.22l.42-.5h.43v-71.5l-.44-1z" stroke="#000" stroke-opacity="0" stroke-width=".43" fill="#231f20"/><path d="M296.3 299h-33.34l-.43.5h-.43v.5l-.42.5v71l.42.5.43.5h34.22l.42-.5h.43v-71.5l-.44-1-.85-.5" stroke="#231f20" stroke-width=".31" fill-opacity="0"/><path d="M295.45 302H263.8l-.84.5v.5l-.43.5v32l.43.5v.5l.85.5H275.37v-1l.43-.5.84-.5h.43l.43-.5.42-.5h3.42l.86.5.43.5h.42l.43.5.43.5.44 1h11.54l.43-.5v-34l-.42-.5z" stroke="#000" stroke-opacity="0" stroke-width=".43" fill="#48727a"/><path d="M295.45 302H263.8l-.84.5v.5l-.43.5v32l.43.5v.5l.85.5H275.37v-1l.43-.5.84-.5h.43l.43-.5.42-.5h3.42l.86.5.43.5h.42l.43.5.43.5.44 1h11.54l.43-.5v-34l-.42-.5h-.43" stroke="#48727a" stroke-width=".31" fill-opacity="0"/><path d="M280.06 336h-1.27l-.86.5h-.42v.5l-.43.5-.43.5v.5H263.8l-.4.5h-.44v22.5l.43 1h32.48l.43-.5v-23h-.42v-.5h-12.83v-.5l-.42-.5v-.5l-1.3-.5-.4-.5h-.88" stroke="#231f20" stroke-width=".31" fill-opacity="0"/><path d="M295.45 338.5h-12.4v-.5l-.42-.5v-.5l-1.3-.5-.4-.5h-2.16l-.86.5h-.42v.5l-.43.5-.43.5v.5H263.8l-.4.5h-.44v26.5l.43.5h32.48l.43-.5V339l-.42-.5z" stroke="#000" stroke-opacity="0" stroke-width=".43" fill="#285256"/><path d="M295.45 338.5h-12.4v-.5l-.42-.5v-.5l-1.3-.5-.4-.5h-2.16l-.86.5h-.42v.5l-.43.5-.43.5v.5H263.8l-.4.5h-.44v26.5l.43.5h32.48l.43-.5V339l-.42-.5h-.43" stroke="#285256" stroke-width=".31" fill-opacity="0"/><path d="M274.93 330l1.28.5 1.3.5h5.14l.84-.5 1.28-.5 2.14-1 1.28-1 .43-.5.87-1 .85-1 .43-1 .85-1.5.43-1 .43-1v-4l-.43-1v-1.5l-1.28-2-.43-1-.85-1.5-.86-.5-.84-1-.86-.5-1.28-1-2.14-.5-1.7-.5-.86-.5h-2.57l-1.28.5-1.28.5h-.87l-1.28.5-1.3 1-1.7 1.5-.85.5-.86 1.5-.42 1-.86 1v1l-.43 1.5v1.5l-.42 1 .43 1.5v1l.43 1 .43 1.5.42 1 .85 1 .43 1 .85 1 .86 1 .86.5 1.3 1z" stroke="#000" stroke-opacity="0" stroke-width=".43" fill="#231f20"/><path d="M274.93 330l1.28.5 1.3.5h5.14l.84-.5 1.28-.5 2.14-1 1.28-1 .43-.5.87-1 .85-1 .43-1 .85-1.5.43-1 .43-1v-4l-.43-1v-1.5l-1.28-2-.43-1-.85-1.5-.86-.5-.84-1-.86-.5-1.28-1-2.14-.5-1.7-.5-.86-.5h-2.57l-1.28.5-1.28.5h-.87l-1.28.5-1.3 1-1.7 1.5-.85.5-.86 1.5-.42 1-.86 1v1l-.43 1.5v1.5l-.42 1 .43 1.5v1l.43 1 .43 1.5.42 1 .85 1 .43 1 .85 1 .86 1 .86.5 1.3 1h1.27" stroke="#231f20" stroke-width=".21" fill-opacity="0"/><path d="M276.64 327h.86l.42.5h2.14l1.7-.5h1.72l2.14-1.5 1.28-1 .86-2 .42-.5.43-1v-5.5l-.42-1-1.28-2-.85-.5-.43-.5-.86-.5-.85-1h-.85l-1.7-.5h-4.27l-.87.5-2.12 1.5-1.72 1-.42 1-.43.5v1l-.42 1-.43.5v2l.43 2v1l.43.5.86 2.5 1.72 1 .85.5.43.5z" stroke="#000" stroke-opacity="0" stroke-width=".43" fill="#231f20"/><path d="M276.64 327h.86l.42.5h2.14l1.7-.5h1.72l2.14-1.5 1.28-1 .86-2 .42-.5.43-1v-5.5l-.42-1-1.28-2-.85-.5-.43-.5-.86-.5-.85-1h-.85l-1.7-.5h-4.27l-.87.5-2.12 1.5-1.72 1-.42 1-.43.5v1l-.42 1-.43.5v2l.43 2v1l.43.5.86 2.5 1.72 1 .85.5.43.5 1.28.5" stroke="#231f20" stroke-width=".21" fill-opacity="0"/><path d="M276.64 326l.86.5H281.35l1.7-.5 1.3-1 1.28-1 .43-.5.42-.5.43-1 .43-.5v-1l.43-.5v-1l.42-.5-.42-2-.43-1-.86-1.5-.85-1.5-.86-.5-.42-.5h-.86l-1.7-1-1.3-.5h-.85l-1.7.5-2.57 1-1.28 1-.43 1-.43.5-.86.5v1l-.42 1v.5l-.43.5v1l.44 1.5.42 1.5.86 1.5.86 1 .85.5.86 1z" stroke="#000" stroke-opacity="0" stroke-width=".43" fill="#285256"/><path d="M276.64 326l.86.5H281.35l1.7-.5 1.3-1 1.28-1 .43-.5.42-.5.43-1 .43-.5v-1l.43-.5v-1l.42-.5-.42-2-.43-1-.86-1.5-.85-1.5-.86-.5-.42-.5h-.86l-1.7-1-1.3-.5h-.85l-1.7.5-2.57 1-1.28 1-.43 1-.43.5-.86.5v1l-.42 1v.5l-.43.5v1l.44 1.5.42 1.5.86 1.5.86 1 .85.5.86 1 .84.5" stroke="#285256" stroke-width=".21" fill-opacity="0"/><path d="M279.63 313l-.42 2-.85-1.5v1.5l-1.28-1 .43 1.5-1.7-1 1.27 2-2.14-.5 1.7 1h-1.7l1.28 1-1.7.5 1.7.5-1.27.5h1.7l-1.7 1.5 2.14-.5-1.28 1.5 1.7-.5-.43 1.5 1.28-1.5v2l.86-1.5.43 1.5.86-1.5.42 1.5v-2l1.28 1.5-.43-1.5 1.7.5-.84-1.5 1.7.5-1.28-1.5h1.7l-1.7-.5 2.14-.5-2.15-.5 1.7-1h-1.7l1.3-1-1.72.5.85-2-1.7 1 .42-1.5-1.28 1v-1.5l-.43 1.5z" stroke="#000" stroke-opacity="0" stroke-width=".43" fill="#fff"/><path d="M279.63 313l-.42 2-.85-1.5v1.5l-1.28-1 .43 1.5-1.7-1 1.27 2-2.14-.5 1.7 1h-1.7l1.28 1-1.7.5 1.7.5-1.27.5h1.7l-1.7 1.5 2.14-.5-1.28 1.5 1.7-.5-.43 1.5 1.28-1.5v2l.86-1.5.43 1.5.86-1.5.42 1.5v-2l1.28 1.5-.43-1.5 1.7.5-.84-1.5 1.7.5-1.28-1.5h1.7l-1.7-.5 2.14-.5-2.15-.5 1.7-1h-1.7l1.3-1-1.72.5.85-2-1.7 1 .42-1.5-1.28 1v-1.5l-.43 1.5-.87-2" stroke="#231f20" stroke-width=".21" fill-opacity="0"/><path d="M279.2 320h1.3l.42-.5.42-.5v-1.5l-.42-.5-.43-.5h-1.3l-1.28 1v1.5z" stroke="#000" stroke-opacity="0" stroke-width=".43" fill="#fff"/><path d="M279.2 320h1.3l.42-.5.42-.5v-1.5l-.42-.5-.43-.5h-1.3l-1.28 1v1.5l1.3 1" stroke="#231f20" stroke-width=".21" fill-opacity="0"/><path d="M280.06 305.5V304m12.4 14.5h1.7m-29.06 0h1.7m6.42-11l-.86-1.5m14.54 25l-.85-1.5m4.7-17.5l1.7-.5M267.24 326l1.3-1m0-13l-1.3-.5m25.23 14.5l-1.7-1m-4.7-17.5l.84-1.5m-14.54 25l.86-1.5" stroke="#231f20" stroke-width=".31" fill-opacity="0"/><path d="M264.67 342.5v18l.43.5.42.5h28.22l.43-.5h.43v-19l-.43-.5h-.43l-.85-.5h-26.52l-.86.5h-.42l-.43.5z" stroke="#000" stroke-opacity="0" stroke-width=".43" fill="#231f20"/><path d="M264.67 342.5v18l.43.5.42.5h28.22l.43-.5h.43v-19l-.43-.5h-.43l-.85-.5h-26.52l-.86.5h-.42l-.43.5v.5" stroke="#231f20" stroke-width=".21" fill-opacity="0"/><path d="M280.06 309l8.98 9.5m-18.8 0l9.4 9.5m.42-19l8.98 9.5m-18.8 0l9.4 9.5" stroke="#fff" stroke-width=".31" fill-opacity="0"/><path d="M254.84 343.5l1.28.5h2.14l.85-.5.87-.5 18.38-12.5 1.28-1 1.3 1L299.3 343l.86.5.85.5h2.14l.85-.5.86-.5v-3l-.43-1-.43-.5-11.97-19-1.28-1 1.28-1.5L304 299l.43-1 .43-.5V295l-.86-1-.85-.5H301l-.84.5h-.86l-18.38 12-1.3 1.5-1.27-1.5-18.38-12h-.86l-.84-.5h-2.14l-1.28.5-.43 1v2.5l.44.5.42 1 12.4 18 .86 1.5-1.3 1-11.96 19-.42.5-.43 1v3zM289.9 329l-.43.5v.5l.42.5.42.5h.86l.42-.5.43-.5v-.5l-.43-.5-.42-.5h-.86zm3 3v.5l-.44.5.43.5v.5l.84.5h.86l.43-.5.42-.5v-1l-.42-.5h-.43l-.43-.5-.43.5zm3.4 3l-.42.5v1.5h.43l.44.5h1.28l.43-.5v-2h-1.71zm3 3.5v2h.43l.85.5.43-.5h.44l.43-.5v-1l-.43-.5-.43-.5h-1.27zM257.4 296l-.43.5v1.5l.43.5h.43l.43.5.42-.5h.43l.44-.5.43-.5-.43-1-.43-.5h-1.27zm3.42 3.5l-.43.5v1l.42.5h.43l.43.5.42-.5h.43l.43-.5v-1l-.43-.5-.43-.5h-.85zm3 3.5v.5l-.43.5.4.5.87.5h.85v-.5h.43l.43-.5-.43-.5-.43-.5v-.5h-1.28zm3.4 3l-.4.5v1l.4.5.44.5h.86l.42-.5.43-.5v-1l-.43-.5h-.42l-.43-.5-.44.5zm34.22-10h-2.13v2.5h.43l.85.5.43-.5h.44l.43-.5v-1.5zm-3 3.5l-.42-.5h-1.28l-.43.5-.42.5v1l.43.5h.44l.42.5.86-.5h.43V300zm-3.4 3.5l-.44-.5h-.86l-.85.5v.5l-.44.5.43.5 1.27.5h.43l.43-.5h.42v-1zm-3.44 3l-.42-.5h-.43l-.43.5h-.43l-.43.5v1l.42.5.42.5h.86l.42-.5.43-.5v-1zm-22.66 23l-.42-.5h-.87l-.43.5-.42.5v.5l.43.5.43.5h.85l.42-.5.43-.5v-.5zm-3.42 3l-.85-.5-.43.5h-.43v.5l-.4.5.4.5v.5l.44.5h1.28v-.5l.43-.5.43-.5-.43-.5zm-3 3h-1.7l-.43.5v1.5h.42l.43.5h.85l.43-.5h.43v-1.5zm-3.4 3.5l-.44-.5h-.85l-.43.5-.43.5v1l.43.5h.43l.43.5.42-.5h.43l.44-.5.43-.5-.43-.5z" stroke="#000" stroke-opacity="0" stroke-width=".43" fill="#231f20"/><path d="M254.84 343.5l1.28.5h2.14l.85-.5.87-.5 18.38-12.5 1.28-1 1.3 1L299.3 343l.86.5.85.5h2.14l.85-.5.86-.5v-3l-.43-1-.43-.5-11.97-19-1.28-1 1.28-1.5L304 299l.43-1 .43-.5V295l-.86-1-.85-.5H301l-.84.5h-.86l-18.38 12-1.3 1.5-1.27-1.5-18.38-12h-.86l-.84-.5h-2.14l-1.28.5-.43 1v2.5l.44.5.42 1 12.4 18 .86 1.5-1.3 1-11.96 19-.42.5-.43 1v3l.44.5" stroke="#fff" stroke-width=".21" fill-opacity="0"/><path d="M289.9 329l-.43.5v.5l.42.5.42.5h.86l.42-.5.43-.5v-.5l-.43-.5-.42-.5h-.86l-.43.5m3 3v.5l-.44.5.43.5v.5l.84.5h.86l.43-.5.42-.5v-1l-.42-.5h-.43l-.43-.5-.43.5h-.85m3.4 3l-.42.5v1.5h.43l.44.5h1.28l.43-.5v-2h-2.14m3 3.5v2h.43l.85.5.43-.5h.44l.43-.5v-1l-.43-.5-.43-.5h-1.27l-.43.5M257.4 296l-.43.5v1.5l.43.5h.43l.43.5.42-.5h.43l.44-.5.43-.5-.43-1-.43-.5h-1.7m3.42 3.5l-.43.5v1l.42.5h.43l.43.5.42-.5h.43l.43-.5v-1l-.43-.5-.43-.5h-.85l-.43.5m3 3.5v.5l-.43.5.4.5.87.5h.85v-.5h.43l.43-.5-.43-.5-.43-.5v-.5h-1.28l-.43.5m3.43 3l-.42.5v1l.43.5.43.5h.86l.42-.5.43-.5v-1l-.43-.5h-.42l-.43-.5-.44.5h-.43m34.2-10h-2.12v2.5h.43l.85.5.43-.5h.44l.43-.5v-1.5l-.43-.5m-3 3.5l-.42-.5h-1.28l-.43.5-.42.5v1l.43.5h.44l.42.5.86-.5h.43v-2m-3.42 3.5l-.43-.5h-.86l-.85.5v.5l-.44.5.43.5 1.27.5h.43l.43-.5h.42v-1l-.42-.5m-3.43 3l-.42-.5h-.43l-.43.5h-.43l-.43.5v1l.42.5.42.5h.86l.42-.5.43-.5v-1l-.43-.5m-22.66 23l-.42-.5h-.87l-.43.5-.42.5v.5l.43.5.43.5h.85l.42-.5.43-.5v-.5l-.43-.5m-3.42 3l-.85-.5-.43.5h-.43v.5l-.4.5.4.5v.5l.44.5h1.28v-.5l.43-.5.43-.5-.43-.5-.43-.5m-3 3h-1.7l-.43.5v1.5h.42l.43.5h.85l.43-.5h.43v-1.5l-.43-.5m-3.42 3.5l-.42-.5h-.85l-.43.5-.43.5v1l.43.5h.43l.43.5.42-.5h.43l.44-.5.43-.5-.43-.5-.43-.5" stroke="#fff" stroke-width=".21" fill-opacity="0"/><path d="M276.64 317l-.43.5v1.5l.44.5.43.5v1h.85v.5h3.01l.4-.5h.44l.43-1 .43-.5V317l-.43-.5-.43-.5-.43-.5h-.42l-.43-.5h-1.72l-.86.5-.85.5v.5z" stroke="#000" stroke-opacity="0" stroke-width=".43" fill="#628a97"/><path d="M276.64 317l-.43.5v1.5l.44.5.43.5v1h.85v.5h3.01l.4-.5h.44l.43-1 .43-.5V317l-.43-.5-.43-.5-.43-.5h-.42l-.43-.5h-1.72l-.86.5-.85.5v.5l-.43.5" stroke="#231f20" stroke-width=".1" fill-opacity="0"/><path d="M280.5 320l-2.58-2.5.43-1 3 3z" stroke="#000" stroke-opacity="0" stroke-width=".43" fill="#231f20"/><path d="M277.92 319.5l2.57-3 .42.5-2.14 3z" stroke="#000" stroke-opacity="0" stroke-width=".43" fill="#231f20"/><path d="M294.6 349h-29.93v7.5h29.93z" stroke="#231f20" stroke-width=".21" fill-opacity="0"/><path d="M385.24 358.5H297.6" stroke="#000" stroke-opacity="0" stroke-width=".43" fill="#5f1316"/><path d="M385.24 358.5H297.6" stroke="#5f1316" stroke-width="2.15" fill-opacity="0"/><path d="M385.24 361H297.6" stroke="#000" stroke-opacity="0" stroke-width=".43" fill="#5f1316"/><path d="M385.24 361H297.6" stroke="#ed1c24" stroke-width="2.15" fill-opacity="0"/><path d="M385.24 364H297.6" stroke="#000" stroke-opacity="0" stroke-width=".43" fill="#5f1316"/><path d="M385.24 364H297.6" stroke="#f68712" stroke-width="2.15" fill-opacity="0"/><path d="M408.33 355.5h-23.1v11h23.1z" stroke="#231f20" stroke-width=".43" fill="#231f20"/><path d="M401.06 363h-11.12v2.5h11.12zm0-3.5h-11.12v3h11.12zm0-3.5h-11.12v3h11.12z" stroke="#fff" stroke-width=".43" fill="#231f20"/><path d="M426.7 252l-129.54 76c-11.97 7-25.65 5.5-30.35-2.5-5.12-8.5.86-21 12.4-28L409.2 222c11.97-7 25.23-6 30.36 2.5 4.7 8-.86 20.5-12.83 27.5z" stroke="#000" stroke-width=".62" fill="#285256"/><path d="M273.22 318.5c0 3.5 3 6 6.4 6 3.43 0 6-2.5 6-6s-2.57-6-6-6c-3.4 0-6.4 2.5-6.4 6z" stroke="#ef8d22" stroke-width=".62" fill="#ef8d22"/><path d="M429.7 161l13.7 75c1.27 7-5.57 14-14.98 15.5-9.83 2-18.38-2.5-19.67-9l-13.68-75c-1.28-7 5.56-14 14.97-15.5 9.4-2 18.38 2.5 19.66 9z" stroke="#000" stroke-width=".62" fill="#285256"/><path d="M448.1 118L53.02 187l6.4 36.5 395.07-69z" stroke="#000" stroke-width=".62" fill="#285256"/><path d="M120.58 185h-49.6v314.5h49.6z" stroke="#000" stroke-width=".62" fill="#285256"/><path d="M419.44 236.5c0 3.5 2.57 6.5 6 6.5 3.4 0 6.4-3 6.4-6.5s-3-6-6.4-6c-3.43 0-6 2.5-6 6zM89.8 203c0 3.5 2.56 6 6 6 3.4 0 6.4-2.5 6.4-6s-3-6-6.4-6c-3.44 0-6 2.5-6 6z" stroke="#ef8d22" stroke-width=".62" fill="#ef8d22"/><path d="M262.1 121c0 13.5 11.12 24.5 24.8 24.5 13.68 0 24.8-11 24.8-24.5s-11.12-25-24.8-25c-13.68 0-24.8 11.5-24.8 25z" stroke="#c92d39" stroke-width=".62" fill="#c92d39"/><path d="M404.9 224.5h-44.46" stroke="#000" stroke-opacity="0" stroke-width=".31" fill-opacity="0"/><path d="M404.9 224.5h-1.28m-2.56 0h-2.57m-2.14 0h-2.57m-2.58 0h-2.56m-2.14 0h-2.56m-2.57 0h-2.57m-2.14 0h-2.58m-2.56 0H369m-2.15 0h-2.56m-2.58 0h-1.28" stroke="#000" stroke-width=".62" fill-opacity="0"/><path d="M404.9 224.5h.43l-.42-.5z" stroke="#000" stroke-opacity="0" stroke-width=".31"/><path d="M360.44 224.5H360" stroke="#000" stroke-width=".62" fill-opacity="0"/><path d="M374.12 226h-11.1v16h11.1z" stroke="#000" stroke-opacity="0" stroke-width=".31" fill="#fff" fill-opacity="0"/><path d="M363 230c0 3.5 1.3 6.5 3 9 1.28 2 3 2.5 4.7 2.5 1.7 0 2.57-1.5 2.57-4 0-4.5-2.57-8.5-4.7-10.5-1.3-.5-2.14-1-3-1-1.28 0-2.56 1.5-2.56 4m7.7 3.5h-5.13c-.43-1-.85-3-.85-4.5s.42-2.5 1.28-2.5c2.14 0 4.27 5 4.7 7m-5.13 1h5.13c.43 1 .86 2 .86 3.5 0 2-.43 3-1.3 3-2.12 0-4.26-4.5-4.7-6.5" stroke="#000" stroke-opacity="0" stroke-width=".31"/><path d="M166.76 214h-44.04" stroke="#000" stroke-opacity="0" stroke-width=".31" fill-opacity="0"/><path d="M166.76 214h-1.28m-2.14 0h-2.57m-2.56 0h-2.56m-2.14 0h-2.56m-2.57 0h-2.56m-2.13 0h-2.56m-2.56 0h-2.56m-2.14 0h-2.57m-2.56 0h-2.56m-2.14 0h-1.28m44.04 0h.43m-44.48 0h-.43" stroke="#000" stroke-width=".62" fill-opacity="0"/><path d="M183 204h-12.4v11H183z" stroke="#000" stroke-opacity="0" stroke-width=".31" fill="#fff" fill-opacity="0"/><path d="M170.6 205l3.43 5.5v.5c0 1-.43 2.5-.86 2.5s-.85-.5-1.28-2l-.44.5c.86 1.5 1.28 2.5 2.57 2.5.85 0 .85-1 .85-2 1.3 1 3 2 4.28 2 2.14 0 3-1.5 3-3 0-2-.44-4-1.72-5s-2.56-2-3.85-2c-2.14 0-3 1.5-3 3l-.86-2.5h-2.13m4.28 3.5c0-1.5.43-3.5 1.7-3.5 1.3 0 3.86 3 3.86 6.5 0 1.5-.43 2.5-1.28 2.5-1.7 0-3.42-3-3.85-4 0-.5-.42-1-.42-1.5" stroke="#000" stroke-opacity="0" stroke-width=".31"/><path d="M163.77 124.5H150.5v15h13.27z" stroke="#000" stroke-opacity="0" stroke-width=".31" fill="#fff" fill-opacity="0"/><path d="M158.2 132l-.42-1c-.85-1.5-1.7-3.5-3-4.5-.85-1-2.13-1.5-2.56-1.5-1.28 0-1.7.5-1.7 1.5s.42 1.5 1.7 1.5c.43 0 .86 0 .86-.5l.42-.5c.86 0 1.72 1 3 3 1.28 2.5 1.7 3.5 3.42 9h2.56l-2.56-9.5c-.86-1.5-.86-2-.86-2.5s.86-1 1.3-1c.4 0 .4 0 1.27.5v-1l-5.13-.5" stroke="#000" stroke-opacity="0" stroke-width=".31"/><path d="M286.47 121.5c0 .5.43 1 .86 1s.85-.5.85-1-.42-1-.85-1-.86.5-.86 1z" stroke="#000" stroke-width=".62"/><path d="M47.04 185h-20.1v20h20.1z" stroke="#000" stroke-opacity="0" stroke-width=".31" fill="#fff" fill-opacity="0"/><path d="M27.8 192c0 4.5 2.14 8 5.56 10.5 1.7 1 3.85 2 6 2 3.84 0 5.97-2.5 5.97-6.5 0-3.5-2.13-7.5-4.7-10-2.14-1.5-4.27-2.5-6.84-2.5-3.86 0-6 2.5-6 6.5m2.57-1.5c0-2.5 1.7-4.5 3.85-4.5 2.14 0 3.85 1.5 5.13 3.5 2.14 2.5 3 6.5 3 9 0 3.5-1.3 5-3.43 5-1.7 0-3.42-1-4.7-2.5-2.57-3-3.85-7.5-3.85-10.5" stroke="#000" stroke-opacity="0" stroke-width=".31"/><path d="M281.77 122.5L55.17 164" stroke="#666" stroke-width="1.23" fill-opacity="0"/><path d="M286.47 122l-4.7-1 .86 3zM50.04 165l4.7.5-.43-3z" stroke="#666" stroke-width="1.23" fill="#666"/><path d="M446.8 115.5l-16.24-95m16.25 95l.43 1m-16.67-96V20M52.16 185L35.94 89.5M52.17 185v.5M35.93 90l-.43-1m392.92-38L47.47 115" stroke="#666" stroke-width="1.23" fill-opacity="0"/><path d="M433.55 50l-4.7-1 .43 3zm-391.2 66l4.7.5-.43-2.5z" stroke="#666" stroke-width="1.23" fill="#666"/><path d="M244.57 56h-8.97v23.5h8.97z" stroke="#000" stroke-opacity="0" stroke-width=".31" fill="#fff" fill-opacity="0"/><path d="M235.6 57l5.13 18.5V77c0 .5 0 .5-.43.5s-1.28-.5-2.14-1.5l-.85-1.5-.42.5c2.14 3 3 4 4.7 4 1.28 0 1.7-.5 1.7-2v-1l-4.7-16.5V59c0-.5.86-1 1.72-1h.43v-.5c-1.7 0-3-.5-4.7-1" stroke="#000" stroke-opacity="0" stroke-width=".31"/><path d="M166.33 499.5H29.1m137.23 0h1.28m-138.5 0h-1.3" stroke="#964b00" stroke-width="2.47" fill-opacity="0"/><path d="M151.37 519.5L133.4 501m17.97 18.5l.85.5m-18.8-19l-.87-.5m-18.38 19L96.2 501m17.97 18.5l.86.5M96.2 501l-.84-.5m-17.96 19L59.02 501m18.38 18.5l.43.5m-18.8-19l-.44-.5" stroke="#964b00" stroke-width="1.85" fill-opacity="0"/><path d="M146.95 120h20v23.06h-20z" fill="#fff"/><path d="M155.48 131.4l.78-1.7c.92-2.03 2.57-4.6 4.56-6.68 1.26-1.3 2.7-2.18 3.83-2.18 1.35 0 2.28 1 2.28 2.47 0 1.46-.83 2.63-2.28 2.63-.88 0-1.26-.54-1.7-1.26-.3-.5-.44-.68-.78-.68-.87 0-2.23 1.6-3.97 4.55-2.1 3.58-2.96 5.52-5.38 13.67h-3.7l3.94-14.16c.68-2.52.77-2.96.77-3.97 0-1.03-.87-1.28-1.84-1.28-.4 0-.78.05-1.5.15v-.82l7.5-1.3.15.08"/><path d="M233.95 44.5h13.55v35.32h-13.55z" fill="#fff"/><path d="M247.48 45.58l-7.42 28.36c-.24.88-.4 1.7-.4 2.1 0 .57.35.86.84.86.72 0 1.84-.78 3.24-2.76l1.22-1.7.67.48c-2.9 4.6-4.7 6.07-7.32 6.07-1.54 0-2.36-.94-2.36-2.73 0-.4.05-.97.2-1.45l6.63-25.4c.15-.5.15-.8.15-.93 0-.6-.82-1.08-2.38-1.08h-.87v-.77c2.86-.34 4.66-.68 7.52-1.3"/><path d="M20 182.5h25.98v25.84H20z" fill="#fff"/><path d="M45.14 192.04c0 5.25-3.17 10.25-7.45 13.12-2.35 1.6-5.04 2.56-7.7 2.56-4.68 0-7.84-3.06-7.84-8.42 0-4.38 2.62-9.42 6.36-12.7 2.48-2.15 5.47-3.48 8.52-3.48 5.18-.04 8.1 3.45 8.1 8.92m-3.78-2.27c0-3.38-1.76-5.46-4.64-5.46-2.66 0-4.93 1.84-6.7 4.2-2.6 3.57-4.1 8.36-4.1 11.95 0 3.92 1.67 6.08 4.7 6.08 2.4 0 4.45-1.4 6.1-3.42 3.02-3.73 4.64-9.66 4.64-13.33"/><path d="M240.95 191.93h21.66V211h-21.65z" fill="#fff"/><path d="M262.47 193.1l-5.57 10.25v.7c0 1.88.47 3.88 1.34 3.88.55 0 1.17-.74 2-2.9l.62.28c-.86 2.9-2.07 4.95-3.96 4.95-1.5 0-1.96-1.73-2.03-4.12-1.96 2.4-4.67 4.2-7.6 4.2-3.8 0-5.26-2.67-5.26-5.96 0-3.18 1.38-6.5 3.58-8.75 1.72-1.76 4.35-3 6.78-3 3.33 0 4.94 2.34 4.94 4.65l1.8-4.16h3.37m-7.45 6.13c0-2.67-.5-5.8-3.02-5.8-2.47 0-6.78 5.33-6.78 11.56 0 2.23.7 4.5 2.7 4.5 2.75 0 5.42-5.3 6.48-7.5.15-.73.62-1.7.62-2.77"/><path d="M338.27 299h17.66v25.83h-17.66z" fill-opacity="0"/><path d="M355.9 305.58c0 5.78-2.13 10.92-4.78 14.46-2.32 3.07-4.82 4.17-7.3 4.17-2.9 0-4.58-2.34-4.58-6.13 0-7.67 4.03-14 7.92-16.95 1.57-1.18 2.93-1.5 4.36-1.5 2.53 0 4.4 1.7 4.4 5.96m-12.4 5.85h8.32c.6-2.07 1.07-4.64 1.07-7.32 0-2.27-.63-3.73-1.88-3.73-3.1 0-6.6 7.9-7.5 11.06m8.07 1.15h-8.33c-.68 1.78-1.04 3.64-1.04 5.9 0 3.16.68 4.98 2 4.98 3.43 0 6.5-7.4 7.36-10.88"/><path d="M300.48 327h54.97" fill="none"/><path d="M300.48 327h3.3m4.4 0h6.6m4.4 0h6.58m4.4 0h6.6m4.4 0h6.6m4.4 0h3.3" stroke="#000" stroke-width="2" fill="none"/><path d="M300.5 328h-2.73l2.73-1.6z"/><path d="M355.42 327h1.03" stroke="#000" stroke-width="2" fill="none"/><path d="M359.2 221.5h42.9v3.75h-42.9zM359.95 225.25h14.25v16.5h-14.25z" stroke="#000" stroke-opacity="0" stroke-width="2" fill="#fff"/><path d="M346.13 225.25h54.54" fill="none"/><path d="M346.13 225.25h3.27m4.36 0h6.55m4.37 0h6.55m4.36 0h6.55m4.36 0h6.54m4.36 0h3.27M346.15 225.25h-1.02" stroke="#000" stroke-width="2" fill="none"/><path d="M402.1 225.25h-1.45v-1h1.45z"/><path d="M341.95 227h17.65v25.83h-17.65z" fill-opacity="0"/><path d="M359.6 233.58c0 5.78-2.16 10.92-4.8 14.46-2.32 3.07-4.82 4.17-7.32 4.17-2.9 0-4.57-2.34-4.57-6.13 0-7.67 4.05-14 7.94-16.95 1.57-1.18 2.93-1.5 4.35-1.5 2.53 0 4.4 1.7 4.4 5.96m-12.4 5.85h8.32c.6-2.07 1.07-4.64 1.07-7.32 0-2.27-.66-3.73-1.9-3.73-3.1 0-6.6 7.9-7.5 11.06m8.07 1.15h-8.32c-.68 1.78-1.04 3.64-1.04 5.9 0 3.16.7 4.98 2 4.98 3.44 0 6.5-7.4 7.37-10.88"/><path d="M121.95 214h100v7h-100z" stroke="#fff" stroke-width="2" fill="#fff"/><path d="M170.95 204.33h19.5v18h-19.5z" stroke="#000" stroke-opacity="0" stroke-width="2" fill="#fff"/><path d="M121.95 214h129.5" fill="none"/><path d="M121.95 214H126m8.1 0h8.08m8.1 0h8.1m8.1 0h8.08m8.1 0h8.1m8.08 0h8.1m8.1 0h8.08m8.1 0h8.1m8.08 0h4.05" stroke="#000" stroke-width="2" fill="none"/><path d="M120.95 215h-3v-2h3z"/><path d="M251.42 214h1.03" stroke="#000" stroke-width="2" fill="none"/></g></svg>