<svg width="1082" height="672" xmlns="http://www.w3.org/2000/svg">

 <g>
  <title>background</title>
  <rect fill="none" id="canvas_background" height="402" width="582" y="-1" x="-1"/>
 </g>
 <g>
  <title>Layer 1</title>
  <g id="svg_1">
   <path id="svg_2" fill="#fff" d="m1041.47,276.84c0,511.32 -414.5,925.83 -925.83,925.83c-511.33,0 -925.84,-414.5 -925.84,-925.83c0,-511.34 414.5,-925.84 925.84,-925.84c511.32,0 925.83,414.5 925.83,925.84z"/>
   <path id="svg_3" fill="none" stroke-width="4" stroke="#0c7cba" d="m1040.6,317.23l-2.4,38.13l-0.24,2.18m-2.1,20.1l-1.74,16.42l-3.48,23.62m-3.18,19.95l-6.23,32.66l-1.63,6.95m-4.6,19.67l-2.56,10.87l-7.87,28.14m-5.87,19.33l-8.5,26.17l-4.5,12.07m-7.03,18.95l-1.9,5.07l-13.55,32.25m-8.46,18.34l-9.35,19.87l-8.54,16.35m-9.36,17.9l-19.37,33.56l-0.9,1.4m-10.8,17.05l-9.1,14.3l-13.38,19.27m-11.7,16.46l-20.64,27.22l-3.97,4.8m-12.87,15.57l-8,9.66l-18.64,20.7m-13.8,14.76l-20.96,21.42l-7.6,7.14m-14.73,13.82l-6.12,5.74l-24.23,20.91m-15.64,12.77l-20.18,16l-11.86,8.6m-16.34,11.88l-3.27,2.38l-30.3,20.12m-17.22,10.55l-18,10.9l-16.96,9.33m-17.7,9.7l-33.86,16.8l-2.4,1.06m-18.44,8.2l-14.4,6.4l-22.9,9.1m-18.88,7.17l-30.36,10.57l-7.9,2.4m-19.34,5.83l-9.6,2.9l-29.42,7.55m-19.68,4.53l-25.9,5.5l-13.73,2.32m-19.9,3.37l-4.47,0.76l-35.6,4.5m-20.1,1.8l-21.68,1.82l-18.63,0.78m-20.18,0.85l-0.45,0.02l-19.76,0.2l-0.02,0l-20.18,-0.42m-20.2,-0.46l-38.13,-2.4l-2.17,-0.24m-20.08,-2.1l-16.43,-1.74l-23.63,-3.48m-19.95,-3.18l-32.66,-6.23l-6.98,-1.63m-19.66,-4.6l-10.87,-2.56l-28.17,-7.86m-19.32,-5.88l-26.17,-8.5l-12.07,-4.5m-18.93,-7.03l-5.08,-1.9l-32.25,-13.55m-18.34,-8.46l-19.85,-9.35l-16.35,-8.54m-17.9,-9.36l-33.55,-19.37l-1.4,-0.9m-17.05,-10.8l-14.32,-9.1l-19.25,-13.38m-16.47,-11.7l-27.2,-20.64l-4.8,-3.97m-15.57,-12.87l-9.67,-8l-20.7,-18.64m-14.75,-13.8l-21.4,-20.96l-7.14,-7.6m-13.83,-14.73l-5.74,-6.1l-20.93,-24.25m-12.77,-15.64l-16,-20.17l-8.6,-11.87m-11.88,-16.34l-2.38,-3.27l-20.1,-30.3m-10.57,-17.2l-10.9,-18.03l-9.32,-16.95m-9.7,-17.7l-16.8,-33.86l-1.07,-2.4m-8.2,-18.44l-6.42,-14.4l-9.07,-22.9m-7.2,-18.88l-10.57,-30.36l-2.4,-7.9m-5.82,-19.34l-2.9,-9.6l-7.55,-29.42m-4.53,-19.68l-5.5,-25.9l-2.32,-13.73m-3.37,-19.9l-0.75,-4.47l-4.5,-35.6m-1.8,-20.1l-1.83,-21.68l-0.78,-18.63m-0.85,-20.18l0,-0.45l-0.22,-19.76l0,-0.02l0.42,-20.18m0.46,-20.2l2.4,-38.13l0.23,-2.17m2.12,-20.08l1.73,-16.43l3.5,-23.63m3.16,-19.95l6.24,-32.66l1.63,-6.98m4.62,-19.66l2.54,-10.87l7.86,-28.17m5.87,-19.32l8.5,-26.17l4.5,-12.07m7.04,-18.93l1.9,-5.08l13.55,-32.25m8.47,-18.34l9.34,-19.85l8.55,-16.35m9.37,-17.9l19.37,-33.55l0.9,-1.4m10.8,-17.05l9.1,-14.32l13.38,-19.25m11.7,-16.47l20.65,-27.2l3.97,-4.8m12.88,-15.57l8,-9.66l18.63,-20.7m13.8,-14.76l20.97,-21.4l7.6,-7.14m14.73,-13.83l6.1,-5.74l24.24,-20.93m15.64,-12.77l20.17,-16l11.87,-8.6m16.34,-11.88l3.28,-2.37l30.3,-20.12m17.2,-10.56l18.02,-10.9l16.95,-9.32m17.72,-9.7l33.85,-16.8l2.38,-1.07m18.46,-8.2l14.4,-6.42l22.9,-9.07m18.88,-7.2l30.36,-10.57l7.9,-2.4m19.34,-5.82l9.6,-2.9l29.4,-7.54m19.7,-4.53l25.88,-5.5l13.74,-2.33m19.92,-3.37l4.46,-0.75l35.6,-4.5m20.1,-1.8l21.7,-1.83l18.62,-0.78m20.18,-0.84l0.44,-0.02l19.76,-0.2l20.2,0.42m20.2,0.46l38.12,2.4l2.18,0.23m20.1,2.12l16.42,1.73l23.62,3.5m19.95,3.16l32.66,6.24l6.95,1.63m19.67,4.62l10.87,2.54l28.14,7.86m19.33,5.87l26.17,8.5l12.07,4.5m18.94,7.04l5.08,1.9l32.25,13.55m18.34,8.47l19.87,9.34l16.35,8.55m17.9,9.37l33.56,19.37l1.4,0.9m17.05,10.8l14.3,9.1l19.26,13.38m16.46,11.7l27.22,20.65l4.8,3.97m15.57,12.88l9.66,8l20.7,18.63m14.76,13.8l21.42,20.97l7.14,7.6m13.82,14.73l5.74,6.1l20.92,24.24m12.77,15.64l16,20.17l8.6,11.87m11.88,16.34l2.38,3.28l20.12,30.3m10.55,17.2l10.84,17.97l9.33,16.95m9.7,17.72l16.8,33.85l1.06,2.38m8.2,18.46l6.4,14.4l9.1,22.9m7.17,18.88l10.58,30.36l2.4,7.9m5.83,19.34l2.9,9.6l7.55,29.4m4.53,19.7l5.5,25.9l2.32,13.72m3.37,19.92l0.76,4.46l4.5,35.6m1.8,20.1l1.82,21.7l0.78,18.62m0.85,20.18l0.02,0.44l0.2,19.76l-0.42,20.2"/>
   <path id="svg_4" fill-opacity="0" d="m1036,623.2c0,140.54 -113.92,254.46 -254.45,254.46c-140.53,0 -254.45,-113.92 -254.45,-254.45c0,-140.52 113.92,-254.44 254.45,-254.44c140.53,0 254.45,113.92 254.45,254.45l0,-0.02z"/>
   <path id="svg_5" fill="none" stroke-width="4" stroke="#c92d39" d="m1033.14,661.13l-0.7,4.82l-2,10.42l-2.42,10.3l-2.84,10.2l-0.44,1.35m-6.28,17.97l-0.24,0.64l-4.1,9.76l-4.52,9.6l-4.92,9.42l-2.78,4.8m-10.13,16.1l-4.23,6.1l-6.47,8.52l-6.83,8.25l-6.18,6.86m-13.48,13.44l-2.83,2.66l-8.1,7l-8.4,6.65l-8.66,6.3l-1.72,1.14m-16.1,10.16l-0.2,0.12l-9.3,5.13l-9.52,4.72l-9.68,4.3l-5.56,2.2m-17.96,6.3l-6.44,1.94l-10.24,2.64l-10.37,2.2l-10.02,1.7m-18.9,2.07l-2.8,0.25l-10.8,0.45l-5.43,0.06l-10.84,-0.23l-8.16,-0.5m-18.9,-2.14l-4.83,-0.72l-10.4,-2l-10.32,-2.4l-10.2,-2.85l-1.34,-0.44m-17.97,-6.28l-0.65,-0.24l-9.76,-4.1l-9.6,-4.52l-9.42,-4.93l-4.8,-2.77m-16.1,-10.13l-6.1,-4.23l-8.52,-6.47l-8.25,-6.83l-6.87,-6.2m-13.44,-13.46l-2.66,-2.84l-7,-8.1l-6.65,-8.4l-6.3,-8.65l-1.13,-1.72m-10.16,-16.08l-0.12,-0.2l-5.13,-9.33l-4.7,-9.5l-4.32,-9.7l-2.2,-5.55m-6.3,-17.96l-1.93,-6.42l-2.63,-10.25l-2.2,-10.36l-1.7,-10.03m-2.07,-18.92l-0.24,-2.8l-0.44,-10.78l-0.06,-5.43l0.23,-10.84l0.5,-8.17m2.14,-18.92l0.7,-4.82l2,-10.42l2.4,-10.3l2.86,-10.2l0.44,-1.34m6.27,-17.97l0.24,-0.65l4.1,-9.77l4.52,-9.58l4.93,-9.42l2.77,-4.8m10.13,-16.1l4.23,-6.1l6.47,-8.52l6.83,-8.25l6.2,-6.87m13.46,-13.44l2.84,-2.66l8.1,-7l8.4,-6.66l8.65,-6.28l1.73,-1.14m16.08,-10.17l0.22,-0.1l9.32,-5.13l9.5,-4.72l9.7,-4.3l5.55,-2.2m17.95,-6.3l6.43,-1.94l10.25,-2.62l10.36,-2.2l10.02,-1.7m18.92,-2.08l2.8,-0.23l10.78,-0.45l5.43,-0.06l10.85,0.23l8.17,0.5m18.9,2.12l4.83,0.7l10.42,2l10.3,2.42l10.2,2.84l1.34,0.44m17.97,6.28l0.65,0.24l9.77,4.1l9.6,4.52l9.4,4.92l4.8,2.78m16.09,10.12l6.1,4.22l8.5,6.47l8.26,6.82l6.87,6.18m13.44,13.48l2.66,2.83l7,8.12l6.66,8.4l6.28,8.65l1.14,1.7m10.17,16.1l0.12,0.2l5.12,9.32l4.7,9.5l4.32,9.68l2.2,5.56m6.3,17.96l1.93,6.44l2.63,10.24l2.2,10.37l1.7,10.03m2.08,18.9l0.23,2.8l0.44,10.8l0.06,5.43l-0.23,10.85l-0.5,8.17"/>
   <path id="svg_6" fill="#285256" stroke-width="2" stroke="#000" d="m875.7,385.44l-118.3,204.33c-10.9,18.8 -4.6,42.8 14.06,53.6c18.65,10.8 42.6,4.32 53.5,-14.5l118.3,-204.32c10.88,-18.8 4.58,-42.8 -14.07,-53.6c-18.67,-10.8 -42.62,-4.32 -53.5,14.5l0.01,-0.01z"/>
   <path id="svg_7" fill="#285256" stroke-width="2" stroke="#000" d="m838.8,196.7l34.76,211.78c3.2,19.5 23.47,32.4 45.26,28.82c21.8,-3.58 36.88,-22.28 33.68,-41.78l-34.76,-211.77c-3.2,-19.5 -23.47,-32.4 -45.27,-28.8c-21.8,3.57 -36.88,22.27 -33.68,41.76l0.01,-0.01z"/>
   <path id="svg_8" fill="#ef8d22" stroke-width="2" stroke="#000" d="m920.54,405.5c0,4 -3.26,7.26 -7.27,7.26c-4.02,0 -7.27,-3.25 -7.27,-7.27s3.25,-7.28 7.27,-7.28c4,0 7.27,3.26 7.27,7.27l0,0.02z"/>
   <path id="svg_9" fill="#285256" stroke-width="2" stroke="#000" d="m96,267.8l932.94,-152.58l12.67,77.5l-932.92,152.6l-12.69,-77.52z"/>
   <path id="svg_10" fill="#ef8d22" stroke-width="2" stroke="#000" d="m793.54,620.5c0,4 -3.26,7.26 -7.27,7.26c-4.02,0 -7.27,-3.25 -7.27,-7.27s3.25,-7.28 7.27,-7.28c4,0 7.27,3.26 7.27,7.27l0,0.02z"/>
   <path id="svg_11" fill="none" d="m825.95,628.88l115.45,0"/>
   <path id="svg_12" fill="none" stroke-width="2" stroke="#000" d="m825.95,628.88l4.12,0m8.25,0l8.25,0m8.24,0l8.26,0m8.25,0l8.25,0m8.25,0l8.24,0m8.25,0l8.24,0m8.24,0l8.25,0m8.25,0l4.12,0"/>
   <path id="svg_13" d="m825.98,629.88l-0.47,0l0.3,-0.5l0.18,-0.27l-0.01,0.77z"/>
   <path id="svg_14" fill="none" stroke-width="2" stroke="#000" d="m941.37,628.88l1.03,0"/>
   <path id="svg_15" fill-opacity="0" fill="#fff" d="m869.06,555.22l45.48,0l0,66.54l-45.48,0l0,-66.54z"/>
   <path id="svg_16" d="m914.5,572.17c0,14.9 -5.53,28.14 -12.33,37.24c-5.98,7.92 -12.42,10.77 -18.85,10.77c-7.45,0 -11.78,-6.07 -11.78,-15.82c0,-19.77 10.4,-36.05 20.42,-43.68c4.05,-3.03 7.54,-3.86 11.22,-3.86c6.53,0 11.3,4.42 11.3,15.37m-31.9,15.08l21.42,0c1.57,-5.33 2.77,-11.96 2.77,-18.85c0,-5.9 -1.66,-9.66 -4.88,-9.66c-8,0 -17.02,20.32 -19.32,28.5m20.78,2.95l-21.42,0c-1.75,4.6 -2.67,9.37 -2.67,15.17c0,8.18 1.75,12.87 5.15,12.87c8.83,0 16.74,-19.04 18.94,-28.05"/>
   <path id="svg_17" fill="none" d="m110,347l378.6,0"/>
   <path id="svg_18" fill="none" stroke-width="2" stroke="#000" d="m110,347l3.94,0m7.9,0l7.88,0m7.9,0l7.87,0m7.88,0l7.9,0m7.88,0l7.88,0m7.9,0l7.88,0m7.9,0l7.87,0m7.88,0l7.9,0m7.88,0l7.88,0m7.9,0l7.88,0m7.9,0l7.87,0m7.88,0l7.9,0m7.88,0l7.88,0m7.9,0l7.89,0m7.9,0l7.87,0m7.88,0l7.9,0m7.88,0l7.88,0m7.9,0l7.88,0m7.9,0l7.87,0m7.88,0l7.9,0m7.88,0l7.88,0m7.9,0l7.88,0m7.9,0l7.87,0m7.88,0l7.9,0m7.88,0l3.94,0m-378.52,0l-1.03,0m379.57,0l1.03,0"/>
   <path id="svg_19" fill-opacity="0" fill="#fff" d="m411.33,295.22l50.8,0l0,44.74l-50.8,0l0,-44.74z"/>
   <path id="svg_20" d="m461.82,298l-13.06,24l0,1.66c0,4.42 1.1,9.1 3.13,9.1c1.28,0 2.75,-1.74 4.68,-6.8l1.47,0.65c-2.02,6.8 -4.87,11.6 -9.3,11.6c-3.48,0 -4.6,-4.05 -4.77,-9.66c-4.6,5.6 -10.94,9.84 -17.84,9.84c-8.92,0 -12.32,-6.26 -12.32,-13.98c0,-7.45 3.22,-15.27 8.37,-20.5c4.03,-4.15 10.2,-7.1 15.9,-7.1c7.8,0 11.58,5.53 11.58,10.95l4.23,-9.75l7.92,0m-17.47,14.35c0,-6.25 -1.2,-13.6 -7.08,-13.6c-5.8,0 -15.9,12.5 -15.9,27.12c0,5.24 1.64,10.58 6.33,10.58c6.44,0 12.7,-12.42 15.18,-17.57c0.37,-1.75 1.47,-4.05 1.47,-6.53"/>
   <path id="svg_21" fill="none" stroke-width="2" stroke="#000" d="m799.22,597.08l98.97,-169.8"/>
   <path id="svg_22" stroke-width="2" stroke="#000" d="m791.53,610.27l3.18,-14.66l8.02,4.68l-11.2,9.98zm114.35,-196.17l-3.18,14.65l-8,-4.67l11.18,-9.98z"/>
   <path id="svg_23" fill-opacity="0" fill="#fff" d="m596,80.94l16.37,0l0,42.67l-16.37,0l0,-42.67z"/>
   <path id="svg_24" d="m612.34,82.24l-8.96,34.26c-0.3,1.06 -0.47,2.05 -0.47,2.52c0,0.7 0.42,1.06 1,1.06c0.9,0 2.23,-0.94 3.93,-3.34l1.47,-2.05l0.82,0.57c-3.52,5.57 -5.7,7.33 -8.85,7.33c-1.87,0 -2.87,-1.12 -2.87,-3.28c0,-0.47 0.06,-1.18 0.24,-1.76l8.02,-30.7c0.18,-0.58 0.18,-0.93 0.18,-1.1c0,-0.7 -1,-1.3 -2.87,-1.3l-1.06,0l0,-0.93c3.47,-0.4 5.63,-0.82 9.1,-1.58"/>
   <path id="svg_25" fill-opacity="0" fill="#fff" d="m803.05,494.76l15.97,-26.45l36.63,22.14l-15.98,26.45l-36.62,-22.14z"/>
   <path id="svg_26" d="m819.7,469.16l0.48,-0.12l6.43,6.56l9.18,9.64c4.77,5 9.56,10.23 10.36,10.7c0.6,0.38 1.16,0.37 1.55,-0.28c0.5,-0.86 0.4,-1.68 -1.1,-6.27l0.88,-0.3c2.17,4.66 2.78,8.3 1.26,10.82c-0.8,1.3 -2.14,1.5 -3.5,0.7c-1.15,-0.7 -1.9,-1.3 -4.07,-3.36c3.18,5.96 3.3,9.52 1.23,12.93c-1.97,3.24 -5.3,4.1 -9.1,1.8c-8.13,-4.9 -11.9,-18.26 -7.96,-24.78c1.28,-2.1 2.74,-2.38 4.88,-1.5l0.03,-0.05l-6.8,-7.2c-2.2,-2.35 -2.44,-2.42 -3.14,-2.85c-1.05,-0.63 -1.47,-0.27 -3.24,2.43l-0.85,-0.52c1.65,-3.4 2.44,-5.38 3.5,-8.37m11.14,18.03c-1.8,-1.1 -3.6,-0.54 -4.28,0.62c-0.85,1.4 -1.06,3.67 -0.45,5.95c1.52,5.43 5.47,11.24 9.63,13.75c2.3,1.4 4.36,1.06 5.42,-0.7c2.78,-4.6 -2.7,-15.03 -10.3,-19.63"/>
   <path id="svg_27" fill="none" stroke-width="2" stroke="#000" d="m106.26,220.92l898.4,-146.92"/>
   <path id="svg_28" stroke-width="2" stroke="#000" d="m91.2,223.4l13.32,-6.9l1.5,9.16l-14.82,-2.26zm928.52,-151.88l-13.33,6.88l-1.5,-9.15l14.83,2.27z"/>
   <path id="svg_29" fill="none" stroke-width="2" stroke="#000" d="m101.2,305.73l-15.07,-103.83"/>
   <path id="svg_30" d="m101.84,309.68l-1.05,0.16l-0.6,-4l1,-0.13l0.65,3.97z"/>
   <path id="svg_31" fill="none" stroke-width="2" stroke="#000" d="m86.12,201.94l-0.14,-1m948.96,-48.92l-18.06,-111.86"/>
   <path id="svg_32" d="m1036.57,155.8l-1.1,0.18l-0.5,-4l0.95,-0.15l0.65,3.97z"/>
   <path id="svg_33" fill="none" stroke-width="2" stroke="#000" d="m1016.9,40.2l-0.17,-1.02"/>
   <path id="svg_34" fill-opacity="0" fill="#fff" d="m29.7,349.76l66.44,0l0,66.08l-66.44,0l0,-66.08z"/>
   <path id="svg_35" d="m93.98,374.15c0,13.43 -8.1,26.2 -19.04,33.57c-5.98,4.05 -12.87,6.53 -19.68,6.53c-11.95,0 -20.05,-7.82 -20.05,-21.52c0,-11.22 6.73,-24.1 16.3,-32.46c6.34,-5.52 13.97,-8.92 21.8,-8.92c13.23,-0.1 20.68,8.83 20.68,22.8m-9.66,-5.8c0,-8.63 -4.5,-13.97 -11.86,-13.97c-6.8,0 -12.6,4.7 -17.1,10.76c-6.72,9.1 -10.5,21.34 -10.5,30.53c0,10.03 4.24,15.55 11.97,15.55c6.16,0 11.4,-3.6 15.63,-8.74c7.72,-9.56 11.86,-24.74 11.86,-34.12"/>
   <path id="svg_36" stroke-width="2" stroke="#000" d="m114,345.38c0,2.4 -1.96,4.37 -4.38,4.37c-2.4,0 -4.37,-1.96 -4.37,-4.38c0,-2.4 1.96,-4.37 4.38,-4.37c2.4,0 4.37,1.96 4.37,4.38z"/>
  </g>
 </g>
</svg>