<svg xmlns="http://www.w3.org/2000/svg" xmlns:lucid="lucid" width="2052" height="558.43"><g lucid:page-tab-id="0_0"><path d="M1268 52.43h546.36v200H1268z" stroke="#000" stroke-width="2" fill="#99d5ca"/><path d="M1268 75.56h546.36V229.3H1268z" fill="#fff" fill-opacity="0"/><path d="M1294.1 105.9l.78 3.75c4.6-7.03 7.03-9.4 9.92-9.4 1.58 0 2.7 1 2.7 2.43 0 1.38-.92 2.37-2.24 2.37-1.25 0-1.84-1.12-3.42-1.12-1.18 0-3.54 2.9-6.44 7.95 0 .47.14 1.4.53 2.96l2.1 8.8c.46 1.85 1.05 2.7 1.97 2.7.86 0 1.58-.65 3.1-2.63.58-.77.85-1.17 1.37-1.83l1 .6c-3.82 5.9-5.53 7.5-8.03 7.5-2.1 0-3.1-1.2-3.88-4.48l-1.9-7.83-5.78 7.82c-2.9 3.87-4.2 4.46-6.25 4.46-2.04 0-3.28-1.05-3.28-2.76 0-1.32.92-2.37 2.23-2.37.6 0 1.25.26 2.1.72.66.4 1.32.6 1.7.6.73 0 1.98-1.25 3.36-3.22l5.4-7.63-1.85-8.15c-.93-3.94-1.4-4.47-3.03-4.47-.53 0-1.3.14-2.56.46l-1.18.33-.2-1.05.73-.26c4-1.45 6.18-1.9 7.7-1.9 1.63 0 2.42 1.18 3.34 5.64M1296.2 90.86c0 1.9-1.52 3.22-3.3 3.22-1.77 0-3.2-1.45-3.2-3.22 0-1.78 1.24-3.3 3.2-3.3 2.04 0 3.3 1.46 3.3 3.3M1327.47 139.8l-.78 1.07c-10.4-5.92-16.05-17.02-16.05-28.2 0-12.15 5.72-21.62 16.23-27.86l.6 1.06c-9.14 7.82-11.18 13.93-11.18 26.62 0 12.22 1.97 19.65 11.17 27.33M1348.9 101.1l-.33 2.1h-5.52l-5.72 21.57c-.06.26-.13.72-.13.92 0 .84.4 1.04 1 1.04 1.04 0 2.1-1.05 5.3-5.2l.86.47c-3.94 6.05-5.98 7.96-9.4 7.96-1.77 0-3.02-.8-3.02-2.43 0-.73.53-2.76 1.05-4.87l5.12-19.45h-4.93c-.07-.2-.07-.38-.07-.38 0-.73.6-1.32 2.16-1.65 2.1-.46 6.37-3.68 8.73-7.23.27-.4.66-.6.92-.6.4 0 .6.2.6.54 0 0 0 .33-.07.46l-1.84 6.77h5.26M1350.8 85.86l.8-1.05c10.05 6.06 16.03 17.03 16.03 28.2 0 12.16-5.8 21.5-16.23 27.87l-.6-1.06c9.34-7.67 11.18-13.85 11.18-26.6 0-12.3-1.65-19.85-11.18-27.34M1294.3 202.44l1.37 7.23c5.58-9.26 8-14 8-16.9 0-.9-.45-1.3-1.7-2.1-1.3-.84-1.7-1.5-1.7-2.55 0-1.45 1.1-2.43 2.63-2.43 1.97 0 3.4 1.63 3.4 3.6 0 3.75-3.14 10.97-8.6 20.04-6.83 11.3-13.86 18.86-17.6 18.86-1.98 0-3.36-1.1-3.36-2.82 0-1.45 1.12-2.63 2.56-2.63 2.3 0 2.3 1.84 4 1.84.87 0 1.66-.54 3.17-2.18 1.18-1.25 4.14-5.12 4.66-5.98.4-.8.66-1.58.66-2.3 0-2.63-3.62-17.35-5.4-21.82-1.25-3.22-2.43-4.2-5.06-4.2-.72 0-1.3.06-2.04.26v-1.12c.73-.13 1.45-.26 2.1-.4 1.32-.25 3.5-.65 7.04-1.17h.26c1 0 4.47 10.9 5.6 16.74M1327.47 225.25l-.78 1.05c-10.4-5.92-16.05-17.02-16.05-28.2 0-12.15 5.72-21.62 16.23-27.86l.6 1.05c-9.14 7.8-11.18 13.93-11.18 26.6 0 12.23 1.97 19.66 11.17 27.35M1348.9 186.54l-.33 2.1h-5.52l-5.72 21.56c-.06.26-.13.72-.13.92 0 .85.4 1.05 1 1.05 1.04 0 2.1-1.05 5.3-5.2l.86.47c-3.94 6.04-5.98 7.95-9.4 7.95-1.77 0-3.02-.8-3.02-2.44 0-.72.53-2.76 1.05-4.87l5.12-19.46h-4.93c-.07-.2-.07-.4-.07-.4 0-.7.6-1.3 2.16-1.63 2.1-.45 6.37-3.67 8.73-7.22.27-.4.66-.6.92-.6.4 0 .6.2.6.53 0 0 0 .34-.07.47l-1.84 6.77h5.26M1350.8 171.3l.8-1.06c10.05 6.05 16.03 17.02 16.03 28.2 0 12.15-5.8 21.48-16.23 27.86l-.6-1.05c9.34-7.7 11.18-13.87 11.18-26.62 0-12.3-1.65-19.84-11.18-27.34M1427.3 108.2h-38.7v-4.33h38.7v4.33m0 13.15h-38.7V117h38.7v4.35M1491.37 129.23h-19.9v-1.64c3.47-.27 5.05-1.26 5.05-3.23 0-.33-.07-.6-.13-.98l-.8-7.83h-14.13l-3.74 6.3c-.73 1.2-1.12 2.3-1.12 3.3 0 1.57 1.06 2.42 4.2 2.42v1.63H1448l-.07-1.64c2.44-.27 3.62-1.78 5.66-5l24.3-38.25h1.64l6.18 36.8c.92 5.4 1.5 6.18 5.65 6.44v1.63m-16.23-16.3l-2.43-15.96-9.72 15.97h12.16M1512.2 105.9l.8 3.75c4.6-7.03 7.03-9.4 9.92-9.4 1.57 0 2.7 1 2.7 2.43 0 1.38-.93 2.37-2.24 2.37-1.25 0-1.84-1.12-3.42-1.12-1.18 0-3.55 2.9-6.44 7.95 0 .47.13 1.4.53 2.96l2.1 8.8c.46 1.85 1.05 2.7 1.97 2.7.85 0 1.58-.65 3.1-2.63.58-.77.84-1.17 1.37-1.83l.97.6c-3.8 5.9-5.52 7.5-8 7.5-2.12 0-3.1-1.2-3.9-4.48l-1.9-7.83-5.78 7.82c-2.9 3.87-4.22 4.46-6.25 4.46-2.04 0-3.3-1.05-3.3-2.76 0-1.32.93-2.37 2.25-2.37.6 0 1.24.26 2.1.72.66.4 1.3.6 1.7.6.73 0 1.98-1.25 3.36-3.22l5.4-7.63-1.85-8.15c-.9-3.94-1.37-4.47-3.02-4.47-.52 0-1.3.14-2.56.46l-1.18.33-.2-1.05.72-.26c4-1.45 6.18-1.9 7.7-1.9 1.64 0 2.42 1.18 3.34 5.64M1545.65 139.8l-.78 1.07c-10.4-5.92-16.04-17.02-16.04-28.2 0-12.15 5.72-21.62 16.23-27.86l.6 1.06c-9.14 7.82-11.18 13.93-11.18 26.62 0 12.22 1.97 19.65 11.17 27.33M1567 101.1l-.32 2.1h-5.52l-5.7 21.57c-.08.26-.14.72-.14.92 0 .84.4 1.04.98 1.04 1.05 0 2.1-1.05 5.32-5.2l.86.47c-3.94 6.05-5.98 7.96-9.4 7.96-1.77 0-3.02-.8-3.02-2.43 0-.73.52-2.76 1.05-4.87l5.14-19.45h-4.93c-.06-.2-.06-.38-.06-.38 0-.73.6-1.32 2.17-1.65 2.1-.46 6.38-3.68 8.75-7.23.26-.4.66-.6.92-.6.4 0 .6.2.6.54 0 0 0 .33-.07.46l-1.84 6.77h5.25M1568.98 85.86l.8-1.05c10.05 6.06 16.03 17.03 16.03 28.2 0 12.16-5.77 21.5-16.22 27.87l-.6-1.06c9.34-7.67 11.18-13.85 11.18-26.6 0-12.3-1.65-19.85-11.18-27.34M1645.35 114.78h-17.15v17.15h-4.34v-17.15h-17.15v-4.34h17.16V93.3h4.34v17.14h17.15v4.34M1670.98 85.27h17.4c10.6 0 15.85 3.3 15.85 9.6 0 7.16-5.65 9.06-12.42 11.03v.07c6.32 1.77 9 4.8 9 9.73 0 8.8-7.35 13.53-19.37 13.53h-19.85v-1.64c3.15-.4 4.47-1.6 5.52-5.46l7.82-28.8c.46-1.63.72-3.08.72-3.73 0-2.56-2.1-2.7-4.66-2.7v-1.63m14.2 6.05l-3.75 13.73c4.53-.33 7.62-.33 10.05-2.63 1.97-1.84 3.1-4.73 3.1-8.4 0-4.4-1.92-6.65-5.73-6.65-2.1 0-2.7.27-3.68 3.95m-4.27 15.7l-4.2 15.5c-.33 1.26-.47 1.92-.47 2.44 0 1.5 1.2 2.17 3.75 2.17 3.48 0 5.92-1.38 7.95-3.88 1.9-2.3 2.83-5.78 2.83-9.06 0-2.45-.8-4.42-2.3-5.6-1.38-1.05-3.3-1.45-7.56-1.58M1737.35 121.4l.92.6c-4.27 6.5-5.98 7.83-9.07 7.83-1.97 0-3.15-1.12-3.15-3.16 0-1.44.85-5.85 2.96-12.94-7.75 12.74-11.03 16.23-15.7 16.23-2.3 0-3.48-1.05-3.48-3.5 0-1.23.6-3.6 1.77-8.4l2.3-9.13c.52-2.17.9-3.88.9-4.4 0-.47-.32-1-.7-1.2-.6-.32-.8-.38-3.3-.38v-.92c3.75-.46 6.1-.92 9.86-1.78l.26.2-5.85 23.33c-.06.2-.2.8-.2 1.05 0 1 .34 1.64 1.32 1.64 2.23 0 5.25-3.48 9.32-9.66 3.1-4.65 4-7.15 7.23-15.96h4.86l-5.18 19.65c-.33 1.24-1.25 4.33-1.25 5.12 0 .72.27 1.12.73 1.12 1.05 0 2.1-.92 5.45-5.33M1759.96 139.8l-.8 1.07c-10.37-5.92-16.02-17.02-16.02-28.2 0-12.15 5.7-21.62 16.23-27.86l.6 1.06c-9.15 7.82-11.18 13.93-11.18 26.62 0 12.22 1.96 19.65 11.16 27.33M1781.32 101.1l-.33 2.1h-5.53l-5.72 21.57c-.07.26-.13.72-.13.92 0 .84.4 1.04.98 1.04 1.06 0 2.1-1.05 5.33-5.2l.85.47c-3.94 6.05-5.98 7.96-9.4 7.96-1.77 0-3.02-.8-3.02-2.43 0-.73.53-2.76 1.05-4.87l5.14-19.45h-4.93c-.06-.2-.06-.38-.06-.38 0-.73.6-1.32 2.17-1.65 2.12-.46 6.4-3.68 8.75-7.23.27-.4.66-.6.92-.6.4 0 .6.2.6.54 0 0 0 .33-.07.46l-1.84 6.77h5.26M1783.3 85.86l.78-1.05c10.05 6.06 16.03 17.03 16.03 28.2 0 12.16-5.77 21.5-16.22 27.87l-.6-1.06c9.34-7.67 11.18-13.85 11.18-26.6 0-12.3-1.64-19.85-11.17-27.34M1427.3 193.64h-38.7v-4.34h38.7v4.34m0 13.14h-38.7v-4.34h38.7v4.34M1496.9 169.65l-3.36 15.44-2.1-.4c.13-.85.2-1.5.2-2.37 0-6.1-3.03-10.38-8.6-10.38-3.5 0-7.05 1.97-9.54 4.8-5.06 5.72-8.87 14.46-8.87 24.18 0 7.16 4 11.44 10.18 11.44 5.73 0 9.08-2.83 13.42-7.82l2.04 1.44c-2.1 2.88-3.22 4.13-5.13 5.58-3.75 2.82-8.4 4.27-13.08 4.27-10.7 0-17.54-6.64-17.54-16.56 0-9.74 4.08-18.15 10.45-23.54 4.54-3.8 10.26-6.1 16.37-6.1 2.7 0 5.65.45 8.6 1.37 1 .33 1.98.53 2.5.53 1 0 1.58-.46 2.5-1.9h1.97M1512.86 191.34l.8 3.74c4.6-7.03 7.02-9.4 9.9-9.4 1.6 0 2.7 1 2.7 2.44 0 1.38-.9 2.36-2.23 2.36-1.24 0-1.84-1.1-3.4-1.1-1.2 0-3.56 2.88-6.45 7.94 0 .46.13 1.38.52 2.95l2.1 8.8c.47 1.85 1.06 2.7 1.98 2.7.85 0 1.57-.65 3.1-2.62.58-.8.84-1.2 1.37-1.84l.98.6c-3.8 5.9-5.52 7.5-8.02 7.5-2.1 0-3.08-1.2-3.86-4.48l-1.9-7.82-5.8 7.82c-2.88 3.88-4.2 4.47-6.24 4.47-2.03 0-3.28-1.06-3.28-2.77 0-1.3.92-2.37 2.23-2.37.6 0 1.25.27 2.1.73.66.38 1.32.58 1.7.58.74 0 2-1.25 3.37-3.22l5.38-7.63-1.84-8.14c-.92-3.96-1.38-4.48-3.02-4.48-.52 0-1.3.13-2.56.46l-1.18.33-.2-1.05.72-.26c4-1.45 6.18-1.9 7.7-1.9 1.63 0 2.42 1.17 3.34 5.64M1546.3 225.25l-.78 1.05c-10.38-5.92-16.03-17.02-16.03-28.2 0-12.15 5.7-21.62 16.22-27.86l.6 1.05c-9.14 7.8-11.18 13.93-11.18 26.6 0 12.23 1.97 19.66 11.17 27.35M1567.67 186.54l-.33 2.1h-5.52l-5.72 21.56c-.06.26-.13.72-.13.92 0 .85.4 1.05 1 1.05 1.04 0 2.1-1.05 5.3-5.2l.87.47c-3.95 6.04-5.98 7.95-9.4 7.95-1.78 0-3.02-.8-3.02-2.44 0-.72.52-2.76 1.05-4.87l5.12-19.46h-4.94c-.06-.2-.06-.4-.06-.4 0-.7.6-1.3 2.17-1.63 2.1-.45 6.37-3.67 8.74-7.22.27-.4.66-.6.93-.6.4 0 .6.2.6.53 0 0 0 .34-.08.47l-1.84 6.77h5.27M1569.64 171.3l.8-1.06c10.05 6.05 16.03 17.02 16.03 28.2 0 12.15-5.8 21.48-16.24 27.86l-.6-1.05c9.34-7.7 11.18-13.87 11.18-26.62 0-12.3-1.63-19.84-11.16-27.34"/><path d="M1148 152.43c0 22.1-17.9 40-40 40s-40-17.9-40-40 17.9-40 40-40 40 17.9 40 40z" stroke="#000" stroke-width="2" fill="#a3d977"/><path d="M1242.14 152.43h-90.64" stroke="#7ab648" stroke-width="5" fill="none"/><path d="M1258.9 152.43l-14.26 4.64v-9.27z" stroke="#7ab648" stroke-width="5" fill="#7ab648"/><path d="M1151.56 154.93h-2.7l.14-2.48-.1-2.52h2.66z" fill="#7ab648"/><path d="M1590.67 472.43v-160l-182.67 80z" stroke="#000" stroke-width="2" fill="#99d2f2"/><path d="M1616.52 392.43h118.15v-136.5" stroke="#19967d" stroke-width="5" fill="none"/><path d="M1599.76 392.43l14.26-4.63v9.27z" stroke="#19967d" stroke-width="5" fill="#19967d"/><path d="M1737.17 256h-5v-2.57h5z" fill="#19967d"/><path d="M1405.5 392.43H1108V218.3" stroke="#3aa6dd" stroke-width="5" fill="none"/><path d="M1411 390.03l-5.5 2.4 5.5 2.4v.1h-5.56v-5h5.56z" fill="#3aa6dd"/><path d="M1108 201.52l4.64 14.27h-9.28z" stroke="#3aa6dd" stroke-width="5" fill="#3aa6dd"/><path d="M1042.14 152.43H893.66" stroke="#ef8d22" stroke-width="5" fill="none"/><path d="M1058.9 152.43l-14.26 4.64v-9.27z" stroke="#ef8d22" stroke-width="5" fill="#ef8d22"/><path d="M893.72 154.93h-5.56v-1.18l3-1.32-3-1.3v-1.2h5.56z" fill="#ef8d22"/><path d="M1817.86 152.43h37.5v380H165v-380h35.14" stroke="#19967d" stroke-width="5" fill="none"/><path d="M1817.92 154.93h-2.56v-5h2.56z" fill="#19967d"/><path d="M216.9 152.43l-14.26 4.64v-9.27z" stroke="#19967d" stroke-width="5" fill="#19967d"/><path d="M46 86.72h90.43v58.32H46z" fill="#fff" fill-opacity="0"/><path d="M57.57 117.62l1.05-2.3c1.25-2.76 3.48-6.24 6.18-9.07 1.7-1.77 3.68-2.96 5.2-2.96 1.83 0 3.08 1.37 3.08 3.34 0 1.98-1.12 3.55-3.1 3.55-1.18 0-1.7-.73-2.3-1.72-.4-.65-.58-.92-1.04-.92-1.2 0-3.03 2.17-5.4 6.18-2.82 4.86-4 7.5-7.3 18.53h-4.98l5.32-19.2c.92-3.4 1.05-4 1.05-5.37 0-1.38-1.18-1.7-2.5-1.7-.52 0-1.05.05-2.03.18v-1.1l10.18-1.8.2.14M93.05 142.85l-.8 1.06c-10.37-5.9-16.02-17-16.02-28.2 0-12.14 5.72-21.6 16.23-27.85l.6 1.05c-9.14 7.82-11.18 13.93-11.18 26.62 0 12.22 1.97 19.65 11.17 27.33M114.48 104.15l-.33 2.1h-5.52l-5.72 21.56c-.05.27-.12.73-.12.93 0 .85.4 1.05 1 1.05 1.04 0 2.1-1.05 5.3-5.2l.86.47c-3.94 6.04-5.98 7.95-9.4 7.95-1.77 0-3.02-.8-3.02-2.43 0-.73.53-2.76 1.05-4.87l5.13-19.45h-4.93c-.06-.2-.06-.4-.06-.4 0-.72.6-1.3 2.17-1.64 2.1-.45 6.38-3.67 8.74-7.22.28-.4.67-.6.93-.6.4 0 .6.2.6.54 0 0 0 .33-.07.46l-1.84 6.77h5.26M116.38 88.9l.8-1.05c10.05 6.05 16.03 17.02 16.03 28.2 0 12.15-5.78 21.48-16.23 27.86l-.6-1.05c9.34-7.68 11.18-13.86 11.18-26.6 0-12.3-1.64-19.86-11.17-27.35"/><path d="M1164.76 105.16h86.48v39.88h-86.48z" fill="#fff" fill-opacity="0"/><path d="M1185.43 109.17c0 .95-.4 2.16-1.75 2.16-2.92 0-1.44-3.24-5.44-3.24-1.6 0-4.22.9-4.22 2.6 0 2.6 4.63 4.22 7.46 6.96 1.84 1.76 2.92 3.15 2.92 6.65 0 5.9-4.72 12.5-11.9 12.5-4.23 0-6.66-2.3-6.66-6.37 0-5.76 5.4-11.6 11.15-12.14-2.04-2.07-4.55-3.83-4.55-6.25 0-4.32 4.72-5.75 7.6-5.75 2.2 0 5.38.85 5.38 2.87m-4.67 15.2c0-3.92-1.48-5.13-3-5.13-3.92 0-8.14 6.33-8.14 12.53 0 2.47 1.4 4.1 3.5 4.1 4.13 0 7.64-7.96 7.64-11.5M1206.15 130.96l.63.4c-2.93 4.46-4.1 5.36-6.2 5.36-1.35 0-2.16-.77-2.16-2.16 0-1 .58-4 2.02-8.85-5.3 8.72-7.55 11.1-10.74 11.1-1.57 0-2.38-.7-2.38-2.38 0-.85.4-2.47 1.2-5.75l1.6-6.24c.35-1.5.6-2.65.6-3 0-.33-.2-.7-.48-.82-.4-.22-.54-.26-2.25-.26v-.63c2.55-.3 4.17-.62 6.73-1.2l.18.13-4 15.95c-.03.14-.12.54-.12.72 0 .68.22 1.12.9 1.12 1.53 0 3.6-2.38 6.38-6.6 2.1-3.2 2.74-4.9 4.94-10.92h3.33l-3.55 13.44c-.23.85-.86 2.96-.86 3.5 0 .5.18.76.5.76.72 0 1.43-.62 3.73-3.64M1221.6 143.55l-.54.7c-7.1-4.03-10.96-11.62-10.96-19.26 0-8.32 3.9-14.8 11.1-19.06l.4.72c-6.24 5.34-7.64 9.52-7.64 18.2 0 8.35 1.35 13.43 7.64 18.7M1236.2 117.08l-.22 1.44h-3.77l-3.9 14.74c-.05.18-.1.5-.1.63 0 .57.28.7.68.7.72 0 1.44-.7 3.64-3.55l.6.32c-2.7 4.13-4.1 5.44-6.44 5.44-1.2 0-2.07-.53-2.07-1.66 0-.5.37-1.88.73-3.32l3.5-13.3h-3.36c-.05-.14-.05-.27-.05-.27 0-.5.4-.9 1.5-1.12 1.42-.32 4.34-2.52 5.96-4.95.18-.27.45-.4.63-.4.28 0 .4.13.4.36 0 0 0 .22-.03.3l-1.26 4.64h3.6M1237.55 106.66l.54-.72c6.87 4.13 10.96 11.63 10.96 19.27 0 8.33-3.96 14.7-11.1 19.06l-.4-.7c6.37-5.27 7.63-9.5 7.63-18.2 0-8.4-1.13-13.58-7.65-18.7"/><path d="M1494 364.43h60v58.4h-60z" fill="#fff" fill-opacity="0"/><path d="M1553.96 365.86v2.08c-3.57.5-4.23.75-7.8 3.98l-17.93 16.52 13.03 27.63c.9 2 2.08 2.9 5.23 3.24v2.08h-23.25l.1-2.07 2.14-.32c2.23-.34 3.15-.75 3.15-1.9 0-1-.42-2.25-1.25-4.08l-9.2-19.58-5.57 20.66c-.08.42-.17.9-.17 1.4 0 2.75 1.08 3.5 5.4 3.83v2.08h-23.9v-2.07c3.73-.4 5.4-1.24 6.55-5.63l10.22-37.6c.67-2.32.9-3.82.9-4.8 0-1.84-.82-2.67-3.4-3l-2.73-.33v-2.08h25.8v2.08c-4.9.4-6.64 1.66-7.8 5.97l-5.14 18.85 16.35-14.52c4.9-4.32 6.4-6.47 6.4-8.05 0-1.24-.83-1.9-2.9-2.07l-1.75-.16v-2.08h17.5"/><path d="M1862 87.43h122.8v60.23H1862z" fill="#fff" fill-opacity="0"/><path d="M1892.23 93.3c0 1.38-.6 3.15-2.56 3.15-4.27 0-2.1-4.73-7.95-4.73-2.37 0-6.18 1.32-6.18 3.8 0 3.82 6.77 6.2 10.9 10.2 2.7 2.56 4.28 4.6 4.28 9.72 0 8.6-6.9 18.27-17.42 18.27-6.17 0-9.72-3.34-9.72-9.32 0-8.4 7.88-16.95 16.3-17.74-2.96-3.02-6.64-5.6-6.64-9.14 0-6.3 6.9-8.4 11.1-8.4 3.22 0 7.9 1.24 7.9 4.2m-6.84 22.2c0-5.7-2.17-7.48-4.4-7.48-5.73 0-11.9 9.27-11.9 18.33 0 3.62 2.03 5.98 5.12 5.98 6.05 0 11.18-11.63 11.18-16.82M1908.2 120.77l1.38 7.23c5.6-9.27 8.02-14 8.02-16.9 0-.9-.46-1.3-1.7-2.1-1.33-.85-1.72-1.5-1.72-2.56 0-1.44 1.12-2.43 2.63-2.43 1.98 0 3.43 1.65 3.43 3.62 0 3.75-3.16 10.98-8.6 20.05-6.85 11.3-13.88 18.86-17.63 18.86-1.97 0-3.35-1.12-3.35-2.83 0-1.44 1.12-2.63 2.57-2.63 2.3 0 2.3 1.84 4 1.84.86 0 1.65-.5 3.16-2.15 1.18-1.25 4.14-5.13 4.66-5.98.4-.8.66-1.58.66-2.3 0-2.63-3.6-17.35-5.4-21.82-1.24-3.22-2.42-4.2-5.05-4.2-.72 0-1.3.06-2.03.25v-1.1l2.1-.4c1.3-.27 3.48-.66 7.03-1.2h.26c1 0 4.48 10.92 5.6 16.77M1941.45 143.57l-.8 1.05c-10.37-5.9-16.02-17.02-16.02-28.2 0-12.15 5.72-21.6 16.23-27.85l.6 1.05c-9.14 7.82-11.18 13.93-11.18 26.6 0 12.24 1.97 19.66 11.17 27.35M1962.8 104.86l-.32 2.1h-5.52l-5.72 21.56c-.06.27-.13.73-.13.92 0 .86.4 1.05 1 1.05 1.05 0 2.1-1.06 5.32-5.2l.86.46c-3.95 6.05-5.98 7.95-9.4 7.95-1.78 0-3.02-.77-3.02-2.42 0-.72.52-2.76 1.05-4.86l5.13-19.45h-4.93c-.06-.2-.06-.4-.06-.4 0-.72.6-1.3 2.17-1.64 2.1-.46 6.38-3.68 8.75-7.23.26-.4.65-.6.92-.6.4 0 .6.2.6.54 0 0 0 .32-.08.46l-1.85 6.76h5.26M1964.78 89.62l.8-1.05c10.04 6.04 16.03 17.02 16.03 28.2 0 12.15-5.78 21.48-16.23 27.85l-.6-1.05c9.34-7.7 11.18-13.86 11.18-26.6 0-12.3-1.64-19.86-11.17-27.35"/><path d="M1600.16 328.37h123v58.32h-123z" fill="#fff" fill-opacity="0"/><path d="M1630.4 334.23c0 1.38-.6 3.16-2.57 3.16-4.27 0-2.1-4.74-7.95-4.74-2.37 0-6.18 1.3-6.18 3.8 0 3.82 6.77 6.18 10.9 10.2 2.7 2.56 4.28 4.6 4.28 9.72 0 8.6-6.9 18.27-17.4 18.27-6.2 0-9.74-3.35-9.74-9.33 0-8.42 7.9-16.96 16.3-17.75-2.96-3.02-6.64-5.58-6.64-9.13 0-6.3 6.9-8.4 11.1-8.4 3.23 0 7.9 1.24 7.9 4.2m-6.84 22.2c0-5.7-2.17-7.5-4.4-7.5-5.72 0-11.9 9.28-11.9 18.35 0 3.6 2.04 5.97 5.13 5.97 6.03 0 11.16-11.63 11.16-16.83M1646.36 350.6l.8 3.74c4.6-7.03 7.02-9.4 9.9-9.4 1.6 0 2.7 1 2.7 2.44 0 1.38-.9 2.36-2.23 2.36-1.24 0-1.84-1.12-3.4-1.12-1.2 0-3.56 2.9-6.45 7.96 0 .46.13 1.38.52 2.95l2.1 8.8c.47 1.85 1.06 2.7 1.98 2.7.85 0 1.57-.65 3.1-2.62.58-.78.84-1.18 1.37-1.83l.98.6c-3.8 5.9-5.52 7.48-8.02 7.48-2.1 0-3.07-1.18-3.86-4.47l-1.9-7.82-5.8 7.82c-2.88 3.88-4.2 4.47-6.24 4.47-2.03 0-3.28-1.05-3.28-2.76 0-1.33.92-2.38 2.23-2.38.6 0 1.25.27 2.1.73.66.4 1.32.6 1.72.6.72 0 1.97-1.26 3.35-3.23l5.4-7.63-1.85-8.16c-.92-3.94-1.38-4.46-3.03-4.46-.52 0-1.3.13-2.56.46l-1.18.32-.2-1.05.72-.25c4-1.45 6.18-1.9 7.7-1.9 1.63 0 2.42 1.18 3.34 5.65M1679.8 384.5l-.78 1.06c-10.38-5.92-16.03-17.02-16.03-28.2 0-12.15 5.7-21.62 16.22-27.86l.6 1.05c-9.14 7.82-11.18 13.93-11.18 26.62 0 12.22 1.97 19.65 11.17 27.34M1701.17 345.8l-.33 2.1h-5.52l-5.72 21.56c-.06.26-.13.72-.13.92 0 .85.4 1.05 1 1.05 1.04 0 2.1-1.05 5.3-5.2l.87.47c-3.95 6.04-5.98 7.95-9.4 7.95-1.78 0-3.02-.8-3.02-2.43 0-.73.52-2.76 1.05-4.87l5.12-19.45h-4.94c-.06-.2-.06-.4-.06-.4 0-.72.6-1.3 2.17-1.64 2.1-.46 6.37-3.68 8.74-7.22.27-.4.66-.6.93-.6.4 0 .6.2.6.53 0 0 0 .33-.08.46l-1.84 6.77h5.27M1703.14 330.55l.8-1.05c10.05 6.05 16.03 17.02 16.03 28.2 0 12.15-5.8 21.48-16.24 27.86l-.6-1.05c9.34-7.68 11.18-13.86 11.18-26.6 0-12.3-1.63-19.86-11.16-27.35"/><path d="M1188 328.37h170.5v58.32H1188z" fill="#fff" fill-opacity="0"/><path d="M1235.48 329.96v1.64c-2.83.4-3.35.6-6.18 3.16l-14.2 13.08 10.33 21.88c.72 1.58 1.64 2.3 4.14 2.56v1.65h-18.4l.06-1.65 1.7-.26c1.78-.26 2.5-.6 2.5-1.5 0-.8-.32-1.8-.98-3.23l-7.3-15.52-4.4 16.36c-.06.33-.13.73-.13 1.12 0 2.17.86 2.76 4.27 3.02v1.65h-18.93v-1.65c2.95-.33 4.27-.98 5.2-4.47l8.07-29.76c.53-1.84.72-3.02.72-3.8 0-1.45-.65-2.1-2.7-2.37l-2.16-.27v-1.64h20.44v1.64c-3.88.33-5.26 1.32-6.18 4.74l-4.07 14.9 12.93-11.5c3.88-3.4 5.06-5.1 5.06-6.36 0-1-.66-1.5-2.3-1.64l-1.4-.14v-1.64h13.88M1265.7 334.23c0 1.38-.58 3.16-2.55 3.16-4.27 0-2.1-4.74-7.95-4.74-2.37 0-6.18 1.3-6.18 3.8 0 3.82 6.77 6.18 10.9 10.2 2.7 2.56 4.28 4.6 4.28 9.72 0 8.6-6.9 18.27-17.42 18.27-6.17 0-9.72-3.35-9.72-9.33 0-8.42 7.88-16.96 16.3-17.75-2.96-3.02-6.64-5.58-6.64-9.13 0-6.3 6.9-8.4 11.1-8.4 3.22 0 7.9 1.24 7.9 4.2m-6.84 22.2c0-5.7-2.17-7.5-4.4-7.5-5.72 0-11.9 9.28-11.9 18.35 0 3.6 2.04 5.97 5.12 5.97 6.05 0 11.18-11.63 11.18-16.83M1281.75 350.6l.78 3.74c4.6-7.03 7.04-9.4 9.93-9.4 1.57 0 2.7 1 2.7 2.44 0 1.38-.93 2.36-2.24 2.36-1.25 0-1.84-1.12-3.42-1.12-1.18 0-3.55 2.9-6.44 7.96 0 .46.13 1.38.53 2.95l2.1 8.8c.45 1.85 1.04 2.7 1.96 2.7.85 0 1.58-.65 3.1-2.62.58-.78.84-1.18 1.37-1.83l.98.6c-3.8 5.9-5.5 7.48-8 7.48-2.1 0-3.1-1.18-3.88-4.47l-1.9-7.82-5.8 7.82c-2.88 3.88-4.2 4.47-6.23 4.47-2.05 0-3.3-1.05-3.3-2.76 0-1.33.92-2.38 2.24-2.38.6 0 1.24.27 2.1.73.66.4 1.3.6 1.7.6.73 0 1.98-1.26 3.36-3.23l5.4-7.63-1.85-8.16c-.92-3.94-1.38-4.46-3.02-4.46-.53 0-1.32.13-2.57.46l-1.18.32-.2-1.05.73-.25c4-1.45 6.18-1.9 7.7-1.9 1.64 0 2.43 1.18 3.35 5.65M1315.13 384.5l-.8 1.06c-10.37-5.92-16.02-17.02-16.02-28.2 0-12.15 5.72-21.62 16.24-27.86l.6 1.05c-9.14 7.82-11.18 13.93-11.18 26.62 0 12.22 1.97 19.65 11.17 27.34M1336.55 345.8l-.32 2.1h-5.53l-5.7 21.56c-.08.26-.14.72-.14.92 0 .85.4 1.05.98 1.05 1.05 0 2.1-1.05 5.32-5.2l.86.47c-3.94 6.04-5.98 7.95-9.4 7.95-1.77 0-3.02-.8-3.02-2.43 0-.73.52-2.76 1.05-4.87l5.13-19.45h-4.93c-.07-.2-.07-.4-.07-.4 0-.72.6-1.3 2.17-1.64 2.1-.46 6.37-3.68 8.74-7.22.25-.4.65-.6.9-.6.4 0 .6.2.6.53 0 0 0 .33-.06.46l-1.84 6.77h5.25M1338.46 330.55l.8-1.05c10.04 6.05 16.02 17.02 16.02 28.2 0 12.15-5.78 21.48-16.23 27.86l-.6-1.05c9.34-7.68 11.18-13.86 11.18-26.6 0-12.3-1.64-19.86-11.17-27.35"/><path d="M1089.73 176.33h34.54v16.1h-34.54z" fill="#fff" fill-opacity="0"/><path d="M1121.02 180.53h-28.07v-3.33h28.07v3.33"/><path d="M1070 136.43h34.54v31.37H1070z" fill="#fff" fill-opacity="0"/><path d="M1102.05 153.78h-13.15v13.15h-3.33v-13.15h-13.15v-3.33h13.15V137.3h3.33v13.15h13.15v3.33"/><path d="M706 232.43v-160l182.67 80z" stroke="#000" stroke-width="2" fill="#ffc374"/><path d="M731 112.43h74.62v72.62H731z" fill="#fff" fill-opacity="0"/><path d="M769.26 135.03v1.32c-3.9.25-6.48 1.9-18.67 12.78l3.06 7.3c3.23 7.64 5.14 10.7 6.72 10.7 1.24 0 2.24-.9 3.73-3.47.43-.67.84-1.4 1.26-2.16l1.24.9c-3.82 6.98-5.9 9.06-9.2 9.06-2.42 0-4.08-1.58-6.73-6.8-1.5-2.9-3.65-8.06-4.98-11.7l-3.33 2.65-3.98 14.95h-6.24l11.7-43.82c1.08-4 1.33-5.9 1.5-7.3-.17-1.5-1.4-2-4.24-2h-1.5v-1.32c4.9-.58 8.14-1.16 13.04-2.24l.5.5-9.96 37.84 3.57-2.73c7.8-5.98 11.86-9.96 11.86-11.62 0-.9-1-1.5-3.07-1.5h-1.16v-1.32h14.86M795.02 176.53l.76.65c-4.4 5.34-5.8 6.45-8.15 6.45-1.65 0-2.35-.7-2.35-2.4 0-1.47.12-1.94 1.35-6.75-4.4 6.63-7.8 9.2-11.9 9.2-3.3 0-5.88-2.34-5.88-6.8 0-9.1 8.98-19.7 16.78-19.7 2.53 0 4.23 1.22 4.7 3.4l.64-2.83.18-.17 3.58-.4.4.16c-.1.53-.17.65-.34 1.23-2.77 10.04-5.24 20.13-5.24 21.3 0 .42.36.77.83.77.5 0 1.28-.47 3.04-2.4m-4.17-16.38c0-2.05-1.23-3.4-3.3-3.4-2.63 0-5.2 1.82-7.67 5.4-2.47 3.7-4.52 8.92-4.52 12.6 0 3.24 1.4 4.35 3.52 4.35 2.93 0 5.7-3.2 7.45-5.74 2.76-4 4.52-9.03 4.52-13.2"/><path d="M426 92.43h135.33v120H426z" stroke="#000" stroke-width="2" fill="#f5b5c8"/><path d="M466 107.56h46.05v84.87H466z" fill="#fff" fill-opacity="0"/><path d="M480.7 177.07l13.1-52.57c1.44-5.76 4.9-15.7 13.54-15.7 2.88 0 4.68 1.52 4.68 3.25 0 2.37-1.73 4.24-3.75 4.24-1.08 0-2.23-.5-2.23-1.73 0-1.88 1.3-2.3 1.3-2.96 0-.35-.3-.56-.8-.56-3.6 0-5.4 5.18-7.27 12.74l-13.18 52.86c-1.45 5.84-5.05 14.55-13.1 14.55-2.9 0-4.7-1.52-4.7-3.25 0-2.38 1.73-4.25 3.75-4.25 1.08 0 2.23.65 2.23 1.87 0 2.1-1.3 2.02-1.3 2.8 0 .37.3.6.8.6 3.38 0 5.1-4.62 6.9-11.9"/><path d="M680.14 152.43H564.83" stroke="#de5f85" stroke-width="5" fill="none"/><path d="M696.9 152.43l-14.26 4.64v-9.27z" stroke="#de5f85" stroke-width="5" fill="#de5f85"/><path d="M564.9 154.93h-2.57v-5h2.57z" fill="#de5f85"/><path d="M1090 117.43h34.54v31.37H1090z" fill="#fff" fill-opacity="0"/><path d="M1122.05 134.78h-13.15v13.15h-3.33v-13.15h-13.15v-3.33h13.15V118.3h3.33v13.15h13.15v3.33"/><path d="M1108 86.58V34.93" stroke="#666" stroke-width="5" fill="none"/><path d="M1108 103.34l-4.64-14.26h9.28z" stroke="#666" stroke-width="5" fill="#666"/><path d="M1108 35v-2.57" stroke="#666" stroke-width="5" fill="none"/><path d="M1120.9 20h107.18v58.33H1120.9z" fill="#fff" fill-opacity="0"/><path d="M1147.38 37.56l2.1 23.14c8.6-10.78 10.85-14.26 10.85-17.1 0-.78-.4-1.3-1.45-2.3-1.05-.98-1.38-1.77-1.38-2.7 0-1.04 1.12-2.02 2.56-2.02 1.98 0 3.42 1.57 3.42 3.68 0 4.2-4.86 11.9-13.93 22.93l-.6.72c-1.77 2.16-2.36 2.82-2.95 2.82-.46 0-.6-.6-.72-2.3l-1.9-20.37-5.86 10c-1.18 1.96-2.36 4.13-3.6 6.5-2.38 4.53-3.5 6.17-4.22 6.17-.6 0-.72-.52-.85-3.1l-.26-5.97c-.28-5.7-1-12.75-1.8-15.9-.58-2.43-1.17-2.76-3.08-2.76h-1.84v-.85c2.04-.32 4.27-.6 6.25-1.1.85-.2 1.44-.47 1.9-.47.73 0 .8.13 1.25 2.23.92 4.48 1.84 12.7 2.1 18.48L1146 37.3c.33-.53.53-.66.86-.66.4 0 .52.2.52.92M1184.7 76.14l-.78 1.05c-10.38-5.92-16.03-17.03-16.03-28.2 0-12.16 5.7-21.62 16.22-27.87l.6 1.06c-9.15 7.8-11.18 13.92-11.18 26.6 0 12.22 1.97 19.65 11.17 27.34M1206.13 37.43l-.33 2.1h-5.52l-5.7 21.56c-.08.25-.15.7-.15.9 0 .86.4 1.06 1 1.06 1.04 0 2.1-1.05 5.3-5.2l.87.47c-3.94 6.05-5.98 7.95-9.4 7.95-1.77 0-3.02-.8-3.02-2.43 0-.72.52-2.76 1.05-4.86l5.13-19.47h-4.93c-.07-.2-.07-.4-.07-.4 0-.7.6-1.3 2.17-1.63 2.1-.46 6.37-3.68 8.74-7.23.26-.4.66-.6.92-.6.38 0 .58.2.58.53 0 0 0 .33-.06.46l-1.84 6.77h5.25M1208.04 22.2l.8-1.07c10.04 6.05 16.02 17.02 16.02 28.2 0 12.15-5.78 21.5-16.23 27.86l-.6-1.06c9.34-7.7 11.18-13.87 11.18-26.62 0-12.3-1.63-19.84-11.16-27.33"/><path d="M306 152.43c0 22.1-17.9 40-40 40s-40-17.9-40-40 17.9-40 40-40 40 17.9 40 40z" stroke="#000" stroke-width="2" fill="#a3d977"/><path d="M247.73 176.33h34.54v16.1h-34.54z" fill="#fff" fill-opacity="0"/><path d="M279.02 180.53h-28.07v-3.33h28.07v3.33"/><path d="M228 136.43h34.54v31.37H228z" fill="#fff" fill-opacity="0"/><path d="M260.05 153.78H246.9v13.15h-3.33v-13.15h-13.15v-3.33h13.15V137.3h3.33v13.15h13.15v3.33"/><path d="M309.5 152.43h90.64" stroke="#7ab648" stroke-width="5" fill="none"/><path d="M309.56 154.93h-2.7l.14-2.48-.1-2.52h2.66z" fill="#7ab648"/><path d="M416.9 152.43l-14.26 4.64v-9.27z" stroke="#7ab648" stroke-width="5" fill="#7ab648"/><path d="M1851.3 152.43h129.84M1851.36 152.43h-2.57" stroke="#19967d" stroke-width="5" fill="none"/><path d="M1997.9 152.43l-14.26 4.64v-9.27z" stroke="#19967d" stroke-width="5" fill="#19967d"/><path d="M28.5 152.43h145.34M28.56 152.43H26M173.78 152.43h2.56" stroke="#19967d" stroke-width="5" fill="none"/><path d="M309.74 86.72h92.52v58.32h-92.52z" fill="#fff" fill-opacity="0"/><path d="M333.26 125.1l.8.8c-3.76 4.6-7.96 7.1-13.42 7.1-5.32 0-8.87-3.55-8.87-9 0-10.2 9.8-20.7 19.65-20.7 3.48 0 5.4 1.7 5.4 4.46 0 5.65-6.9 10.78-18.67 12.3-.66 1.3-.66 3-.66 4 0 3.6 2.42 5.98 6.1 5.98 2.9 0 4.93-1.05 9.66-4.93m-13.54-9.4l-1.1 2.9c5.64-1.38 8.14-2.56 10.57-4.86 2.02-1.97 3.27-4.34 3.27-6.37 0-1.58-.46-2.57-2.3-2.57-3.74 0-8.2 5.06-10.45 10.9M327.6 93.9c0 1.9-1.5 3.22-3.28 3.22-1.77 0-3.22-1.45-3.22-3.22 0-1.78 1.25-3.3 3.22-3.3 2.04 0 3.3 1.46 3.3 3.3M358.9 142.85l-.8 1.06c-10.38-5.9-16.03-17-16.03-28.2 0-12.14 5.72-21.6 16.23-27.85l.6 1.05c-9.14 7.82-11.18 13.93-11.18 26.62 0 12.22 1.97 19.65 11.17 27.33M380.32 104.15l-.33 2.1h-5.53l-5.72 21.56c-.07.27-.13.73-.13.93 0 .85.4 1.05.98 1.05 1.05 0 2.1-1.05 5.33-5.2l.85.47c-3.94 6.04-5.98 7.95-9.4 7.95-1.77 0-3.02-.8-3.02-2.43 0-.73.53-2.76 1.05-4.87l5.14-19.45h-4.93c-.06-.2-.06-.4-.06-.4 0-.72.6-1.3 2.17-1.64 2.1-.45 6.4-3.67 8.75-7.22.27-.4.66-.6.92-.6.4 0 .6.2.6.54 0 0 0 .33-.07.46l-1.84 6.77h5.26M382.22 88.9l.8-1.05c10.04 6.05 16.02 17.02 16.02 28.2 0 12.15-5.78 21.48-16.23 27.86l-.58-1.05c9.33-7.68 11.17-13.86 11.17-26.6 0-12.3-1.65-19.86-11.18-27.35"/><path d="M583 89.43h92.53v58.33H583z" fill="#fff" fill-opacity="0"/><path d="M606.53 127.83l.8.8c-3.76 4.6-7.97 7.08-13.42 7.08-5.3 0-8.86-3.53-8.86-9 0-10.18 9.8-20.7 19.65-20.7 3.47 0 5.38 1.72 5.38 4.48 0 5.65-6.9 10.78-18.67 12.3-.65 1.3-.65 3-.65 4 0 3.6 2.44 5.98 6.12 5.98 2.9 0 4.93-1.05 9.66-4.93m-13.54-9.4l-1.13 2.9c5.65-1.4 8.15-2.57 10.58-4.87 2.04-1.97 3.3-4.34 3.3-6.38 0-1.57-.47-2.56-2.3-2.56-3.76 0-8.23 5.06-10.46 10.9M632.16 145.57l-.8 1.05c-10.38-5.9-16.03-17.02-16.03-28.2 0-12.15 5.72-21.6 16.23-27.85l.6 1.05c-9.14 7.82-11.18 13.93-11.18 26.6 0 12.24 1.98 19.66 11.18 27.35M653.58 106.86l-.33 2.1h-5.52L642 130.53c-.05.27-.12.73-.12.92 0 .86.4 1.05 1 1.05 1.04 0 2.1-1.06 5.3-5.2l.87.46c-3.95 6.05-5.98 7.95-9.4 7.95-1.78 0-3.02-.77-3.02-2.42 0-.72.52-2.76 1.05-4.86l5.12-19.45h-4.93c-.06-.2-.06-.4-.06-.4 0-.72.6-1.3 2.18-1.64 2.1-.46 6.37-3.68 8.74-7.23.26-.4.65-.6.92-.6.4 0 .6.2.6.54 0 0 0 .32-.08.46l-1.84 6.76h5.26M655.5 91.62l.77-1.05c10.06 6.04 16.04 17.02 16.04 28.2 0 12.15-5.77 21.48-16.22 27.85l-.6-1.05c9.34-7.7 11.18-13.86 11.18-26.6 0-12.3-1.64-19.86-11.17-27.35"/><path d="M890 89.43h151.62v58.8H890z" fill="#fff" fill-opacity="0"/><path d="M920.3 107.32v1.06c-3.1.2-5.13 1.5-14.8 10.12l2.44 5.78c2.56 6.05 4.08 8.48 5.32 8.48 1 0 1.78-.73 2.96-2.76.33-.53.66-1.12 1-1.7l.97.7c-3.03 5.53-4.67 7.17-7.3 7.17-1.9 0-3.22-1.24-5.33-5.38-1.18-2.3-2.9-6.4-3.94-9.28l-2.63 2.1-3.15 11.83h-4.93l9.27-34.7c.84-3.15 1.04-4.66 1.17-5.78-.13-1.18-1.12-1.58-3.35-1.58h-1.2v-1.06c3.9-.46 6.45-.92 10.33-1.77l.4.4-7.9 29.96 2.84-2.17c6.16-4.73 9.38-7.9 9.38-9.2 0-.72-.78-1.18-2.43-1.18h-.92v-1.06h11.77M940.7 140.2l.6.5c-3.48 4.23-4.6 5.1-6.46 5.1-1.3 0-1.86-.54-1.86-1.9 0-1.15.1-1.52 1.07-5.34-3.48 5.26-6.18 7.3-9.43 7.3-2.6 0-4.65-1.86-4.65-5.4 0-7.2 7.1-15.6 13.3-15.6 2 0 3.34.97 3.7 2.7l.52-2.24.13-.14 2.84-.32.32.14c-.1.4-.15.5-.3.97-2.17 7.95-4.12 15.94-4.12 16.87 0 .33.27.6.65.6.4 0 1.02-.37 2.4-1.9m-3.3-12.97c0-1.62-.96-2.7-2.6-2.7-2.08 0-4.12 1.45-6.08 4.28-1.95 2.93-3.57 7.07-3.57 10 0 2.55 1.1 3.43 2.78 3.43 2.33 0 4.5-2.55 5.9-4.55 2.2-3.16 3.58-7.16 3.58-10.46M972.6 128.3l.8.78c-3.75 4.6-7.96 7.1-13.4 7.1-5.33 0-8.88-3.55-8.88-9 0-10.2 9.8-20.7 19.65-20.7 3.48 0 5.4 1.7 5.4 4.46 0 5.65-6.92 10.78-18.68 12.3-.67 1.3-.67 3-.67 4 0 3.6 2.44 5.98 6.12 5.98 2.9 0 4.92-1.05 9.66-4.93m-13.53-9.4l-1.12 2.88c5.65-1.38 8.15-2.56 10.58-4.86 2.04-1.97 3.3-4.34 3.3-6.38 0-1.57-.47-2.56-2.3-2.56-3.76 0-8.23 5.06-10.46 10.9M998.24 146.03l-.8 1.05c-10.38-5.9-16.03-17.02-16.03-28.2 0-12.15 5.73-21.6 16.24-27.85l.6 1.05c-9.14 7.82-11.18 13.93-11.18 26.6 0 12.24 1.98 19.66 11.18 27.35M1019.66 107.32l-.33 2.1h-5.52l-5.7 21.56c-.07.27-.14.73-.14.92 0 .86.4 1.05 1 1.05 1.04 0 2.1-1.05 5.3-5.2l.87.47c-3.95 6.05-5.98 7.95-9.4 7.95-1.78 0-3.03-.78-3.03-2.43 0-.72.53-2.76 1.06-4.86l5.12-19.45h-4.93c-.06-.2-.06-.4-.06-.4 0-.72.58-1.3 2.16-1.64 2.1-.47 6.37-3.7 8.74-7.24.26-.4.65-.6.92-.6.4 0 .6.2.6.54 0 0 0 .32-.08.46l-1.84 6.76h5.26M1021.57 92.08l.78-1.05c10.06 6.04 16.04 17.02 16.04 28.2 0 12.15-5.8 21.48-16.24 27.85l-.6-1.05c9.34-7.7 11.18-13.86 11.18-26.6 0-12.3-1.65-19.86-11.17-27.35"/></g></svg>