<svg xmlns="http://www.w3.org/2000/svg" xmlns:lucid="lucid" width="1189" height="787"><g lucid:page-tab-id="0_0"><path d="M1027.47 377.84c0 511.32-414.5 925.83-925.83 925.83-511.33 0-925.84-414.5-925.84-925.83C-824.2-133.5-409.7-548 101.64-548c511.32 0 925.83 414.5 925.83 925.84z" fill-opacity="0"/><path d="M1026.6 418.23l-2.4 38.13-.24 2.18m-2.1 20.1l-1.74 16.42-3.48 23.62m-3.18 19.95l-6.23 32.66-1.63 6.95m-4.6 19.67l-2.56 10.87-7.87 28.14m-5.87 19.33l-8.5 26.17-4.5 12.07m-7.03 18.95l-1.9 5.07-13.55 32.25m-8.46 18.34l-9.35 19.87-8.54 16.35m-9.36 17.9l-19.37 33.56-.9 1.4m-10.8 17.05l-9.1 14.3-13.38 19.27m-11.7 16.46l-20.64 27.22-3.97 4.8m-12.87 15.57l-8 9.66-18.64 20.7m-13.8 14.76l-20.96 21.42-7.6 7.14m-14.73 13.82l-6.12 5.74L696.7 1087m-15.64 12.77l-20.18 16-11.86 8.6m-16.34 11.88l-3.27 2.38-30.3 20.12m-17.22 10.55l-18 10.9-16.96 9.33m-17.7 9.7l-33.86 16.8-2.4 1.06m-18.44 8.2l-14.4 6.4-22.9 9.1m-18.88 7.17l-30.36 10.57-7.9 2.4m-19.34 5.83l-9.6 2.9-29.42 7.55m-19.68 4.53l-25.9 5.5-13.73 2.32m-19.9 3.37l-4.47.76-35.6 4.5m-20.1 1.8l-21.68 1.82-18.63.78m-20.18.85l-.45.02-19.76.2h-.02l-20.18-.42m-20.2-.46l-38.13-2.4-2.17-.24m-20.08-2.1l-16.43-1.74-23.63-3.48m-19.95-3.18l-32.66-6.23-6.98-1.63m-19.66-4.6l-10.87-2.56-28.17-7.86m-19.32-5.88l-26.17-8.5-12.07-4.5m-18.93-7.03l-5.08-1.9-32.25-13.55m-18.34-8.46l-19.85-9.35-16.35-8.54m-17.9-9.36l-33.55-19.37-1.4-.9m-17.05-10.8l-14.32-9.1-19.25-13.38m-16.47-11.7l-27.2-20.64-4.8-3.97m-15.57-12.87l-9.67-8-20.7-18.64m-14.75-13.8l-21.4-20.96-7.14-7.6m-13.83-14.73l-5.74-6.1-20.93-24.25m-12.77-15.64l-16-20.17-8.6-11.87m-11.88-16.34l-2.38-3.27-20.1-30.3m-10.57-17.2l-10.9-18.03-9.32-16.95m-9.7-17.7l-16.8-33.86-1.07-2.4m-8.2-18.44l-6.42-14.4-9.07-22.9m-7.2-18.88l-10.57-30.36-2.4-7.9m-5.82-19.34l-2.9-9.6-7.55-29.42m-4.53-19.68l-5.5-25.9-2.32-13.73m-3.37-19.9l-.75-4.47-4.5-35.6m-1.8-20.1l-1.83-21.68-.78-18.63m-.85-20.18v-.45l-.22-19.76v-.02l.42-20.18m.46-20.2l2.4-38.13.23-2.17m2.12-20.08l1.73-16.43 3.5-23.63m3.16-19.95l6.24-32.66 1.63-6.98m4.62-19.66l2.54-10.87 7.86-28.17m5.87-19.32l8.5-26.17 4.5-12.07m7.04-18.93l1.9-5.08 13.55-32.25m8.47-18.34l9.34-19.85 8.55-16.35m9.37-17.9l19.37-33.55.9-1.4m10.8-17.05l9.1-14.32 13.38-19.25m11.7-16.47l20.65-27.2 3.97-4.8m12.88-15.57l8-9.66 18.63-20.7m13.8-14.76l20.97-21.4 7.6-7.14m14.73-13.83l6.1-5.74 24.24-20.93m15.64-12.77l20.17-16 11.87-8.6m16.34-11.88l3.28-2.37 30.3-20.12m17.2-10.56l18.02-10.9 16.95-9.32m17.72-9.7l33.85-16.8 2.38-1.07m18.46-8.2l14.4-6.42 22.9-9.07m18.88-7.2l30.36-10.57 7.9-2.4m19.34-5.82l9.6-2.9 29.4-7.54m19.7-4.53l25.88-5.5 13.74-2.33m19.92-3.37l4.46-.75 35.6-4.5m20.1-1.8l21.7-1.83 18.62-.78m20.18-.84l.44-.02 19.76-.2 20.2.42m20.2.46l38.12 2.4 2.18.23m20.1 2.12l16.42 1.73 23.62 3.5m19.95 3.16l32.66 6.24 6.95 1.63m19.67 4.62l10.87 2.54 28.14 7.86m19.33 5.87l26.17 8.5 12.07 4.5m18.94 7.04l5.08 1.9 32.25 13.55m18.34 8.47l19.87 9.34 16.35 8.55m17.9 9.37l33.56 19.37 1.4.9m17.05 10.8l14.3 9.1 19.26 13.38m16.46 11.7l27.22 20.65 4.8 3.97m15.57 12.88l9.66 8 20.7 18.63m14.76 13.8l21.42 20.97 7.14 7.6m13.82 14.73l5.74 6.1 20.92 24.24m12.77 15.64l16 20.17 8.6 11.87m11.88 16.34l2.38 3.28 20.12 30.3m10.55 17.2L904-84.4l9.33 16.95m9.7 17.72l16.8 33.85 1.06 2.38m8.2 18.46l6.4 14.4 9.1 22.9m7.17 18.88l10.57 30.36 2.4 7.9m5.83 19.34l2.9 9.6 7.55 29.4m4.53 19.7l5.5 25.9 2.32 13.72m3.37 19.92l.76 4.46 4.5 35.6m1.8 20.1l1.82 21.7.78 18.62m.85 20.18l.02.44.2 19.76-.42 20.2" stroke="#0c7cba" stroke-width="4" fill="none"/><path d="M1143.9 724.2c0 140.54-113.92 254.46-254.45 254.46C748.92 978.66 635 864.74 635 724.2c0-140.52 113.92-254.44 254.45-254.44 140.53 0 254.45 113.92 254.45 254.45z" fill-opacity="0"/><path d="M1141.03 762.13l-.7 4.82-2 10.42-2.4 10.3-2.86 10.2-.44 1.35m-6.27 17.97l-.24.64-4.1 9.76-4.52 9.6-4.93 9.42-2.77 4.8m-10.13 16.1l-4.23 6.1-6.47 8.52-6.83 8.25-6.2 6.86m-13.46 13.44l-2.84 2.66-8.1 7-8.4 6.65-8.65 6.3-1.73 1.14m-16.08 10.16l-.22.12-9.32 5.13-9.5 4.72-9.7 4.3-5.55 2.2m-17.95 6.3l-6.43 1.94-10.25 2.64-10.36 2.2-10.02 1.7m-18.92 2.07l-2.8.25-10.78.45-5.43.06-10.85-.23-8.17-.5m-18.9-2.14l-4.83-.72-10.42-2-10.3-2.4-10.2-2.85-1.34-.44m-17.97-6.28l-.65-.24-9.77-4.1-9.6-4.52-9.4-4.93-4.8-2.77m-16.12-10.13l-6.1-4.23-8.5-6.47-8.26-6.83-6.87-6.2m-13.44-13.46l-2.66-2.84-7-8.1-6.66-8.4-6.28-8.65-1.14-1.72m-10.17-16.08l-.12-.2-5.12-9.33-4.7-9.5-4.32-9.7-2.2-5.55m-6.3-17.96l-1.93-6.42-2.63-10.25-2.2-10.36-1.7-10.03m-2.08-18.92l-.23-2.8-.44-10.78-.06-5.43.23-10.84.5-8.17m2.13-18.92l.7-4.82 2-10.42 2.42-10.3 2.84-10.2.44-1.34m6.28-17.97l.24-.65 4.1-9.77 4.52-9.58 4.92-9.42 2.78-4.8m10.13-16.1l4.23-6.1 6.47-8.52 6.83-8.25 6.18-6.87m13.48-13.44l2.83-2.66 8.1-7 8.4-6.66 8.66-6.28 1.72-1.14m16.1-10.17l.2-.1 9.3-5.13 9.52-4.72 9.68-4.3 5.56-2.2m17.96-6.3l6.44-1.94 10.24-2.62 10.37-2.2 10.02-1.7m18.9-2.08l2.8-.23 10.8-.45 5.43-.06 10.84.23 8.16.5m18.9 2.12l4.83.7 10.4 2 10.32 2.42 10.2 2.84 1.34.44m17.97 6.28l.65.24 9.76 4.1 9.6 4.52 9.42 4.92 4.8 2.78m16.1 10.13l6.1 4.22 8.52 6.47 8.25 6.82 6.87 6.18m13.44 13.48l2.66 2.83 7 8.12 6.65 8.4 6.3 8.65 1.13 1.7m10.16 16.1l.12.2 5.13 9.32 4.7 9.5 4.32 9.68 2.2 5.56m6.3 17.96l1.93 6.44 2.63 10.24 2.2 10.37 1.7 10.03m2.07 18.9l.24 2.8.44 10.8.06 5.43-.23 10.85-.5 8.17" stroke="#c92d39" stroke-width="4" fill="none"/><path d="M983.6 486.44L865.3 690.77c-10.9 18.8-4.6 42.8 14.05 53.6 18.66 10.8 42.6 4.32 53.5-14.5l118.3-204.32c10.88-18.8 4.6-42.8-14.07-53.6-18.65-10.8-42.6-4.32-53.5 14.5z" stroke="#000" stroke-width="2" fill="#285256"/><path d="M946.7 297.7l34.76 211.78c3.2 19.5 23.46 32.4 45.26 28.82 21.8-3.58 36.88-22.28 33.68-41.78l-34.77-211.77c-3.2-19.5-23.46-32.4-45.26-28.8-21.8 3.57-36.88 22.27-33.68 41.76z" stroke="#000" stroke-width="2" fill="#285256"/><path d="M1028.43 506.5c0 4-3.25 7.26-7.26 7.26-4.02 0-7.27-3.25-7.27-7.27s3.25-7.28 7.27-7.28c4 0 7.26 3.26 7.26 7.27z" stroke="#000" stroke-width="2" fill="#ef8d22"/><path d="M82 368.8l932.94-152.58 12.67 77.5L94.7 446.33z" stroke="#000" stroke-width="2" fill="#285256"/><path d="M901.43 721.5c0 4-3.25 7.26-7.26 7.26-4.02 0-7.27-3.25-7.27-7.27s3.25-7.28 7.27-7.28c4 0 7.26 3.26 7.26 7.27z" stroke="#000" stroke-width="2" fill="#ef8d22"/><path d="M933.85 729.88h115.45" fill="none"/><path d="M933.85 729.88h4.12m8.25 0h8.24m8.25 0h8.26m8.24 0h8.25m8.24 0h8.24m8.25 0h8.23m8.25 0h8.25m8.24 0h4.13" stroke="#000" stroke-width="2" fill="none"/><path d="M933.87 730.88h-.46l.3-.5.17-.27z"/><path d="M1049.27 729.88h1.03" stroke="#000" stroke-width="2" fill="none"/><path d="M976.96 656.22h45.47v66.54h-45.47z" fill="#fff" fill-opacity="0"/><path d="M1022.4 673.17c0 14.9-5.53 28.14-12.33 37.24-5.98 7.92-12.42 10.77-18.86 10.77-7.44 0-11.76-6.07-11.76-15.82 0-19.77 10.4-36.05 20.42-43.68 4.04-3.03 7.54-3.86 11.22-3.86 6.53 0 11.3 4.42 11.3 15.37m-31.9 15.08h21.42c1.57-5.33 2.76-11.96 2.76-18.85 0-5.9-1.65-9.66-4.87-9.66-8 0-17.02 20.32-19.32 28.5m20.78 2.95h-21.43c-1.74 4.6-2.66 9.37-2.66 15.17 0 8.18 1.74 12.87 5.15 12.87 8.82 0 16.73-19.04 18.94-28.05"/><path d="M96 448h378.6" fill="none"/><path d="M96 448h3.94m7.9 0h7.88m7.9 0h7.87m7.88 0h7.9m7.88 0h7.88m7.9 0h7.88m7.9 0h7.87m7.88 0h7.9m7.88 0h7.88m7.9 0h7.88m7.9 0h7.87m7.88 0h7.9m7.88 0h7.88m7.9 0H305m7.9 0h7.87m7.88 0h7.9m7.88 0h7.88m7.9 0h7.88m7.9 0h7.87m7.88 0h7.9m7.88 0h7.88m7.9 0h7.88m7.9 0h7.87m7.88 0h7.9m7.88 0h3.94M96.03 448H95M474.57 448h1.03" stroke="#000" stroke-width="2" fill="none"/><path d="M397.33 396.22h50.8v44.74h-50.8z" fill="#fff" fill-opacity="0"/><path d="M447.82 399l-13.06 24v1.66c0 4.42 1.1 9.1 3.13 9.1 1.28 0 2.75-1.74 4.68-6.8l1.47.65c-2.02 6.8-4.87 11.6-9.3 11.6-3.48 0-4.6-4.05-4.77-9.66-4.6 5.6-10.94 9.84-17.84 9.84-8.92 0-12.32-6.26-12.32-13.98 0-7.45 3.22-15.27 8.37-20.5 4.03-4.15 10.2-7.1 15.9-7.1 7.8 0 11.58 5.53 11.58 10.95l4.23-9.75h7.92m-17.47 14.35c0-6.25-1.2-13.6-7.08-13.6-5.8 0-15.9 12.5-15.9 27.12 0 5.24 1.64 10.58 6.33 10.58 6.44 0 12.7-12.42 15.18-17.57.37-1.75 1.47-4.05 1.47-6.53"/><path d="M907.12 698.08l98.97-169.8" stroke="#000" stroke-width="2" fill="none"/><path d="M899.43 711.27l3.18-14.66 8.02 4.68zM1013.78 515.1l-3.18 14.65-8-4.67z" stroke="#000" stroke-width="2"/><path d="M562 192h16.37v42.67H562z" fill="#fff" fill-opacity="0"/><path d="M578.34 193.3l-8.96 34.27c-.3 1.05-.47 2.05-.47 2.52 0 .7.42 1.04 1 1.04.9 0 2.23-.94 3.93-3.34l1.47-2.05.82.6c-3.52 5.55-5.7 7.3-8.85 7.3-1.87 0-2.87-1.1-2.87-3.27 0-.47.06-1.17.24-1.76l8.02-30.7c.18-.57.18-.93.18-1.1 0-.7-1-1.3-2.87-1.3h-1.06v-.93c3.47-.42 5.63-.83 9.1-1.6"/><path d="M910.94 595.76l15.98-26.45 36.62 22.14-15.97 26.45z" fill="#fff" fill-opacity="0"/><path d="M927.6 570.16l.47-.12 6.44 6.56 9.17 9.64c4.78 5 9.57 10.23 10.37 10.7.6.38 1.15.37 1.55-.28.5-.86.38-1.68-1.1-6.27l.87-.3c2.18 4.66 2.78 8.3 1.27 10.82-.8 1.3-2.15 1.5-3.5.7-1.15-.7-1.9-1.3-4.07-3.36 3.18 5.96 3.3 9.52 1.23 12.93-1.97 3.24-5.3 4.1-9.1 1.8-8.13-4.9-11.9-18.26-7.96-24.78 1.27-2.1 2.74-2.38 4.88-1.5l.03-.05-6.8-7.2c-2.2-2.35-2.45-2.42-3.15-2.85-1.05-.63-1.47-.27-3.24 2.43l-.85-.52c1.65-3.4 2.44-5.38 3.5-8.37m11.14 18.03c-1.8-1.1-3.6-.54-4.3.62-.83 1.4-1.04 3.67-.44 5.95 1.5 5.43 5.46 11.24 9.63 13.75 2.3 1.4 4.35 1.06 5.4-.7 2.8-4.6-2.67-15.03-10.3-19.63"/><path d="M92.26 321.92L990.66 175" stroke="#000" stroke-width="2" fill="none"/><path d="M77.2 324.4l13.32-6.9 1.5 9.16zM1005.72 172.52l-13.33 6.88-1.5-9.15z" stroke="#000" stroke-width="2"/><path d="M81.9 366.8l-16.5-87.02" stroke="#000" stroke-width="2" fill="none"/><path d="M83.1 367.62l-2 .32-.17-.98 1.96-.38z"/><path d="M65.42 279.8l-.2-1M1020.94 253.02l-18.06-111.86" stroke="#000" stroke-width="2" fill="none"/><path d="M1022.57 256.8l-1.1.18-.5-4 .95-.15z"/><path d="M1002.9 141.2l-.17-1.02" stroke="#000" stroke-width="2" fill="none"/><path d="M30 445h66.44v66.08H30z" fill="#fff" fill-opacity="0"/><path d="M94.28 469.4c0 13.42-8.1 26.2-19.03 33.56-5.98 4.05-12.88 6.53-19.68 6.53-11.96 0-20.05-7.83-20.05-21.53 0-11.22 6.7-24.1 16.28-32.46 6.34-5.5 13.97-8.9 21.8-8.9 13.23-.1 20.68 8.82 20.68 22.8m-9.65-5.8c0-8.64-4.5-13.98-11.87-13.98-6.8 0-12.6 4.7-17.1 10.76-6.72 9.1-10.5 21.34-10.5 30.53 0 10.04 4.24 15.56 11.97 15.56 6.16 0 11.4-3.6 15.63-8.74 7.73-9.56 11.87-24.74 11.87-34.12"/><path d="M102 444.38c0 2.4-1.96 4.37-4.38 4.37-2.4 0-4.37-1.96-4.37-4.38 0-2.4 1.96-4.37 4.38-4.37 2.4 0 4.37 1.96 4.37 4.38z" stroke="#000" stroke-width="2"/></g></svg>