<?xml version="1.0" encoding="UTF-8" standalone="no"?>
<svg
   xmlns:dc="http://purl.org/dc/elements/1.1/"
   xmlns:cc="http://creativecommons.org/ns#"
   xmlns:rdf="http://www.w3.org/1999/02/22-rdf-syntax-ns#"
   xmlns:svg="http://www.w3.org/2000/svg"
   xmlns="http://www.w3.org/2000/svg"
   viewBox="0 0 793.70001 1122.52"
   height="1122.52"
   width="793.70001"
   xml:space="preserve"
   id="svg2"
   version="1.1"><metadata
     id="metadata8"><rdf:RDF><cc:Work
         rdf:about=""><dc:format>image/svg+xml</dc:format><dc:type
           rdf:resource="http://purl.org/dc/dcmitype/StillImage" /><dc:title></dc:title></cc:Work></rdf:RDF></metadata><defs
     id="defs6" /><g
     transform="matrix(1.3333333,0,0,-1.3333333,0,1122.52)"
     id="g10"><g
       transform="matrix(3.5490787,0,0,3.5490787,311.81866,793.29617)"
       id="g12"><path
         id="path14"
         style="fill:#ffffff;fill-opacity:1;fill-rule:evenodd;stroke:none"
         d="M 0,0 V 2.634 L 0.376,5.265 V 16.914 H -4.132 L -4.507,9.021 V 0 Z" /></g><g
       transform="matrix(3.5490787,0,0,3.5490787,281.1557,825.31418)"
       id="g16"><path
         id="path18"
         style="fill:#ffffff;fill-opacity:1;fill-rule:evenodd;stroke:none"
         d="m 0,0 0.377,-1.502 h 2.252 l 0.375,0.376 0.753,1.501 z" /></g><g
       transform="matrix(3.5490787,0,0,3.5490787,310.48775,819.98348)"
       id="g20"><path
         id="path22"
         style="fill:#231f20;fill-opacity:1;fill-rule:evenodd;stroke:none"
         d="M 0,0 0.751,-1.504 H 1.502 2.628 3.379 L 3.757,-1.129 4.129,0 Z" /></g><g
       transform="matrix(3.5490787,0,0,3.5490787,442.46202,823.98329)"
       id="g24"><path
         id="path26"
         style="fill:#285256;fill-opacity:1;fill-rule:evenodd;stroke:none"
         d="m 0,0 v -227.403 l -0.75,-0.375 -1.127,-0.751 -1.501,-0.375 -2.256,-0.376 H -15.4 v 7.517 l 1.126,1.126 0.751,1.505 0.751,1.877 0.377,1.88 -0.377,1.88 -0.373,1.505 -0.751,1.502 -1.879,1.88 -1.502,0.75 -1.88,0.754 h -3.003 l -1.881,-0.754 -1.501,-0.75 -1.88,-1.88 -1.502,-3.007 v -1.88 l 0.379,-1.88 0.75,-1.877 1.877,-2.631 v -7.517 h -24.791 v 7.517 l 1.503,1.126 0.751,1.505 0.751,1.877 0.377,1.88 -0.377,1.88 -0.375,1.505 -0.751,1.502 -1.126,1.129 -1.504,0.751 -2.629,1.504 h -3.38 l -1.504,-0.754 -1.503,-0.75 -2.253,-1.88 -1.126,-3.007 v -1.88 l 0.375,-1.88 v -1.877 l 1.127,-1.505 1.502,-1.126 v -7.517 h -8.263 l -1.878,0.376 -1.879,0.375 -1.502,0.751 -0.375,0.375 V 0 l 0.375,1.129 1.502,0.751 1.878,0.375 h 10.142 v -6.016 l -1.502,-1.126 -1.127,-1.88 v -1.879 l -0.375,-1.502 v -1.88 l 0.375,-1.88 0.751,-1.126 2.253,-2.256 1.503,-0.751 1.503,-0.378 1.502,-0.376 1.879,0.376 1.502,0.378 1.127,0.751 1.504,1.126 1.125,1.13 0.752,1.126 0.375,1.88 0.377,1.88 -0.377,1.502 -0.751,1.879 -0.751,1.505 -1.503,1.501 v 6.016 h 24.791 v -6.016 l -0.75,-1.126 -1.127,-1.88 -0.75,-1.879 -0.379,-1.502 v -1.88 l 0.751,-1.88 0.751,-1.126 1.88,-2.256 1.501,-0.751 1.881,-0.378 1.501,-0.376 3.382,0.754 1.502,0.751 1.879,2.256 0.751,1.126 0.373,1.88 0.377,1.88 -0.377,1.502 -0.751,1.879 -0.751,1.505 -1.126,1.501 V 2.255 H -3.378 L -1.877,1.88 -0.75,1.129 Z" /></g><g
       transform="matrix(3.5490787,0,0,3.5490787,442.46202,823.98329)"
       id="g28"><path
         id="path30"
         style="fill:none;stroke:#285256;stroke-width:0.72100002;stroke-linecap:square;stroke-linejoin:miter;stroke-miterlimit:10;stroke-dasharray:none;stroke-opacity:1"
         d="m 0,0 v -227.403 l -0.75,-0.375 -1.127,-0.751 -1.501,-0.375 -2.256,-0.376 H -15.4 v 7.517 l 1.126,1.126 0.751,1.505 0.751,1.877 0.377,1.88 -0.377,1.88 -0.373,1.505 -0.751,1.502 -1.879,1.88 -1.502,0.75 -1.88,0.754 h -3.003 l -1.881,-0.754 -1.501,-0.75 -1.88,-1.88 -1.502,-3.007 v -1.88 l 0.379,-1.88 0.75,-1.877 1.877,-2.631 v -7.517 h -24.791 v 7.517 l 1.503,1.126 0.751,1.505 0.751,1.877 0.377,1.88 -0.377,1.88 -0.375,1.505 -0.751,1.502 -1.126,1.129 -1.504,0.751 -2.629,1.504 h -3.38 l -1.504,-0.754 -1.503,-0.75 -2.253,-1.88 -1.126,-3.007 v -1.88 l 0.375,-1.88 v -1.877 l 1.127,-1.505 1.502,-1.126 v -7.517 h -8.263 l -1.878,0.376 -1.879,0.375 -1.502,0.751 -0.375,0.375 V 0 l 0.375,1.129 1.502,0.751 1.878,0.375 h 10.142 v -6.016 l -1.502,-1.126 -1.127,-1.88 v -1.879 l -0.375,-1.502 v -1.88 l 0.375,-1.88 0.751,-1.126 2.253,-2.256 1.503,-0.751 1.503,-0.378 1.502,-0.376 1.879,0.376 1.502,0.378 1.127,0.751 1.504,1.126 1.125,1.13 0.752,1.126 0.375,1.88 0.377,1.88 -0.377,1.502 -0.751,1.879 -0.751,1.505 -1.503,1.501 v 6.016 h 24.791 v -6.016 l -0.75,-1.126 -1.127,-1.88 -0.75,-1.879 -0.379,-1.502 v -1.88 l 0.751,-1.88 0.751,-1.126 1.88,-2.256 1.501,-0.751 1.881,-0.378 1.501,-0.376 3.382,0.754 1.502,0.751 1.879,2.256 0.751,1.126 0.373,1.88 0.377,1.88 -0.377,1.502 -0.751,1.879 -0.751,1.505 -1.126,1.501 V 2.255 H -3.378 L -1.877,1.88 -0.75,1.129 0,0" /></g><g
       transform="matrix(3.5490787,0,0,3.5490787,173.17248,723.92979)"
       id="g32"><path
         id="path34"
         style="fill:#231f20;fill-opacity:1;fill-rule:evenodd;stroke:none"
         d="m 0,0 h 77.381 l 1.123,-0.376 0.754,-0.375 0.376,-1.126 0.375,-1.13 v -164.632 l -0.375,-1.126 -1.13,-1.129 -1.123,-0.376 H 0 l -1.126,0.376 -1.128,0.754 -0.375,0.375 -0.376,1.126 V -3.007 l 0.751,2.256 z" /></g><g
       transform="matrix(3.5490787,0,0,3.5490787,173.17248,723.92979)"
       id="g36"><path
         id="path38"
         style="fill:none;stroke:#231f20;stroke-width:0.72100002;stroke-linecap:square;stroke-linejoin:miter;stroke-miterlimit:10;stroke-dasharray:none;stroke-opacity:1"
         d="m 0,0 h 77.381 l 1.123,-0.376 0.754,-0.375 0.376,-1.126 0.375,-1.13 v -164.632 l -0.375,-1.126 -1.13,-1.129 -1.123,-0.376 H 0 l -1.126,0.376 -1.128,0.754 -0.375,0.375 -0.376,1.126 V -3.007 L -2.254,-0.751 0,0" /></g><g
       transform="matrix(3.5490787,0,0,3.5490787,181.17175,699.92488)"
       id="g40"><path
         id="path42"
         style="fill:#48727a;fill-opacity:1;fill-rule:evenodd;stroke:none"
         d="m 0,0 h 73.622 l 1.127,-0.754 0.75,-1.126 0.379,-1.505 V -77.43 l -0.379,-1.129 -0.75,-1.126 -1.127,-0.753 -1.126,-0.376 H 46.2 l -0.373,1.879 -0.75,1.13 -1.13,1.501 -1.126,0.376 -1.505,0.754 -1.501,0.75 -1.877,0.376 h -3.755 l -1.878,-0.376 -1.879,-0.75 -1.502,-0.754 -0.752,-0.376 -1.126,-1.501 -0.751,-1.13 -0.377,-1.879 H 0 l -1.501,0.376 -0.753,0.753 -0.375,1.126 -0.376,1.129 v 74.045 l 0.376,1.505 0.375,1.126 L -1.502,0 Z" /></g><g
       transform="matrix(3.5490787,0,0,3.5490787,181.17175,699.92488)"
       id="g44"><path
         id="path46"
         style="fill:none;stroke:#48727a;stroke-width:0.72100002;stroke-linecap:square;stroke-linejoin:miter;stroke-miterlimit:10;stroke-dasharray:none;stroke-opacity:1"
         d="m 0,0 h 73.622 l 1.127,-0.754 0.75,-1.126 0.379,-1.505 V -77.43 l -0.379,-1.129 -0.75,-1.126 -1.127,-0.753 -1.126,-0.376 H 46.2 l -0.373,1.879 -0.75,1.13 -1.13,1.501 -1.126,0.376 -1.505,0.754 -1.501,0.75 -1.877,0.376 h -3.755 l -1.878,-0.376 -1.879,-0.75 -1.502,-0.754 -0.752,-0.376 -1.126,-1.501 -0.751,-1.13 -0.377,-1.879 H 0 l -1.501,0.376 -0.753,0.753 -0.375,1.126 -0.376,1.129 v 74.045 l 0.376,1.505 0.375,1.126 L -1.502,0 H 0" /></g><g
       transform="matrix(3.5490787,0,0,3.5490787,307.81885,422.44514)"
       id="g48"><path
         id="path50"
         style="fill:none;stroke:#231f20;stroke-width:0.72100002;stroke-linecap:square;stroke-linejoin:miter;stroke-miterlimit:10;stroke-dasharray:none;stroke-opacity:1"
         d="m 0,0 h 1.503 l 1.505,-0.375 1.501,-0.751 0.751,-0.751 0.751,-0.754 0.751,-1.501 0.75,-0.754 0.376,-1.502 h 30.05 l 0.753,-0.375 0.373,-0.754 0.378,-1.127 v -51.493 l -0.751,-1.505 -0.753,-0.375 -1.126,-0.376 h -72.497 l -1.126,0.376 -0.751,0.375 -0.376,0.751 v 53.374 l 0.376,0.754 0.751,0.375 h 29.675 v 1.502 l 0.375,0.754 0.751,1.501 2.254,1.505 1.502,0.751 L -1.126,0 H 0" /></g><g
       transform="matrix(3.5490787,0,0,3.5490787,181.17175,399.77469)"
       id="g52"><path
         id="path54"
         style="fill:#285256;fill-opacity:1;fill-rule:evenodd;stroke:none"
         d="m 0,0 h 28.549 v 1.502 l 0.375,0.754 0.751,1.501 2.254,1.505 1.502,0.751 1.128,0.375 h 2.629 L 38.692,6.013 40.193,5.262 40.944,4.511 41.695,3.757 42.446,2.256 43.196,1.502 43.572,0 h 30.05 l 0.754,-0.754 0.373,-0.751 0.378,-1.126 V -61.27 l -0.378,-1.126 -0.373,-0.75 -0.754,-0.754 H -1.126 l -1.128,1.504 V -1.505 L -1.126,0 Z" /></g><g
       transform="matrix(3.5490787,0,0,3.5490787,181.17175,399.77469)"
       id="g56"><path
         id="path58"
         style="fill:none;stroke:#285256;stroke-width:0.72100002;stroke-linecap:square;stroke-linejoin:miter;stroke-miterlimit:10;stroke-dasharray:none;stroke-opacity:1"
         d="m 0,0 h 28.549 v 1.502 l 0.375,0.754 0.751,1.501 2.254,1.505 1.502,0.751 1.128,0.375 h 2.629 L 38.692,6.013 40.193,5.262 40.944,4.511 41.695,3.757 42.446,2.256 43.196,1.502 43.572,0 h 30.05 l 0.754,-0.754 0.373,-0.751 0.378,-1.126 V -61.27 l -0.378,-1.126 -0.373,-0.75 -0.754,-0.754 H -1.126 l -1.128,1.504 V -1.505 L -1.126,0 H 0" /></g><g
       transform="matrix(3.5490787,0,0,3.5490787,347.81555,469.14107)"
       id="g60"><path
         id="path62"
         style="fill:#231f20;fill-opacity:1;fill-rule:evenodd;stroke:none"
         d="m 0,0 -2.628,-1.129 -3.01,-0.751 -2.624,-0.376 h -6.012 l -3.005,0.376 -2.254,0.751 -3.005,1.129 -4.883,2.631 -2.63,1.88 -1.878,1.877 -1.879,1.88 -1.877,2.63 -1.128,2.256 -1.5,3.006 -1.128,3.01 -0.751,2.631 -0.375,3.382 v 5.639 l 0.751,2.631 0.75,2.631 2.253,5.262 1.128,2.256 1.877,2.63 1.879,2.255 2.254,1.502 2.254,1.88 2.629,1.88 5.635,1.88 3.004,0.751 3.006,0.375 h 5.635 l 2.628,-0.375 3.007,-1.126 2.252,-0.754 3.003,-1.126 2.631,-1.505 4.133,-3.382 1.879,-2.255 1.875,-2.63 1.504,-2.256 1.501,-3.006 0.754,-2.634 0.751,-3.007 v -3.006 l 0.373,-3.006 -0.373,-2.631 V 21.05 L 17.655,18.416 16.526,15.785 15.024,13.154 13.523,10.898 12.021,8.268 10.142,6.388 7.889,4.136 5.634,2.631 3.006,0.751 Z" /></g><g
       transform="matrix(3.5490787,0,0,3.5490787,347.81555,469.14107)"
       id="g64"><path
         id="path66"
         style="fill:none;stroke:#231f20;stroke-width:0.48100001;stroke-linecap:square;stroke-linejoin:miter;stroke-miterlimit:10;stroke-dasharray:none;stroke-opacity:1"
         d="m 0,0 -2.628,-1.129 -3.01,-0.751 -2.624,-0.376 h -6.012 l -3.005,0.376 -2.254,0.751 -3.005,1.129 -4.883,2.631 -2.63,1.88 -1.878,1.877 -1.879,1.88 -1.877,2.63 -1.128,2.256 -1.5,3.006 -1.128,3.01 -0.751,2.631 -0.375,3.382 v 5.639 l 0.751,2.631 0.75,2.631 2.253,5.262 1.128,2.256 1.877,2.63 1.879,2.255 2.254,1.502 2.254,1.88 2.629,1.88 5.635,1.88 3.004,0.751 3.006,0.375 h 5.635 l 2.628,-0.375 3.007,-1.126 2.252,-0.754 3.003,-1.126 2.631,-1.505 4.133,-3.382 1.879,-2.255 1.875,-2.63 1.504,-2.256 1.501,-3.006 0.754,-2.634 0.751,-3.007 v -3.006 l 0.373,-3.006 -0.373,-2.631 V 21.05 L 17.655,18.416 16.526,15.785 15.024,13.154 13.523,10.898 12.021,8.268 10.142,6.388 7.889,4.136 5.634,2.631 3.006,0.751 0,0" /></g><g
       transform="matrix(3.5490787,0,0,3.5490787,337.14383,495.82163)"
       id="g68"><path
         id="path70"
         style="fill:#231f20;fill-opacity:1;fill-rule:evenodd;stroke:none"
         d="M 0,0 -2.252,-0.376 -3.754,-1.13 h -2.255 l -2.254,-0.375 -4.131,0.754 -1.878,0.375 -1.878,0.376 -5.635,3.381 -2.629,2.631 -2.254,3.76 -1.126,1.88 -0.377,2.255 -0.376,2.256 -0.375,1.877 v 4.136 l 0.375,1.88 0.376,2.256 0.377,1.876 3.38,5.265 1.502,1.126 1.502,1.505 1.504,1.501 2.254,1.13 1.877,0.75 4.132,1.505 h 2.254 1.878 1.877 l 4.133,-0.751 1.88,-0.754 5.255,-3.381 3.007,-2.631 1.126,-1.881 1.129,-1.88 0.75,-1.88 0.751,-2.254 0.751,-1.877 0.375,-2.256 v -1.88 L 12.772,15.409 12.397,13.153 11.646,11.652 8.641,6.012 5.634,3.381 3.757,1.88 2.253,0.75 Z" /></g><g
       transform="matrix(3.5490787,0,0,3.5490787,337.14383,495.82163)"
       id="g72"><path
         id="path74"
         style="fill:none;stroke:#231f20;stroke-width:0.48100001;stroke-linecap:square;stroke-linejoin:miter;stroke-miterlimit:10;stroke-dasharray:none;stroke-opacity:1"
         d="M 0,0 -2.252,-0.376 -3.754,-1.13 h -2.255 l -2.254,-0.375 -4.131,0.754 -1.878,0.375 -1.878,0.376 -5.635,3.381 -2.629,2.631 -2.254,3.76 -1.126,1.88 -0.377,2.255 -0.376,2.256 -0.375,1.877 v 4.136 l 0.375,1.88 0.376,2.256 0.377,1.876 3.38,5.265 1.502,1.126 1.502,1.505 1.504,1.501 2.254,1.13 1.877,0.75 4.132,1.505 h 2.254 1.878 1.877 l 4.133,-0.751 1.88,-0.754 5.255,-3.381 3.007,-2.631 1.126,-1.881 1.129,-1.88 0.75,-1.88 0.751,-2.254 0.751,-1.877 0.375,-2.256 v -1.88 L 12.772,15.409 12.397,13.153 11.646,11.652 8.641,6.012 5.634,3.381 3.757,1.88 2.253,0.75 0,0" /></g><g
       transform="matrix(3.5490787,0,0,3.5490787,334.47846,503.82444)"
       id="g76"><path
         id="path78"
         style="fill:#285256;fill-opacity:1;fill-rule:evenodd;stroke:none"
         d="m 0,0 -1.88,-0.754 -1.874,-0.375 -1.88,-0.376 h -1.878 l -3.38,0.376 -3.755,1.129 -3.006,1.88 -3.005,2.256 -1.127,1.501 -1.127,1.505 -0.751,1.879 -1.126,1.502 -0.377,1.88 -0.751,1.88 v 1.502 l -0.376,1.88 0.751,3.761 1.128,3.381 1.877,3.006 1.878,3.009 1.504,1.502 1.502,0.751 1.878,1.129 3.379,1.505 3.758,0.751 h 1.878 l 3.757,-0.376 6.385,-3.009 2.631,-2.253 1.502,-1.505 1.126,-1.504 1.126,-1.501 0.376,-1.88 0.753,-1.88 0.373,-1.502 0.377,-1.88 V 17.29 L 11.269,13.529 10.143,10.148 8.641,7.142 6.013,4.136 4.508,3.006 1.881,0.751 Z" /></g><g
       transform="matrix(3.5490787,0,0,3.5490787,334.47846,503.82444)"
       id="g80"><path
         id="path82"
         style="fill:none;stroke:#285256;stroke-width:0.48100001;stroke-linecap:square;stroke-linejoin:miter;stroke-miterlimit:10;stroke-dasharray:none;stroke-opacity:1"
         d="m 0,0 -1.88,-0.754 -1.874,-0.375 -1.88,-0.376 h -1.878 l -3.38,0.376 -3.755,1.129 -3.006,1.88 -3.005,2.256 -1.127,1.501 -1.127,1.505 -0.751,1.879 -1.126,1.502 -0.377,1.88 -0.751,1.88 v 1.502 l -0.376,1.88 0.751,3.761 1.128,3.381 1.877,3.006 1.878,3.009 1.504,1.502 1.502,0.751 1.878,1.129 3.379,1.505 3.758,0.751 h 1.878 l 3.757,-0.376 6.385,-3.009 2.631,-2.253 1.502,-1.505 1.126,-1.504 1.126,-1.501 0.376,-1.88 0.753,-1.88 0.373,-1.502 0.377,-1.88 V 17.29 L 11.269,13.529 10.143,10.148 8.641,7.142 6.013,4.136 4.508,3.006 1.881,0.751 0,0" /></g><g
       transform="matrix(3.5490787,0,0,3.5490787,309.14976,609.20866)"
       id="g84"><path
         id="path86"
         style="fill:#ffffff;fill-opacity:1;fill-rule:evenodd;stroke:none"
         d="m 0,0 1.128,-4.136 2.255,3.76 v -4.135 l 2.628,2.631 -1.126,-3.757 3.754,2.255 -2.252,-3.76 4.508,1.129 -3.382,-3.008 h 4.132 l -3.378,-1.877 3.754,-1.505 -3.754,-1.13 3.378,-1.501 H 7.513 l 3.382,-3.382 -4.508,1.126 2.252,-3.382 -3.754,1.877 1.126,-3.757 -2.628,2.631 v -4.136 L 1.128,-20.296 0,-24.432 l -1.126,4.136 -1.879,-3.761 v 4.136 l -3.004,-2.631 1.126,3.757 -3.756,-1.877 1.879,3.382 -3.757,-1.126 3.006,3.382 h -4.133 l 3.756,1.501 -4.506,1.13 4.506,1.505 -3.756,1.877 h 4.133 l -3.006,3.008 3.757,-1.129 -1.879,3.76 3.756,-2.255 -1.126,3.757 3.004,-2.631 v 4.135 l 1.879,-3.76 z" /></g><g
       transform="matrix(3.5490787,0,0,3.5490787,309.14976,609.20866)"
       id="g88"><path
         id="path90"
         style="fill:none;stroke:#231f20;stroke-width:0.48100001;stroke-linecap:square;stroke-linejoin:miter;stroke-miterlimit:10;stroke-dasharray:none;stroke-opacity:1"
         d="m 0,0 1.128,-4.136 2.255,3.76 v -4.135 l 2.628,2.631 -1.126,-3.757 3.754,2.255 -2.252,-3.76 4.508,1.129 -3.382,-3.008 h 4.132 l -3.378,-1.877 3.754,-1.505 -3.754,-1.13 3.378,-1.501 H 7.513 l 3.382,-3.382 -4.508,1.126 2.252,-3.382 -3.754,1.877 1.126,-3.757 -2.628,2.631 v -4.136 L 1.128,-20.296 0,-24.432 l -1.126,4.136 -1.879,-3.761 v 4.136 l -3.004,-2.631 1.126,3.757 -3.756,-1.877 1.879,3.382 -3.757,-1.126 3.006,3.382 h -4.133 l 3.756,1.501 -4.506,1.13 4.506,1.505 -3.756,1.877 h 4.133 l -3.006,3.008 3.757,-1.129 -1.879,3.76 3.756,-2.255 -1.126,3.757 3.004,-2.631 v 4.135 L -1.126,-4.136 0,0" /></g><g
       transform="matrix(3.5490787,0,0,3.5490787,314.48403,553.18575)"
       id="g92"><path
         id="path94"
         style="fill:#ffffff;fill-opacity:1;fill-rule:evenodd;stroke:none"
         d="m 0,0 h -3.004 l -1.128,1.126 -0.751,0.751 -0.375,1.88 0.375,1.505 0.751,1.126 1.128,1.13 H 0 L 2.253,5.262 2.631,3.382 2.253,1.877 Z" /></g><g
       transform="matrix(3.5490787,0,0,3.5490787,314.48403,553.18575)"
       id="g96"><path
         id="path98"
         style="fill:none;stroke:#231f20;stroke-width:0.48100001;stroke-linecap:square;stroke-linejoin:miter;stroke-miterlimit:10;stroke-dasharray:none;stroke-opacity:1"
         d="m 0,0 h -3.004 l -1.128,1.126 -0.751,0.751 -0.375,1.88 0.375,1.505 0.751,1.126 1.128,1.13 H 0 L 2.253,5.262 2.631,3.382 2.253,1.877 0,0" /></g><g
       transform="matrix(3.5490787,0,0,3.5490787,307.81567,670.56868)"
       id="g100"><path
         id="path102"
         style="fill:none;stroke:#231f20;stroke-width:0.72100002;stroke-linecap:square;stroke-linejoin:miter;stroke-miterlimit:10;stroke-dasharray:none;stroke-opacity:1"
         d="M 0,0 V 4.136" /></g><g
       transform="matrix(3.5490787,0,0,3.5490787,202.5042,565.18802)"
       id="g104"><path
         id="path106"
         style="fill:none;stroke:#231f20;stroke-width:0.72100002;stroke-linecap:square;stroke-linejoin:miter;stroke-miterlimit:10;stroke-dasharray:none;stroke-opacity:1"
         d="M 0,0 H -3.757" /></g><g
       transform="matrix(3.5490787,0,0,3.5490787,429.12884,565.18802)"
       id="g108"><path
         id="path110"
         style="fill:none;stroke:#231f20;stroke-width:0.72100002;stroke-linecap:square;stroke-linejoin:miter;stroke-miterlimit:10;stroke-dasharray:none;stroke-opacity:1"
         d="M 0,0 H -4.132" /></g><g
       transform="matrix(3.5490787,0,0,3.5490787,362.46935,657.23549)"
       id="g112"><path
         id="path114"
         style="fill:none;stroke:#231f20;stroke-width:0.72100002;stroke-linecap:square;stroke-linejoin:miter;stroke-miterlimit:10;stroke-dasharray:none;stroke-opacity:1"
         d="M 0,0 1.88,3.382" /></g><g
       transform="matrix(3.5490787,0,0,3.5490787,249.16217,461.13506)"
       id="g116"><path
         id="path118"
         style="fill:none;stroke:#231f20;stroke-width:0.72100002;stroke-linecap:square;stroke-linejoin:miter;stroke-miterlimit:10;stroke-dasharray:none;stroke-opacity:1"
         d="M 0,0 1.878,3.382" /></g><g
       transform="matrix(3.5490787,0,0,3.5490787,217.16508,618.54557)"
       id="g120"><path
         id="path122"
         style="fill:none;stroke:#231f20;stroke-width:0.72100002;stroke-linecap:square;stroke-linejoin:miter;stroke-miterlimit:10;stroke-dasharray:none;stroke-opacity:1"
         d="M 0,0 -3.38,1.88" /></g><g
       transform="matrix(3.5490787,0,0,3.5490787,413.1406,505.15536)"
       id="g124"><path
         id="path126"
         style="fill:none;stroke:#231f20;stroke-width:0.72100002;stroke-linecap:square;stroke-linejoin:miter;stroke-miterlimit:10;stroke-dasharray:none;stroke-opacity:1"
         d="M 0,0 -3.76,2.256" /></g><g
       transform="matrix(3.5490787,0,0,3.5490787,399.79676,618.54557)"
       id="g128"><path
         id="path130"
         style="fill:none;stroke:#231f20;stroke-width:0.72100002;stroke-linecap:square;stroke-linejoin:miter;stroke-miterlimit:10;stroke-dasharray:none;stroke-opacity:1"
         d="M 0,0 3.76,1.88" /></g><g
       transform="matrix(3.5490787,0,0,3.5490787,205.16954,505.15536)"
       id="g132"><path
         id="path134"
         style="fill:none;stroke:#231f20;stroke-width:0.72100002;stroke-linecap:square;stroke-linejoin:miter;stroke-miterlimit:10;stroke-dasharray:none;stroke-opacity:1"
         d="M 0,0 3.38,2.256" /></g><g
       transform="matrix(3.5490787,0,0,3.5490787,255.82697,657.23549)"
       id="g136"><path
         id="path138"
         style="fill:none;stroke:#231f20;stroke-width:0.72100002;stroke-linecap:square;stroke-linejoin:miter;stroke-miterlimit:10;stroke-dasharray:none;stroke-opacity:1"
         d="M 0,0 -1.878,3.382" /></g><g
       transform="matrix(3.5490787,0,0,3.5490787,369.1409,461.13506)"
       id="g140"><path
         id="path142"
         style="fill:none;stroke:#231f20;stroke-width:0.72100002;stroke-linecap:square;stroke-linejoin:miter;stroke-miterlimit:10;stroke-dasharray:none;stroke-opacity:1"
         d="M 0,0 -1.88,3.382" /></g><g
       transform="matrix(3.5490787,0,0,3.5490787,433.1354,366.42257)"
       id="g144"><path
         id="path146"
         style="fill:#231f20;fill-opacity:1;fill-rule:evenodd;stroke:none"
         d="m 0,0 v -42.1 l -1.129,-1.126 -1.126,-0.375 -1.877,-0.376 h -61.603 l -1.502,0.376 -1.127,0.375 -1.127,1.126 V 1.127 l 1.127,1.129 1.127,0.751 1.502,0.375 H -4.132 L -2.255,3.007 -1.129,2.256 0,1.127 Z" /></g><g
       transform="matrix(3.5490787,0,0,3.5490787,433.1354,366.42257)"
       id="g148"><path
         id="path150"
         style="fill:none;stroke:#231f20;stroke-width:0.48100001;stroke-linecap:square;stroke-linejoin:miter;stroke-miterlimit:10;stroke-dasharray:none;stroke-opacity:1"
         d="m 0,0 v -42.1 l -1.129,-1.126 -1.126,-0.375 -1.877,-0.376 h -61.603 l -1.502,0.376 -1.127,0.375 -1.127,1.126 V 1.127 l 1.127,1.129 1.127,0.751 1.502,0.375 H -4.132 L -2.255,3.007 -1.129,2.256 0,1.127 V 0" /></g><g
       transform="matrix(3.5490787,0,0,3.5490787,307.81567,643.89168)"
       id="g152"><path
         id="path154"
         style="fill:none;stroke:#ffffff;stroke-width:0.72100002;stroke-linecap:square;stroke-linejoin:miter;stroke-miterlimit:10;stroke-dasharray:none;stroke-opacity:1"
         d="M 0,0 -21.784,-21.801" /></g><g
       transform="matrix(3.5490787,0,0,3.5490787,389.13924,565.18802)"
       id="g156"><path
         id="path158"
         style="fill:none;stroke:#ffffff;stroke-width:0.72100002;stroke-linecap:square;stroke-linejoin:miter;stroke-miterlimit:10;stroke-dasharray:none;stroke-opacity:1"
         d="M 0,0 -22.538,-22.176" /></g><g
       transform="matrix(3.5490787,0,0,3.5490787,307.81567,643.89168)"
       id="g160"><path
         id="path162"
         style="fill:none;stroke:#ffffff;stroke-width:0.72100002;stroke-linecap:square;stroke-linejoin:miter;stroke-miterlimit:10;stroke-dasharray:none;stroke-opacity:1"
         d="M 0,0 -21.784,-21.801" /></g><g
       transform="matrix(3.5490787,0,0,3.5490787,389.13924,565.18802)"
       id="g164"><path
         id="path166"
         style="fill:none;stroke:#ffffff;stroke-width:0.72100002;stroke-linecap:square;stroke-linejoin:miter;stroke-miterlimit:10;stroke-dasharray:none;stroke-opacity:1"
         d="M 0,0 -22.161,-22.176" /></g><g
       transform="matrix(3.5490787,0,0,3.5490787,513.11784,361.08476)"
       id="g168"><path
         id="path170"
         style="fill:#231f20;fill-opacity:1;fill-rule:evenodd;stroke:none"
         d="m 0,0 -2.252,-1.502 -1.129,-0.375 h -1.127 l -1.501,0.375 -1.877,0.375 -1.88,0.751 -1.502,1.129 -42.82,28.564 -3.383,3.009 -2.629,-3.009 -42.821,-28.564 -1.877,-1.129 -1.879,-0.751 -1.126,-0.375 -1.879,-0.375 h -1.503 l -1.126,0.375 -1.878,1.502 -1.126,0.753 -0.375,1.127 -0.377,1.504 v 3.007 l 0.752,1.505 0.751,1.5 0.751,1.88 28.17,43.602 2.63,3.006 -3.005,3.007 -27.795,42.474 -0.752,1.505 -0.75,1.877 -0.752,1.504 v 2.631 l 0.377,1.505 1.501,2.256 1.877,1.126 1.502,0.375 h 1.128 l 1.878,-0.375 h 1.127 l 1.879,-0.751 1.877,-1.129 42.445,-27.814 3.005,-3.009 3.383,3.009 42.82,27.814 1.502,1.129 1.88,0.751 h 1.501 l 1.877,0.375 h 1.127 l 1.129,-0.375 2.252,-1.126 1.502,-2.256 0.379,-1.505 v -2.631 L 1.13,106.371 0.376,104.87 -0.75,103.365 -28.921,60.891 -31.93,57.509 -28.548,54.878 -0.75,11.276 0.376,9.396 1.502,7.896 1.881,6.391 V 3.384 L 1.502,1.88 1.13,0.753 Z m -81.135,33.452 0.751,-1.126 0.377,-1.129 -0.377,-0.751 -0.751,-1.129 -1.126,-0.751 -1.128,-0.376 -0.75,0.376 -1.127,0.751 -0.752,1.129 -0.375,0.751 0.375,1.129 0.752,1.126 1.127,0.751 0.75,0.379 1.128,-0.379 z m -7.511,-7.516 0.75,-0.751 0.376,-1.129 -0.376,-1.502 -0.75,-1.129 -0.751,-0.751 h -2.63 l -1.127,0.751 -0.751,1.129 v 2.631 l 0.751,0.751 1.127,0.751 1.502,0.375 1.128,-0.375 z m -7.138,-7.142 0.377,-1.126 0.376,-1.13 -0.376,-1.504 -0.377,-1.127 -1.126,-0.75 h -2.629 l -1.128,0.75 -0.751,1.127 v 2.634 l 0.751,1.126 1.128,0.375 1.501,0.376 1.128,-0.376 z m -7.513,-7.518 0.753,-1.129 v -2.63 l -0.753,-0.751 -1.126,-0.751 -1.503,-0.375 -1.126,0.375 -0.751,0.751 -0.753,0.751 -0.375,1.129 0.375,1.501 0.753,1.129 0.751,0.751 h 2.629 z m 98.039,98.102 0.75,-1.127 v -2.63 l -0.75,-1.13 -1.127,-0.751 -1.501,-0.375 -1.13,0.375 -0.75,0.751 -0.751,1.13 -0.376,1.126 0.376,1.504 0.751,1.127 0.75,0.375 h 2.631 z m -7.889,-7.893 0.751,-1.126 0.377,-1.13 -0.377,-1.125 -0.751,-0.754 -1.124,-0.751 -1.129,-0.375 -0.75,0.375 -1.13,0.751 -0.751,0.754 -0.372,1.125 0.372,1.13 0.751,1.126 1.13,0.751 0.75,0.378 1.129,-0.378 z m -7.511,-7.517 0.75,-1.129 0.376,-1.126 -0.376,-1.127 -0.75,-1.129 -1.878,-0.751 -1.501,0.376 -0.754,0.375 -0.751,1.129 -0.375,1.127 0.375,1.126 0.751,1.129 0.754,0.751 1.501,0.375 0.751,-0.375 z m -7.512,-7.517 0.751,-1.13 0.372,-0.751 -0.372,-1.504 -0.751,-1.127 -0.751,-0.75 h -2.631 l -1.129,0.75 -0.751,1.127 v 2.255 l 0.751,1.13 1.129,0.75 1.502,0.376 1.129,-0.376 z m -79.634,22.927 0.752,0.375 h 2.629 l 1.126,-0.375 0.753,-1.127 v -2.63 l -0.753,-1.13 -1.126,-0.751 -1.503,-0.375 -1.126,0.375 -0.752,0.751 -0.752,1.13 -0.375,1.126 0.375,1.504 z m 7.137,-7.893 1.127,0.751 1.502,0.378 1.128,-0.378 1.126,-0.751 0.377,-1.126 0.375,-1.13 -0.375,-1.125 -0.377,-0.754 -1.126,-0.751 -1.128,-0.375 -1.502,0.375 -1.127,0.751 -0.751,0.754 v 2.255 z m 7.512,-7.517 1.128,0.751 1.502,0.375 1.128,-0.375 0.75,-0.751 0.751,-1.129 0.376,-1.126 -0.376,-1.127 -0.751,-1.129 -1.878,-0.751 -1.502,0.376 -1.128,0.375 -0.75,1.129 v 2.253 z m 7.889,-7.517 1.126,0.75 0.751,0.376 1.128,-0.376 1.126,-0.75 0.751,-1.13 0.377,-0.751 -0.377,-1.504 -0.751,-1.127 -1.126,-0.75 h -1.879 l -1.126,0.75 -0.752,1.127 -0.376,1.504 0.376,0.751 z m 52.585,-52.999 1.129,0.751 1.502,0.379 1.129,-0.379 0.751,-0.751 0.751,-1.126 0.372,-1.129 -0.372,-0.751 -0.751,-1.129 -0.751,-0.751 -1.129,-0.376 -1.502,0.376 -1.129,0.751 -0.751,1.129 v 1.88 z m 7.89,-7.516 0.754,0.751 1.501,0.375 0.751,-0.375 1.127,-0.751 0.75,-0.751 0.376,-1.129 -0.376,-1.502 -0.75,-1.129 -1.127,-0.751 h -2.252 l -0.754,0.751 -0.751,1.129 -0.375,1.502 0.375,1.129 z m 7.511,-7.142 1.13,0.375 0.75,0.376 1.129,-0.376 1.124,-0.375 0.751,-1.126 0.377,-1.13 -0.377,-1.504 -0.751,-1.127 -1.124,-0.75 h -1.879 l -1.13,0.75 -0.751,1.127 -0.372,1.504 0.372,1.13 z m 7.514,-7.518 0.75,0.751 h 2.631 l 1.127,-0.751 0.75,-1.129 V 7.517 L -5.258,6.766 -6.385,6.015 -7.886,5.64 l -1.13,0.375 -0.75,0.751 -0.751,0.751 -0.376,1.129 0.376,1.501 z" /></g><g
       transform="matrix(3.5490787,0,0,3.5490787,513.11784,361.08476)"
       id="g172"><path
         id="path174"
         style="fill:none;stroke:#ffffff;stroke-width:0.48100001;stroke-linecap:square;stroke-linejoin:miter;stroke-miterlimit:10;stroke-dasharray:none;stroke-opacity:1"
         d="m 0,0 -2.252,-1.502 -1.129,-0.375 h -1.127 l -1.501,0.375 -1.877,0.375 -1.88,0.751 -1.502,1.129 -42.82,28.564 -3.383,3.009 -2.629,-3.009 -42.821,-28.564 -1.877,-1.129 -1.879,-0.751 -1.126,-0.375 -1.879,-0.375 h -1.503 l -1.126,0.375 -1.878,1.502 -1.126,0.753 -0.375,1.127 -0.377,1.504 v 3.007 l 0.752,1.505 0.751,1.5 0.751,1.88 28.17,43.602 2.63,3.006 -3.005,3.007 -27.795,42.474 -0.752,1.505 -0.75,1.877 -0.752,1.504 v 2.631 l 0.377,1.505 1.501,2.256 1.877,1.126 1.502,0.375 h 1.128 l 1.878,-0.375 h 1.127 l 1.879,-0.751 1.877,-1.129 42.445,-27.814 3.005,-3.009 3.383,3.009 42.82,27.814 1.502,1.129 1.88,0.751 h 1.501 l 1.877,0.375 h 1.127 l 1.129,-0.375 2.252,-1.126 1.502,-2.256 0.379,-1.505 v -2.631 L 1.13,106.371 0.376,104.87 -0.75,103.365 -28.921,60.891 -31.93,57.509 -28.548,54.878 -0.75,11.276 0.376,9.396 1.502,7.896 1.881,6.391 V 3.384 L 1.502,1.88 1.13,0.753 0,0" /></g><g
       transform="matrix(3.5490787,0,0,3.5490787,225.16433,479.80925)"
       id="g176"><path
         id="path178"
         style="fill:none;stroke:#ffffff;stroke-width:0.48100001;stroke-linecap:square;stroke-linejoin:miter;stroke-miterlimit:10;stroke-dasharray:none;stroke-opacity:1"
         d="M 0,0 0.751,-1.126 1.128,-2.255 0.751,-3.006 0,-4.135 l -1.126,-0.751 -1.128,-0.376 -0.75,0.376 -1.127,0.751 -0.752,1.129 -0.375,0.751 0.375,1.129 L -4.131,0 -3.004,0.751 -2.254,1.13 -1.126,0.751 0,0" /></g><g
       transform="matrix(3.5490787,0,0,3.5490787,198.50438,453.13225)"
       id="g180"><path
         id="path182"
         style="fill:none;stroke:#ffffff;stroke-width:0.48100001;stroke-linecap:square;stroke-linejoin:miter;stroke-miterlimit:10;stroke-dasharray:none;stroke-opacity:1"
         d="M 0,0 0.75,-0.751 1.127,-1.88 0.75,-3.382 0,-4.511 -0.751,-5.262 h -2.63 l -1.127,0.751 -0.751,1.129 v 2.631 L -4.508,0 -3.381,0.751 -1.879,1.126 -0.751,0.751 0,0" /></g><g
       transform="matrix(3.5490787,0,0,3.5490787,173.17248,427.78615)"
       id="g184"><path
         id="path186"
         style="fill:none;stroke:#ffffff;stroke-width:0.48100001;stroke-linecap:square;stroke-linejoin:miter;stroke-miterlimit:10;stroke-dasharray:none;stroke-opacity:1"
         d="M 0,0 0.377,-1.126 0.753,-2.256 0.377,-3.76 0,-4.887 -1.126,-5.637 h -2.629 l -1.128,0.75 -0.751,1.127 v 2.634 L -4.883,0 -3.755,0.375 -2.254,0.751 -1.126,0.375 0,0" /></g><g
       transform="matrix(3.5490787,0,0,3.5490787,146.50933,401.10559)"
       id="g188"><path
         id="path190"
         style="fill:none;stroke:#ffffff;stroke-width:0.48100001;stroke-linecap:square;stroke-linejoin:miter;stroke-miterlimit:10;stroke-dasharray:none;stroke-opacity:1"
         d="M 0,0 0.753,-1.129 V -3.76 L 0,-4.511 l -1.126,-0.751 -1.503,-0.375 -1.126,0.375 -0.751,0.751 -0.753,0.751 -0.375,1.129 0.375,1.502 0.753,1.129 0.751,0.751 h 2.629 L 0,0" /></g><g
       transform="matrix(3.5490787,0,0,3.5490787,494.45739,749.27588)"
       id="g192"><path
         id="path194"
         style="fill:none;stroke:#ffffff;stroke-width:0.48100001;stroke-linecap:square;stroke-linejoin:miter;stroke-miterlimit:10;stroke-dasharray:none;stroke-opacity:1"
         d="m 0,0 0.75,-1.127 v -2.63 L 0,-4.887 l -1.127,-0.751 -1.501,-0.375 -1.13,0.375 -0.75,0.751 -0.751,1.13 -0.376,1.126 0.376,1.504 0.751,1.127 0.75,0.375 h 2.631 L 0,0" /></g><g
       transform="matrix(3.5490787,0,0,3.5490787,466.45664,721.26443)"
       id="g196"><path
         id="path198"
         style="fill:none;stroke:#ffffff;stroke-width:0.48100001;stroke-linecap:square;stroke-linejoin:miter;stroke-miterlimit:10;stroke-dasharray:none;stroke-opacity:1"
         d="M 0,0 0.751,-1.126 1.129,-2.256 0.751,-3.382 0,-4.136 l -1.123,-0.751 -1.13,-0.375 -0.75,0.375 -1.13,0.751 -0.751,0.754 -0.372,1.126 0.372,1.13 0.751,1.126 1.13,0.751 0.75,0.378 1.13,-0.378 L 0,0" /></g><g
       transform="matrix(3.5490787,0,0,3.5490787,439.80021,694.58387)"
       id="g200"><path
         id="path202"
         style="fill:none;stroke:#ffffff;stroke-width:0.48100001;stroke-linecap:square;stroke-linejoin:miter;stroke-miterlimit:10;stroke-dasharray:none;stroke-opacity:1"
         d="M 0,0 0.75,-1.129 1.126,-2.255 0.75,-3.382 0,-4.511 l -1.878,-0.751 -1.501,0.376 -0.754,0.375 -0.751,1.129 -0.375,1.127 0.375,1.126 L -4.133,0 -3.379,0.751 -1.878,1.126 -1.127,0.751 0,0" /></g><g
       transform="matrix(3.5490787,0,0,3.5490787,413.1406,667.90687)"
       id="g204"><path
         id="path206"
         style="fill:none;stroke:#ffffff;stroke-width:0.48100001;stroke-linecap:square;stroke-linejoin:miter;stroke-miterlimit:10;stroke-dasharray:none;stroke-opacity:1"
         d="M 0,0 0.751,-1.13 1.123,-1.881 0.751,-3.385 0,-4.512 -0.751,-5.262 h -2.631 l -1.129,0.75 -0.751,1.127 V -1.13 L -4.511,0 -3.382,0.75 -1.88,1.126 -0.751,0.75 0,0" /></g><g
       transform="matrix(3.5490787,0,0,3.5490787,130.51399,749.27588)"
       id="g208"><path
         id="path210"
         style="fill:none;stroke:#ffffff;stroke-width:0.48100001;stroke-linecap:square;stroke-linejoin:miter;stroke-miterlimit:10;stroke-dasharray:none;stroke-opacity:1"
         d="M 0,0 0.752,0.375 H 3.381 L 4.507,0 5.26,-1.127 v -2.63 L 4.507,-4.887 3.381,-5.638 1.878,-6.013 0.752,-5.638 0,-4.887 l -0.752,1.13 -0.375,1.126 0.375,1.504 L 0,0" /></g><g
       transform="matrix(3.5490787,0,0,3.5490787,155.84269,721.26443)"
       id="g212"><path
         id="path214"
         style="fill:none;stroke:#ffffff;stroke-width:0.48100001;stroke-linecap:square;stroke-linejoin:miter;stroke-miterlimit:10;stroke-dasharray:none;stroke-opacity:1"
         d="M 0,0 1.127,0.751 2.629,1.129 3.757,0.751 4.883,0 5.26,-1.126 5.635,-2.256 5.26,-3.382 4.883,-4.136 3.757,-4.887 2.629,-5.262 1.127,-4.887 0,-4.136 -0.751,-3.382 v 2.256 L 0,0" /></g><g
       transform="matrix(3.5490787,0,0,3.5490787,182.50266,694.58387)"
       id="g216"><path
         id="path218"
         style="fill:none;stroke:#ffffff;stroke-width:0.48100001;stroke-linecap:square;stroke-linejoin:miter;stroke-miterlimit:10;stroke-dasharray:none;stroke-opacity:1"
         d="M 0,0 1.128,0.751 2.63,1.126 3.758,0.751 4.508,0 5.259,-1.129 5.636,-2.255 5.259,-3.382 4.508,-4.511 2.63,-5.262 1.128,-4.886 0,-4.511 -0.75,-3.382 v 2.253 L 0,0" /></g><g
       transform="matrix(3.5490787,0,0,3.5490787,210.50347,667.90687)"
       id="g220"><path
         id="path222"
         style="fill:none;stroke:#ffffff;stroke-width:0.48100001;stroke-linecap:square;stroke-linejoin:miter;stroke-miterlimit:10;stroke-dasharray:none;stroke-opacity:1"
         d="M 0,0 1.126,0.75 1.877,1.126 3.005,0.75 4.131,0 4.882,-1.13 5.259,-1.881 4.882,-3.385 4.131,-4.512 3.005,-5.262 H 1.126 L 0,-4.512 -0.752,-3.385 -1.128,-1.881 -0.752,-1.13 0,0" /></g><g
       transform="matrix(3.5490787,0,0,3.5490787,397.13177,479.80925)"
       id="g224"><path
         id="path226"
         style="fill:none;stroke:#ffffff;stroke-width:0.48100001;stroke-linecap:square;stroke-linejoin:miter;stroke-miterlimit:10;stroke-dasharray:none;stroke-opacity:1"
         d="M 0,0 1.129,0.751 2.631,1.13 3.76,0.751 4.511,0 5.262,-1.126 5.634,-2.255 5.262,-3.006 4.511,-4.135 3.76,-4.886 2.631,-5.262 1.129,-4.886 0,-4.135 -0.751,-3.006 v 1.88 L 0,0" /></g><g
       transform="matrix(3.5490787,0,0,3.5490787,425.13259,453.13225)"
       id="g228"><path
         id="path230"
         style="fill:none;stroke:#ffffff;stroke-width:0.48100001;stroke-linecap:square;stroke-linejoin:miter;stroke-miterlimit:10;stroke-dasharray:none;stroke-opacity:1"
         d="M 0,0 0.754,0.751 2.255,1.126 3.006,0.751 4.133,0 4.883,-0.751 5.259,-1.88 4.883,-3.382 4.133,-4.511 3.006,-5.262 H 0.754 L 0,-4.511 -0.751,-3.382 -1.126,-1.88 -0.751,-0.751 0,0" /></g><g
       transform="matrix(3.5490787,0,0,3.5490787,451.78901,427.78615)"
       id="g232"><path
         id="path234"
         style="fill:none;stroke:#ffffff;stroke-width:0.48100001;stroke-linecap:square;stroke-linejoin:miter;stroke-miterlimit:10;stroke-dasharray:none;stroke-opacity:1"
         d="M 0,0 1.13,0.375 1.88,0.751 3.01,0.375 4.133,0 4.884,-1.126 5.262,-2.256 4.884,-3.76 4.133,-4.887 3.01,-5.637 H 1.13 L 0,-4.887 -0.751,-3.76 -1.123,-2.256 -0.751,-1.126 0,0" /></g><g
       transform="matrix(3.5490787,0,0,3.5490787,478.45889,401.10559)"
       id="g236"><path
         id="path238"
         style="fill:none;stroke:#ffffff;stroke-width:0.48100001;stroke-linecap:square;stroke-linejoin:miter;stroke-miterlimit:10;stroke-dasharray:none;stroke-opacity:1"
         d="M 0,0 0.75,0.751 H 3.381 L 4.508,0 5.258,-1.129 V -3.76 L 4.508,-4.511 3.381,-5.262 1.88,-5.637 0.75,-5.262 0,-4.511 -0.751,-3.76 -1.127,-2.631 -0.751,-1.129 0,0" /></g><g
       transform="matrix(3.5490787,0,0,3.5490787,335.81291,577.19064)"
       id="g240"><path
         id="path242"
         style="fill:#628a97;fill-opacity:1;fill-rule:evenodd;stroke:none"
         d="M 0,0 0.754,-1.502 V -4.887 L 0,-6.013 l -0.751,-1.13 -0.751,-1.501 -1.505,-0.751 -0.75,-0.753 -1.877,-0.751 h -1.502 l -2.629,0.751 -1.503,0.753 -1.128,0.751 -1.125,1.501 -0.751,1.505 -0.376,1.126 v 3.01 l 0.376,1.502 0.751,1.129 1.125,1.126 1.128,1.13 1.503,0.75 1.126,0.376 h 3.38 l 1.502,-0.376 0.75,-0.75 1.505,-1.13 0.751,-1.126 z" /></g><g
       transform="matrix(3.5490787,0,0,3.5490787,335.81291,577.19064)"
       id="g244"><path
         id="path246"
         style="fill:none;stroke:#231f20;stroke-width:0.23999999;stroke-linecap:square;stroke-linejoin:miter;stroke-miterlimit:10;stroke-dasharray:none;stroke-opacity:1"
         d="M 0,0 0.754,-1.502 V -4.887 L 0,-6.013 l -0.751,-1.13 -0.751,-1.501 -1.505,-0.751 -0.75,-0.753 -1.877,-0.751 h -1.502 l -2.629,0.751 -1.503,0.753 -1.128,0.751 -1.125,1.501 -0.751,1.505 -0.376,1.126 v 3.01 l 0.376,1.502 0.751,1.129 1.125,1.126 1.128,1.13 1.503,0.75 1.126,0.376 h 3.38 l 1.502,-0.376 0.75,-0.75 1.505,-1.13 L -0.751,1.129 0,0" /></g><g
       transform="matrix(3.5490787,0,0,3.5490787,302.48848,554.51664)"
       id="g248"><path
         id="path250"
         style="fill:#231f20;fill-opacity:1;fill-rule:evenodd;stroke:none"
         d="M 0,0 6.011,5.638 4.882,7.143 -1.503,1.127 Z" /></g><g
       transform="matrix(3.5490787,0,0,3.5490787,323.82093,558.51645)"
       id="g252"><path
         id="path254"
         style="fill:#231f20;fill-opacity:1;fill-rule:evenodd;stroke:none"
         d="m 0,0 -6.011,6.016 -1.128,-1.13 5.638,-6.388 z" /></g><path
       id="path256"
       style="fill:none;stroke:#231f20;stroke-width:1.70710695;stroke-linecap:square;stroke-linejoin:miter;stroke-miterlimit:10;stroke-dasharray:none;stroke-opacity:1"
       d="M 186.50461,314.39984 H 433.13362 V 250.36025 H 186.50461 Z" /><g
       transform="matrix(3.5490787,0,0,3.5490787,-561.35513,237.10196)"
       id="g258"><path
         id="path260"
         style="fill:#5f1316;fill-opacity:1;fill-rule:nonzero;stroke:none"
         d="M 0,0 H 203.958 Z" /></g><g
       transform="matrix(3.5490787,0,0,3.5490787,-561.35513,237.10302)"
       id="g262"><path
         id="path264"
         style="fill:none;stroke:#5f1316;stroke-width:5;stroke-linecap:butt;stroke-linejoin:miter;stroke-miterlimit:4;stroke-dasharray:none;stroke-opacity:1"
         d="M 0,0 H 203.958" /></g><g
       transform="matrix(3.5490787,0,0,3.5490787,-561.35513,214.47765)"
       id="g266"><path
         id="path268"
         style="fill:#5f1316;fill-opacity:1;fill-rule:nonzero;stroke:none"
         d="M 0,0 H 203.958 Z" /></g><g
       transform="matrix(3.5490787,0,0,3.5490787,-561.35513,214.47765)"
       id="g270"><path
         id="path272"
         style="fill:none;stroke:#ed1c24;stroke-width:5;stroke-linecap:butt;stroke-linejoin:miter;stroke-miterlimit:4;stroke-dasharray:none;stroke-opacity:1"
         d="M 0,0 H 203.958" /></g><g
       transform="matrix(3.5490787,0,0,3.5490787,-561.35513,191.85333)"
       id="g274"><path
         id="path276"
         style="fill:#5f1316;fill-opacity:1;fill-rule:nonzero;stroke:none"
         d="M 0,0 H 203.958 Z" /></g><g
       transform="matrix(3.5490787,0,0,3.5490787,-561.35513,191.85227)"
       id="g278"><path
         id="path280"
         style="fill:none;stroke:#f68712;stroke-width:5;stroke-linecap:butt;stroke-linejoin:miter;stroke-miterlimit:4;stroke-dasharray:none;stroke-opacity:1"
         d="M 0,0 H 203.958" /></g><path
       id="path282"
       style="fill:#231f20;fill-opacity:1;fill-rule:nonzero;stroke:#231f20;stroke-width:3.54907894;stroke-linecap:butt;stroke-linejoin:miter;stroke-miterlimit:4;stroke-dasharray:none;stroke-opacity:1"
       d="m -752.8407,259.14067 h 191.48344 V 168.52559 H -752.8407 Z" /><path
       id="path284"
       style="fill:#231f20;fill-opacity:1;fill-rule:nonzero;stroke:#ffffff;stroke-width:3.54907894;stroke-linecap:butt;stroke-linejoin:miter;stroke-miterlimit:4;stroke-dasharray:none;stroke-opacity:1"
       d="m -690.86316,198.87376 h 91.03743 v -22.23143 h -91.03743 z" /><path
       id="path286"
       style="fill:#231f20;fill-opacity:1;fill-rule:nonzero;stroke:#ffffff;stroke-width:3.54907894;stroke-linecap:butt;stroke-linejoin:miter;stroke-miterlimit:4;stroke-dasharray:none;stroke-opacity:1"
       d="m -690.86316,226.6524 h 91.03743 v -22.22787 h -91.03743 z" /><path
       id="path288"
       style="fill:#231f20;fill-opacity:1;fill-rule:nonzero;stroke:#ffffff;stroke-width:3.54907894;stroke-linecap:butt;stroke-linejoin:miter;stroke-miterlimit:4;stroke-dasharray:none;stroke-opacity:1"
       d="m -690.43726,254.00871 h 91.04097 v -22.22789 h -91.04097 z" /></g></svg>