<svg xmlns="http://www.w3.org/2000/svg" xmlns:xlink="http://www.w3.org/1999/xlink" xmlns:lucid="lucid" width="2420" height="980"><g transform="translate(-380 -140)" lucid:page-tab-id="0_0"><path d="M2061.16 580h240v180h-240z" stroke="#000" stroke-width="6" fill="#83bbe5"/><use xlink:href="#a" transform="matrix(1,0,0,1,2066.1644089624424,585) translate(65.13020833333331 103.46354166666666)"/><path d="M1961.16 670c0 27.6-22.38 50-50 50-27.6 0-50-22.4-50-50s22.4-50 50-50c27.62 0 50 22.4 50 50z" stroke="#000" stroke-width="6" fill="#ff8f80"/><path d="M1968.17 670h58.78" stroke="#000" stroke-width="8" fill="none"/><path d="M1968.27 674h-4.3l.2-3.98-.14-3.84-.02-.18h4.27z"/><path d="M2045.22 670l-14.27 4.64v-9.28z" stroke="#000" stroke-width="8"/><path d="M1590 590v160l171.16-80z" stroke="#000" stroke-width="6" fill="#ef8d22"/><path d="M1772.25 670h54.7" stroke="#000" stroke-width="8" fill="none"/><path d="M1772.35 674h-7.1v-2.6l3-1.4-3-1.4V666h7.1z"/><path d="M1845.22 670l-14.27 4.64v-9.28z" stroke="#000" stroke-width="8"/><path d="M1490 670c0 27.6-22.4 50-50 50s-50-22.4-50-50 22.4-50 50-50 50 22.4 50 50z" stroke="#000" stroke-width="6" fill="#ff8f80"/><path d="M1497 670h58.8" stroke="#000" stroke-width="8" fill="none"/><path d="M1497.1 674h-4.3l.2-3.98-.13-3.84-.02-.18h4.25z"/><path d="M1574.06 670l-14.27 4.64v-9.28z" stroke="#000" stroke-width="8"/><path d="M880 580h240v180H880z" stroke="#000" stroke-width="6" fill="#5abaa7"/><use xlink:href="#b" transform="matrix(1,0,0,1,885,585) translate(67.44791666666666 103.46354166666666)"/><path d="M1127 670h228.8" stroke="#000" stroke-width="8" fill="none"/><path d="M1127.1 674h-4.1v-8h4.1z"/><path d="M1374.05 670l-14.26 4.64v-9.28z" stroke="#000" stroke-width="8"/><path d="M780 670c0 27.6-22.4 50-50 50s-50-22.4-50-50 22.4-50 50-50 50 22.4 50 50z" stroke="#000" stroke-width="6" fill="#ff8f80"/><path d="M787 670h58.8" stroke="#000" stroke-width="8" fill="none"/><path d="M787.1 674h-4.3l.2-3.98-.13-3.84-.02-.18h4.25z"/><path d="M864.06 670l-14.27 4.64v-9.28z" stroke="#000" stroke-width="8"/><path d="M645.8 670H524" stroke="#000" stroke-width="8" fill="none"/><path d="M664.05 670l-14.26 4.64v-9.28z" stroke="#000" stroke-width="8"/><path d="M524.1 670H520M2308.16 670h265.65" stroke="#000" stroke-width="8" fill="none"/><path d="M2308.27 674h-4.1v-8h4.1z"/><path d="M2592.08 670l-14.27 4.64v-9.28z" stroke="#000" stroke-width="8"/><path d="M730 754.2V900h1657V685.5" stroke="#000" stroke-width="8" fill="none"/><path d="M730 735.95l4.64 14.26h-9.28z" stroke="#000" stroke-width="8"/><path d="M2391 685.6h-8v-4.93l.52.27 3.48.56 3.48-.56.52-.27z"/><path d="M1440 754.2V907" stroke="#000" stroke-width="8" fill="none"/><path d="M1440 735.95l4.64 14.26h-9.28z" stroke="#000" stroke-width="8"/><path d="M1444 910.18l-.52.27-3.48.56-3.48-.55-.52-.27v-3.27h8z"/><path d="M1450 900c0 5.52-4.48 10-10 10s-10-4.48-10-10 4.48-10 10-10 10 4.48 10 10zM2397 670.5c0 5.5-4.48 10-10 10s-10-4.5-10-10c0-5.53 4.48-10 10-10s10 4.47 10 10z" stroke="#000" stroke-width="2"/><path d="M500 602.16h110.44v58.33H500z" fill="#fff" fill-opacity="0"/><path d="M509.5 604.8h16.56c8.67 0 13.4 3.7 13.4 9.27 0 3.16-1.64 6.38-4.33 8.42-2.04 1.56-4.2 2.35-8.6 3.34l5.84 15.44c1.44 3.88 2.76 5.4 5.7 5.4v1.04h-9.65l-8.08-21.3-4.34-.32-3.6 13.34c-.74 2.56-.87 3.48-.87 4.14 0 1.97.66 2.7 4.4 3.1v1.04h-15.96v-1.05c3.6-.46 4.53-1.7 5.58-5.6l7.82-28.3c.46-1.78.8-3.03.8-4.15 0-.72-.47-1.5-.93-1.84-.72-.46-.98-.53-3.74-.92v-1.05m11.43 3.95l-4.14 14.92c1.63.26 2.16.33 3.34.33 7.82 0 12.42-3.75 12.42-9.86 0-4.53-2.76-7.36-7.88-7.36-2.04 0-3.42.72-3.75 1.97M560.95 658.3l-.8 1.05c-10.37-5.9-16.02-17.02-16.02-28.2 0-12.15 5.72-21.6 16.23-27.85l.6 1.05c-9.14 7.82-11.18 13.93-11.18 26.6 0 12.24 1.97 19.66 11.17 27.35M586.98 618.67l-1.32 9.2h-1.05c-.65-5.45-2.62-7.62-5.84-7.62-2.3 0-3.88 1.32-3.88 3.75 0 1.77 1 3.68 3.55 6.7 3.3 3.8 4.47 6.38 4.47 8.94 0 5.45-4 8.8-9.46 8.8-1.12 0-2.1-.06-3.62-.65-1.24-.54-2.16-.6-2.9-.6-.7 0-1.43.32-1.9 1.38H564l1.3-10.45h1.06c.92 6.24 3.16 8.93 6.57 8.93 3.1 0 5-1.84 5-5.06 0-2.1-1.1-4.33-3.67-7.55-2.83-3.55-4.14-6.5-4.14-8.6 0-4.35 3.08-7.1 7.94-7.1 1.12 0 2.04.2 3.68.65 1.25.4 1.84.46 2.37.46.97 0 1.43-.27 1.96-1.2h.92M590.4 604.35l.78-1.05c10.06 6.04 16.04 17.02 16.04 28.2 0 12.15-5.8 21.48-16.23 27.85l-.6-1.05c9.33-7.7 11.17-13.86 11.17-26.6 0-12.3-1.65-19.86-11.18-27.35"/><path d="M2450 608.07h111.06v58.33H2450z" fill="#fff" fill-opacity="0"/><path d="M2491.6 610.72v1.05c-1.9.66-2.43 1.3-4.6 4l-14.4 17.75-2.36 8.1c-1.5 5.18-1.97 6.95-1.97 8.33 0 1.64.92 2.24 3.48 2.43l2.37.2v1.05h-19v-1.05c4.34-.26 5.85-1.12 7.04-5.32l3.87-13.47-5-17.56c-.98-3.42-1.37-3.94-5.05-4.47v-1.05h15.7v1.05c-3.94.4-4.72.92-4.72 2.37 0 .98.78 3.87 2.36 9.46l2.04 7.23 2.56-3.02c6.9-8.14 9.8-12.22 9.8-14 0-1.1-.73-1.64-2.64-1.83l-1.9-.2v-1.05h12.42M2511.58 664.2l-.8 1.06c-10.37-5.9-16.03-17.02-16.03-28.2 0-12.15 5.72-21.6 16.24-27.85l.58 1.06c-9.14 7.82-11.17 13.93-11.17 26.6 0 12.24 1.98 19.66 11.18 27.35M2537.6 624.6l-1.3 9.2h-1.06c-.66-5.47-2.63-7.64-5.85-7.64-2.3 0-3.9 1.32-3.9 3.75 0 1.78 1 3.7 3.56 6.7 3.28 3.82 4.47 6.4 4.47 8.95 0 5.45-4 8.8-9.47 8.8-1.1 0-2.1-.06-3.6-.65-1.26-.53-2.18-.6-2.9-.6-.73 0-1.45.33-1.9 1.4h-1.06l1.3-10.46h1.07c.92 6.24 3.15 8.93 6.57 8.93 3.1 0 5-1.84 5-5.06 0-2.1-1.13-4.32-3.7-7.54-2.8-3.55-4.13-6.5-4.13-8.6 0-4.35 3.1-7.1 7.96-7.1 1.12 0 2.04.2 3.68.65 1.25.4 1.84.47 2.37.47 1 0 1.46-.26 1.98-1.18h.92M2541.02 610.26l.8-1.05c10.04 6.05 16.02 17.03 16.02 28.2 0 12.16-5.78 21.5-16.23 27.86l-.58-1.05c9.33-7.68 11.17-13.85 11.17-26.6 0-12.3-1.65-19.85-11.18-27.34"/><path d="M1911.16 585.8V465.75" stroke="#000" stroke-width="8" fill="none"/><path d="M1911.16 604.05l-4.63-14.26h9.27z" stroke="#000" stroke-width="8"/><path d="M1911.16 465.86v-4.1" stroke="#000" stroke-width="8" fill="none"/><path d="M1850 400h137.1v58.33H1850z" fill="#fff" fill-opacity="0"/><path d="M1891.6 402.65l-2.9 10.77-1.1-.13c.12-1.13.2-2.18.2-3.03 0-3.48-2.38-5.32-6.65-5.32h-3.8l-9 32.2c-.4 1.38-.93 2.9-.93 4.33 0 2.04.78 2.57 3.48 2.83l2.3.2v1.06h-18.93v-1.05c4.54-.4 6.05-1.37 7.03-4.92l9.4-34.63c-10.38 0-12.5 1.05-15.64 8.14l-1.18-.27 2.76-10.18h34.96M1910.78 423.72l.28.28-1.8 7.06-2.8 10.18c-1.44 5.3-3.02 10.7-3.02 11.43 0 .56.23.93.84.93.8 0 1.3-.42 3.8-3.3l.56.46c-2.27 3.4-4.5 5.3-6.83 5.3-1.2 0-1.9-.84-1.9-2.1 0-1.06.1-1.8.6-4.13-2.73 4.6-5.1 6.14-8.26 6.14-3.02 0-4.97-1.9-4.97-5.44 0-7.53 7.53-15.57 13.57-15.57 1.95 0 2.74.9 3.02 2.7h.04l2.1-7.58c.7-2.46.65-2.64.65-3.3 0-.97-.42-1.1-2.98-1.2v-.8c2.98-.27 4.65-.55 7.1-1.06m-7.66 14.96c0-1.67-1.1-2.65-2.17-2.65-1.3 0-2.93.8-4.23 2.14-3.07 3.25-5.4 8.32-5.4 12.18 0 2.13 1.08 3.4 2.7 3.4 4.28 0 9.1-8 9.1-15.07M1937.6 456.14l-.8 1.05c-10.37-5.92-16.02-17.03-16.02-28.2 0-12.16 5.7-21.62 16.23-27.87l.6 1.06c-9.13 7.8-11.17 13.92-11.17 26.6 0 12.22 1.97 19.65 11.17 27.34M1963.56 416.5l-1.32 9.2h-1.05c-.66-5.44-2.64-7.6-5.86-7.6-2.3 0-3.87 1.3-3.87 3.74 0 1.77.98 3.68 3.55 6.7 3.28 3.8 4.46 6.37 4.46 8.94 0 5.45-4 8.8-9.46 8.8-1.12 0-2.1-.06-3.6-.66-1.26-.52-2.18-.6-2.9-.6-.73 0-1.45.34-1.9 1.4h-1.06l1.3-10.46h1.06c.92 6.25 3.16 8.94 6.58 8.94 3.08 0 5-1.84 5-5.06 0-2.1-1.13-4.34-3.7-7.56-2.82-3.54-4.13-6.5-4.13-8.6 0-4.34 3.1-7.1 7.95-7.1 1.12 0 2.04.2 3.68.65 1.25.4 1.84.46 2.37.46.98 0 1.44-.27 1.97-1.2h.92M1967.04 402.2l.8-1.07c10.05 6.05 16.03 17.02 16.03 28.2 0 12.15-5.8 21.5-16.24 27.86l-.6-1.06c9.34-7.7 11.18-13.87 11.18-26.62 0-12.3-1.63-19.84-11.16-27.33"/><path d="M1623 637.23h59.23v66.52H1623z" fill="#fff" fill-opacity="0"/><path d="M1653.3 655.12v1.05c-3.1.2-5.13 1.5-14.8 10.12l2.44 5.78c2.56 6.04 4.08 8.47 5.32 8.47 1 0 1.78-.72 2.96-2.76.33-.53.66-1.12 1-1.72l.97.73c-3.03 5.53-4.67 7.17-7.3 7.17-1.9 0-3.22-1.25-5.33-5.4-1.18-2.3-2.9-6.36-3.94-9.25l-2.63 2.1-3.15 11.83h-4.93l9.27-34.7c.84-3.16 1.04-4.67 1.17-5.78-.13-1.2-1.12-1.58-3.35-1.58h-1.2v-1.06c3.9-.46 6.45-.92 10.33-1.78l.4.4-7.9 29.96 2.84-2.16c6.16-4.74 9.38-7.9 9.38-9.2 0-.73-.78-1.2-2.43-1.2h-.92v-1.04h11.77M1662.17 673.26l-1.34 4.64c2.5-3.76 5.15-5.25 7.94-5.25 3.44 0 5.35 2.2 5.35 5.8 0 7.68-7.02 15.2-13.8 15.2-1.07 0-2.05-.18-3.2-.78-.8 3.25-1.87 7.06-1.87 7.7 0 1.03.7 1.36 2.88 1.36v.74h-9.43v-.74c2-.05 2.6-.74 3.16-2.93l5.34-20.07c.5-1.86.74-3.07.74-3.3 0-1.12-1.3-1.26-2.04-1.26h-1.02l-.1-.7 7.25-1.02c.14 0 .24.1.24.2l-.1.4m7.76 5.35c0-2.65-.8-3.95-2.88-3.95-2.46 0-5.2 2.5-6.27 5.3-1.35 3.48-3.02 9.48-3.02 11.06 0 1.03.93 1.77 2.23 1.77 2.45 0 4.68-1.53 6.73-4.4 2.23-3.12 3.2-6.52 3.2-9.77"/><path d="M646 682.93h30.9V711H646z" fill="#fff" fill-opacity="0"/><path d="M674.68 698.45H662.9v11.77h-2.97v-11.77h-11.77v-2.97h11.77V683.7h2.98v11.78h11.78v2.97"/><path d="M749.1 727.5H780v14.42h-30.9z" fill="#fff" fill-opacity="0"/><path d="M777.1 731.26h-25.13v-2.97h25.12v2.96"/><path d="M1353 682h30.9v28.07H1353z" fill="#fff" fill-opacity="0"/><path d="M1381.68 697.52h-11.77v11.77h-2.97V697.5h-11.77v-2.97h11.77v-11.77h2.98v11.77h11.78v2.97"/><path d="M1459.1 731.93h30.9v14.4h-30.9z" fill="#fff" fill-opacity="0"/><path d="M1487.1 735.68h-25.13v-2.97h25.12v2.98"/><path d="M1826 685h30.9v28.07H1826z" fill="#fff" fill-opacity="0"/><path d="M1854.68 700.52h-11.77v11.77h-2.97V700.5h-11.77v-2.97h11.77v-11.77h2.98v11.77h11.78v2.97"/><path d="M1869.8 590h30.9v28.07h-30.9z" fill="#fff" fill-opacity="0"/><path d="M1898.48 605.52h-11.77v11.77h-2.97V605.5h-11.77v-2.97h11.77v-11.77h2.98v11.77h11.78v2.97"/><path d="M1270 338.33h1370V1040H1270z" fill-opacity="0"/><path d="M1330.9 338.33h60.88m30.44 0h60.9m30.44 0h60.88m30.45 0h60.88m30.44 0h60.9m30.44 0h60.88m30.45 0h60.88m30.44 0h60.9m30.44 0h60.88m30.45 0h60.88m30.44 0h60.9m30.44 0h60.88m30.45 0h60.88m30.44 0h60.9m30.44 0H2640v29.23m0 29.24v58.47m0 29.24V543m0 29.24v58.47m0 29.23v58.47m0 29.24v58.47m0 29.24v58.48m0 29.23v58.48m0 29.23V1040h-30.44m-30.45 0h-60.88m-30.44 0h-60.9m-30.44 0h-60.88m-30.45 0h-60.88m-30.44 0h-60.9m-30.44 0h-60.88m-30.45 0h-60.88m-30.44 0h-60.9m-30.44 0h-60.88m-30.45 0h-60.88m-30.44 0h-60.9m-30.44 0h-60.88m-30.45 0h-60.88m-30.44 0h-60.9m-30.44 0H1270v-29.24m0-29.23v-58.48m0-29.23v-58.48m0-29.23v-58.46m0-29.24v-58.47m0-29.24V572.2m0-29.24V484.5m0-29.23V396.8m0-29.24v-29.23h30.44" stroke="red" stroke-width="6" fill="none"/><path d="M400 160h2380v940H400z" fill-opacity="0"/><path d="M459.65 160h5.96m29.84 0h59.65m29.8 0h5.98m29.82 0h59.65m29.83 0h5.96m29.82 0h59.65m29.84 0h5.96m29.83 0h59.65m29.82 0h5.97m29.82 0h59.64m29.82 0h5.97m29.82 0h59.65m29.83 0h5.96m29.82 0h59.65m29.82 0h5.96m29.82 0h59.65m29.82 0h5.97m29.82 0h59.65m29.82 0h5.96m29.83 0h59.66m29.82 0h5.97m29.82 0h59.65m29.82 0h5.97m29.83 0h59.65m29.83 0h5.97m29.83 0h59.65m29.82 0h5.97m29.82 0h59.65m29.83 0h5.97m29.82 0h59.65m29.83 0h5.96m29.83 0h59.64m29.82 0h5.96m29.83 0h59.65m29.82 0h5.97m29.8 0h59.66m29.83 0h5.95m29.83 0H2780v31.97m0 31.98v6.4m0 31.96v63.96m0 31.97v6.4m0 31.97v63.94m0 31.98v6.4m0 31.96v63.95m0 31.97v6.4m0 31.97v63.95m0 31.97v6.38m0 31.98v63.94m0 31.97v6.4m0 31.97v63.95m0 31.96v6.4m0 31.97V1100h-29.82m-29.83 0h-5.96m-29.84 0h-59.65m-29.8 0h-5.98m-29.82 0h-59.65m-29.83 0h-5.96m-29.82 0h-59.65m-29.84 0h-5.96m-29.83 0h-59.65m-29.82 0h-5.97m-29.82 0h-59.64m-29.82 0h-5.97m-29.82 0h-59.65m-29.83 0h-5.96m-29.82 0h-59.65m-29.82 0h-5.96m-29.82 0h-59.65m-29.82 0h-5.97m-29.82 0h-59.65m-29.82 0h-5.96m-29.83 0h-59.66m-29.82 0h-5.97m-29.82 0h-59.65m-29.82 0h-5.97m-29.83 0h-59.65m-29.83 0h-5.97m-29.83 0h-59.65m-29.82 0h-5.97m-29.82 0H996.5m-29.83 0h-5.97m-29.82 0h-59.65m-29.83 0h-5.96m-29.83 0h-59.64m-29.82 0h-5.96m-29.83 0H620.7m-29.82 0h-5.97m-29.8 0h-59.66m-29.83 0h-5.95m-29.83 0H400v-31.97m0-31.98v-6.4m0-31.96v-63.96m0-31.97v-6.4m0-31.97v-63.94m0-31.98v-6.4m0-31.96v-63.95m0-31.97v-6.4m0-31.97v-63.95m0-31.97v-6.38m0-31.98V396.6m0-31.97v-6.4m0-31.97V262.3m0-31.96v-6.4m0-31.97V160h29.82" stroke="#0c7cba" stroke-width="6" fill="none"/><path d="M1320 380h400v163h-400z" stroke="#000" stroke-opacity="0" stroke-width="2" fill="#fff" fill-opacity="0"/><use xlink:href="#c" transform="matrix(1,0,0,1,1325,385) translate(54.48148148148147 55.16666666666667)"/><use xlink:href="#d" transform="matrix(1,0,0,1,1325,385) translate(261.5925925925926 55.16666666666667)"/><use xlink:href="#e" transform="matrix(1,0,0,1,1325,385) translate(20.85185185185182 119.16666666666667)"/><use xlink:href="#f" transform="matrix(1,0,0,1,1325,385) translate(199.37037037037038 119.16666666666667)"/><path d="M500 200h400v163H500z" stroke="#000" stroke-opacity="0" stroke-width="2" fill="#fff" fill-opacity="0"/><g><use xlink:href="#g" transform="matrix(1,0,0,1,505,205) translate(54.48148148148147 55.16666666666667)"/><use xlink:href="#h" transform="matrix(1,0,0,1,505,205) translate(261.5925925925926 55.16666666666667)"/><use xlink:href="#i" transform="matrix(1,0,0,1,505,205) translate(20.333333333333314 119.16666666666667)"/><use xlink:href="#j" transform="matrix(1,0,0,1,505,205) translate(180.03703703703704 119.16666666666667)"/></g><defs><path d="M1202-1100c1-171-90-275-258-274-169 0-314 88-434 262S330-733 330-496c0 267 132 400 395 400 77 0 154-10 231-29 24-127 60-250 76-383 7-59-66-86-166-82l19-86h545l-19 86c-120-2-161 48-182 148l-78 368c-145 63-299 94-463 94-362 0-582-194-582-548 0-516 374-955 881-955 136 0 242 21 318 62s114 94 114 159c0 108-103 164-217 162" id="k"/><path d="M469 168l-20 94C207 156 86-58 86-381c0-275 66-524 198-746s317-365 552-429l-21 92c-189 103-325 276-409 518S279-484 279-285c0 214 63 365 190 453" id="l"/><path d="M180-811c1-193 185-305 395-305 101 0 179 19 235 56s85 83 85 138c0 85-51 127-154 127 2-127-62-227-184-227-114 0-199 69-199 176 0 45 17 84 51 116s87 64 158 95c164 73 246 179 246 318-1 216-192 337-424 337C210 20 55-51 51-211c-2-83 51-135 129-135-2 160 80 268 234 268 147 0 221-63 221-190 0-49-16-90-47-124s-85-67-160-102c-98-46-164-94-198-144s-50-108-50-173" id="m"/><path d="M266-1446l21-94c241 105 362 320 362 643 0 277-67 527-200 749S133 216-100 279l20-93C109 84 246-90 330-334s127-464 127-659c0-213-64-364-191-453" id="n"/><g id="a"><use transform="matrix(0.026041666666666668,0,0,0.026041666666666668,0,0)" xlink:href="#k"/><use transform="matrix(0.026041666666666668,0,0,0.026041666666666668,38.07291666666667,0)" xlink:href="#l"/><use transform="matrix(0.026041666666666668,0,0,0.026041666666666668,56.53645833333335,0)" xlink:href="#m"/><use transform="matrix(0.026041666666666668,0,0,0.026041666666666668,81.27604166666669,0)" xlink:href="#n"/></g><path d="M106-528c0-485 364-955 844-955 119 0 211 23 279 61 104 58 139 206 45 283-36 29-85 43-146 43 0-185-68-278-204-278-169 0-310 92-424 276S330-714 330-496c0 255 121 383 364 383 158 0 284-62 379-186 18 13 27 35 27 68 0 65-38 124-114 175S805 20 672 20c-350 0-566-199-566-548" id="o"/><g id="b"><use transform="matrix(0.026041666666666668,0,0,0.026041666666666668,0,0)" xlink:href="#o"/><use transform="matrix(0.026041666666666668,0,0,0.026041666666666668,33.4375,0)" xlink:href="#l"/><use transform="matrix(0.026041666666666668,0,0,0.026041666666666668,51.90104166666667,0)" xlink:href="#m"/><use transform="matrix(0.026041666666666668,0,0,0.026041666666666668,76.640625,0)" xlink:href="#n"/></g><path fill="red" d="M185-189c-5-48-123-54-124 2 14 75 158 14 163 119 3 78-121 87-175 55-17-10-28-26-33-46l33-7c5 56 141 63 141-1 0-78-155-14-162-118-5-82 145-84 179-34 5 7 8 16 11 25" id="p"/><path fill="red" d="M24-231v-30h32v30H24zM24 0v-190h32V0H24" id="q"/><path fill="red" d="M135-143c-3-34-86-38-87 0 15 53 115 12 119 90S17 21 10-45l28-5c4 36 97 45 98 0-10-56-113-15-118-90-4-57 82-63 122-42 12 7 21 19 24 35" id="r"/><path fill="red" d="M59-47c-2 24 18 29 38 22v24C64 9 27 4 27-40v-127H5v-23h24l9-43h21v43h35v23H59v120" id="s"/><path fill="red" d="M100-194c63 0 86 42 84 106H49c0 40 14 67 53 68 26 1 43-12 49-29l28 8c-11 28-37 45-77 45C44 4 14-33 15-96c1-61 26-98 85-98zm52 81c6-60-76-77-97-28-3 7-6 17-6 28h103" id="t"/><path fill="red" d="M210-169c-67 3-38 105-44 169h-31v-121c0-29-5-50-35-48C34-165 62-65 56 0H25l-1-190h30c1 10-1 24 2 32 10-44 99-50 107 0 11-21 27-35 58-36 85-2 47 119 55 194h-31v-121c0-29-5-49-35-48" id="u"/><path fill="red" d="M141-36C126-15 110 5 73 4 37 3 15-17 15-53c-1-64 63-63 125-63 3-35-9-54-41-54-24 1-41 7-42 31l-33-3c5-37 33-52 76-52 45 0 72 20 72 64v82c-1 20 7 32 28 27v20c-31 9-61-2-59-35zM48-53c0 20 12 33 32 33 41-3 63-29 60-74-43 2-92-5-92 41" id="v"/><g id="c"><use transform="matrix(0.14814814814814817,0,0,0.14814814814814817,0,0)" xlink:href="#p"/><use transform="matrix(0.14814814814814817,0,0,0.14814814814814817,35.55555555555556,0)" xlink:href="#q"/><use transform="matrix(0.14814814814814817,0,0,0.14814814814814817,47.25925925925927,0)" xlink:href="#r"/><use transform="matrix(0.14814814814814817,0,0,0.14814814814814817,73.92592592592594,0)" xlink:href="#s"/><use transform="matrix(0.14814814814814817,0,0,0.14814814814814817,88.74074074074078,0)" xlink:href="#t"/><use transform="matrix(0.14814814814814817,0,0,0.14814814814814817,118.37037037037041,0)" xlink:href="#u"/><use transform="matrix(0.14814814814814817,0,0,0.14814814814814817,162.66666666666669,0)" xlink:href="#v"/></g><g id="d"><use transform="matrix(0.14814814814814817,0,0,0.14814814814814817,0,0)" xlink:href="#t"/><use transform="matrix(0.14814814814814817,0,0,0.14814814814814817,29.629629629629633,0)" xlink:href="#u"/></g><path fill="red" d="M109-170H84l-4-78h32zm-65 0H19l-4-78h33" id="w"/><path fill="red" d="M24 0v-261h32V0H24" id="x"/><path fill="red" d="M106-169C34-169 62-67 57 0H25v-261h32l-1 103c12-21 28-36 61-36 89 0 53 116 60 194h-32v-121c2-32-8-49-39-48" id="y"/><g id="e"><use transform="matrix(0.14814814814814817,0,0,0.14814814814814817,0,0)" xlink:href="#w"/><use transform="matrix(0.14814814814814817,0,0,0.14814814814814817,18.814814814814817,0)" xlink:href="#u"/><use transform="matrix(0.14814814814814817,0,0,0.14814814814814817,63.11111111111112,0)" xlink:href="#v"/><use transform="matrix(0.14814814814814817,0,0,0.14814814814814817,92.74074074074078,0)" xlink:href="#x"/><use transform="matrix(0.14814814814814817,0,0,0.14814814814814817,104.44444444444447,0)" xlink:href="#y"/><use transform="matrix(0.14814814814814817,0,0,0.14814814814814817,134.0740740740741,0)" xlink:href="#v"/></g><path fill="red" d="M115-194c53 0 69 39 70 98 0 66-23 100-70 100C84 3 66-7 56-30L54 0H23l1-261h32v101c10-23 28-34 59-34zm-8 174c40 0 45-34 45-75 0-40-5-75-45-74-42 0-51 32-51 76 0 43 10 73 51 73" id="z"/><path fill="red" d="M114-163C36-179 61-72 57 0H25l-1-190h30c1 12-1 29 2 39 6-27 23-49 58-41v29" id="A"/><g id="f"><use transform="matrix(0.14814814814814817,0,0,0.14814814814814817,0,0)" xlink:href="#v"/><use transform="matrix(0.14814814814814817,0,0,0.14814814814814817,29.629629629629633,0)" xlink:href="#z"/><use transform="matrix(0.14814814814814817,0,0,0.14814814814814817,59.25925925925927,0)" xlink:href="#t"/><use transform="matrix(0.14814814814814817,0,0,0.14814814814814817,88.8888888888889,0)" xlink:href="#A"/><use transform="matrix(0.14814814814814817,0,0,0.14814814814814817,106.51851851851853,0)" xlink:href="#s"/><use transform="matrix(0.14814814814814817,0,0,0.14814814814814817,121.33333333333334,0)" xlink:href="#v"/><use transform="matrix(0.14814814814814817,0,0,0.14814814814814817,150.962962962963,0)" xlink:href="#w"/></g><path fill="#0c7cba" d="M185-189c-5-48-123-54-124 2 14 75 158 14 163 119 3 78-121 87-175 55-17-10-28-26-33-46l33-7c5 56 141 63 141-1 0-78-155-14-162-118-5-82 145-84 179-34 5 7 8 16 11 25" id="B"/><path fill="#0c7cba" d="M24-231v-30h32v30H24zM24 0v-190h32V0H24" id="C"/><path fill="#0c7cba" d="M135-143c-3-34-86-38-87 0 15 53 115 12 119 90S17 21 10-45l28-5c4 36 97 45 98 0-10-56-113-15-118-90-4-57 82-63 122-42 12 7 21 19 24 35" id="D"/><path fill="#0c7cba" d="M59-47c-2 24 18 29 38 22v24C64 9 27 4 27-40v-127H5v-23h24l9-43h21v43h35v23H59v120" id="E"/><path fill="#0c7cba" d="M100-194c63 0 86 42 84 106H49c0 40 14 67 53 68 26 1 43-12 49-29l28 8c-11 28-37 45-77 45C44 4 14-33 15-96c1-61 26-98 85-98zm52 81c6-60-76-77-97-28-3 7-6 17-6 28h103" id="F"/><path fill="#0c7cba" d="M210-169c-67 3-38 105-44 169h-31v-121c0-29-5-50-35-48C34-165 62-65 56 0H25l-1-190h30c1 10-1 24 2 32 10-44 99-50 107 0 11-21 27-35 58-36 85-2 47 119 55 194h-31v-121c0-29-5-49-35-48" id="G"/><path fill="#0c7cba" d="M141-36C126-15 110 5 73 4 37 3 15-17 15-53c-1-64 63-63 125-63 3-35-9-54-41-54-24 1-41 7-42 31l-33-3c5-37 33-52 76-52 45 0 72 20 72 64v82c-1 20 7 32 28 27v20c-31 9-61-2-59-35zM48-53c0 20 12 33 32 33 41-3 63-29 60-74-43 2-92-5-92 41" id="H"/><g id="g"><use transform="matrix(0.14814814814814817,0,0,0.14814814814814817,0,0)" xlink:href="#B"/><use transform="matrix(0.14814814814814817,0,0,0.14814814814814817,35.55555555555556,0)" xlink:href="#C"/><use transform="matrix(0.14814814814814817,0,0,0.14814814814814817,47.25925925925927,0)" xlink:href="#D"/><use transform="matrix(0.14814814814814817,0,0,0.14814814814814817,73.92592592592594,0)" xlink:href="#E"/><use transform="matrix(0.14814814814814817,0,0,0.14814814814814817,88.74074074074078,0)" xlink:href="#F"/><use transform="matrix(0.14814814814814817,0,0,0.14814814814814817,118.37037037037041,0)" xlink:href="#G"/><use transform="matrix(0.14814814814814817,0,0,0.14814814814814817,162.66666666666669,0)" xlink:href="#H"/></g><g id="h"><use transform="matrix(0.14814814814814817,0,0,0.14814814814814817,0,0)" xlink:href="#F"/><use transform="matrix(0.14814814814814817,0,0,0.14814814814814817,29.629629629629633,0)" xlink:href="#G"/></g><path fill="#0c7cba" d="M24 0v-261h32V0H24" id="I"/><path fill="#0c7cba" d="M106-169C34-169 62-67 57 0H25v-261h32l-1 103c12-21 28-36 61-36 89 0 53 116 60 194h-32v-121c2-32-8-49-39-48" id="J"/><g id="i"><use transform="matrix(0.14814814814814817,0,0,0.14814814814814817,0,0)" xlink:href="#G"/><use transform="matrix(0.14814814814814817,0,0,0.14814814814814817,44.296296296296305,0)" xlink:href="#H"/><use transform="matrix(0.14814814814814817,0,0,0.14814814814814817,73.92592592592594,0)" xlink:href="#I"/><use transform="matrix(0.14814814814814817,0,0,0.14814814814814817,85.62962962962965,0)" xlink:href="#J"/><use transform="matrix(0.14814814814814817,0,0,0.14814814814814817,115.25925925925928,0)" xlink:href="#H"/></g><path fill="#0c7cba" d="M101-234c-31-9-42 10-38 44h38v23H63V0H32v-167H5v-23h27c-7-52 17-82 69-68v24" id="K"/><path fill="#0c7cba" d="M96-169c-40 0-48 33-48 73s9 75 48 75c24 0 41-14 43-38l32 2c-6 37-31 61-74 61-59 0-76-41-82-99-10-93 101-131 147-64 4 7 5 14 7 22l-32 3c-4-21-16-35-41-35" id="L"/><path fill="#0c7cba" d="M85-194c31 0 48 13 60 33l-1-100h32l1 261h-30c-2-10 0-23-3-31C134-8 116 4 85 4 32 4 16-35 15-94c0-66 23-100 70-100zm9 24c-40 0-46 34-46 75 0 40 6 74 45 74 42 0 51-32 51-76 0-42-9-74-50-73" id="M"/><g id="j"><use transform="matrix(0.14814814814814817,0,0,0.14814814814814817,0,0)" xlink:href="#K"/><use transform="matrix(0.14814814814814817,0,0,0.14814814814814817,14.814814814814817,0)" xlink:href="#F"/><use transform="matrix(0.14814814814814817,0,0,0.14814814814814817,44.44444444444445,0)" xlink:href="#L"/><use transform="matrix(0.14814814814814817,0,0,0.14814814814814817,71.11111111111111,0)" xlink:href="#J"/><use transform="matrix(0.14814814814814817,0,0,0.14814814814814817,100.74074074074075,0)" xlink:href="#H"/><use transform="matrix(0.14814814814814817,0,0,0.14814814814814817,130.37037037037038,0)" xlink:href="#M"/><use transform="matrix(0.14814814814814817,0,0,0.14814814814814817,160,0)" xlink:href="#H"/></g></defs></g></svg>