<?xml version="1.0" encoding="UTF-8" standalone="no"?>
<!-- Created with Inkscape (http://www.inkscape.org/) -->

<svg
   xmlns:dc="http://purl.org/dc/elements/1.1/"
   xmlns:cc="http://creativecommons.org/ns#"
   xmlns:rdf="http://www.w3.org/1999/02/22-rdf-syntax-ns#"
   xmlns:svg="http://www.w3.org/2000/svg"
   xmlns="http://www.w3.org/2000/svg"
   xmlns:sodipodi="http://sodipodi.sourceforge.net/DTD/sodipodi-0.dtd"
   xmlns:inkscape="http://www.inkscape.org/namespaces/inkscape"
   version="1.1"
   id="svg2"
   xml:space="preserve"
   width="314.9848"
   height="258.4968"
   viewBox="0 0 314.9848 258.49679"
   sodipodi:docname="bode_ganho_K.svg"
   inkscape:version="0.92.3 (2405546, 2018-03-11)"><metadata
     id="metadata8"><rdf:RDF><cc:Work
         rdf:about=""><dc:format>image/svg+xml</dc:format><dc:type
           rdf:resource="http://purl.org/dc/dcmitype/StillImage" /><dc:title></dc:title></cc:Work></rdf:RDF></metadata><defs
     id="defs6"><inkscape:path-effect
       effect="spiro"
       id="path-effect1619"
       is_visible="true" /><clipPath
       clipPathUnits="userSpaceOnUse"
       id="clipPath42"><path
         d="m 269.221,446.325 h 96 v 23.157 h -96 z"
         id="path40"
         inkscape:connector-curvature="0" /></clipPath><clipPath
       clipPathUnits="userSpaceOnUse"
       id="clipPath112"><path
         d="M 256.924,395.282 H 377.518 V 418.47 H 256.924 Z"
         id="path110"
         inkscape:connector-curvature="0" /></clipPath><clipPath
       clipPathUnits="userSpaceOnUse"
       id="clipPath568"><path
         d="M 213.111,529.54 H 449.676 V 726.634 H 213.111 Z"
         id="path566"
         inkscape:connector-curvature="0" /></clipPath><clipPath
       clipPathUnits="userSpaceOnUse"
       id="clipPath586"><path
         d="M 213.111,529.54 H 449.676 V 726.634 H 213.111 Z"
         id="path584"
         inkscape:connector-curvature="0" /></clipPath><clipPath
       clipPathUnits="userSpaceOnUse"
       id="clipPath632"><path
         d="M 0,0 H 623.102 V 821.528 H 0 Z"
         id="path630"
         inkscape:connector-curvature="0" /></clipPath><clipPath
       clipPathUnits="userSpaceOnUse"
       id="clipPath728"><path
         d="M 0,0 H 623.102 V 821.528 H 0 Z"
         id="path726"
         inkscape:connector-curvature="0" /></clipPath></defs><sodipodi:namedview
     pagecolor="#ffffff"
     bordercolor="#666666"
     borderopacity="1"
     objecttolerance="10"
     gridtolerance="10"
     guidetolerance="10"
     inkscape:pageopacity="0"
     inkscape:pageshadow="2"
     inkscape:window-width="1316"
     inkscape:window-height="728"
     id="namedview4"
     showgrid="false"
     fit-margin-top="0"
     fit-margin-left="0"
     fit-margin-right="0"
     fit-margin-bottom="0"
     inkscape:zoom="1.442513"
     inkscape:cx="88.124752"
     inkscape:cy="110.29661"
     inkscape:window-x="50"
     inkscape:window-y="0"
     inkscape:window-maximized="1"
     inkscape:current-layer="g558" /><g
     id="g10"
     inkscape:groupmode="layer"
     inkscape:label="engenharia-de-controle-moderno-v2"
     transform="matrix(1.3333333,0,0,-1.3333333,-284.84213,967.71398)"><path
       d="M 445.207,553.327 H 243.109 v 169.896 h 202.098 z"
       style="fill:none;stroke:#231f20;stroke-width:0.80000001;stroke-linecap:butt;stroke-linejoin:miter;stroke-miterlimit:4;stroke-dasharray:none;stroke-opacity:1"
       id="path540"
       inkscape:connector-curvature="0" /><g
       id="g542"
       transform="translate(377.8422,723.2233)"><path
         d="M 0,0 V -169.896 M -67.368,0 v -169.896 m 128.206,0 V 0 M 52.424,-169.896 V 0 M 47.088,-169.896 V 0 M 40.561,-169.896 V 0 m -8.42,-169.896 V 0 M 20.277,-169.896 V 0 M -6.527,-169.896 V 0 m -8.414,-169.896 V 0 m -5.335,-169.896 V 0 m -6.529,-169.896 V 0 m -8.421,-169.896 V 0 M -47.088,-169.896 V 0 M -73.896,-169.896 V 0 M -82.31,-169.896 V 0 m -5.335,-169.896 V 0 m -6.527,-169.896 V 0 m -8.421,-169.896 V 0 m -11.863,-169.896 V 0"
         style="fill:none;stroke:#231f20;stroke-width:0.5;stroke-linecap:round;stroke-linejoin:miter;stroke-miterlimit:4;stroke-dasharray:0.1, 1;stroke-dashoffset:0;stroke-opacity:1"
         id="path544"
         inkscape:connector-curvature="0" /></g><g
       id="g546"
       transform="translate(442.1232,553.3269)"><path
         d="M 0,0 V 3.599 M -3.443,0 V 3.599 M -7.349,0 V 3.599 M -11.857,0 V 3.599 M -17.192,0 V 3.599 M -23.72,0 V 3.599 M -32.14,0 V 3.599 M -44.004,0 V 3.599 M -67.365,0 v 3.599 m 3.085,2.412 V 0 m -6.527,0 V 3.599 M -74.715,0 V 3.599 M -79.221,0 V 3.599 M -84.557,0 V 3.599 M -91.084,0 V 3.599 M -99.506,0 V 3.599 M -111.368,0 V 3.599 M -134.733,0 v 3.599 m 3.085,2.412 V 0 m -6.528,0 V 3.599 M -142.082,0 V 3.599 M -146.59,0 V 3.599 M -151.925,0 V 3.599 M -158.452,0 V 3.599 M -166.873,0 V 3.599 M -178.736,0 V 3.599 M -52.298,0 V 3.599 M -119.662,0 V 3.599 M -187.031,0 v 3.599"
         style="fill:none;stroke:#231f20;stroke-width:0.40000001;stroke-linecap:butt;stroke-linejoin:miter;stroke-miterlimit:4;stroke-dasharray:none;stroke-opacity:1"
         id="path548"
         inkscape:connector-curvature="0" /></g><g
       id="g550"
       transform="translate(243.1312,694.8937)"><path
         d="m 0,0 h 202.076 m 0,-28.333 H -0.022 M 0,-56.663 h 202.076 m 0,-28.332 H -0.022 M 0,-113.325 h 202.076"
         style="fill:none;stroke:#231f20;stroke-width:0.5;stroke-linecap:round;stroke-linejoin:miter;stroke-miterlimit:4;stroke-dasharray:0.1, 1;stroke-dashoffset:0;stroke-opacity:1"
         id="path552"
         inkscape:connector-curvature="0" /></g><g
       id="g554"
       transform="translate(243.1312,694.8937)"><path
         d="m 0,0 h 5.984 m 0,-28.333 h -6.01 M 0,-56.663 h 5.984 m 0,-28.333 h -6.01 M 0,-113.325 h 5.984"
         style="fill:none;stroke:#231f20;stroke-width:0.40000001;stroke-linecap:butt;stroke-linejoin:miter;stroke-miterlimit:4;stroke-dasharray:none;stroke-opacity:1"
         id="path556"
         inkscape:connector-curvature="0" /></g><g
       id="g558"
       transform="translate(243.1092,553.3269)"><path
         d="M 0,0 71.800943,60.360286 202.098,169.896"
         style="fill:#66ff00;stroke:#5fbcd3;stroke-width:0.80025002;stroke-linecap:butt;stroke-linejoin:miter;stroke-miterlimit:4;stroke-dasharray:none;stroke-opacity:1"
         id="path560"
         inkscape:connector-curvature="0"
         sodipodi:nodetypes="ccc" /></g><g
       id="g562"><g
         id="g564"
         clip-path="url(#clipPath568)"><text
           transform="matrix(0,1,1,0,219.7596,615.949)"
           style="font-variant:normal;font-weight:normal;font-stretch:normal;font-size:8px;font-family:'BMDHH D +Times New Roman PSMT';-inkscape-font-specification:TimesNewRomanPSMT;writing-mode:lr-tb;fill:#231f20;fill-opacity:1;fill-rule:nonzero;stroke:none"
           id="text572"><tspan
             sodipodi:role="line"
             id="tspan570"
             x="0"
             y="0"
             style="font-style:normal;font-variant:normal;font-weight:normal;font-stretch:normal;font-family:'Times New Roman';-inkscape-font-specification:'Times New Roman, '">20log <tspan
   style="font-style:italic"
   id="tspan1625">K</tspan></tspan></text>
</g></g><text
       transform="matrix(1,0,0,-1,329.4942,531.9929)"
       style="font-variant:normal;font-weight:normal;font-stretch:normal;font-size:8px;font-family:'BMDHH D +Times New Roman PSMT';-inkscape-font-specification:TimesNewRomanPSMT;writing-mode:lr-tb;fill:#231f20;fill-opacity:1;fill-rule:nonzero;stroke:none"
       id="text578"><tspan
         x="-93.384003 -89.384003 -87.384003 -83.384003 -73.103996 -69.103996 -67.103996 -63.104 -52.824001 -48.824001 -46.824001 -42.824001 -24.016001 -20.016001 -18.016001 -3.7360001 0.264 2.2639999 16.552 20.552 22.552 28.416 32.416 34.416 46.360001 66.639999 78.496002 86.919998 92.688004 98.776001 106.44 112.192 116.192"
         y="-10.664"
         sodipodi:role="line"
         id="tspan576">0,010,020,040,10,20,40,6123456810</tspan></text>
<g
       id="g580"><g
         id="g582"
         clip-path="url(#clipPath586)"><text
           transform="matrix(1,0,0,-1,230.1092,719.9855)"
           style="font-variant:normal;font-weight:normal;font-stretch:normal;font-size:8px;font-family:'BMDHH D +Times New Roman PSMT';-inkscape-font-specification:TimesNewRomanPSMT;writing-mode:lr-tb;fill:#231f20;fill-opacity:1;fill-rule:nonzero;stroke:none"
           id="text590"><tspan
             x="0 4"
             y="0"
             sodipodi:role="line"
             id="tspan588">20</tspan></text>
</g></g><text
       transform="matrix(1,0,0,-1,230.1312,691.6559)"
       style="font-variant:normal;font-weight:normal;font-stretch:normal;font-size:8px;font-family:'BMDHH D +Times New Roman PSMT';-inkscape-font-specification:TimesNewRomanPSMT;writing-mode:lr-tb;fill:#231f20;fill-opacity:1;fill-rule:nonzero;stroke:none"
       id="text604"><tspan
         x="0 4"
         y="0"
         sodipodi:role="line"
         id="tspan592">10</tspan><tspan
         x="3.9760001"
         y="28.336"
         id="tspan594">0</tspan><tspan
         x="-4 0 4"
         y="56.664001"
         sodipodi:role="line"
         id="tspan596">–10</tspan><tspan
         x="-4.0240002 -0.024 3.9760001"
         y="85"
         sodipodi:role="line"
         id="tspan598">–20</tspan><tspan
         x="-4 0 4"
         y="113.328"
         sodipodi:role="line"
         id="tspan600">–30</tspan><tspan
         x="-4.0240002 -0.024 3.9760001"
         y="138.328"
         sodipodi:role="line"
         id="tspan602">–40</tspan></text>
<text
       xml:space="preserve"
       style="font-style:italic;font-variant:normal;font-weight:normal;font-stretch:normal;font-size:10px;line-height:1.25;font-family:'Times New Roman';-inkscape-font-specification:'Times New Roman, Italic';text-align:center;letter-spacing:0px;word-spacing:0px;text-anchor:middle;fill:#000000;fill-opacity:1;stroke:none;stroke-width:0.75"
       x="346.98999"
       y="-533.7511"
       id="text1615"
       transform="scale(1,-1)"><tspan
         sodipodi:role="line"
         id="tspan1613"
         x="346.98999"
         y="-533.7511"
         style="stroke-width:0.75">K</tspan></text>
<path
       style="fill:none;stroke:#000000;stroke-width:0.75px;stroke-linecap:butt;stroke-linejoin:miter;stroke-opacity:1"
       d="M 243.109,553.32699 H 445.207"
       id="path1617"
       inkscape:connector-curvature="0"
       inkscape:path-effect="#path-effect1619"
       inkscape:original-d="m 243.109,553.32699 c 67.36675,7.5e-4 134.73275,7.5e-4 202.098,0" /></g></svg>