<svg xmlns="http://www.w3.org/2000/svg" xmlns:xlink="http://www.w3.org/1999/xlink" xmlns:lucid="lucid" width="1584.02" height="385.45"><g transform="translate(-1082 -560)" lucid:page-tab-id="0_0"><path d="M2061.16 580h240v180h-240z" stroke="#000" stroke-width="6" fill="#83bbe5"/><use xlink:href="#a" transform="matrix(1,0,0,1,2066.1644089624424,585) translate(65.13020833333331 103.46354166666666)"/><path d="M1680 590v160l171.16-80z" stroke="#000" stroke-width="6" fill="#ef8d22"/><path d="M1855.16 670h171.8" stroke="#000" stroke-width="8" fill="none"/><path d="M1855.27 674h-5.58l5.57-2.6zm0-5.4l-5.58-2.6h5.57z"/><path d="M2045.22 670l-14.27 4.64v-9.28z" stroke="#000" stroke-width="8"/><path d="M1490 670c0 27.6-22.4 50-50 50s-50-22.4-50-50 22.4-50 50-50 50 22.4 50 50z" stroke="#000" stroke-width="6" fill="#ff8f80"/><path d="M1497 670h148.8" stroke="#000" stroke-width="8" fill="none"/><path d="M1497.1 674h-4.3l.2-3.98-.13-3.84-.02-.18h4.25z"/><path d="M1664.06 670l-14.27 4.64v-9.28z" stroke="#000" stroke-width="8"/><path d="M1127 670h228.8M1127.1 670h-4.1" stroke="#000" stroke-width="8" fill="none"/><path d="M1374.05 670l-14.26 4.64v-9.28z" stroke="#000" stroke-width="8"/><path d="M2308.16 670h265.65" stroke="#000" stroke-width="8" fill="none"/><path d="M2308.27 674h-4.1v-8h4.1z"/><path d="M2592.08 670l-14.27 4.64v-9.28z" stroke="#000" stroke-width="8"/><path d="M1440 754.2v146.25" stroke="#000" stroke-width="8" fill="none"/><path d="M1440 735.95l4.64 14.26h-9.28z" stroke="#000" stroke-width="8"/><path d="M1440 900.35v4.1" stroke="#000" stroke-width="8" fill="none"/><path d="M2397 670.5c0 5.5-4.48 10-10 10s-10-4.5-10-10c0-5.53 4.48-10 10-10s10 4.47 10 10z" stroke="#000" stroke-width="2"/><path d="M2450 608.07h111.06v58.33H2450z" fill="#fff" fill-opacity="0"/><path d="M2491.6 610.72v1.05c-1.9.66-2.43 1.3-4.6 4l-14.4 17.75-2.36 8.1c-1.5 5.18-1.97 6.95-1.97 8.33 0 1.64.92 2.24 3.48 2.43l2.37.2v1.05h-19v-1.05c4.34-.26 5.85-1.12 7.04-5.32l3.87-13.47-5-17.56c-.98-3.42-1.37-3.94-5.05-4.47v-1.05h15.7v1.05c-3.94.4-4.72.92-4.72 2.37 0 .98.78 3.87 2.36 9.46l2.04 7.23 2.56-3.02c6.9-8.14 9.8-12.22 9.8-14 0-1.1-.73-1.64-2.64-1.83l-1.9-.2v-1.05h12.42M2511.58 664.2l-.8 1.06c-10.37-5.9-16.03-17.02-16.03-28.2 0-12.15 5.72-21.6 16.24-27.85l.58 1.06c-9.14 7.82-11.17 13.93-11.17 26.6 0 12.24 1.98 19.66 11.18 27.35M2537.6 624.6l-1.3 9.2h-1.06c-.66-5.47-2.63-7.64-5.85-7.64-2.3 0-3.9 1.32-3.9 3.75 0 1.78 1 3.7 3.56 6.7 3.28 3.82 4.47 6.4 4.47 8.95 0 5.45-4 8.8-9.47 8.8-1.1 0-2.1-.06-3.6-.65-1.26-.53-2.18-.6-2.9-.6-.73 0-1.45.33-1.9 1.4h-1.06l1.3-10.46h1.07c.92 6.24 3.15 8.93 6.57 8.93 3.1 0 5-1.84 5-5.06 0-2.1-1.13-4.32-3.7-7.54-2.8-3.55-4.13-6.5-4.13-8.6 0-4.35 3.1-7.1 7.96-7.1 1.12 0 2.04.2 3.68.65 1.25.4 1.84.47 2.37.47 1 0 1.46-.26 1.98-1.18h.92M2541.02 610.26l.8-1.05c10.04 6.05 16.02 17.03 16.02 28.2 0 12.16-5.78 21.5-16.23 27.86l-.58-1.05c9.33-7.68 11.17-13.85 11.17-26.6 0-12.3-1.65-19.85-11.18-27.34"/><path d="M1713 637.23h59.23v66.52H1713z" fill="#fff" fill-opacity="0"/><path d="M1743.3 655.12v1.05c-3.1.2-5.13 1.5-14.8 10.12l2.44 5.78c2.56 6.04 4.08 8.47 5.32 8.47 1 0 1.78-.72 2.96-2.76.33-.53.66-1.12 1-1.72l.97.73c-3.03 5.53-4.67 7.17-7.3 7.17-1.9 0-3.22-1.25-5.33-5.4-1.18-2.3-2.9-6.36-3.94-9.25l-2.63 2.1-3.15 11.83h-4.93l9.27-34.7c.84-3.16 1.04-4.67 1.17-5.78-.13-1.2-1.12-1.58-3.35-1.58h-1.2v-1.06c3.9-.46 6.45-.92 10.33-1.78l.4.4-7.9 29.96 2.84-2.16c6.16-4.74 9.38-7.9 9.38-9.2 0-.73-.78-1.2-2.43-1.2h-.92v-1.04h11.77M1752.17 673.26l-1.34 4.64c2.5-3.76 5.15-5.25 7.94-5.25 3.44 0 5.35 2.2 5.35 5.8 0 7.68-7.02 15.2-13.8 15.2-1.07 0-2.05-.18-3.2-.78-.8 3.25-1.87 7.06-1.87 7.7 0 1.03.7 1.36 2.88 1.36v.74h-9.43v-.74c2-.05 2.6-.74 3.16-2.93l5.34-20.07c.5-1.86.74-3.07.74-3.3 0-1.12-1.3-1.26-2.04-1.26h-1.02l-.1-.7 7.25-1.02c.14 0 .24.1.24.2l-.1.4m7.76 5.35c0-2.65-.8-3.95-2.88-3.95-2.46 0-5.2 2.5-6.27 5.3-1.35 3.48-3.02 9.48-3.02 11.06 0 1.03.93 1.77 2.23 1.77 2.45 0 4.68-1.53 6.73-4.4 2.23-3.12 3.2-6.52 3.2-9.77"/><path d="M1353 682h30.9v28.07H1353z" fill="#fff" fill-opacity="0"/><path d="M1381.68 697.52h-11.77v11.77h-2.97V697.5h-11.77v-2.97h11.77v-11.77h2.98v11.77h11.78v2.97"/><path d="M1459.1 731.93h30.9v14.4h-30.9z" fill="#fff" fill-opacity="0"/><path d="M1487.1 735.68h-25.13v-2.97h25.12v2.98"/><path d="M1443.5 900H2387V685M1443.6 900h-3.6" stroke="#000" stroke-width="7" fill="none"/><path d="M2390.5 685.1h-7v-4.17h.02l3.48.57 3.48-.56h.02z"/><path d="M1140 608.07h110.44v58.33H1140z" fill="#fff" fill-opacity="0"/><path d="M1149.5 610.72h16.56c8.67 0 13.4 3.68 13.4 9.26 0 3.16-1.64 6.38-4.33 8.42-2.04 1.57-4.2 2.36-8.6 3.35l5.84 15.44c1.44 3.87 2.76 5.38 5.7 5.38v1.05h-9.65l-8.08-21.3-4.34-.32-3.6 13.35c-.74 2.56-.87 3.48-.87 4.14 0 1.96.66 2.7 4.4 3.08v1.05h-15.96v-1.05c3.6-.46 4.53-1.7 5.58-5.6l7.82-28.3c.46-1.78.8-3.03.8-4.15 0-.72-.47-1.5-.93-1.84-.72-.47-.98-.54-3.74-.93v-1.05m11.43 3.94l-4.14 14.92c1.63.26 2.16.33 3.34.33 7.82 0 12.42-3.74 12.42-9.85 0-4.53-2.76-7.36-7.88-7.36-2.04 0-3.42.7-3.75 1.96M1200.95 664.2l-.8 1.06c-10.37-5.9-16.02-17.02-16.02-28.2 0-12.15 5.72-21.6 16.23-27.85l.6 1.06c-9.14 7.82-11.18 13.93-11.18 26.6 0 12.24 1.97 19.66 11.17 27.35M1226.98 624.6l-1.32 9.2h-1.05c-.65-5.47-2.62-7.64-5.84-7.64-2.3 0-3.88 1.32-3.88 3.75 0 1.78 1 3.7 3.55 6.7 3.3 3.82 4.47 6.4 4.47 8.95 0 5.45-4 8.8-9.46 8.8-1.12 0-2.1-.06-3.62-.65-1.24-.53-2.16-.6-2.9-.6-.7 0-1.43.33-1.9 1.4H1204l1.3-10.46h1.06c.92 6.24 3.16 8.93 6.57 8.93 3.1 0 5-1.84 5-5.06 0-2.1-1.1-4.32-3.67-7.54-2.83-3.55-4.14-6.5-4.14-8.6 0-4.35 3.08-7.1 7.94-7.1 1.12 0 2.04.2 3.68.65 1.25.4 1.84.47 2.37.47.97 0 1.43-.26 1.96-1.18h.92M1230.4 610.26l.78-1.05c10.06 6.05 16.04 17.03 16.04 28.2 0 12.16-5.8 21.5-16.23 27.86l-.6-1.05c9.33-7.68 11.17-13.85 11.17-26.6 0-12.3-1.65-19.85-11.18-27.34"/><defs><path d="M1202-1100c1-171-90-275-258-274-169 0-314 88-434 262S330-733 330-496c0 267 132 400 395 400 77 0 154-10 231-29 24-127 60-250 76-383 7-59-66-86-166-82l19-86h545l-19 86c-120-2-161 48-182 148l-78 368c-145 63-299 94-463 94-362 0-582-194-582-548 0-516 374-955 881-955 136 0 242 21 318 62s114 94 114 159c0 108-103 164-217 162" id="b"/><path d="M469 168l-20 94C207 156 86-58 86-381c0-275 66-524 198-746s317-365 552-429l-21 92c-189 103-325 276-409 518S279-484 279-285c0 214 63 365 190 453" id="c"/><path d="M180-811c1-193 185-305 395-305 101 0 179 19 235 56s85 83 85 138c0 85-51 127-154 127 2-127-62-227-184-227-114 0-199 69-199 176 0 45 17 84 51 116s87 64 158 95c164 73 246 179 246 318-1 216-192 337-424 337C210 20 55-51 51-211c-2-83 51-135 129-135-2 160 80 268 234 268 147 0 221-63 221-190 0-49-16-90-47-124s-85-67-160-102c-98-46-164-94-198-144s-50-108-50-173" id="d"/><path d="M266-1446l21-94c241 105 362 320 362 643 0 277-67 527-200 749S133 216-100 279l20-93C109 84 246-90 330-334s127-464 127-659c0-213-64-364-191-453" id="e"/><g id="a"><use transform="matrix(0.026041666666666668,0,0,0.026041666666666668,0,0)" xlink:href="#b"/><use transform="matrix(0.026041666666666668,0,0,0.026041666666666668,38.07291666666667,0)" xlink:href="#c"/><use transform="matrix(0.026041666666666668,0,0,0.026041666666666668,56.53645833333335,0)" xlink:href="#d"/><use transform="matrix(0.026041666666666668,0,0,0.026041666666666668,81.27604166666669,0)" xlink:href="#e"/></g></defs></g></svg>