<?xml version="1.0" encoding="UTF-8" standalone="no"?>
<svg
   xmlns:dc="http://purl.org/dc/elements/1.1/"
   xmlns:cc="http://creativecommons.org/ns#"
   xmlns:rdf="http://www.w3.org/1999/02/22-rdf-syntax-ns#"
   xmlns:svg="http://www.w3.org/2000/svg"
   xmlns="http://www.w3.org/2000/svg"
   viewBox="0 0 426.66666 161.33333"
   height="161.33333"
   width="426.66666"
   xml:space="preserve"
   id="svg2"
   version="1.1"><metadata
     id="metadata8"><rdf:RDF><cc:Work
         rdf:about=""><dc:format>image/svg+xml</dc:format><dc:type
           rdf:resource="http://purl.org/dc/dcmitype/StillImage" /></cc:Work></rdf:RDF></metadata><defs
     id="defs6"><clipPath
       id="clipPath22"
       clipPathUnits="userSpaceOnUse"><path
         id="path20"
         d="M 0,8.87109 H 3123.83 V 1209.2611 H 0 Z" /></clipPath><clipPath
       id="clipPath34"
       clipPathUnits="userSpaceOnUse"><path
         id="path32"
         d="M 0,8.87109 H 3123.83 V 1209.2611 H 0 Z" /></clipPath><clipPath
       id="clipPath46"
       clipPathUnits="userSpaceOnUse"><path
         id="path44"
         d="M 0,8.87109 H 3123.83 V 1209.2611 H 0 Z" /></clipPath><clipPath
       id="clipPath56"
       clipPathUnits="userSpaceOnUse"><path
         id="path54"
         d="M 0,1209.26 H 3123.83 V 8.87109 L 0,8.87109 Z" /></clipPath><clipPath
       id="clipPath166"
       clipPathUnits="userSpaceOnUse"><path
         id="path164"
         d="M 0,8.87109 H 3123.83 V 1209.2611 H 0 Z" /></clipPath><clipPath
       id="clipPath178"
       clipPathUnits="userSpaceOnUse"><path
         id="path176"
         d="M 0,8.87109 H 3123.83 V 1209.2611 H 0 Z" /></clipPath><clipPath
       id="clipPath188"
       clipPathUnits="userSpaceOnUse"><path
         id="path186"
         d="M 0,1209.26 H 3123.83 V 8.87109 L 0,8.87109 Z" /></clipPath></defs><g
     transform="matrix(1.3333333,0,0,-1.3333333,0,161.33333)"
     id="g10"><g
       transform="scale(0.1)"
       id="g12"><path
         id="path14"
         style="fill:#cceffc;fill-opacity:1;fill-rule:nonzero;stroke:none"
         d="m 424.379,529.379 h 820.199 v 676.133 H 424.379 Z" /><g
         id="g16"><g
           clip-path="url(#clipPath22)"
           id="g18"><path
             id="path24"
             style="fill:none;stroke:#231f20;stroke-width:7.5;stroke-linecap:butt;stroke-linejoin:miter;stroke-miterlimit:4;stroke-dasharray:none;stroke-opacity:1"
             d="m 424.379,529.379 h 820.199 v 676.133 H 424.379 Z" /></g></g><path
         id="path26"
         style="fill:#d3d2d2;fill-opacity:1;fill-rule:nonzero;stroke:none"
         d="m 1244.57,529.379 h 539.57 v 676.133 h -539.57 z" /><g
         id="g28"><g
           clip-path="url(#clipPath34)"
           id="g30"><path
             id="path36"
             style="fill:none;stroke:#231f20;stroke-width:7.5;stroke-linecap:butt;stroke-linejoin:miter;stroke-miterlimit:4;stroke-dasharray:none;stroke-opacity:1"
             d="m 1244.57,529.379 h 539.57 v 676.133 h -539.57 z" /></g></g><path
         id="path38"
         style="fill:#cceffc;fill-opacity:1;fill-rule:nonzero;stroke:none"
         d="m 1784.14,529.379 h 826.211 v 676.133 H 1784.14 Z" /><g
         id="g40"><g
           clip-path="url(#clipPath46)"
           id="g42"><path
             id="path48"
             style="fill:none;stroke:#231f20;stroke-width:7.5;stroke-linecap:butt;stroke-linejoin:miter;stroke-miterlimit:4;stroke-dasharray:none;stroke-opacity:1"
             d="m 1784.14,529.379 h 826.211 v 676.133 H 1784.14 Z" /></g></g><g
         id="g50"><g
           clip-path="url(#clipPath56)"
           id="g52"><path
             id="path58"
             style="fill:none;stroke:#231f20;stroke-width:7.5;stroke-linecap:round;stroke-linejoin:miter;stroke-miterlimit:1;stroke-dasharray:none;stroke-opacity:1"
             d="m 2727.15,1046.05 c -16.21,2.15 -42.46,-0.39 -69.26,-9.45" /><path
             id="path60"
             style="fill:none;stroke:#231f20;stroke-width:7.5;stroke-linecap:round;stroke-linejoin:miter;stroke-miterlimit:4;stroke-dasharray:none;stroke-opacity:1"
             d="m 2710.9,1082.15 c -9.14,-13.56 -28.44,-31.49 -53.01,-45.55" /><path
             id="path62"
             style="fill:#231f20;fill-opacity:1;fill-rule:nonzero;stroke:none"
             d="m 2702.3,1048.71 c 0,0 -2.03,1.21 -0.15,2.89 2.5,2.23 6.6,2.62 8.05,4.1 1.17,1.25 -0.16,3.75 -0.16,3.75 0,0 -4.06,2.7 -7.38,1.76 -1.61,-0.47 -2.07,-0.55 -3.05,-0.59 -2.97,-0.15 -0.55,4.07 -0.55,4.07 l -16.36,-16.96 19.6,0.98" /><path
             id="path64"
             style="fill:none;stroke:#231f20;stroke-width:7.5;stroke-linecap:round;stroke-linejoin:miter;stroke-miterlimit:4;stroke-dasharray:none;stroke-opacity:1"
             d="m 2847.38,1108.95 c -73.9,-21.41 -163.9,-60.04 -189.49,-72.35" /><g
             transform="scale(10)"
             id="g66"><text
               id="text70"
               style="font-variant:normal;font-weight:normal;font-size:9px;font-family:TimesNewRomanPSMT;-inkscape-font-specification:TimesNewRomanPSMT;writing-mode:lr-tb;fill:#231f20;fill-opacity:1;fill-rule:nonzero;stroke:none"
               transform="matrix(1,0,0,-1,71.4535,99.3309)"><tspan
                 id="tspan68"
                 y="0"
                 x="0 2.5020001 5.0040002 9.5039997 14.004">tipo </tspan></text>
<text
               id="text74"
               style="font-style:italic;font-variant:normal;font-size:9px;font-family:TimesNewRomanPS;-inkscape-font-specification:TimesNewRomanPS-ItalicMT;writing-mode:lr-tb;fill:#231f20;fill-opacity:1;fill-rule:nonzero;stroke:none"
               transform="matrix(1,0,0,-1,87.7047,99.3309)"><tspan
                 id="tspan72"
                 y="0"
                 x="0">p</tspan></text>
<text
               id="text78"
               style="font-variant:normal;font-weight:normal;font-size:9px;font-family:TimesNewRomanPSMT;-inkscape-font-specification:TimesNewRomanPSMT;writing-mode:lr-tb;fill:#231f20;fill-opacity:1;fill-rule:nonzero;stroke:none"
               transform="matrix(1,0,0,-1,210.5167,99.3309)"><tspan
                 id="tspan76"
                 y="0"
                 x="0 2.5020001 5.0040002 9.5039997 14.004">tipo </tspan></text>
<text
               id="text82"
               style="font-style:italic;font-variant:normal;font-size:9px;font-family:TimesNewRomanPS;-inkscape-font-specification:TimesNewRomanPS-ItalicMT;writing-mode:lr-tb;fill:#231f20;fill-opacity:1;fill-rule:nonzero;stroke:none"
               transform="matrix(1,0,0,-1,226.7679,99.3309)"><tspan
                 id="tspan80"
                 y="0"
                 x="0">p</tspan></text>
<text
               id="text108"
               style="font-variant:normal;font-weight:normal;font-size:9px;font-family:TimesNewRomanPSMT;-inkscape-font-specification:TimesNewRomanPSMT;writing-mode:lr-tb;fill:#231f20;fill-opacity:1;fill-rule:nonzero;stroke:none"
               transform="matrix(1,0,0,-1,70.8449,82.1204)"><tspan
                 id="tspan84"
                 y="0"
                 x="0 6.0029998 9.9989996 14.499 17.000999 20.997">Região</tspan><tspan
                 id="tspan86"
                 y="11.4504"
                 x="-6.8730502 -2.37305 2.12695 4.3769498 8.3729496 15.37495 17.876949 21.377951 24.87895 29.37895">do emissor</tspan><tspan
                 id="tspan88"
                 y="51.492599"
                 x="10.31175 13.81275 18.31275 22.81275 26.80875 30.80475">Junção</tspan><tspan
                 id="tspan90"
                 y="62.943001"
                 x="-0.68355 3.8164501 7.8124499 11.31345 15.30945 18.30645 22.30245 29.304449 31.80645 35.307449 38.781303 43.281303">base-emissor</tspan><tspan
                 id="tspan92"
                 y="74.392998"
                 x="12.28915 15.28615 18.787149 24.79015 30.28915">(JBE)</tspan><tspan
                 id="tspan94"
                 y="51.492599"
                 x="123.05215 126.55315 131.05315 135.55315 139.54915 143.54515">Junção</tspan><tspan
                 id="tspan96"
                 y="62.943001"
                 x="113.55996 118.05996 122.05596 125.55696 129.55296 132.54996 136.54596 141.04596 143.54796 147.54396 150.04596 154.54596">base-coletor</tspan><tspan
                 id="tspan98"
                 y="74.392998"
                 x="124.77476 127.77176 131.27277 137.27576 143.27876">(JBC)</tspan><tspan
                 id="tspan100"
                 y="6.6645002"
                 x="204.70287 210.70586 215.20586 217.70786 221.70386 224.20586 228.70586">Coletor</tspan><tspan
                 id="tspan102"
                 y="17.4692"
                 x="215.45245 218.44946 224.45245">(C)</tspan><tspan
                 id="tspan104"
                 y="5.9067001"
                 x="-70.953537 -65.454536 -58.452541 -55.950539 -52.449539 -48.94854 -44.44854">Emissor</tspan><tspan
                 id="tspan106"
                 y="16.704"
                 x="-63.195728 -60.19873 -54.69973">(E)</tspan></text>
</g></g></g><g
         transform="scale(10)"
         id="g110"><text
           id="text122"
           style="font-variant:normal;font-weight:normal;font-size:9px;font-family:TimesNewRomanPSMT;-inkscape-font-specification:TimesNewRomanPSMT;writing-mode:lr-tb;fill:#231f20;fill-opacity:1;fill-rule:nonzero;stroke:none"
           transform="matrix(1,0,0,-1,288.027,114.071)"><tspan
             id="tspan112"
             y="0"
             x="0 6.0029998 10.503 15.003 17.504999 21.500999 24.003">Contato</tspan><tspan
             id="tspan114"
             y="11.45"
             x="0 8.0010004 11.997 14.499 18.495001 20.997 23.471851 27.467852">Metálico</tspan><tspan
             id="tspan116"
             y="31.9508"
             x="-79.393402 -73.390404 -69.394402 -64.894402 -62.392399 -58.3964">Região</tspan><tspan
             id="tspan118"
             y="43.400799"
             x="-84.763321 -80.263321 -75.763321 -73.513321 -69.517319 -65.017319 -62.51532 -58.519321 -56.017319 -51.517319">do coletor</tspan><tspan
             id="tspan120"
             y="14.7399"
             x="-146.33871 -143.83672 -141.33472 -136.83472 -132.33472">tipo </tspan></text>
<text
           id="text126"
           style="font-style:italic;font-variant:normal;font-size:9px;font-family:TimesNewRomanPS;-inkscape-font-specification:TimesNewRomanPS-ItalicMT;writing-mode:lr-tb;fill:#231f20;fill-opacity:1;fill-rule:nonzero;stroke:none"
           transform="matrix(1,0,0,-1,157.93948,99.3311)"><tspan
             id="tspan124"
             y="0"
             x="0">n</tspan></text>
<text
           id="text136"
           style="font-variant:normal;font-weight:normal;font-size:9px;font-family:TimesNewRomanPSMT;-inkscape-font-specification:TimesNewRomanPSMT;writing-mode:lr-tb;fill:#231f20;fill-opacity:1;fill-rule:nonzero;stroke:none"
           transform="matrix(1,0,0,-1,139.89808,82.1202)"><tspan
             id="tspan128"
             y="0"
             x="0 6.0029998 9.9989996 14.499 17.000999 20.997">Região</tspan><tspan
             id="tspan130"
             y="11.45"
             x="-0.61523402 3.8847661 7.8807659 10.130766 14.630766 18.626766 22.127766">da base</tspan><tspan
             id="tspan132"
             y="68.476196"
             x="4.0867162 10.089716 14.085716 17.586716">Base</tspan><tspan
             id="tspan134"
             y="79.265701"
             x="6.8371062 9.8341064 15.837106">(B)</tspan></text>
</g><path
         id="path138"
         style="fill:none;stroke:#ffffff;stroke-width:7.5;stroke-linecap:round;stroke-linejoin:miter;stroke-miterlimit:1;stroke-dasharray:none;stroke-opacity:1"
         d="m 1174.61,577.969 c 9.22,13.48 28.59,31.371 53.2,45.269" /><path
         id="path140"
         style="fill:none;stroke:#ffffff;stroke-width:7.5;stroke-linecap:round;stroke-linejoin:miter;stroke-miterlimit:4;stroke-dasharray:none;stroke-opacity:1"
         d="m 1158.55,614.102 c 16.18,-2.192 42.43,0.238 69.26,9.136" /><path
         id="path142"
         style="fill:none;stroke:#231f20;stroke-width:7.5;stroke-linecap:round;stroke-linejoin:miter;stroke-miterlimit:1;stroke-dasharray:none;stroke-opacity:1"
         d="m 1174.61,577.969 c 9.22,13.48 28.59,31.371 53.2,45.269" /><path
         id="path144"
         style="fill:none;stroke:#231f20;stroke-width:7.5;stroke-linecap:round;stroke-linejoin:miter;stroke-miterlimit:4;stroke-dasharray:none;stroke-opacity:1"
         d="m 1158.55,614.102 c 16.18,-2.192 42.43,0.238 69.26,9.136" /><path
         id="path146"
         style="fill:none;stroke:#231f20;stroke-width:7.5;stroke-linecap:butt;stroke-linejoin:miter;stroke-miterlimit:4;stroke-dasharray:none;stroke-opacity:1"
         d="m 951.48,388.441 c 0,0 89.42,173.239 255.9,225.387" /><path
         id="path148"
         style="fill:none;stroke:#ffffff;stroke-width:7.5;stroke-linecap:round;stroke-linejoin:miter;stroke-miterlimit:1;stroke-dasharray:none;stroke-opacity:1"
         d="m 1854.1,577.969 c -9.22,13.48 -28.55,31.371 -53.16,45.269" /><path
         id="path150"
         style="fill:none;stroke:#ffffff;stroke-width:7.5;stroke-linecap:round;stroke-linejoin:miter;stroke-miterlimit:4;stroke-dasharray:none;stroke-opacity:1"
         d="m 1870.2,614.102 c -16.22,-2.192 -42.47,0.238 -69.26,9.136" /><path
         id="path152"
         style="fill:none;stroke:#231f20;stroke-width:7.5;stroke-linecap:round;stroke-linejoin:miter;stroke-miterlimit:1;stroke-dasharray:none;stroke-opacity:1"
         d="m 1854.1,577.969 c -9.22,13.48 -28.55,31.371 -53.16,45.269" /><path
         id="path154"
         style="fill:none;stroke:#231f20;stroke-width:7.5;stroke-linecap:round;stroke-linejoin:miter;stroke-miterlimit:4;stroke-dasharray:none;stroke-opacity:1"
         d="m 1870.2,614.102 c -16.22,-2.192 -42.47,0.238 -69.26,9.136" /><path
         id="path156"
         style="fill:none;stroke:#231f20;stroke-width:7.5;stroke-linecap:butt;stroke-linejoin:miter;stroke-miterlimit:4;stroke-dasharray:none;stroke-opacity:1"
         d="m 2077.27,388.441 c 0,0 -89.42,173.239 -255.9,225.387" /><path
         id="path158"
         style="fill:#231f20;fill-opacity:1;fill-rule:nonzero;stroke:none"
         d="m 2610.35,529.379 h 39.4492 v 676.133 H 2610.35 Z" /><g
         id="g160"><g
           clip-path="url(#clipPath166)"
           id="g162"><path
             id="path168"
             style="fill:none;stroke:#231f20;stroke-width:7.5;stroke-linecap:butt;stroke-linejoin:miter;stroke-miterlimit:4;stroke-dasharray:none;stroke-opacity:1"
             d="m 2610.35,529.379 h 39.4492 v 676.133 H 2610.35 Z" /></g></g><path
         id="path170"
         style="fill:#231f20;fill-opacity:1;fill-rule:nonzero;stroke:none"
         d="m 384.922,529.379 h 39.4492 v 676.133 H 384.922 Z" /><g
         id="g172"><g
           clip-path="url(#clipPath178)"
           id="g174"><path
             id="path180"
             style="fill:none;stroke:#231f20;stroke-width:7.5;stroke-linecap:butt;stroke-linejoin:miter;stroke-miterlimit:4;stroke-dasharray:none;stroke-opacity:1"
             d="m 384.922,529.379 h 39.4492 v 676.133 H 384.922 Z" /></g></g><g
         id="g182"><g
           clip-path="url(#clipPath188)"
           id="g184"><path
             id="path190"
             style="fill:#231f20;fill-opacity:1;fill-rule:nonzero;stroke:none"
             d="m 1339.41,486.371 h 349.918 v 43.0078 H 1339.41 Z" /><path
             id="path192"
             style="fill:none;stroke:#231f20;stroke-width:7.5;stroke-linecap:butt;stroke-linejoin:miter;stroke-miterlimit:4;stroke-dasharray:none;stroke-opacity:1"
             d="m 115.66,885.27 c -9.84,0 -17.8084,-7.969 -17.8084,-17.848 0,-9.801 7.9684,-17.813 17.8084,-17.813 9.852,0 17.86,8.012 17.86,17.813 0,9.879 -8.008,17.848 -17.86,17.848 z M 379.961,867.422 H 133.52 m 2779.53,17.848 c 9.84,0 17.85,-7.969 17.85,-17.848 0,-9.801 -8.01,-17.813 -17.85,-17.813 -9.85,0 -17.82,8.012 -17.82,17.813 0,9.879 7.97,17.848 17.82,17.848 z m -264.3,-17.848 h 246.48 M 1532.19,243.59 c 0,-9.84 -7.97,-17.809 -17.81,-17.809 -9.85,0 -17.86,7.969 -17.86,17.809 0,9.851 8.01,17.82 17.86,17.82 9.84,0 17.81,-7.969 17.81,-17.82 z m -17.81,264.301 V 261.41 m 174.96,224.961 h -349.93 v 43.008 h 349.93 z" /></g></g></g></g></svg>